G04 #@! TF.GenerationSoftware,KiCad,Pcbnew,(5.99.0-6951-g72beaf1538)*
G04 #@! TF.CreationDate,2020-12-06T23:29:21+11:00*
G04 #@! TF.ProjectId,MCP39F511_Breakout,4d435033-3946-4353-9131-5f427265616b,rev?*
G04 #@! TF.SameCoordinates,Original*
G04 #@! TF.FileFunction,Copper,L2,Bot*
G04 #@! TF.FilePolarity,Positive*
%FSLAX46Y46*%
G04 Gerber Fmt 4.6, Leading zero omitted, Abs format (unit mm)*
G04 Created by KiCad (PCBNEW (5.99.0-6951-g72beaf1538)) date 2020-12-06 23:29:21*
%MOMM*%
%LPD*%
G01*
G04 APERTURE LIST*
G04 #@! TA.AperFunction,ComponentPad*
%ADD10R,1.700000X1.700000*%
G04 #@! TD*
G04 #@! TA.AperFunction,ComponentPad*
%ADD11O,1.700000X1.700000*%
G04 #@! TD*
G04 #@! TA.AperFunction,SMDPad,CuDef*
%ADD12C,2.000000*%
G04 #@! TD*
G04 #@! TA.AperFunction,ViaPad*
%ADD13C,0.800000*%
G04 #@! TD*
G04 #@! TA.AperFunction,Conductor*
%ADD14C,0.250000*%
G04 #@! TD*
G04 APERTURE END LIST*
D10*
X116840000Y-116840000D03*
D11*
X119380000Y-116840000D03*
X121920000Y-116840000D03*
X124460000Y-116840000D03*
X127000000Y-116840000D03*
X129540000Y-116840000D03*
X132080000Y-116840000D03*
X134620000Y-116840000D03*
X137160000Y-116840000D03*
X139700000Y-116840000D03*
D12*
X138430000Y-101360000D03*
X142480000Y-105410000D03*
X138430000Y-105410000D03*
X142480000Y-101360000D03*
D13*
X131053001Y-109599320D03*
X122883000Y-111478800D03*
X133325507Y-100909234D03*
X120661900Y-112242500D03*
X133533960Y-102028640D03*
X123759608Y-100693461D03*
X128729800Y-108278500D03*
X126668635Y-97831129D03*
X124333000Y-99695000D03*
X132461000Y-103886000D03*
X130921819Y-98143935D03*
X123471895Y-101888948D03*
X129322990Y-105348649D03*
X144780000Y-100330000D03*
X123190000Y-91440000D03*
X111760000Y-100330000D03*
X128270000Y-91440000D03*
X111760000Y-107950000D03*
X111760000Y-113030000D03*
X111760000Y-95250000D03*
X111760000Y-110490000D03*
X120650000Y-91440000D03*
X144780000Y-105410000D03*
X115570000Y-91440000D03*
X144780000Y-107950000D03*
X144780000Y-113030000D03*
X144780000Y-102870000D03*
X125730000Y-91440000D03*
X144780000Y-110490000D03*
X111760000Y-102870000D03*
X140970000Y-91440000D03*
X130810000Y-91440000D03*
X138430000Y-91440000D03*
X111760000Y-97790000D03*
X133350000Y-91440000D03*
X118110000Y-91440000D03*
X144780000Y-95250000D03*
X135890000Y-91440000D03*
X111760000Y-105410000D03*
X144780000Y-97790000D03*
X139660200Y-109030800D03*
X124382548Y-101475746D03*
X130276118Y-110324330D03*
X124460000Y-106781500D03*
X128821800Y-95750500D03*
D14*
X129852323Y-109599320D02*
X131053001Y-109599320D01*
X127000000Y-116840000D02*
X127000000Y-112451643D01*
X127000000Y-112451643D02*
X129852323Y-109599320D01*
X120358100Y-113012100D02*
X119927900Y-112581900D01*
X132662056Y-100909234D02*
X133325507Y-100909234D01*
X119927900Y-102390687D02*
X123798599Y-98519988D01*
X123798599Y-98519988D02*
X124867401Y-98519988D01*
X124867401Y-98519988D02*
X125015391Y-98667978D01*
X122883000Y-111478800D02*
X121349700Y-113012100D01*
X119927900Y-112581900D02*
X119927900Y-102390687D01*
X125015391Y-98667978D02*
X130420800Y-98667978D01*
X130420800Y-98667978D02*
X132662056Y-100909234D01*
X121349700Y-113012100D02*
X120358100Y-113012100D01*
X124681001Y-98969999D02*
X124828991Y-99117989D01*
X120661900Y-112242500D02*
X120661900Y-102293098D01*
X124828991Y-99117989D02*
X130234400Y-99117989D01*
X133145050Y-102028640D02*
X133533960Y-102028640D01*
X123984999Y-98969999D02*
X124681001Y-98969999D01*
X130234400Y-99117989D02*
X133145050Y-102028640D01*
X120661900Y-102293098D02*
X123984999Y-98969999D01*
X122746893Y-102295593D02*
X122746893Y-101557751D01*
X123611183Y-100693461D02*
X123759608Y-100693461D01*
X122746893Y-101557751D02*
X123611183Y-100693461D01*
X128729800Y-108278500D02*
X122746893Y-102295593D01*
X127080830Y-97418934D02*
X126668635Y-97831129D01*
X138538934Y-97418934D02*
X127080830Y-97418934D01*
X142480000Y-101360000D02*
X138538934Y-97418934D01*
X141154999Y-104084999D02*
X134564999Y-104084999D01*
X134564999Y-104084999D02*
X130175000Y-99695000D01*
X130175000Y-99695000D02*
X124333000Y-99695000D01*
X142480000Y-105410000D02*
X141154999Y-104084999D01*
X138430000Y-105410000D02*
X133985000Y-105410000D01*
X133985000Y-105410000D02*
X132461000Y-103886000D01*
X138430000Y-101360000D02*
X135213935Y-98143935D01*
X135213935Y-98143935D02*
X130921819Y-98143935D01*
X123471895Y-101888948D02*
X126931596Y-105348649D01*
X126931596Y-105348649D02*
X129322990Y-105348649D01*
X137160000Y-111531000D02*
X139660200Y-109030800D01*
X137160000Y-116840000D02*
X137160000Y-111531000D01*
X127030026Y-101475746D02*
X124382548Y-101475746D01*
X132080000Y-116840000D02*
X132080000Y-106525720D01*
X132080000Y-106525720D02*
X127030026Y-101475746D01*
X130276118Y-116103882D02*
X130276118Y-110324330D01*
X129540000Y-116840000D02*
X130276118Y-116103882D01*
X124460000Y-116840000D02*
X124460000Y-106781500D01*
X125931676Y-95750500D02*
X116840000Y-104842176D01*
X128821800Y-95750500D02*
X125931676Y-95750500D01*
X116840000Y-104842176D02*
X116840000Y-116840000D01*
G04 #@! TA.AperFunction,Conductor*
G36*
X143449160Y-90679782D02*
G01*
X143453413Y-90680505D01*
X143517218Y-90711641D01*
X143554061Y-90772329D01*
X143552244Y-90843303D01*
X143512345Y-90902027D01*
X143447031Y-90929858D01*
X143430647Y-90930712D01*
X143405828Y-90930387D01*
X143405825Y-90930387D01*
X143401150Y-90930326D01*
X143139293Y-90965963D01*
X143134807Y-90967271D01*
X143134805Y-90967271D01*
X143099069Y-90977687D01*
X142885580Y-91039913D01*
X142645584Y-91150553D01*
X142641675Y-91153116D01*
X142428491Y-91292885D01*
X142428486Y-91292889D01*
X142424578Y-91295451D01*
X142421086Y-91298568D01*
X142241399Y-91458945D01*
X142227417Y-91471424D01*
X142196090Y-91509091D01*
X142070126Y-91660547D01*
X142058432Y-91674607D01*
X141921335Y-91900535D01*
X141919526Y-91904849D01*
X141919524Y-91904853D01*
X141898445Y-91955122D01*
X141819139Y-92144246D01*
X141754088Y-92400385D01*
X141727611Y-92663327D01*
X141727835Y-92667993D01*
X141727835Y-92667998D01*
X141732046Y-92755649D01*
X141733832Y-92792836D01*
X141740290Y-92927293D01*
X141791847Y-93186486D01*
X141881148Y-93435211D01*
X142006233Y-93668005D01*
X142009028Y-93671748D01*
X142009030Y-93671751D01*
X142161561Y-93876015D01*
X142161566Y-93876021D01*
X142164353Y-93879753D01*
X142167662Y-93883033D01*
X142167667Y-93883039D01*
X142348717Y-94062516D01*
X142352034Y-94065804D01*
X142355796Y-94068562D01*
X142355799Y-94068565D01*
X142466111Y-94149449D01*
X142565154Y-94222070D01*
X142569297Y-94224250D01*
X142569299Y-94224251D01*
X142794880Y-94342935D01*
X142794885Y-94342937D01*
X142799030Y-94345118D01*
X142803453Y-94346663D01*
X142803454Y-94346663D01*
X142944333Y-94395860D01*
X143048526Y-94432246D01*
X143053119Y-94433118D01*
X143303570Y-94480668D01*
X143303573Y-94480668D01*
X143308159Y-94481539D01*
X143433654Y-94486470D01*
X143567558Y-94491731D01*
X143567563Y-94491731D01*
X143572226Y-94491914D01*
X143674914Y-94480668D01*
X143830273Y-94463654D01*
X143830279Y-94463653D01*
X143834926Y-94463144D01*
X143839450Y-94461953D01*
X144085965Y-94397051D01*
X144085967Y-94397050D01*
X144090488Y-94395860D01*
X144204997Y-94346663D01*
X144329004Y-94293385D01*
X144329006Y-94293384D01*
X144333298Y-94291540D01*
X144558021Y-94152477D01*
X144759721Y-93981726D01*
X144933967Y-93783036D01*
X145076931Y-93560774D01*
X145185472Y-93319822D01*
X145224368Y-93181909D01*
X145255936Y-93069977D01*
X145255937Y-93069974D01*
X145257206Y-93065473D01*
X145259367Y-93048486D01*
X145290158Y-92806446D01*
X145290158Y-92806440D01*
X145290556Y-92803315D01*
X145290559Y-92803203D01*
X145315506Y-92737313D01*
X145372552Y-92695048D01*
X145443392Y-92690333D01*
X145505535Y-92724666D01*
X145539251Y-92787146D01*
X145542000Y-92813320D01*
X145542001Y-115488037D01*
X145540219Y-115509151D01*
X145538310Y-115520382D01*
X145507176Y-115584188D01*
X145446488Y-115621032D01*
X145375515Y-115619217D01*
X145316789Y-115579319D01*
X145288439Y-115508606D01*
X145273763Y-115311122D01*
X145273761Y-115311105D01*
X145273415Y-115306456D01*
X145215091Y-115048701D01*
X145213398Y-115044347D01*
X145121003Y-114806752D01*
X145121002Y-114806749D01*
X145119310Y-114802399D01*
X144988174Y-114572959D01*
X144824565Y-114365423D01*
X144632078Y-114184349D01*
X144414941Y-114033715D01*
X144410748Y-114031647D01*
X144182112Y-113918896D01*
X144182109Y-113918895D01*
X144177924Y-113916831D01*
X144131199Y-113901874D01*
X143930678Y-113837687D01*
X143930680Y-113837687D01*
X143926233Y-113836264D01*
X143783236Y-113812976D01*
X143670011Y-113794536D01*
X143670010Y-113794536D01*
X143665399Y-113793785D01*
X143533275Y-113792056D01*
X143405827Y-113790387D01*
X143405824Y-113790387D01*
X143401150Y-113790326D01*
X143139293Y-113825963D01*
X143134807Y-113827271D01*
X143134805Y-113827271D01*
X143099069Y-113837687D01*
X142885580Y-113899913D01*
X142645584Y-114010553D01*
X142641675Y-114013116D01*
X142428491Y-114152885D01*
X142428486Y-114152889D01*
X142424578Y-114155451D01*
X142227417Y-114331424D01*
X142058432Y-114534607D01*
X141921335Y-114760535D01*
X141919526Y-114764849D01*
X141919524Y-114764853D01*
X141898445Y-114815122D01*
X141819139Y-115004246D01*
X141754088Y-115260385D01*
X141727611Y-115523327D01*
X141727835Y-115527993D01*
X141727835Y-115527998D01*
X141731793Y-115610398D01*
X141733832Y-115652836D01*
X141740290Y-115787293D01*
X141791847Y-116046486D01*
X141881148Y-116295211D01*
X142006233Y-116528005D01*
X142009028Y-116531748D01*
X142009030Y-116531751D01*
X142161561Y-116736015D01*
X142161566Y-116736021D01*
X142164353Y-116739753D01*
X142167662Y-116743033D01*
X142167667Y-116743039D01*
X142348717Y-116922516D01*
X142352034Y-116925804D01*
X142355796Y-116928562D01*
X142355799Y-116928565D01*
X142459239Y-117004410D01*
X142565154Y-117082070D01*
X142569297Y-117084250D01*
X142569299Y-117084251D01*
X142794880Y-117202935D01*
X142794885Y-117202937D01*
X142799030Y-117205118D01*
X142803453Y-117206663D01*
X142803454Y-117206663D01*
X142944333Y-117255860D01*
X143048526Y-117292246D01*
X143053119Y-117293118D01*
X143303570Y-117340668D01*
X143303573Y-117340668D01*
X143308159Y-117341539D01*
X143452916Y-117347226D01*
X143520198Y-117369887D01*
X143564549Y-117425326D01*
X143571886Y-117495943D01*
X143539881Y-117559316D01*
X143478694Y-117595325D01*
X143467569Y-117597595D01*
X143449337Y-117600466D01*
X143429737Y-117602000D01*
X141040938Y-117602000D01*
X140972817Y-117581998D01*
X140926324Y-117528342D01*
X140916220Y-117458068D01*
X140927071Y-117422054D01*
X140974399Y-117322156D01*
X140978123Y-117312197D01*
X141035968Y-117105718D01*
X141034430Y-117097351D01*
X141022137Y-117094000D01*
X139954002Y-117093999D01*
X139953996Y-117094000D01*
X139572000Y-117093999D01*
X139503879Y-117073997D01*
X139457386Y-117020341D01*
X139446000Y-116967999D01*
X139446000Y-116567885D01*
X139953999Y-116567885D01*
X139958474Y-116583124D01*
X139959864Y-116584329D01*
X139967547Y-116586000D01*
X141019079Y-116586001D01*
X141032610Y-116582028D01*
X141033876Y-116573219D01*
X140986954Y-116392433D01*
X140983419Y-116382395D01*
X140893147Y-116181998D01*
X140887967Y-116172692D01*
X140765218Y-115990366D01*
X140758557Y-115982080D01*
X140606830Y-115823030D01*
X140598873Y-115815990D01*
X140422523Y-115684782D01*
X140413486Y-115679178D01*
X140217550Y-115579559D01*
X140207699Y-115575559D01*
X139997778Y-115510378D01*
X139987396Y-115508095D01*
X139971959Y-115506049D01*
X139957792Y-115508246D01*
X139954000Y-115521430D01*
X139953999Y-116567885D01*
X139446000Y-116567885D01*
X139446001Y-115523716D01*
X139442028Y-115510185D01*
X139431421Y-115508660D01*
X139313555Y-115533391D01*
X139303358Y-115536451D01*
X139098932Y-115617182D01*
X139089396Y-115621916D01*
X138901486Y-115735942D01*
X138892896Y-115742206D01*
X138726884Y-115886264D01*
X138719464Y-115893895D01*
X138580100Y-116063860D01*
X138574079Y-116072622D01*
X138540427Y-116131739D01*
X138489344Y-116181045D01*
X138419714Y-116194906D01*
X138353643Y-116168922D01*
X138326405Y-116139773D01*
X138260519Y-116041909D01*
X138222627Y-115985626D01*
X138160820Y-115920835D01*
X138117845Y-115875786D01*
X138063482Y-115818799D01*
X137878504Y-115681171D01*
X137873747Y-115678752D01*
X137873743Y-115678750D01*
X137862394Y-115672980D01*
X137810737Y-115624276D01*
X137793500Y-115560664D01*
X137793500Y-111845594D01*
X137813502Y-111777473D01*
X137830405Y-111756499D01*
X139610704Y-109976201D01*
X139673016Y-109942175D01*
X139699799Y-109939296D01*
X139755687Y-109939296D01*
X139762139Y-109937924D01*
X139762144Y-109937924D01*
X139849087Y-109919443D01*
X139942487Y-109899590D01*
X139948518Y-109896905D01*
X140110920Y-109824599D01*
X140110922Y-109824598D01*
X140116950Y-109821914D01*
X140122292Y-109818033D01*
X140266107Y-109713546D01*
X140266109Y-109713544D01*
X140271451Y-109709663D01*
X140399237Y-109567742D01*
X140494724Y-109402354D01*
X140553738Y-109220727D01*
X140557428Y-109185624D01*
X140573010Y-109037365D01*
X140573700Y-109030800D01*
X140568349Y-108979888D01*
X140554428Y-108847437D01*
X140554428Y-108847436D01*
X140553738Y-108840873D01*
X140545886Y-108816705D01*
X140518758Y-108733215D01*
X140494724Y-108659246D01*
X140399237Y-108493858D01*
X140381993Y-108474706D01*
X140275873Y-108356848D01*
X140275872Y-108356847D01*
X140271451Y-108351937D01*
X140266109Y-108348056D01*
X140266107Y-108348054D01*
X140122292Y-108243567D01*
X140122291Y-108243566D01*
X140116950Y-108239686D01*
X140110922Y-108237002D01*
X140110920Y-108237001D01*
X139948518Y-108164695D01*
X139948517Y-108164695D01*
X139942487Y-108162010D01*
X139849087Y-108142157D01*
X139762144Y-108123676D01*
X139762139Y-108123676D01*
X139755687Y-108122304D01*
X139564713Y-108122304D01*
X139558261Y-108123676D01*
X139558256Y-108123676D01*
X139471313Y-108142157D01*
X139377913Y-108162010D01*
X139371883Y-108164695D01*
X139371882Y-108164695D01*
X139209480Y-108237001D01*
X139209478Y-108237002D01*
X139203450Y-108239686D01*
X139198109Y-108243566D01*
X139198108Y-108243567D01*
X139054293Y-108348054D01*
X139054291Y-108348056D01*
X139048949Y-108351937D01*
X139044528Y-108356847D01*
X139044527Y-108356848D01*
X138938408Y-108474706D01*
X138921163Y-108493858D01*
X138825676Y-108659246D01*
X138801642Y-108733215D01*
X138774515Y-108816705D01*
X138766662Y-108840873D01*
X138765972Y-108847436D01*
X138765972Y-108847437D01*
X138749297Y-109006090D01*
X138722284Y-109071746D01*
X138713082Y-109082014D01*
X136767478Y-111027618D01*
X136759400Y-111034969D01*
X136753006Y-111039027D01*
X136747579Y-111044806D01*
X136747578Y-111044807D01*
X136707148Y-111087861D01*
X136704393Y-111090703D01*
X136684062Y-111111034D01*
X136681628Y-111114171D01*
X136681626Y-111114174D01*
X136681403Y-111114461D01*
X136673707Y-111123471D01*
X136650251Y-111148450D01*
X136643444Y-111155699D01*
X136639628Y-111162640D01*
X136639626Y-111162643D01*
X136633688Y-111173445D01*
X136622834Y-111189968D01*
X136615278Y-111199710D01*
X136610417Y-111205977D01*
X136607269Y-111213252D01*
X136592859Y-111246551D01*
X136587637Y-111257211D01*
X136570231Y-111288873D01*
X136566339Y-111295952D01*
X136561301Y-111315572D01*
X136554902Y-111334264D01*
X136546853Y-111352865D01*
X136545613Y-111360692D01*
X136545613Y-111360693D01*
X136539937Y-111396531D01*
X136537530Y-111408154D01*
X136526536Y-111450975D01*
X136526501Y-111451531D01*
X136526501Y-111471447D01*
X136524950Y-111491157D01*
X136521816Y-111510945D01*
X136522562Y-111518837D01*
X136525942Y-111554593D01*
X136526501Y-111566451D01*
X136526500Y-115564302D01*
X136506498Y-115632423D01*
X136465867Y-115672020D01*
X136356631Y-115738306D01*
X136352601Y-115741803D01*
X136226406Y-115851309D01*
X136182492Y-115889415D01*
X136179109Y-115893541D01*
X136179105Y-115893545D01*
X136144545Y-115935695D01*
X136036304Y-116067705D01*
X136033667Y-116072338D01*
X136033666Y-116072339D01*
X136000116Y-116131278D01*
X135949033Y-116180584D01*
X135879402Y-116194445D01*
X135813332Y-116168461D01*
X135786094Y-116139312D01*
X135780686Y-116131278D01*
X135685818Y-115990366D01*
X135685607Y-115990052D01*
X135685605Y-115990050D01*
X135682627Y-115985626D01*
X135620820Y-115920835D01*
X135577845Y-115875786D01*
X135523482Y-115818799D01*
X135338504Y-115681171D01*
X135333753Y-115678755D01*
X135333749Y-115678753D01*
X135137740Y-115579097D01*
X135137739Y-115579097D01*
X135132982Y-115576678D01*
X135011514Y-115538961D01*
X134917895Y-115509891D01*
X134917889Y-115509890D01*
X134912792Y-115508307D01*
X134807798Y-115494391D01*
X134689515Y-115478714D01*
X134689510Y-115478714D01*
X134684230Y-115478014D01*
X134678900Y-115478214D01*
X134678899Y-115478214D01*
X134585320Y-115481727D01*
X134453831Y-115486663D01*
X134389272Y-115500209D01*
X134233411Y-115532912D01*
X134233408Y-115532913D01*
X134228184Y-115534009D01*
X134013740Y-115618697D01*
X133816631Y-115738306D01*
X133812601Y-115741803D01*
X133686406Y-115851309D01*
X133642492Y-115889415D01*
X133639109Y-115893541D01*
X133639105Y-115893545D01*
X133604545Y-115935695D01*
X133496304Y-116067705D01*
X133493667Y-116072338D01*
X133493666Y-116072339D01*
X133460116Y-116131278D01*
X133409033Y-116180584D01*
X133339402Y-116194445D01*
X133273332Y-116168461D01*
X133246094Y-116139312D01*
X133240686Y-116131278D01*
X133145818Y-115990366D01*
X133145607Y-115990052D01*
X133145605Y-115990050D01*
X133142627Y-115985626D01*
X133080820Y-115920835D01*
X133037845Y-115875786D01*
X132983482Y-115818799D01*
X132798504Y-115681171D01*
X132793747Y-115678752D01*
X132793743Y-115678750D01*
X132782394Y-115672980D01*
X132730737Y-115624276D01*
X132713500Y-115560664D01*
X132713500Y-106604103D01*
X132714014Y-106593199D01*
X132715666Y-106585808D01*
X132713562Y-106518854D01*
X132713500Y-106514896D01*
X132713500Y-106486142D01*
X132712961Y-106481875D01*
X132712027Y-106470025D01*
X132710888Y-106433760D01*
X132710639Y-106425837D01*
X132704988Y-106406386D01*
X132700978Y-106387024D01*
X132699433Y-106374793D01*
X132698440Y-106366932D01*
X132682166Y-106325828D01*
X132678321Y-106314598D01*
X132668198Y-106279754D01*
X132668197Y-106279752D01*
X132665986Y-106272141D01*
X132655677Y-106254709D01*
X132646980Y-106236956D01*
X132642442Y-106225495D01*
X132639522Y-106218120D01*
X132613531Y-106182346D01*
X132607016Y-106172427D01*
X132587529Y-106139478D01*
X132587527Y-106139475D01*
X132584513Y-106134379D01*
X132584145Y-106133961D01*
X132570062Y-106119878D01*
X132557228Y-106104853D01*
X132545446Y-106088637D01*
X132511664Y-106060690D01*
X132502885Y-106052701D01*
X127533417Y-101083233D01*
X127526057Y-101075145D01*
X127521999Y-101068751D01*
X127473147Y-101022876D01*
X127470306Y-101020122D01*
X127449992Y-100999808D01*
X127446581Y-100997163D01*
X127437559Y-100989457D01*
X127436647Y-100988600D01*
X127405327Y-100959189D01*
X127398383Y-100955372D01*
X127398381Y-100955370D01*
X127387573Y-100949428D01*
X127371049Y-100938574D01*
X127361312Y-100931021D01*
X127361311Y-100931021D01*
X127355049Y-100926163D01*
X127347776Y-100923016D01*
X127347773Y-100923014D01*
X127315928Y-100909234D01*
X127314484Y-100908609D01*
X127303826Y-100903388D01*
X127272020Y-100885902D01*
X127272016Y-100885900D01*
X127265074Y-100882084D01*
X127257399Y-100880114D01*
X127257398Y-100880113D01*
X127245452Y-100877046D01*
X127226745Y-100870641D01*
X127215436Y-100865747D01*
X127215434Y-100865747D01*
X127208161Y-100862599D01*
X127200333Y-100861359D01*
X127200332Y-100861359D01*
X127164499Y-100855684D01*
X127152874Y-100853276D01*
X127115808Y-100843759D01*
X127115806Y-100843759D01*
X127110051Y-100842281D01*
X127109495Y-100842246D01*
X127089572Y-100842246D01*
X127069863Y-100840695D01*
X127050081Y-100837562D01*
X127028998Y-100839555D01*
X127006444Y-100841687D01*
X126994586Y-100842246D01*
X125090742Y-100842246D01*
X125022621Y-100822244D01*
X125003397Y-100805904D01*
X125003123Y-100806208D01*
X124998220Y-100801793D01*
X124993799Y-100796883D01*
X124988457Y-100793002D01*
X124988455Y-100793000D01*
X124844640Y-100688513D01*
X124844639Y-100688512D01*
X124839298Y-100684632D01*
X124833268Y-100681947D01*
X124827545Y-100678643D01*
X124828974Y-100676169D01*
X124784430Y-100638302D01*
X124763785Y-100570374D01*
X124783142Y-100502067D01*
X124815718Y-100467247D01*
X124938907Y-100377746D01*
X124938909Y-100377744D01*
X124944251Y-100373863D01*
X124948672Y-100368953D01*
X124953575Y-100364538D01*
X124954701Y-100365789D01*
X125008000Y-100332951D01*
X125041194Y-100328500D01*
X129860406Y-100328500D01*
X129928527Y-100348502D01*
X129949501Y-100365405D01*
X132363133Y-102779037D01*
X132397159Y-102841349D01*
X132392094Y-102912164D01*
X132349547Y-102969000D01*
X132300236Y-102991378D01*
X132185177Y-103015835D01*
X132185168Y-103015838D01*
X132178713Y-103017210D01*
X132172683Y-103019895D01*
X132172682Y-103019895D01*
X132010280Y-103092201D01*
X132010278Y-103092202D01*
X132004250Y-103094886D01*
X131998909Y-103098766D01*
X131998908Y-103098767D01*
X131855093Y-103203254D01*
X131855091Y-103203256D01*
X131849749Y-103207137D01*
X131721963Y-103349058D01*
X131626476Y-103514446D01*
X131567462Y-103696073D01*
X131547500Y-103886000D01*
X131548190Y-103892565D01*
X131564029Y-104043260D01*
X131567462Y-104075927D01*
X131626476Y-104257554D01*
X131721963Y-104422942D01*
X131726381Y-104427849D01*
X131726382Y-104427850D01*
X131794388Y-104503378D01*
X131849749Y-104564863D01*
X131855091Y-104568744D01*
X131855093Y-104568746D01*
X131986256Y-104664041D01*
X132004250Y-104677114D01*
X132010278Y-104679798D01*
X132010280Y-104679799D01*
X132142127Y-104738501D01*
X132178713Y-104754790D01*
X132272113Y-104774643D01*
X132359056Y-104793124D01*
X132359061Y-104793124D01*
X132365513Y-104794496D01*
X132421402Y-104794496D01*
X132489523Y-104814498D01*
X132510497Y-104831401D01*
X133481609Y-105802513D01*
X133488969Y-105810601D01*
X133493027Y-105816995D01*
X133498804Y-105822420D01*
X133541878Y-105862869D01*
X133544720Y-105865624D01*
X133565033Y-105885937D01*
X133568444Y-105888582D01*
X133577464Y-105896286D01*
X133609699Y-105926557D01*
X133616644Y-105930375D01*
X133616647Y-105930377D01*
X133627452Y-105936317D01*
X133643979Y-105947173D01*
X133659976Y-105959582D01*
X133700555Y-105977143D01*
X133711187Y-105982351D01*
X133749952Y-106003662D01*
X133757629Y-106005633D01*
X133757634Y-106005635D01*
X133769566Y-106008698D01*
X133788274Y-106015103D01*
X133792613Y-106016980D01*
X133799592Y-106020001D01*
X133799596Y-106020002D01*
X133806863Y-106023147D01*
X133814685Y-106024386D01*
X133814689Y-106024387D01*
X133850531Y-106030063D01*
X133862156Y-106032471D01*
X133899218Y-106041987D01*
X133899220Y-106041987D01*
X133904975Y-106043465D01*
X133905531Y-106043500D01*
X133925452Y-106043500D01*
X133945161Y-106045051D01*
X133964943Y-106048184D01*
X133972834Y-106047438D01*
X134008579Y-106044059D01*
X134020437Y-106043500D01*
X136982402Y-106043500D01*
X137050523Y-106063502D01*
X137094669Y-106112298D01*
X137138611Y-106198540D01*
X137138614Y-106198545D01*
X137140911Y-106203053D01*
X137143897Y-106207133D01*
X137143899Y-106207136D01*
X137260853Y-106366932D01*
X137284288Y-106398952D01*
X137457141Y-106569408D01*
X137461266Y-106572340D01*
X137461269Y-106572342D01*
X137650898Y-106707105D01*
X137650902Y-106707108D01*
X137655023Y-106710036D01*
X137659561Y-106712269D01*
X137659566Y-106712272D01*
X137817602Y-106790035D01*
X137872843Y-106817217D01*
X137877678Y-106818695D01*
X137877680Y-106818696D01*
X137948397Y-106840316D01*
X138104998Y-106888193D01*
X138110017Y-106888880D01*
X138110019Y-106888881D01*
X138285240Y-106912883D01*
X138345514Y-106921140D01*
X138414858Y-106919445D01*
X138583143Y-106915333D01*
X138583147Y-106915333D01*
X138588204Y-106915209D01*
X138826823Y-106870552D01*
X139055234Y-106788320D01*
X139267558Y-106670626D01*
X139271536Y-106667496D01*
X139271540Y-106667493D01*
X139454358Y-106523629D01*
X139454359Y-106523628D01*
X139458334Y-106520500D01*
X139461756Y-106516779D01*
X139619231Y-106345527D01*
X139619234Y-106345523D01*
X139622654Y-106341804D01*
X139756290Y-106139134D01*
X139771700Y-106104845D01*
X139853730Y-105922322D01*
X139853732Y-105922316D01*
X139855804Y-105917706D01*
X139863667Y-105888361D01*
X139917327Y-105688098D01*
X139917327Y-105688097D01*
X139918635Y-105683216D01*
X139943168Y-105441696D01*
X139943500Y-105410000D01*
X139924031Y-105168020D01*
X139892243Y-105038600D01*
X139867331Y-104937179D01*
X139866124Y-104932265D01*
X139864148Y-104927609D01*
X139864146Y-104927603D01*
X139849768Y-104893732D01*
X139841562Y-104823211D01*
X139872786Y-104759449D01*
X139933525Y-104722690D01*
X139965751Y-104718499D01*
X140840405Y-104718499D01*
X140908526Y-104738501D01*
X140929500Y-104755404D01*
X141007978Y-104833882D01*
X141042004Y-104896194D01*
X141038018Y-104963997D01*
X141014049Y-105033608D01*
X140972729Y-105272828D01*
X140970187Y-105515576D01*
X140970944Y-105520579D01*
X140970944Y-105520584D01*
X141005731Y-105750604D01*
X141006488Y-105755609D01*
X141008034Y-105760425D01*
X141008035Y-105760428D01*
X141078372Y-105979498D01*
X141080700Y-105986750D01*
X141190911Y-106203053D01*
X141202444Y-106218811D01*
X141310853Y-106366932D01*
X141334288Y-106398952D01*
X141507141Y-106569408D01*
X141511266Y-106572340D01*
X141511269Y-106572342D01*
X141700898Y-106707105D01*
X141700902Y-106707108D01*
X141705023Y-106710036D01*
X141709561Y-106712269D01*
X141709566Y-106712272D01*
X141867602Y-106790035D01*
X141922843Y-106817217D01*
X141927678Y-106818695D01*
X141927680Y-106818696D01*
X141998397Y-106840316D01*
X142154998Y-106888193D01*
X142160017Y-106888880D01*
X142160019Y-106888881D01*
X142335240Y-106912883D01*
X142395514Y-106921140D01*
X142464858Y-106919445D01*
X142633143Y-106915333D01*
X142633147Y-106915333D01*
X142638204Y-106915209D01*
X142876823Y-106870552D01*
X143105234Y-106788320D01*
X143317558Y-106670626D01*
X143321536Y-106667496D01*
X143321540Y-106667493D01*
X143504358Y-106523629D01*
X143504359Y-106523628D01*
X143508334Y-106520500D01*
X143511756Y-106516779D01*
X143669231Y-106345527D01*
X143669234Y-106345523D01*
X143672654Y-106341804D01*
X143806290Y-106139134D01*
X143821700Y-106104845D01*
X143903730Y-105922322D01*
X143903732Y-105922316D01*
X143905804Y-105917706D01*
X143913667Y-105888361D01*
X143967327Y-105688098D01*
X143967327Y-105688097D01*
X143968635Y-105683216D01*
X143993168Y-105441696D01*
X143993500Y-105410000D01*
X143974031Y-105168020D01*
X143942243Y-105038600D01*
X143917331Y-104937179D01*
X143916124Y-104932265D01*
X143892928Y-104877617D01*
X143823245Y-104713456D01*
X143823245Y-104713455D01*
X143821269Y-104708801D01*
X143691907Y-104503378D01*
X143531365Y-104321279D01*
X143343775Y-104167191D01*
X143133962Y-104045076D01*
X143129235Y-104043262D01*
X143129232Y-104043260D01*
X142912048Y-103959891D01*
X142912044Y-103959890D01*
X142907324Y-103958078D01*
X142902374Y-103957044D01*
X142902371Y-103957043D01*
X142674643Y-103909468D01*
X142674639Y-103909468D01*
X142669692Y-103908434D01*
X142427180Y-103897422D01*
X142422160Y-103898003D01*
X142422156Y-103898003D01*
X142191056Y-103924742D01*
X142186026Y-103925324D01*
X142181155Y-103926702D01*
X142181152Y-103926703D01*
X142140972Y-103938073D01*
X142027379Y-103970217D01*
X141956387Y-103969519D01*
X141903977Y-103938073D01*
X141658390Y-103692486D01*
X141651030Y-103684398D01*
X141646972Y-103678004D01*
X141598120Y-103632129D01*
X141595279Y-103629375D01*
X141574965Y-103609061D01*
X141571554Y-103606416D01*
X141562532Y-103598710D01*
X141536076Y-103573866D01*
X141530300Y-103568442D01*
X141523356Y-103564625D01*
X141523354Y-103564623D01*
X141512546Y-103558681D01*
X141496022Y-103547827D01*
X141486285Y-103540274D01*
X141486284Y-103540274D01*
X141480022Y-103535416D01*
X141472749Y-103532269D01*
X141472746Y-103532267D01*
X141446087Y-103520731D01*
X141439457Y-103517862D01*
X141428799Y-103512641D01*
X141396993Y-103495155D01*
X141396989Y-103495153D01*
X141390047Y-103491337D01*
X141382372Y-103489367D01*
X141382371Y-103489366D01*
X141370425Y-103486299D01*
X141351718Y-103479894D01*
X141340409Y-103475000D01*
X141340407Y-103475000D01*
X141333134Y-103471852D01*
X141325306Y-103470612D01*
X141325305Y-103470612D01*
X141289472Y-103464937D01*
X141277847Y-103462529D01*
X141240781Y-103453012D01*
X141240779Y-103453012D01*
X141235024Y-103451534D01*
X141234468Y-103451499D01*
X141214545Y-103451499D01*
X141194836Y-103449948D01*
X141175054Y-103446815D01*
X141167162Y-103447561D01*
X141131417Y-103450940D01*
X141119559Y-103451499D01*
X134879594Y-103451499D01*
X134811473Y-103431497D01*
X134790499Y-103414594D01*
X134200477Y-102824572D01*
X134166451Y-102762260D01*
X134171516Y-102691445D01*
X134195936Y-102651167D01*
X134268578Y-102570490D01*
X134268579Y-102570489D01*
X134272997Y-102565582D01*
X134368484Y-102400194D01*
X134421995Y-102235505D01*
X134425458Y-102224846D01*
X134425458Y-102224845D01*
X134427498Y-102218567D01*
X134447460Y-102028640D01*
X134437295Y-101931927D01*
X134428188Y-101845277D01*
X134428188Y-101845276D01*
X134427498Y-101838713D01*
X134368484Y-101657086D01*
X134272997Y-101491698D01*
X134188306Y-101397639D01*
X134157588Y-101333632D01*
X134162109Y-101274393D01*
X134217005Y-101105440D01*
X134217005Y-101105439D01*
X134219045Y-101099161D01*
X134233187Y-100964613D01*
X134238317Y-100915799D01*
X134239007Y-100909234D01*
X134234436Y-100865747D01*
X134219735Y-100725871D01*
X134219735Y-100725870D01*
X134219045Y-100719307D01*
X134209040Y-100688513D01*
X134162073Y-100543965D01*
X134160031Y-100537680D01*
X134064544Y-100372292D01*
X134043124Y-100348502D01*
X133941180Y-100235282D01*
X133941179Y-100235281D01*
X133936758Y-100230371D01*
X133931416Y-100226490D01*
X133931414Y-100226488D01*
X133787599Y-100122001D01*
X133787598Y-100122000D01*
X133782257Y-100118120D01*
X133776229Y-100115436D01*
X133776227Y-100115435D01*
X133613825Y-100043129D01*
X133613824Y-100043129D01*
X133607794Y-100040444D01*
X133514394Y-100020591D01*
X133427451Y-100002110D01*
X133427446Y-100002110D01*
X133420994Y-100000738D01*
X133230020Y-100000738D01*
X133223568Y-100002110D01*
X133223563Y-100002110D01*
X133136620Y-100020591D01*
X133043220Y-100040444D01*
X133037193Y-100043127D01*
X133037185Y-100043130D01*
X132877350Y-100114293D01*
X132806983Y-100123727D01*
X132742686Y-100093620D01*
X132737007Y-100088281D01*
X131641256Y-98992530D01*
X131607230Y-98930218D01*
X131612295Y-98859403D01*
X131654842Y-98802567D01*
X131721362Y-98777756D01*
X131730351Y-98777435D01*
X134899341Y-98777435D01*
X134967462Y-98797437D01*
X134988436Y-98814340D01*
X136957978Y-100783882D01*
X136992004Y-100846194D01*
X136988018Y-100913997D01*
X136964049Y-100983608D01*
X136922729Y-101222828D01*
X136920187Y-101465576D01*
X136920944Y-101470579D01*
X136920944Y-101470584D01*
X136925002Y-101497416D01*
X136956488Y-101705609D01*
X136958034Y-101710425D01*
X136958035Y-101710428D01*
X137026492Y-101923643D01*
X137030700Y-101936750D01*
X137140911Y-102153053D01*
X137143901Y-102157138D01*
X137277333Y-102339449D01*
X137284288Y-102348952D01*
X137457141Y-102519408D01*
X137461266Y-102522340D01*
X137461269Y-102522342D01*
X137650898Y-102657105D01*
X137650902Y-102657108D01*
X137655023Y-102660036D01*
X137659561Y-102662269D01*
X137659566Y-102662272D01*
X137817602Y-102740035D01*
X137872843Y-102767217D01*
X137877678Y-102768695D01*
X137877680Y-102768696D01*
X137911505Y-102779037D01*
X138104998Y-102838193D01*
X138110017Y-102838880D01*
X138110019Y-102838881D01*
X138285240Y-102862883D01*
X138345514Y-102871140D01*
X138414858Y-102869445D01*
X138583143Y-102865333D01*
X138583147Y-102865333D01*
X138588204Y-102865209D01*
X138826823Y-102820552D01*
X139055234Y-102738320D01*
X139267558Y-102620626D01*
X139271536Y-102617496D01*
X139271540Y-102617493D01*
X139454358Y-102473629D01*
X139454359Y-102473628D01*
X139458334Y-102470500D01*
X139461756Y-102466779D01*
X139619231Y-102295527D01*
X139619234Y-102295523D01*
X139622654Y-102291804D01*
X139756290Y-102089134D01*
X139786428Y-102022075D01*
X139853730Y-101872322D01*
X139853732Y-101872316D01*
X139855804Y-101867706D01*
X139897946Y-101710428D01*
X139917327Y-101638098D01*
X139917327Y-101638097D01*
X139918635Y-101633216D01*
X139943168Y-101391696D01*
X139943500Y-101360000D01*
X139943271Y-101357152D01*
X139924437Y-101123061D01*
X139924436Y-101123056D01*
X139924031Y-101118020D01*
X139915487Y-101083233D01*
X139867331Y-100887179D01*
X139866124Y-100882265D01*
X139857777Y-100862599D01*
X139773245Y-100663456D01*
X139773245Y-100663455D01*
X139771269Y-100658801D01*
X139641907Y-100453378D01*
X139481365Y-100271279D01*
X139293775Y-100117191D01*
X139083962Y-99995076D01*
X139079235Y-99993262D01*
X139079232Y-99993260D01*
X138862048Y-99909891D01*
X138862044Y-99909890D01*
X138857324Y-99908078D01*
X138852374Y-99907044D01*
X138852371Y-99907043D01*
X138624643Y-99859468D01*
X138624639Y-99859468D01*
X138619692Y-99858434D01*
X138377180Y-99847422D01*
X138372160Y-99848003D01*
X138372156Y-99848003D01*
X138141056Y-99874742D01*
X138136026Y-99875324D01*
X138131155Y-99876702D01*
X138131152Y-99876703D01*
X138090972Y-99888073D01*
X137977379Y-99920217D01*
X137906387Y-99919519D01*
X137853977Y-99888073D01*
X136233433Y-98267529D01*
X136199407Y-98205217D01*
X136204472Y-98134402D01*
X136247019Y-98077566D01*
X136313539Y-98052755D01*
X136322528Y-98052434D01*
X138224340Y-98052434D01*
X138292461Y-98072436D01*
X138313435Y-98089339D01*
X141007978Y-100783882D01*
X141042004Y-100846194D01*
X141038018Y-100913997D01*
X141014049Y-100983608D01*
X140972729Y-101222828D01*
X140970187Y-101465576D01*
X140970944Y-101470579D01*
X140970944Y-101470584D01*
X140975002Y-101497416D01*
X141006488Y-101705609D01*
X141008034Y-101710425D01*
X141008035Y-101710428D01*
X141076492Y-101923643D01*
X141080700Y-101936750D01*
X141190911Y-102153053D01*
X141193901Y-102157138D01*
X141327333Y-102339449D01*
X141334288Y-102348952D01*
X141507141Y-102519408D01*
X141511266Y-102522340D01*
X141511269Y-102522342D01*
X141700898Y-102657105D01*
X141700902Y-102657108D01*
X141705023Y-102660036D01*
X141709561Y-102662269D01*
X141709566Y-102662272D01*
X141867602Y-102740035D01*
X141922843Y-102767217D01*
X141927678Y-102768695D01*
X141927680Y-102768696D01*
X141961505Y-102779037D01*
X142154998Y-102838193D01*
X142160017Y-102838880D01*
X142160019Y-102838881D01*
X142335240Y-102862883D01*
X142395514Y-102871140D01*
X142464858Y-102869445D01*
X142633143Y-102865333D01*
X142633147Y-102865333D01*
X142638204Y-102865209D01*
X142876823Y-102820552D01*
X143105234Y-102738320D01*
X143317558Y-102620626D01*
X143321536Y-102617496D01*
X143321540Y-102617493D01*
X143504358Y-102473629D01*
X143504359Y-102473628D01*
X143508334Y-102470500D01*
X143511756Y-102466779D01*
X143669231Y-102295527D01*
X143669234Y-102295523D01*
X143672654Y-102291804D01*
X143806290Y-102089134D01*
X143836428Y-102022075D01*
X143903730Y-101872322D01*
X143903732Y-101872316D01*
X143905804Y-101867706D01*
X143947946Y-101710428D01*
X143967327Y-101638098D01*
X143967327Y-101638097D01*
X143968635Y-101633216D01*
X143993168Y-101391696D01*
X143993500Y-101360000D01*
X143993271Y-101357152D01*
X143974437Y-101123061D01*
X143974436Y-101123056D01*
X143974031Y-101118020D01*
X143965487Y-101083233D01*
X143917331Y-100887179D01*
X143916124Y-100882265D01*
X143907777Y-100862599D01*
X143823245Y-100663456D01*
X143823245Y-100663455D01*
X143821269Y-100658801D01*
X143691907Y-100453378D01*
X143531365Y-100271279D01*
X143343775Y-100117191D01*
X143133962Y-99995076D01*
X143129235Y-99993262D01*
X143129232Y-99993260D01*
X142912048Y-99909891D01*
X142912044Y-99909890D01*
X142907324Y-99908078D01*
X142902374Y-99907044D01*
X142902371Y-99907043D01*
X142674643Y-99859468D01*
X142674639Y-99859468D01*
X142669692Y-99858434D01*
X142427180Y-99847422D01*
X142422160Y-99848003D01*
X142422156Y-99848003D01*
X142191056Y-99874742D01*
X142186026Y-99875324D01*
X142181155Y-99876702D01*
X142181152Y-99876703D01*
X142119906Y-99894034D01*
X142027380Y-99920217D01*
X141956388Y-99919519D01*
X141903978Y-99888073D01*
X139042325Y-97026421D01*
X139034965Y-97018333D01*
X139030907Y-97011939D01*
X138982055Y-96966064D01*
X138979214Y-96963310D01*
X138958900Y-96942996D01*
X138955489Y-96940351D01*
X138946467Y-96932645D01*
X138937267Y-96924005D01*
X138914235Y-96902377D01*
X138907291Y-96898560D01*
X138907289Y-96898558D01*
X138896481Y-96892616D01*
X138879957Y-96881762D01*
X138870220Y-96874209D01*
X138870219Y-96874209D01*
X138863957Y-96869351D01*
X138856684Y-96866204D01*
X138856681Y-96866202D01*
X138834251Y-96856496D01*
X138823392Y-96851797D01*
X138812734Y-96846576D01*
X138780928Y-96829090D01*
X138780924Y-96829088D01*
X138773982Y-96825272D01*
X138766307Y-96823302D01*
X138766306Y-96823301D01*
X138754360Y-96820234D01*
X138735653Y-96813829D01*
X138724344Y-96808935D01*
X138724342Y-96808935D01*
X138717069Y-96805787D01*
X138709241Y-96804547D01*
X138709240Y-96804547D01*
X138673407Y-96798872D01*
X138661782Y-96796464D01*
X138624716Y-96786947D01*
X138624714Y-96786947D01*
X138618959Y-96785469D01*
X138618403Y-96785434D01*
X138598480Y-96785434D01*
X138578771Y-96783883D01*
X138558989Y-96780750D01*
X138551097Y-96781496D01*
X138515352Y-96784875D01*
X138503494Y-96785434D01*
X129323706Y-96785434D01*
X129255585Y-96765432D01*
X129209092Y-96711776D01*
X129198988Y-96641502D01*
X129228482Y-96576922D01*
X129267169Y-96548247D01*
X129266797Y-96547603D01*
X129272406Y-96544364D01*
X129272454Y-96544329D01*
X129272513Y-96544303D01*
X129272522Y-96544298D01*
X129278550Y-96541614D01*
X129283892Y-96537733D01*
X129427707Y-96433246D01*
X129427709Y-96433244D01*
X129433051Y-96429363D01*
X129560837Y-96287442D01*
X129656324Y-96122054D01*
X129715338Y-95940427D01*
X129735300Y-95750500D01*
X129715338Y-95560573D01*
X129656324Y-95378946D01*
X129560837Y-95213558D01*
X129490084Y-95134978D01*
X129437473Y-95076548D01*
X129437472Y-95076547D01*
X129433051Y-95071637D01*
X129427709Y-95067756D01*
X129427707Y-95067754D01*
X129283892Y-94963267D01*
X129283891Y-94963266D01*
X129278550Y-94959386D01*
X129272522Y-94956702D01*
X129272520Y-94956701D01*
X129110118Y-94884395D01*
X129110117Y-94884395D01*
X129104087Y-94881710D01*
X129010687Y-94861857D01*
X128923744Y-94843376D01*
X128923739Y-94843376D01*
X128917287Y-94842004D01*
X128726313Y-94842004D01*
X128719861Y-94843376D01*
X128719856Y-94843376D01*
X128632913Y-94861857D01*
X128539513Y-94881710D01*
X128533483Y-94884395D01*
X128533482Y-94884395D01*
X128371080Y-94956701D01*
X128371078Y-94956702D01*
X128365050Y-94959386D01*
X128359709Y-94963266D01*
X128359708Y-94963267D01*
X128215893Y-95067754D01*
X128215891Y-95067756D01*
X128210549Y-95071637D01*
X128206128Y-95076547D01*
X128201225Y-95080962D01*
X128200099Y-95079711D01*
X128146800Y-95112549D01*
X128113606Y-95117000D01*
X126010059Y-95117000D01*
X125999155Y-95116486D01*
X125991764Y-95114834D01*
X125983838Y-95115083D01*
X125983837Y-95115083D01*
X125924810Y-95116938D01*
X125920852Y-95117000D01*
X125892098Y-95117000D01*
X125887831Y-95117539D01*
X125875989Y-95118472D01*
X125844341Y-95119467D01*
X125839716Y-95119612D01*
X125831793Y-95119861D01*
X125812343Y-95125512D01*
X125792981Y-95129522D01*
X125772888Y-95132060D01*
X125739025Y-95145467D01*
X125731784Y-95148334D01*
X125720554Y-95152179D01*
X125685710Y-95162302D01*
X125685708Y-95162303D01*
X125678097Y-95164514D01*
X125662743Y-95173594D01*
X125660665Y-95174823D01*
X125642912Y-95183520D01*
X125624076Y-95190978D01*
X125617661Y-95195639D01*
X125588302Y-95216969D01*
X125578383Y-95223484D01*
X125545434Y-95242971D01*
X125545431Y-95242973D01*
X125540335Y-95245987D01*
X125539917Y-95246355D01*
X125525834Y-95260438D01*
X125510809Y-95273272D01*
X125494593Y-95285054D01*
X125466647Y-95318835D01*
X125458657Y-95327615D01*
X116447486Y-104338786D01*
X116439399Y-104346145D01*
X116433005Y-104350203D01*
X116427580Y-104355980D01*
X116427579Y-104355981D01*
X116387137Y-104399048D01*
X116384381Y-104401891D01*
X116364062Y-104422210D01*
X116361638Y-104425335D01*
X116361631Y-104425343D01*
X116361411Y-104425627D01*
X116353703Y-104434652D01*
X116323443Y-104466876D01*
X116313687Y-104484622D01*
X116302836Y-104501141D01*
X116295278Y-104510885D01*
X116295275Y-104510890D01*
X116290417Y-104517153D01*
X116287268Y-104524431D01*
X116272861Y-104557723D01*
X116267638Y-104568384D01*
X116246338Y-104607129D01*
X116244366Y-104614811D01*
X116244365Y-104614812D01*
X116241298Y-104626754D01*
X116234898Y-104645449D01*
X116226853Y-104664041D01*
X116225613Y-104671870D01*
X116219937Y-104707705D01*
X116217530Y-104719326D01*
X116208073Y-104756162D01*
X116206535Y-104762152D01*
X116206500Y-104762708D01*
X116206500Y-104782630D01*
X116204949Y-104802339D01*
X116201816Y-104822121D01*
X116202562Y-104830013D01*
X116205941Y-104865759D01*
X116206500Y-104877617D01*
X116206501Y-115350500D01*
X116186499Y-115418621D01*
X116132843Y-115465114D01*
X116080501Y-115476500D01*
X115990000Y-115476500D01*
X115916921Y-115481727D01*
X115853977Y-115500209D01*
X115785330Y-115520365D01*
X115785328Y-115520366D01*
X115776684Y-115522904D01*
X115756350Y-115535972D01*
X115661309Y-115597051D01*
X115661306Y-115597053D01*
X115653729Y-115601923D01*
X115647828Y-115608733D01*
X115563918Y-115705569D01*
X115563916Y-115705572D01*
X115558016Y-115712381D01*
X115497300Y-115845330D01*
X115496018Y-115854245D01*
X115496018Y-115854246D01*
X115477139Y-115985552D01*
X115477138Y-115985559D01*
X115476500Y-115990000D01*
X115476500Y-117476000D01*
X115456498Y-117544121D01*
X115402842Y-117590614D01*
X115350500Y-117602000D01*
X113116581Y-117602000D01*
X113048460Y-117581998D01*
X113001967Y-117528342D01*
X112991863Y-117458068D01*
X113021357Y-117393488D01*
X113081083Y-117355104D01*
X113102864Y-117350749D01*
X113350273Y-117323654D01*
X113350279Y-117323653D01*
X113354926Y-117323144D01*
X113396506Y-117312197D01*
X113605965Y-117257051D01*
X113605967Y-117257050D01*
X113610488Y-117255860D01*
X113724997Y-117206663D01*
X113849004Y-117153385D01*
X113849006Y-117153384D01*
X113853298Y-117151540D01*
X114078021Y-117012477D01*
X114184288Y-116922516D01*
X114276148Y-116844751D01*
X114276150Y-116844749D01*
X114279721Y-116841726D01*
X114453967Y-116643036D01*
X114469135Y-116619456D01*
X114594403Y-116424704D01*
X114596931Y-116420774D01*
X114705472Y-116179822D01*
X114735706Y-116072622D01*
X114775936Y-115929977D01*
X114775937Y-115929974D01*
X114777206Y-115925473D01*
X114788444Y-115837136D01*
X114810158Y-115666445D01*
X114810158Y-115666441D01*
X114810556Y-115663315D01*
X114810831Y-115652836D01*
X114812164Y-115601923D01*
X114813000Y-115570000D01*
X114809631Y-115524666D01*
X114793761Y-115311108D01*
X114793760Y-115311104D01*
X114793415Y-115306456D01*
X114735091Y-115048701D01*
X114733398Y-115044347D01*
X114641003Y-114806752D01*
X114641002Y-114806749D01*
X114639310Y-114802399D01*
X114508174Y-114572959D01*
X114344565Y-114365423D01*
X114152078Y-114184349D01*
X113934941Y-114033715D01*
X113930748Y-114031647D01*
X113702112Y-113918896D01*
X113702109Y-113918895D01*
X113697924Y-113916831D01*
X113651199Y-113901874D01*
X113450678Y-113837687D01*
X113450680Y-113837687D01*
X113446233Y-113836264D01*
X113303236Y-113812976D01*
X113190011Y-113794536D01*
X113190010Y-113794536D01*
X113185399Y-113793785D01*
X113053275Y-113792056D01*
X112925827Y-113790387D01*
X112925824Y-113790387D01*
X112921150Y-113790326D01*
X112659293Y-113825963D01*
X112654807Y-113827271D01*
X112654805Y-113827271D01*
X112619069Y-113837687D01*
X112405580Y-113899913D01*
X112165584Y-114010553D01*
X112161675Y-114013116D01*
X111948491Y-114152885D01*
X111948486Y-114152889D01*
X111944578Y-114155451D01*
X111747417Y-114331424D01*
X111578432Y-114534607D01*
X111441335Y-114760535D01*
X111439526Y-114764849D01*
X111439524Y-114764853D01*
X111418445Y-114815122D01*
X111339139Y-115004246D01*
X111274088Y-115260385D01*
X111273619Y-115265043D01*
X111249583Y-115503741D01*
X111222857Y-115569515D01*
X111164813Y-115610398D01*
X111093880Y-115613410D01*
X111032579Y-115577595D01*
X110999746Y-115510690D01*
X110999621Y-115509891D01*
X110999529Y-115509310D01*
X110998000Y-115489737D01*
X110998000Y-92791957D01*
X110999782Y-92770839D01*
X111002418Y-92755334D01*
X111004274Y-92755649D01*
X111027462Y-92697063D01*
X111085132Y-92655654D01*
X111156034Y-92651998D01*
X111217658Y-92687255D01*
X111250438Y-92750232D01*
X111252664Y-92768515D01*
X111253832Y-92792836D01*
X111260290Y-92927293D01*
X111311847Y-93186486D01*
X111401148Y-93435211D01*
X111526233Y-93668005D01*
X111529028Y-93671748D01*
X111529030Y-93671751D01*
X111681561Y-93876015D01*
X111681566Y-93876021D01*
X111684353Y-93879753D01*
X111687662Y-93883033D01*
X111687667Y-93883039D01*
X111868717Y-94062516D01*
X111872034Y-94065804D01*
X111875796Y-94068562D01*
X111875799Y-94068565D01*
X111986111Y-94149449D01*
X112085154Y-94222070D01*
X112089297Y-94224250D01*
X112089299Y-94224251D01*
X112314880Y-94342935D01*
X112314885Y-94342937D01*
X112319030Y-94345118D01*
X112323453Y-94346663D01*
X112323454Y-94346663D01*
X112464333Y-94395860D01*
X112568526Y-94432246D01*
X112573119Y-94433118D01*
X112823570Y-94480668D01*
X112823573Y-94480668D01*
X112828159Y-94481539D01*
X112953654Y-94486470D01*
X113087558Y-94491731D01*
X113087563Y-94491731D01*
X113092226Y-94491914D01*
X113194914Y-94480668D01*
X113350273Y-94463654D01*
X113350279Y-94463653D01*
X113354926Y-94463144D01*
X113359450Y-94461953D01*
X113605965Y-94397051D01*
X113605967Y-94397050D01*
X113610488Y-94395860D01*
X113724997Y-94346663D01*
X113849004Y-94293385D01*
X113849006Y-94293384D01*
X113853298Y-94291540D01*
X114078021Y-94152477D01*
X114279721Y-93981726D01*
X114453967Y-93783036D01*
X114596931Y-93560774D01*
X114705472Y-93319822D01*
X114744368Y-93181909D01*
X114775936Y-93069977D01*
X114775937Y-93069974D01*
X114777206Y-93065473D01*
X114780400Y-93040362D01*
X114810158Y-92806445D01*
X114810158Y-92806441D01*
X114810556Y-92803315D01*
X114810831Y-92792836D01*
X114812917Y-92713160D01*
X114813000Y-92710000D01*
X114801246Y-92551834D01*
X114793761Y-92451108D01*
X114793760Y-92451104D01*
X114793415Y-92446456D01*
X114735091Y-92188701D01*
X114725032Y-92162833D01*
X114641003Y-91946752D01*
X114641002Y-91946749D01*
X114639310Y-91942399D01*
X114508174Y-91712959D01*
X114344565Y-91505423D01*
X114152078Y-91324349D01*
X113934941Y-91173715D01*
X113902675Y-91157803D01*
X113702112Y-91058896D01*
X113702109Y-91058895D01*
X113697924Y-91056831D01*
X113651199Y-91041874D01*
X113450678Y-90977687D01*
X113450680Y-90977687D01*
X113446233Y-90976264D01*
X113303236Y-90952976D01*
X113190011Y-90934536D01*
X113190010Y-90934536D01*
X113185399Y-90933785D01*
X113092243Y-90932566D01*
X113024391Y-90911675D01*
X112978604Y-90857415D01*
X112969421Y-90787015D01*
X112999756Y-90722826D01*
X113059980Y-90685227D01*
X113074291Y-90682111D01*
X113090661Y-90679534D01*
X113110257Y-90678000D01*
X143428043Y-90678000D01*
X143449160Y-90679782D01*
G37*
G04 #@! TD.AperFunction*
M02*
