G04 #@! TF.GenerationSoftware,KiCad,Pcbnew,(5.99.0-8018-g9a0f685a75)*
G04 #@! TF.CreationDate,2021-01-11T06:07:01+10:30*
G04 #@! TF.ProjectId,MCP39F511_Breakout,4d435033-3946-4353-9131-5f427265616b,rev?*
G04 #@! TF.SameCoordinates,Original*
G04 #@! TF.FileFunction,Copper,L2,Bot*
G04 #@! TF.FilePolarity,Positive*
%FSLAX46Y46*%
G04 Gerber Fmt 4.6, Leading zero omitted, Abs format (unit mm)*
G04 Created by KiCad (PCBNEW (5.99.0-8018-g9a0f685a75)) date 2021-01-11 06:07:01*
%MOMM*%
%LPD*%
G01*
G04 APERTURE LIST*
G04 #@! TA.AperFunction,ComponentPad*
%ADD10R,1.700000X1.700000*%
G04 #@! TD*
G04 #@! TA.AperFunction,ComponentPad*
%ADD11O,1.700000X1.700000*%
G04 #@! TD*
G04 #@! TA.AperFunction,SMDPad,CuDef*
%ADD12C,2.000000*%
G04 #@! TD*
G04 #@! TA.AperFunction,ViaPad*
%ADD13C,0.800000*%
G04 #@! TD*
G04 #@! TA.AperFunction,Conductor*
%ADD14C,0.250000*%
G04 #@! TD*
G04 #@! TA.AperFunction,Conductor*
%ADD15C,0.200000*%
G04 #@! TD*
G04 #@! TA.AperFunction,Conductor*
%ADD16C,0.400000*%
G04 #@! TD*
G04 APERTURE END LIST*
D10*
X116840000Y-116840000D03*
D11*
X119380000Y-116840000D03*
X121920000Y-116840000D03*
X124460000Y-116840000D03*
X127000000Y-116840000D03*
X129540000Y-116840000D03*
X132080000Y-116840000D03*
X134620000Y-116840000D03*
X137160000Y-116840000D03*
X139700000Y-116840000D03*
D12*
X138430000Y-101360000D03*
X142480000Y-105410000D03*
X138430000Y-105410000D03*
X142480000Y-101360000D03*
D13*
X124460000Y-99568000D03*
X131800000Y-114200000D03*
X123900000Y-104100000D03*
X133402158Y-101203237D03*
X124201716Y-105105720D03*
X133600000Y-102300000D03*
X127800000Y-110400000D03*
X124300000Y-96900000D03*
X142800000Y-103000000D03*
X125900000Y-97976000D03*
X132500000Y-106600000D03*
X135500000Y-101300000D03*
X130000000Y-105175000D03*
X123700000Y-101600000D03*
X144780000Y-100330000D03*
X123190000Y-91440000D03*
X111760000Y-100330000D03*
X128270000Y-91440000D03*
X132000000Y-99875000D03*
X111760000Y-107950000D03*
X111760000Y-113030000D03*
X118200000Y-114695500D03*
X111760000Y-95250000D03*
X111760000Y-110490000D03*
X140500000Y-106500000D03*
X120650000Y-91440000D03*
X144780000Y-105410000D03*
X115570000Y-91440000D03*
X144780000Y-107950000D03*
X129600000Y-110700000D03*
X127250000Y-102600000D03*
X144780000Y-113030000D03*
X144780000Y-102870000D03*
X125730000Y-91440000D03*
X127150000Y-100550000D03*
X144780000Y-110490000D03*
X111760000Y-102870000D03*
X129350000Y-100500000D03*
X137160000Y-109760000D03*
X132400000Y-104100000D03*
X140970000Y-91440000D03*
X128300000Y-101600000D03*
X134600000Y-109700000D03*
X130810000Y-91440000D03*
X138430000Y-91440000D03*
X111760000Y-97790000D03*
X129300000Y-102600000D03*
X133350000Y-91440000D03*
X123300000Y-114800000D03*
X118110000Y-91440000D03*
X144780000Y-95250000D03*
X135890000Y-91440000D03*
X111760000Y-105410000D03*
X144780000Y-97790000D03*
X124350792Y-100840742D03*
X126800000Y-95000000D03*
X126500000Y-112900000D03*
D14*
X127232000Y-99568000D02*
X124460000Y-99568000D01*
X141050000Y-96950000D02*
X129850000Y-96950000D01*
X141050000Y-103950000D02*
X141050000Y-96950000D01*
X142400000Y-105300000D02*
X141050000Y-103950000D01*
X129850000Y-96950000D02*
X127232000Y-99568000D01*
X131800000Y-114200000D02*
X128400000Y-114200000D01*
X128400000Y-114200000D02*
X127000000Y-115600000D01*
X127000000Y-115600000D02*
X127000000Y-116800000D01*
D15*
X124571026Y-104100000D02*
X124771026Y-103900000D01*
X129363590Y-103900000D02*
X131463590Y-101800000D01*
X124771026Y-103900000D02*
X129363590Y-103900000D01*
X132805395Y-101800000D02*
X133402158Y-101203237D01*
X123900000Y-104100000D02*
X124571026Y-104100000D01*
X131463590Y-101800000D02*
X132805395Y-101800000D01*
X131600000Y-102300000D02*
X133600000Y-102300000D01*
X124957436Y-104350000D02*
X129550000Y-104350000D01*
X124201716Y-105105720D02*
X124957436Y-104350000D01*
X129550000Y-104350000D02*
X131600000Y-102300000D01*
D14*
X122100000Y-96900000D02*
X124300000Y-96900000D01*
X121000000Y-98000000D02*
X122100000Y-96900000D01*
X123500000Y-110400000D02*
X121000000Y-107900000D01*
X121000000Y-107900000D02*
X121000000Y-98000000D01*
X127800000Y-110400000D02*
X123500000Y-110400000D01*
X142800000Y-101800000D02*
X142500000Y-101500000D01*
X142500000Y-96800000D02*
X142500000Y-101200000D01*
X125900000Y-97976000D02*
X127521000Y-96355000D01*
X128500000Y-95400000D02*
X141100000Y-95400000D01*
X127521000Y-96355000D02*
X127545000Y-96355000D01*
X127545000Y-96355000D02*
X128500000Y-95400000D01*
X141100000Y-95400000D02*
X142500000Y-96800000D01*
X142800000Y-103000000D02*
X142800000Y-101800000D01*
X132500000Y-106600000D02*
X137300000Y-106600000D01*
X137300000Y-106600000D02*
X138300000Y-105600000D01*
X135500000Y-101300000D02*
X138400000Y-101300000D01*
X122600000Y-105300000D02*
X123600000Y-106300000D01*
X122600000Y-102700000D02*
X122600000Y-105300000D01*
X123600000Y-106300000D02*
X128875000Y-106300000D01*
X123700000Y-101600000D02*
X122600000Y-102700000D01*
X128875000Y-106300000D02*
X130000000Y-105175000D01*
X133444999Y-115455001D02*
X132000000Y-116900000D01*
X124350792Y-100840742D02*
X123386256Y-100840742D01*
X121800000Y-102426998D02*
X121800000Y-105136410D01*
X129061400Y-106750010D02*
X133105695Y-110794305D01*
X123413600Y-106750010D02*
X129061400Y-106750010D01*
X133444999Y-111133609D02*
X133444999Y-112355001D01*
X133105695Y-110794305D02*
X133444999Y-111133609D01*
X123386256Y-100840742D02*
X121800000Y-102426998D01*
X133444999Y-112355001D02*
X133444999Y-115455001D01*
X121800000Y-105136410D02*
X123413600Y-106750010D01*
D16*
X116900000Y-114000000D02*
X116900000Y-116700000D01*
X118500000Y-95000000D02*
X116200000Y-97300000D01*
X126800000Y-95000000D02*
X118500000Y-95000000D01*
X116200000Y-116300000D02*
X116800000Y-116900000D01*
X118000000Y-112900000D02*
X116900000Y-114000000D01*
X116200000Y-97300000D02*
X116200000Y-116300000D01*
X126500000Y-112900000D02*
X118000000Y-112900000D01*
G04 #@! TA.AperFunction,Conductor*
G36*
X143449160Y-90679782D02*
G01*
X143453413Y-90680505D01*
X143517218Y-90711641D01*
X143554061Y-90772329D01*
X143552244Y-90843303D01*
X143512345Y-90902027D01*
X143447031Y-90929858D01*
X143430647Y-90930712D01*
X143405828Y-90930387D01*
X143405825Y-90930387D01*
X143401150Y-90930326D01*
X143139293Y-90965963D01*
X143134807Y-90967271D01*
X143134805Y-90967271D01*
X143099069Y-90977687D01*
X142885580Y-91039913D01*
X142645584Y-91150553D01*
X142641675Y-91153116D01*
X142428491Y-91292885D01*
X142428486Y-91292889D01*
X142424578Y-91295451D01*
X142421086Y-91298568D01*
X142241399Y-91458945D01*
X142227417Y-91471424D01*
X142196090Y-91509091D01*
X142070126Y-91660547D01*
X142058432Y-91674607D01*
X141921335Y-91900535D01*
X141919526Y-91904849D01*
X141919524Y-91904853D01*
X141898445Y-91955122D01*
X141819139Y-92144246D01*
X141754088Y-92400385D01*
X141727611Y-92663327D01*
X141727835Y-92667993D01*
X141727835Y-92667998D01*
X141732046Y-92755649D01*
X141733832Y-92792836D01*
X141740290Y-92927293D01*
X141791847Y-93186486D01*
X141881148Y-93435211D01*
X142006233Y-93668005D01*
X142009028Y-93671748D01*
X142009030Y-93671751D01*
X142161561Y-93876015D01*
X142161566Y-93876021D01*
X142164353Y-93879753D01*
X142167662Y-93883033D01*
X142167667Y-93883039D01*
X142348717Y-94062516D01*
X142352034Y-94065804D01*
X142355796Y-94068562D01*
X142355799Y-94068565D01*
X142444898Y-94133895D01*
X142565154Y-94222070D01*
X142569297Y-94224250D01*
X142569299Y-94224251D01*
X142794880Y-94342935D01*
X142794885Y-94342937D01*
X142799030Y-94345118D01*
X142803453Y-94346663D01*
X142803454Y-94346663D01*
X143032794Y-94426752D01*
X143048526Y-94432246D01*
X143053119Y-94433118D01*
X143303570Y-94480668D01*
X143303573Y-94480668D01*
X143308159Y-94481539D01*
X143433654Y-94486470D01*
X143567558Y-94491731D01*
X143567563Y-94491731D01*
X143572226Y-94491914D01*
X143674914Y-94480668D01*
X143830273Y-94463654D01*
X143830279Y-94463653D01*
X143834926Y-94463144D01*
X143853895Y-94458150D01*
X144085965Y-94397051D01*
X144085967Y-94397050D01*
X144090488Y-94395860D01*
X144113762Y-94385861D01*
X144329004Y-94293385D01*
X144329006Y-94293384D01*
X144333298Y-94291540D01*
X144558021Y-94152477D01*
X144583143Y-94131210D01*
X144756148Y-93984751D01*
X144756150Y-93984749D01*
X144759721Y-93981726D01*
X144933967Y-93783036D01*
X145076931Y-93560774D01*
X145185472Y-93319822D01*
X145224368Y-93181909D01*
X145255936Y-93069977D01*
X145255937Y-93069974D01*
X145257206Y-93065473D01*
X145259367Y-93048486D01*
X145290158Y-92806446D01*
X145290158Y-92806440D01*
X145290556Y-92803315D01*
X145290559Y-92803203D01*
X145315506Y-92737313D01*
X145372552Y-92695048D01*
X145443392Y-92690333D01*
X145505535Y-92724666D01*
X145539251Y-92787146D01*
X145542000Y-92813320D01*
X145542000Y-115488043D01*
X145540218Y-115509157D01*
X145538310Y-115520382D01*
X145507176Y-115584188D01*
X145446488Y-115621032D01*
X145375514Y-115619217D01*
X145316789Y-115579319D01*
X145288439Y-115508606D01*
X145273763Y-115311122D01*
X145273761Y-115311105D01*
X145273415Y-115306456D01*
X145215091Y-115048701D01*
X145213398Y-115044347D01*
X145121003Y-114806752D01*
X145121002Y-114806749D01*
X145119310Y-114802399D01*
X144988174Y-114572959D01*
X144906370Y-114469191D01*
X144827457Y-114369091D01*
X144827454Y-114369088D01*
X144824565Y-114365423D01*
X144632078Y-114184349D01*
X144414941Y-114033715D01*
X144410748Y-114031647D01*
X144182112Y-113918896D01*
X144182109Y-113918895D01*
X144177924Y-113916831D01*
X144131199Y-113901874D01*
X143930678Y-113837687D01*
X143930680Y-113837687D01*
X143926233Y-113836264D01*
X143747305Y-113807124D01*
X143670011Y-113794536D01*
X143670010Y-113794536D01*
X143665399Y-113793785D01*
X143533275Y-113792056D01*
X143405827Y-113790387D01*
X143405824Y-113790387D01*
X143401150Y-113790326D01*
X143139293Y-113825963D01*
X143134807Y-113827271D01*
X143134805Y-113827271D01*
X143099069Y-113837687D01*
X142885580Y-113899913D01*
X142645584Y-114010553D01*
X142641675Y-114013116D01*
X142428491Y-114152885D01*
X142428486Y-114152889D01*
X142424578Y-114155451D01*
X142421086Y-114158568D01*
X142311291Y-114256564D01*
X142227417Y-114331424D01*
X142058432Y-114534607D01*
X141921335Y-114760535D01*
X141919526Y-114764849D01*
X141919524Y-114764853D01*
X141871716Y-114878863D01*
X141819139Y-115004246D01*
X141754088Y-115260385D01*
X141727611Y-115523327D01*
X141727835Y-115527993D01*
X141727835Y-115527998D01*
X141730534Y-115584188D01*
X141733832Y-115652836D01*
X141740290Y-115787293D01*
X141791847Y-116046486D01*
X141881148Y-116295211D01*
X142006233Y-116528005D01*
X142009028Y-116531748D01*
X142009030Y-116531751D01*
X142161561Y-116736015D01*
X142161566Y-116736021D01*
X142164353Y-116739753D01*
X142167662Y-116743033D01*
X142167667Y-116743039D01*
X142348717Y-116922516D01*
X142352034Y-116925804D01*
X142355796Y-116928562D01*
X142355799Y-116928565D01*
X142459239Y-117004410D01*
X142565154Y-117082070D01*
X142569297Y-117084250D01*
X142569299Y-117084251D01*
X142794880Y-117202935D01*
X142794885Y-117202937D01*
X142799030Y-117205118D01*
X142803453Y-117206663D01*
X142803454Y-117206663D01*
X142944333Y-117255860D01*
X143048526Y-117292246D01*
X143053119Y-117293118D01*
X143303570Y-117340668D01*
X143303573Y-117340668D01*
X143308159Y-117341539D01*
X143452916Y-117347226D01*
X143520198Y-117369887D01*
X143564549Y-117425326D01*
X143571886Y-117495943D01*
X143539881Y-117559316D01*
X143478694Y-117595325D01*
X143467569Y-117597595D01*
X143449337Y-117600466D01*
X143429737Y-117602000D01*
X141040938Y-117602000D01*
X140972817Y-117581998D01*
X140926324Y-117528342D01*
X140916220Y-117458068D01*
X140927071Y-117422054D01*
X140974399Y-117322156D01*
X140978123Y-117312197D01*
X141035968Y-117105718D01*
X141034430Y-117097351D01*
X141022137Y-117094000D01*
X139954002Y-117093999D01*
X139953996Y-117094000D01*
X139572000Y-117093999D01*
X139503879Y-117073997D01*
X139457386Y-117020341D01*
X139446000Y-116967999D01*
X139446000Y-116567885D01*
X139953999Y-116567885D01*
X139958474Y-116583124D01*
X139959864Y-116584329D01*
X139967547Y-116586000D01*
X141019079Y-116586001D01*
X141032610Y-116582028D01*
X141033876Y-116573219D01*
X140986954Y-116392433D01*
X140983419Y-116382395D01*
X140893147Y-116181998D01*
X140887967Y-116172692D01*
X140765218Y-115990366D01*
X140758557Y-115982080D01*
X140606830Y-115823030D01*
X140598873Y-115815990D01*
X140422523Y-115684782D01*
X140413486Y-115679178D01*
X140217550Y-115579559D01*
X140207699Y-115575559D01*
X139997778Y-115510378D01*
X139987396Y-115508095D01*
X139971959Y-115506049D01*
X139957792Y-115508246D01*
X139954000Y-115521430D01*
X139953999Y-116567885D01*
X139446000Y-116567885D01*
X139446001Y-115523716D01*
X139442028Y-115510185D01*
X139431421Y-115508660D01*
X139313555Y-115533391D01*
X139303358Y-115536451D01*
X139098932Y-115617182D01*
X139089396Y-115621916D01*
X138901486Y-115735942D01*
X138892896Y-115742206D01*
X138726884Y-115886264D01*
X138719464Y-115893895D01*
X138580100Y-116063860D01*
X138574079Y-116072622D01*
X138540427Y-116131739D01*
X138489344Y-116181045D01*
X138419714Y-116194906D01*
X138353643Y-116168922D01*
X138326405Y-116139773D01*
X138260519Y-116041909D01*
X138222627Y-115985626D01*
X138160820Y-115920835D01*
X138067161Y-115822656D01*
X138063482Y-115818799D01*
X137878504Y-115681171D01*
X137873753Y-115678755D01*
X137873749Y-115678753D01*
X137677740Y-115579097D01*
X137677739Y-115579097D01*
X137672982Y-115576678D01*
X137551514Y-115538961D01*
X137457895Y-115509891D01*
X137457889Y-115509890D01*
X137452792Y-115508307D01*
X137347798Y-115494391D01*
X137229515Y-115478714D01*
X137229510Y-115478714D01*
X137224230Y-115478014D01*
X137218900Y-115478214D01*
X137218899Y-115478214D01*
X137109030Y-115482339D01*
X136993831Y-115486663D01*
X136929272Y-115500209D01*
X136773411Y-115532912D01*
X136773408Y-115532913D01*
X136768184Y-115534009D01*
X136553740Y-115618697D01*
X136356631Y-115738306D01*
X136352601Y-115741803D01*
X136186815Y-115885664D01*
X136182492Y-115889415D01*
X136179109Y-115893541D01*
X136179105Y-115893545D01*
X136144545Y-115935695D01*
X136036304Y-116067705D01*
X136033667Y-116072338D01*
X136033666Y-116072339D01*
X136000116Y-116131278D01*
X135949033Y-116180584D01*
X135879402Y-116194445D01*
X135813332Y-116168461D01*
X135786094Y-116139312D01*
X135780686Y-116131278D01*
X135685818Y-115990366D01*
X135685607Y-115990052D01*
X135685605Y-115990050D01*
X135682627Y-115985626D01*
X135620820Y-115920835D01*
X135527161Y-115822656D01*
X135523482Y-115818799D01*
X135338504Y-115681171D01*
X135333753Y-115678755D01*
X135333749Y-115678753D01*
X135137740Y-115579097D01*
X135137739Y-115579097D01*
X135132982Y-115576678D01*
X135011514Y-115538961D01*
X134917895Y-115509891D01*
X134917889Y-115509890D01*
X134912792Y-115508307D01*
X134807798Y-115494391D01*
X134689515Y-115478714D01*
X134689510Y-115478714D01*
X134684230Y-115478014D01*
X134678900Y-115478214D01*
X134678899Y-115478214D01*
X134569030Y-115482339D01*
X134453831Y-115486663D01*
X134230372Y-115533550D01*
X134159597Y-115527963D01*
X134103077Y-115484998D01*
X134078757Y-115418297D01*
X134078499Y-115410235D01*
X134078499Y-111211992D01*
X134079013Y-111201088D01*
X134080665Y-111193697D01*
X134078561Y-111126755D01*
X134078499Y-111122798D01*
X134078499Y-111094031D01*
X134077958Y-111089746D01*
X134077025Y-111077905D01*
X134075886Y-111041645D01*
X134075886Y-111041644D01*
X134075637Y-111033725D01*
X134073427Y-111026117D01*
X134073426Y-111026112D01*
X134069986Y-111014270D01*
X134065978Y-110994916D01*
X134064433Y-110982688D01*
X134063439Y-110974821D01*
X134060522Y-110967453D01*
X134060520Y-110967446D01*
X134047162Y-110933708D01*
X134043317Y-110922478D01*
X134033197Y-110887644D01*
X134030985Y-110880030D01*
X134020676Y-110862598D01*
X134011979Y-110844845D01*
X134007441Y-110833384D01*
X134004521Y-110826009D01*
X133978530Y-110790235D01*
X133972015Y-110780316D01*
X133952550Y-110747404D01*
X133952547Y-110747400D01*
X133949512Y-110742268D01*
X133949143Y-110741850D01*
X133935064Y-110727771D01*
X133922223Y-110712737D01*
X133915105Y-110702940D01*
X133910445Y-110696526D01*
X133876661Y-110668577D01*
X133867882Y-110660588D01*
X129807294Y-106600000D01*
X131586500Y-106600000D01*
X131606462Y-106789927D01*
X131608502Y-106796205D01*
X131608502Y-106796206D01*
X131623381Y-106842000D01*
X131665476Y-106971554D01*
X131760963Y-107136942D01*
X131765381Y-107141849D01*
X131765382Y-107141850D01*
X131843335Y-107228426D01*
X131888749Y-107278863D01*
X131894091Y-107282744D01*
X131894093Y-107282746D01*
X132037524Y-107386954D01*
X132043250Y-107391114D01*
X132049278Y-107393798D01*
X132049280Y-107393799D01*
X132071096Y-107403512D01*
X132217713Y-107468790D01*
X132311113Y-107488643D01*
X132398056Y-107507124D01*
X132398061Y-107507124D01*
X132404513Y-107508496D01*
X132595487Y-107508496D01*
X132601939Y-107507124D01*
X132601944Y-107507124D01*
X132688887Y-107488643D01*
X132782287Y-107468790D01*
X132928904Y-107403512D01*
X132950720Y-107393799D01*
X132950722Y-107393798D01*
X132956750Y-107391114D01*
X132962476Y-107386954D01*
X133105907Y-107282746D01*
X133105909Y-107282744D01*
X133111251Y-107278863D01*
X133115673Y-107273952D01*
X133120575Y-107269538D01*
X133121701Y-107270789D01*
X133175000Y-107237951D01*
X133208194Y-107233500D01*
X137221617Y-107233500D01*
X137232521Y-107234014D01*
X137239912Y-107235666D01*
X137247837Y-107235417D01*
X137247838Y-107235417D01*
X137306853Y-107233562D01*
X137310811Y-107233500D01*
X137339578Y-107233500D01*
X137343502Y-107233004D01*
X137343504Y-107233004D01*
X137343852Y-107232960D01*
X137355698Y-107232027D01*
X137399883Y-107230638D01*
X137419339Y-107224986D01*
X137438679Y-107220981D01*
X137458788Y-107218440D01*
X137466158Y-107215522D01*
X137466162Y-107215521D01*
X137499900Y-107202163D01*
X137511130Y-107198318D01*
X137545968Y-107188197D01*
X137545969Y-107188197D01*
X137553578Y-107185986D01*
X137571012Y-107175676D01*
X137588764Y-107166980D01*
X137600225Y-107162442D01*
X137600224Y-107162442D01*
X137607600Y-107159522D01*
X137643375Y-107133530D01*
X137653294Y-107127014D01*
X137691341Y-107104513D01*
X137691759Y-107104145D01*
X137705842Y-107090062D01*
X137720867Y-107077228D01*
X137737083Y-107065446D01*
X137765030Y-107031664D01*
X137773019Y-107022885D01*
X137900370Y-106895534D01*
X137962682Y-106861508D01*
X138026303Y-106864134D01*
X138104998Y-106888193D01*
X138110017Y-106888880D01*
X138110019Y-106888881D01*
X138285240Y-106912883D01*
X138345514Y-106921140D01*
X138414858Y-106919445D01*
X138583143Y-106915333D01*
X138583147Y-106915333D01*
X138588204Y-106915209D01*
X138826823Y-106870552D01*
X139055234Y-106788320D01*
X139267558Y-106670626D01*
X139271536Y-106667496D01*
X139271540Y-106667493D01*
X139454358Y-106523629D01*
X139454359Y-106523628D01*
X139458334Y-106520500D01*
X139461756Y-106516779D01*
X139619231Y-106345527D01*
X139619234Y-106345523D01*
X139622654Y-106341804D01*
X139756290Y-106139134D01*
X139781295Y-106083496D01*
X139853730Y-105922322D01*
X139853732Y-105922316D01*
X139855804Y-105917706D01*
X139872911Y-105853863D01*
X139917327Y-105688098D01*
X139917327Y-105688097D01*
X139918635Y-105683216D01*
X139943168Y-105441696D01*
X139943500Y-105410000D01*
X139939874Y-105364927D01*
X139924437Y-105173061D01*
X139924436Y-105173056D01*
X139924031Y-105168020D01*
X139905749Y-105093587D01*
X139867331Y-104937179D01*
X139866124Y-104932265D01*
X139814112Y-104809731D01*
X139773245Y-104713456D01*
X139773245Y-104713455D01*
X139771269Y-104708801D01*
X139641907Y-104503378D01*
X139481365Y-104321279D01*
X139293775Y-104167191D01*
X139083962Y-104045076D01*
X139079235Y-104043262D01*
X139079232Y-104043260D01*
X138862048Y-103959891D01*
X138862044Y-103959890D01*
X138857324Y-103958078D01*
X138852374Y-103957044D01*
X138852371Y-103957043D01*
X138624643Y-103909468D01*
X138624639Y-103909468D01*
X138619692Y-103908434D01*
X138377180Y-103897422D01*
X138372160Y-103898003D01*
X138372156Y-103898003D01*
X138141056Y-103924742D01*
X138136026Y-103925324D01*
X138131155Y-103926702D01*
X138131152Y-103926703D01*
X138114356Y-103931456D01*
X137902436Y-103991424D01*
X137794054Y-104041963D01*
X137687001Y-104091882D01*
X137686997Y-104091884D01*
X137682419Y-104094019D01*
X137678238Y-104096861D01*
X137678237Y-104096861D01*
X137660689Y-104108787D01*
X137481635Y-104230472D01*
X137452949Y-104257599D01*
X137316024Y-104387083D01*
X137305250Y-104397271D01*
X137302172Y-104401297D01*
X137302171Y-104401298D01*
X137160875Y-104586105D01*
X137160872Y-104586109D01*
X137157802Y-104590125D01*
X137043085Y-104804072D01*
X137041439Y-104808853D01*
X137041437Y-104808857D01*
X136983024Y-104978502D01*
X136964049Y-105033608D01*
X136922729Y-105272828D01*
X136920187Y-105515576D01*
X136920944Y-105520579D01*
X136920944Y-105520584D01*
X136952798Y-105731210D01*
X136956488Y-105755609D01*
X136958034Y-105760425D01*
X136958035Y-105760428D01*
X136971377Y-105801982D01*
X136973157Y-105872956D01*
X136936283Y-105933626D01*
X136872462Y-105964729D01*
X136851409Y-105966500D01*
X133208194Y-105966500D01*
X133140073Y-105946498D01*
X133120849Y-105930158D01*
X133120575Y-105930462D01*
X133115672Y-105926047D01*
X133111251Y-105921137D01*
X133105909Y-105917256D01*
X133105907Y-105917254D01*
X132962092Y-105812767D01*
X132962091Y-105812766D01*
X132956750Y-105808886D01*
X132950722Y-105806202D01*
X132950720Y-105806201D01*
X132788318Y-105733895D01*
X132788317Y-105733895D01*
X132782287Y-105731210D01*
X132688887Y-105711357D01*
X132601944Y-105692876D01*
X132601939Y-105692876D01*
X132595487Y-105691504D01*
X132404513Y-105691504D01*
X132398061Y-105692876D01*
X132398056Y-105692876D01*
X132311113Y-105711357D01*
X132217713Y-105731210D01*
X132211683Y-105733895D01*
X132211682Y-105733895D01*
X132049280Y-105806201D01*
X132049278Y-105806202D01*
X132043250Y-105808886D01*
X132037909Y-105812766D01*
X132037908Y-105812767D01*
X131894093Y-105917254D01*
X131894091Y-105917256D01*
X131888749Y-105921137D01*
X131884328Y-105926047D01*
X131884327Y-105926048D01*
X131777077Y-106045162D01*
X131760963Y-106063058D01*
X131665476Y-106228446D01*
X131606462Y-106410073D01*
X131586500Y-106600000D01*
X129807294Y-106600000D01*
X129728194Y-106520900D01*
X129694168Y-106458588D01*
X129699233Y-106387773D01*
X129728194Y-106342710D01*
X129950503Y-106120401D01*
X130012815Y-106086375D01*
X130039598Y-106083496D01*
X130095487Y-106083496D01*
X130101939Y-106082124D01*
X130101944Y-106082124D01*
X130214729Y-106058150D01*
X130282287Y-106043790D01*
X130288318Y-106041105D01*
X130450720Y-105968799D01*
X130450722Y-105968798D01*
X130456750Y-105966114D01*
X130462092Y-105962233D01*
X130605907Y-105857746D01*
X130605909Y-105857744D01*
X130611251Y-105853863D01*
X130648254Y-105812767D01*
X130734618Y-105716850D01*
X130734619Y-105716849D01*
X130739037Y-105711942D01*
X130834524Y-105546554D01*
X130893538Y-105364927D01*
X130901510Y-105289083D01*
X130912810Y-105181565D01*
X130913500Y-105175000D01*
X130893538Y-104985073D01*
X130885840Y-104961379D01*
X130836566Y-104809731D01*
X130834524Y-104803446D01*
X130739037Y-104638058D01*
X130692259Y-104586105D01*
X130615673Y-104501048D01*
X130615672Y-104501047D01*
X130611251Y-104496137D01*
X130605909Y-104492256D01*
X130605907Y-104492254D01*
X130529715Y-104436898D01*
X130486361Y-104380676D01*
X130480286Y-104309940D01*
X130514681Y-104245866D01*
X130766692Y-103993856D01*
X131815145Y-102945404D01*
X131877457Y-102911379D01*
X131904240Y-102908500D01*
X132869296Y-102908500D01*
X132937417Y-102928502D01*
X132962928Y-102950186D01*
X132988749Y-102978863D01*
X132994091Y-102982744D01*
X132994093Y-102982746D01*
X133037930Y-103014595D01*
X133143250Y-103091114D01*
X133149278Y-103093798D01*
X133149280Y-103093799D01*
X133311682Y-103166105D01*
X133317713Y-103168790D01*
X133386273Y-103183363D01*
X133498056Y-103207124D01*
X133498061Y-103207124D01*
X133504513Y-103208496D01*
X133695487Y-103208496D01*
X133701939Y-103207124D01*
X133701944Y-103207124D01*
X133813727Y-103183363D01*
X133882287Y-103168790D01*
X133888318Y-103166105D01*
X134050720Y-103093799D01*
X134050722Y-103093798D01*
X134056750Y-103091114D01*
X134162070Y-103014595D01*
X134205907Y-102982746D01*
X134205909Y-102982744D01*
X134211251Y-102978863D01*
X134339037Y-102836942D01*
X134434524Y-102671554D01*
X134483959Y-102519408D01*
X134491498Y-102496206D01*
X134491498Y-102496205D01*
X134493538Y-102489927D01*
X134513500Y-102300000D01*
X134498055Y-102153053D01*
X134494228Y-102116637D01*
X134494228Y-102116636D01*
X134493538Y-102110073D01*
X134485235Y-102084517D01*
X134436566Y-101934731D01*
X134434524Y-101928446D01*
X134339037Y-101763058D01*
X134267547Y-101683661D01*
X134236832Y-101619656D01*
X134241352Y-101560417D01*
X134255614Y-101516525D01*
X134295696Y-101393164D01*
X134305488Y-101300000D01*
X134586500Y-101300000D01*
X134587190Y-101306565D01*
X134596438Y-101394550D01*
X134606462Y-101489927D01*
X134608502Y-101496205D01*
X134608502Y-101496206D01*
X134634036Y-101574791D01*
X134665476Y-101671554D01*
X134668779Y-101677276D01*
X134668780Y-101677277D01*
X134694163Y-101721242D01*
X134760963Y-101836942D01*
X134765381Y-101841849D01*
X134765382Y-101841850D01*
X134788663Y-101867706D01*
X134888749Y-101978863D01*
X134894091Y-101982744D01*
X134894093Y-101982746D01*
X134921003Y-102002297D01*
X135043250Y-102091114D01*
X135049278Y-102093798D01*
X135049280Y-102093799D01*
X135182367Y-102153053D01*
X135217713Y-102168790D01*
X135311113Y-102188643D01*
X135398056Y-102207124D01*
X135398061Y-102207124D01*
X135404513Y-102208496D01*
X135595487Y-102208496D01*
X135601939Y-102207124D01*
X135601944Y-102207124D01*
X135688887Y-102188643D01*
X135782287Y-102168790D01*
X135817633Y-102153053D01*
X135950720Y-102093799D01*
X135950722Y-102093798D01*
X135956750Y-102091114D01*
X136078997Y-102002297D01*
X136105907Y-101982746D01*
X136105909Y-101982744D01*
X136111251Y-101978863D01*
X136115673Y-101973952D01*
X136120575Y-101969538D01*
X136121701Y-101970789D01*
X136175000Y-101937951D01*
X136208194Y-101933500D01*
X136951831Y-101933500D01*
X137019952Y-101953502D01*
X137064097Y-102002296D01*
X137140911Y-102153053D01*
X137143901Y-102157138D01*
X137245187Y-102295527D01*
X137284288Y-102348952D01*
X137457141Y-102519408D01*
X137461266Y-102522340D01*
X137461269Y-102522342D01*
X137650898Y-102657105D01*
X137650902Y-102657108D01*
X137655023Y-102660036D01*
X137659561Y-102662269D01*
X137659566Y-102662272D01*
X137817602Y-102740035D01*
X137872843Y-102767217D01*
X137877678Y-102768695D01*
X137877680Y-102768696D01*
X137956295Y-102792730D01*
X138104998Y-102838193D01*
X138110017Y-102838880D01*
X138110019Y-102838881D01*
X138285240Y-102862883D01*
X138345514Y-102871140D01*
X138414858Y-102869445D01*
X138583143Y-102865333D01*
X138583147Y-102865333D01*
X138588204Y-102865209D01*
X138826823Y-102820552D01*
X138837698Y-102816637D01*
X138977863Y-102766175D01*
X139055234Y-102738320D01*
X139267558Y-102620626D01*
X139271536Y-102617496D01*
X139271540Y-102617493D01*
X139454358Y-102473629D01*
X139454359Y-102473628D01*
X139458334Y-102470500D01*
X139461756Y-102466779D01*
X139619231Y-102295527D01*
X139619234Y-102295523D01*
X139622654Y-102291804D01*
X139756290Y-102089134D01*
X139810039Y-101969538D01*
X139853730Y-101872322D01*
X139853732Y-101872316D01*
X139855804Y-101867706D01*
X139906829Y-101677277D01*
X139917327Y-101638098D01*
X139917327Y-101638097D01*
X139918635Y-101633216D01*
X139943168Y-101391696D01*
X139943500Y-101360000D01*
X139938673Y-101300000D01*
X139924437Y-101123061D01*
X139924436Y-101123056D01*
X139924031Y-101118020D01*
X139914366Y-101078669D01*
X139867331Y-100887179D01*
X139866124Y-100882265D01*
X139851286Y-100847307D01*
X139773245Y-100663456D01*
X139773245Y-100663455D01*
X139771269Y-100658801D01*
X139641907Y-100453378D01*
X139481365Y-100271279D01*
X139293775Y-100117191D01*
X139083962Y-99995076D01*
X139079235Y-99993262D01*
X139079232Y-99993260D01*
X138862048Y-99909891D01*
X138862044Y-99909890D01*
X138857324Y-99908078D01*
X138852374Y-99907044D01*
X138852371Y-99907043D01*
X138624643Y-99859468D01*
X138624639Y-99859468D01*
X138619692Y-99858434D01*
X138377180Y-99847422D01*
X138372160Y-99848003D01*
X138372156Y-99848003D01*
X138141056Y-99874742D01*
X138136026Y-99875324D01*
X138131155Y-99876702D01*
X138131152Y-99876703D01*
X138023955Y-99907037D01*
X137902436Y-99941424D01*
X137816501Y-99981496D01*
X137687001Y-100041882D01*
X137686997Y-100041884D01*
X137682419Y-100044019D01*
X137481635Y-100180472D01*
X137405421Y-100252544D01*
X137316927Y-100336229D01*
X137305250Y-100347271D01*
X137302172Y-100351297D01*
X137302171Y-100351298D01*
X137160875Y-100536105D01*
X137160872Y-100536109D01*
X137157802Y-100540125D01*
X137125675Y-100600042D01*
X137075859Y-100650624D01*
X137014632Y-100666500D01*
X136208194Y-100666500D01*
X136140073Y-100646498D01*
X136120849Y-100630158D01*
X136120575Y-100630462D01*
X136115672Y-100626047D01*
X136111251Y-100621137D01*
X136105909Y-100617256D01*
X136105907Y-100617254D01*
X135962092Y-100512767D01*
X135962091Y-100512766D01*
X135956750Y-100508886D01*
X135950722Y-100506202D01*
X135950720Y-100506201D01*
X135788318Y-100433895D01*
X135788317Y-100433895D01*
X135782287Y-100431210D01*
X135678161Y-100409077D01*
X135601944Y-100392876D01*
X135601939Y-100392876D01*
X135595487Y-100391504D01*
X135404513Y-100391504D01*
X135398061Y-100392876D01*
X135398056Y-100392876D01*
X135321839Y-100409077D01*
X135217713Y-100431210D01*
X135211683Y-100433895D01*
X135211682Y-100433895D01*
X135049280Y-100506201D01*
X135049278Y-100506202D01*
X135043250Y-100508886D01*
X135037909Y-100512766D01*
X135037908Y-100512767D01*
X134894093Y-100617254D01*
X134894091Y-100617256D01*
X134888749Y-100621137D01*
X134884328Y-100626047D01*
X134884327Y-100626048D01*
X134848089Y-100666295D01*
X134760963Y-100763058D01*
X134721342Y-100831683D01*
X134689302Y-100887179D01*
X134665476Y-100928446D01*
X134606462Y-101110073D01*
X134586500Y-101300000D01*
X134305488Y-101300000D01*
X134313010Y-101228436D01*
X134314968Y-101209802D01*
X134315658Y-101203237D01*
X134305206Y-101103794D01*
X134296386Y-101019874D01*
X134296386Y-101019873D01*
X134295696Y-101013310D01*
X134236682Y-100831683D01*
X134141195Y-100666295D01*
X134134448Y-100658801D01*
X134017831Y-100529285D01*
X134017830Y-100529284D01*
X134013409Y-100524374D01*
X134008067Y-100520493D01*
X134008065Y-100520491D01*
X133864250Y-100416004D01*
X133864249Y-100416003D01*
X133858908Y-100412123D01*
X133852880Y-100409439D01*
X133852878Y-100409438D01*
X133690476Y-100337132D01*
X133690475Y-100337132D01*
X133684445Y-100334447D01*
X133591045Y-100314594D01*
X133504102Y-100296113D01*
X133504097Y-100296113D01*
X133497645Y-100294741D01*
X133306671Y-100294741D01*
X133300219Y-100296113D01*
X133300214Y-100296113D01*
X133213271Y-100314594D01*
X133119871Y-100334447D01*
X133113841Y-100337132D01*
X133113840Y-100337132D01*
X132951438Y-100409438D01*
X132951436Y-100409439D01*
X132945408Y-100412123D01*
X132940067Y-100416003D01*
X132940066Y-100416004D01*
X132796251Y-100520491D01*
X132796249Y-100520493D01*
X132790907Y-100524374D01*
X132786486Y-100529284D01*
X132786485Y-100529285D01*
X132669869Y-100658801D01*
X132663121Y-100666295D01*
X132567634Y-100831683D01*
X132508620Y-101013310D01*
X132507930Y-101019873D01*
X132507930Y-101019874D01*
X132501751Y-101078669D01*
X132474738Y-101144326D01*
X132416517Y-101184957D01*
X132376441Y-101191500D01*
X131509819Y-101191500D01*
X131493373Y-101190422D01*
X131471778Y-101187579D01*
X131471777Y-101187579D01*
X131463589Y-101186501D01*
X131455401Y-101187579D01*
X131455399Y-101187579D01*
X131425622Y-101191499D01*
X131425609Y-101191500D01*
X131340423Y-101202716D01*
X131340422Y-101202716D01*
X131312990Y-101206327D01*
X131312988Y-101206328D01*
X131304803Y-101207405D01*
X131254031Y-101228436D01*
X131156840Y-101268693D01*
X131029780Y-101366190D01*
X131011484Y-101390034D01*
X131000623Y-101402418D01*
X129586406Y-102816637D01*
X129148448Y-103254595D01*
X129086135Y-103288620D01*
X129059352Y-103291500D01*
X124817263Y-103291500D01*
X124800816Y-103290422D01*
X124779214Y-103287578D01*
X124771026Y-103286500D01*
X124612240Y-103307405D01*
X124599290Y-103312769D01*
X124578721Y-103321289D01*
X124513413Y-103348340D01*
X124442823Y-103355929D01*
X124391134Y-103333867D01*
X124362091Y-103312766D01*
X124362088Y-103312764D01*
X124356750Y-103308886D01*
X124350722Y-103306202D01*
X124188318Y-103233895D01*
X124188317Y-103233895D01*
X124182287Y-103231210D01*
X124088887Y-103211357D01*
X124001944Y-103192876D01*
X124001939Y-103192876D01*
X123995487Y-103191504D01*
X123804513Y-103191504D01*
X123798061Y-103192876D01*
X123798056Y-103192876D01*
X123711113Y-103211357D01*
X123617713Y-103231210D01*
X123611683Y-103233895D01*
X123611682Y-103233895D01*
X123449280Y-103306201D01*
X123449278Y-103306202D01*
X123443250Y-103308886D01*
X123437910Y-103312766D01*
X123437905Y-103312769D01*
X123433558Y-103315927D01*
X123366689Y-103339784D01*
X123297538Y-103323701D01*
X123248060Y-103272786D01*
X123233500Y-103213989D01*
X123233500Y-103014595D01*
X123253502Y-102946474D01*
X123270405Y-102925499D01*
X123650505Y-102545400D01*
X123712817Y-102511375D01*
X123739600Y-102508496D01*
X123795487Y-102508496D01*
X123801939Y-102507124D01*
X123801944Y-102507124D01*
X123913727Y-102483363D01*
X123982287Y-102468790D01*
X123988318Y-102466105D01*
X124150720Y-102393799D01*
X124150722Y-102393798D01*
X124156750Y-102391114D01*
X124209887Y-102352508D01*
X124305907Y-102282746D01*
X124305909Y-102282744D01*
X124311251Y-102278863D01*
X124412779Y-102166105D01*
X124434618Y-102141850D01*
X124434619Y-102141849D01*
X124439037Y-102136942D01*
X124497311Y-102036008D01*
X124531220Y-101977277D01*
X124531221Y-101977276D01*
X124534524Y-101971554D01*
X124593538Y-101789927D01*
X124594200Y-101783628D01*
X124627883Y-101721242D01*
X124666150Y-101694808D01*
X124801512Y-101634541D01*
X124801514Y-101634540D01*
X124807542Y-101631856D01*
X124905870Y-101560417D01*
X124956699Y-101523488D01*
X124956701Y-101523486D01*
X124962043Y-101519605D01*
X124988765Y-101489927D01*
X125085410Y-101382592D01*
X125085411Y-101382591D01*
X125089829Y-101377684D01*
X125185316Y-101212296D01*
X125244330Y-101030669D01*
X125246155Y-101013310D01*
X125263602Y-100847307D01*
X125264292Y-100840742D01*
X125244330Y-100650815D01*
X125233426Y-100617254D01*
X125187358Y-100475473D01*
X125185316Y-100469188D01*
X125139885Y-100390499D01*
X125123147Y-100321505D01*
X125146367Y-100254413D01*
X125202174Y-100210526D01*
X125249004Y-100201500D01*
X127153617Y-100201500D01*
X127164521Y-100202014D01*
X127171912Y-100203666D01*
X127179837Y-100203417D01*
X127179838Y-100203417D01*
X127238853Y-100201562D01*
X127242811Y-100201500D01*
X127271578Y-100201500D01*
X127275502Y-100201004D01*
X127275504Y-100201004D01*
X127275852Y-100200960D01*
X127287698Y-100200027D01*
X127331883Y-100198638D01*
X127351339Y-100192986D01*
X127370679Y-100188981D01*
X127390788Y-100186440D01*
X127398158Y-100183522D01*
X127398162Y-100183521D01*
X127431900Y-100170163D01*
X127443130Y-100166318D01*
X127477968Y-100156197D01*
X127477969Y-100156197D01*
X127485578Y-100153986D01*
X127503012Y-100143676D01*
X127520764Y-100134980D01*
X127532225Y-100130442D01*
X127532224Y-100130442D01*
X127539600Y-100127522D01*
X127575375Y-100101530D01*
X127585294Y-100095014D01*
X127598444Y-100087237D01*
X127623341Y-100072513D01*
X127623759Y-100072145D01*
X127637842Y-100058062D01*
X127652867Y-100045228D01*
X127669083Y-100033446D01*
X127697030Y-99999664D01*
X127705019Y-99990885D01*
X130075499Y-97620405D01*
X130137811Y-97586379D01*
X130164594Y-97583500D01*
X140290501Y-97583500D01*
X140358622Y-97603502D01*
X140405115Y-97657158D01*
X140416501Y-97709500D01*
X140416500Y-100825960D01*
X140416500Y-103871617D01*
X140415986Y-103882521D01*
X140414334Y-103889912D01*
X140414583Y-103897837D01*
X140414583Y-103897838D01*
X140416438Y-103956853D01*
X140416500Y-103960811D01*
X140416500Y-103989577D01*
X140417041Y-103993856D01*
X140417973Y-104005696D01*
X140419362Y-104049883D01*
X140421572Y-104057491D01*
X140421573Y-104057496D01*
X140425013Y-104069338D01*
X140429021Y-104088692D01*
X140431560Y-104108787D01*
X140434477Y-104116155D01*
X140434479Y-104116162D01*
X140447837Y-104149900D01*
X140451682Y-104161130D01*
X140464014Y-104203578D01*
X140468049Y-104210400D01*
X140474324Y-104221011D01*
X140483018Y-104238758D01*
X140490478Y-104257599D01*
X140495137Y-104264011D01*
X140495140Y-104264017D01*
X140516468Y-104293372D01*
X140522985Y-104303294D01*
X140542471Y-104336242D01*
X140545487Y-104341341D01*
X140545855Y-104341759D01*
X140559938Y-104355842D01*
X140572778Y-104370875D01*
X140584554Y-104387083D01*
X140618335Y-104415029D01*
X140627115Y-104423019D01*
X141015662Y-104811566D01*
X141049688Y-104873878D01*
X141045702Y-104941682D01*
X141014049Y-105033608D01*
X140972729Y-105272828D01*
X140970187Y-105515576D01*
X140970944Y-105520579D01*
X140970944Y-105520584D01*
X141002798Y-105731210D01*
X141006488Y-105755609D01*
X141008034Y-105760425D01*
X141008035Y-105760428D01*
X141074937Y-105968799D01*
X141080700Y-105986750D01*
X141190911Y-106203053D01*
X141193901Y-106207138D01*
X141295187Y-106345527D01*
X141334288Y-106398952D01*
X141507141Y-106569408D01*
X141511266Y-106572340D01*
X141511269Y-106572342D01*
X141700898Y-106707105D01*
X141700902Y-106707108D01*
X141705023Y-106710036D01*
X141709561Y-106712269D01*
X141709566Y-106712272D01*
X141867602Y-106790035D01*
X141922843Y-106817217D01*
X141927678Y-106818695D01*
X141927680Y-106818696D01*
X142003906Y-106842000D01*
X142154998Y-106888193D01*
X142160017Y-106888880D01*
X142160019Y-106888881D01*
X142335240Y-106912883D01*
X142395514Y-106921140D01*
X142464858Y-106919445D01*
X142633143Y-106915333D01*
X142633147Y-106915333D01*
X142638204Y-106915209D01*
X142876823Y-106870552D01*
X143105234Y-106788320D01*
X143317558Y-106670626D01*
X143321536Y-106667496D01*
X143321540Y-106667493D01*
X143504358Y-106523629D01*
X143504359Y-106523628D01*
X143508334Y-106520500D01*
X143511756Y-106516779D01*
X143669231Y-106345527D01*
X143669234Y-106345523D01*
X143672654Y-106341804D01*
X143806290Y-106139134D01*
X143831295Y-106083496D01*
X143903730Y-105922322D01*
X143903732Y-105922316D01*
X143905804Y-105917706D01*
X143922911Y-105853863D01*
X143967327Y-105688098D01*
X143967327Y-105688097D01*
X143968635Y-105683216D01*
X143993168Y-105441696D01*
X143993500Y-105410000D01*
X143989874Y-105364927D01*
X143974437Y-105173061D01*
X143974436Y-105173056D01*
X143974031Y-105168020D01*
X143955749Y-105093587D01*
X143917331Y-104937179D01*
X143916124Y-104932265D01*
X143864112Y-104809731D01*
X143823245Y-104713456D01*
X143823245Y-104713455D01*
X143821269Y-104708801D01*
X143691907Y-104503378D01*
X143531365Y-104321279D01*
X143343775Y-104167191D01*
X143152760Y-104056017D01*
X143103947Y-104004464D01*
X143090754Y-103934704D01*
X143117371Y-103868885D01*
X143164892Y-103832012D01*
X143250720Y-103793799D01*
X143250722Y-103793798D01*
X143256750Y-103791114D01*
X143262092Y-103787233D01*
X143405907Y-103682746D01*
X143405909Y-103682744D01*
X143411251Y-103678863D01*
X143539037Y-103536942D01*
X143634524Y-103371554D01*
X143687505Y-103208496D01*
X143691498Y-103196206D01*
X143691498Y-103196205D01*
X143693538Y-103189927D01*
X143713500Y-103000000D01*
X143693538Y-102810073D01*
X143634524Y-102628446D01*
X143576113Y-102527275D01*
X143559375Y-102458280D01*
X143582595Y-102391188D01*
X143592483Y-102378989D01*
X143672654Y-102291804D01*
X143806290Y-102089134D01*
X143860039Y-101969538D01*
X143903730Y-101872322D01*
X143903732Y-101872316D01*
X143905804Y-101867706D01*
X143956829Y-101677277D01*
X143967327Y-101638098D01*
X143967327Y-101638097D01*
X143968635Y-101633216D01*
X143993168Y-101391696D01*
X143993500Y-101360000D01*
X143988673Y-101300000D01*
X143974437Y-101123061D01*
X143974436Y-101123056D01*
X143974031Y-101118020D01*
X143964366Y-101078669D01*
X143917331Y-100887179D01*
X143916124Y-100882265D01*
X143901286Y-100847307D01*
X143823245Y-100663456D01*
X143823245Y-100663455D01*
X143821269Y-100658801D01*
X143691907Y-100453378D01*
X143531365Y-100271279D01*
X143343775Y-100117191D01*
X143196116Y-100031251D01*
X143147306Y-99979700D01*
X143133500Y-99922355D01*
X143133500Y-96878383D01*
X143134014Y-96867479D01*
X143135666Y-96860088D01*
X143134567Y-96825106D01*
X143133562Y-96793147D01*
X143133500Y-96789189D01*
X143133500Y-96760422D01*
X143132959Y-96756137D01*
X143132026Y-96744296D01*
X143130887Y-96708036D01*
X143130887Y-96708035D01*
X143130638Y-96700116D01*
X143128428Y-96692508D01*
X143128427Y-96692503D01*
X143124987Y-96680661D01*
X143120979Y-96661307D01*
X143119434Y-96649079D01*
X143118440Y-96641212D01*
X143115523Y-96633844D01*
X143115521Y-96633837D01*
X143102163Y-96600099D01*
X143098318Y-96588869D01*
X143088197Y-96554031D01*
X143088196Y-96554030D01*
X143085986Y-96546421D01*
X143075676Y-96528988D01*
X143066982Y-96511241D01*
X143059522Y-96492400D01*
X143033533Y-96456629D01*
X143027017Y-96446710D01*
X143026294Y-96445487D01*
X143004513Y-96408658D01*
X143004145Y-96408240D01*
X142990063Y-96394158D01*
X142977222Y-96379125D01*
X142970103Y-96369327D01*
X142965446Y-96362917D01*
X142931671Y-96334976D01*
X142922891Y-96326986D01*
X141603391Y-95007487D01*
X141596031Y-94999399D01*
X141591973Y-94993005D01*
X141543121Y-94947130D01*
X141540280Y-94944376D01*
X141519966Y-94924062D01*
X141516555Y-94921417D01*
X141507533Y-94913711D01*
X141481077Y-94888867D01*
X141475301Y-94883443D01*
X141468357Y-94879626D01*
X141468355Y-94879624D01*
X141457547Y-94873682D01*
X141441023Y-94862828D01*
X141431286Y-94855275D01*
X141431285Y-94855275D01*
X141425023Y-94850417D01*
X141417750Y-94847270D01*
X141417747Y-94847268D01*
X141395317Y-94837562D01*
X141384458Y-94832863D01*
X141373800Y-94827642D01*
X141341994Y-94810156D01*
X141341990Y-94810154D01*
X141335048Y-94806338D01*
X141327373Y-94804368D01*
X141327372Y-94804367D01*
X141315426Y-94801300D01*
X141296719Y-94794895D01*
X141285410Y-94790001D01*
X141285408Y-94790001D01*
X141278135Y-94786853D01*
X141270307Y-94785613D01*
X141270306Y-94785613D01*
X141234473Y-94779938D01*
X141222848Y-94777530D01*
X141185782Y-94768013D01*
X141185780Y-94768013D01*
X141180025Y-94766535D01*
X141179469Y-94766500D01*
X141159546Y-94766500D01*
X141139837Y-94764949D01*
X141120055Y-94761816D01*
X141112163Y-94762562D01*
X141076418Y-94765941D01*
X141064560Y-94766500D01*
X128578383Y-94766500D01*
X128567479Y-94765986D01*
X128560088Y-94764334D01*
X128552163Y-94764583D01*
X128552162Y-94764583D01*
X128493147Y-94766438D01*
X128489189Y-94766500D01*
X128460422Y-94766500D01*
X128456137Y-94767041D01*
X128444303Y-94767973D01*
X128418286Y-94768791D01*
X128408036Y-94769113D01*
X128408035Y-94769113D01*
X128400116Y-94769362D01*
X128392508Y-94771572D01*
X128392503Y-94771573D01*
X128380661Y-94775013D01*
X128361307Y-94779021D01*
X128349079Y-94780566D01*
X128341212Y-94781560D01*
X128333844Y-94784477D01*
X128333837Y-94784479D01*
X128300099Y-94797837D01*
X128288869Y-94801682D01*
X128254031Y-94811803D01*
X128254030Y-94811804D01*
X128246421Y-94814014D01*
X128228988Y-94824324D01*
X128211241Y-94833018D01*
X128192400Y-94840478D01*
X128178720Y-94850417D01*
X128156629Y-94866467D01*
X128146712Y-94872982D01*
X128108658Y-94895487D01*
X128108240Y-94895855D01*
X128094158Y-94909937D01*
X128079125Y-94922778D01*
X128062917Y-94934554D01*
X128057868Y-94940657D01*
X128057867Y-94940658D01*
X128034970Y-94968336D01*
X128026980Y-94977115D01*
X127927905Y-95076190D01*
X127865593Y-95110216D01*
X127794778Y-95105151D01*
X127737942Y-95062604D01*
X127714550Y-94999890D01*
X127713500Y-95000000D01*
X127694228Y-94816637D01*
X127694228Y-94816636D01*
X127693538Y-94810073D01*
X127690688Y-94801300D01*
X127636566Y-94634731D01*
X127634524Y-94628446D01*
X127539037Y-94463058D01*
X127509906Y-94430704D01*
X127415673Y-94326048D01*
X127415672Y-94326047D01*
X127411251Y-94321137D01*
X127405909Y-94317256D01*
X127405907Y-94317254D01*
X127262092Y-94212767D01*
X127262091Y-94212766D01*
X127256750Y-94208886D01*
X127250722Y-94206202D01*
X127250720Y-94206201D01*
X127088318Y-94133895D01*
X127088317Y-94133895D01*
X127082287Y-94131210D01*
X126988887Y-94111357D01*
X126901944Y-94092876D01*
X126901939Y-94092876D01*
X126895487Y-94091504D01*
X126704513Y-94091504D01*
X126698061Y-94092876D01*
X126698056Y-94092876D01*
X126611113Y-94111357D01*
X126517713Y-94131210D01*
X126511683Y-94133895D01*
X126511682Y-94133895D01*
X126349280Y-94206201D01*
X126349278Y-94206202D01*
X126343250Y-94208886D01*
X126328912Y-94219303D01*
X126262661Y-94267437D01*
X126188601Y-94291500D01*
X118525938Y-94291500D01*
X118517368Y-94291208D01*
X118470234Y-94287994D01*
X118470230Y-94287994D01*
X118462658Y-94287478D01*
X118399707Y-94298464D01*
X118393217Y-94299422D01*
X118367798Y-94302498D01*
X118337347Y-94306183D01*
X118337344Y-94306184D01*
X118329806Y-94307096D01*
X118322700Y-94309781D01*
X118320127Y-94310413D01*
X118303803Y-94314878D01*
X118301255Y-94315647D01*
X118293775Y-94316953D01*
X118286825Y-94320004D01*
X118286821Y-94320005D01*
X118235291Y-94342626D01*
X118229187Y-94345117D01*
X118210131Y-94352318D01*
X118176543Y-94365009D01*
X118176541Y-94365010D01*
X118169438Y-94367694D01*
X118163181Y-94371994D01*
X118160802Y-94373238D01*
X118146069Y-94381438D01*
X118143752Y-94382809D01*
X118136798Y-94385861D01*
X118086107Y-94424758D01*
X118080803Y-94428611D01*
X118034417Y-94460491D01*
X118034414Y-94460493D01*
X118028154Y-94464796D01*
X118004446Y-94491405D01*
X117989053Y-94508682D01*
X117984072Y-94513958D01*
X115717373Y-96780658D01*
X115711108Y-96786511D01*
X115669766Y-96822576D01*
X115658892Y-96838048D01*
X115633028Y-96874849D01*
X115629095Y-96880144D01*
X115606602Y-96908831D01*
X115589698Y-96930389D01*
X115586572Y-96937313D01*
X115585171Y-96939626D01*
X115576834Y-96954242D01*
X115575559Y-96956619D01*
X115571190Y-96962836D01*
X115552920Y-97009698D01*
X115547992Y-97022337D01*
X115545435Y-97028420D01*
X115522277Y-97079709D01*
X115519150Y-97086635D01*
X115517766Y-97094101D01*
X115516960Y-97096673D01*
X115512346Y-97112872D01*
X115511676Y-97115480D01*
X115508916Y-97122561D01*
X115500711Y-97184886D01*
X115500578Y-97185897D01*
X115499547Y-97192405D01*
X115487909Y-97255200D01*
X115488346Y-97262780D01*
X115488346Y-97262781D01*
X115491291Y-97313857D01*
X115491500Y-97321110D01*
X115491501Y-106600000D01*
X115491501Y-115876650D01*
X115490219Y-115894581D01*
X115477639Y-115982080D01*
X115476500Y-115990000D01*
X115476500Y-117476000D01*
X115456498Y-117544121D01*
X115402842Y-117590614D01*
X115350500Y-117602000D01*
X113116581Y-117602000D01*
X113048460Y-117581998D01*
X113001967Y-117528342D01*
X112991863Y-117458068D01*
X113021357Y-117393488D01*
X113081083Y-117355104D01*
X113102864Y-117350749D01*
X113350273Y-117323654D01*
X113350279Y-117323653D01*
X113354926Y-117323144D01*
X113396506Y-117312197D01*
X113605965Y-117257051D01*
X113605967Y-117257050D01*
X113610488Y-117255860D01*
X113724997Y-117206663D01*
X113849004Y-117153385D01*
X113849006Y-117153384D01*
X113853298Y-117151540D01*
X114078021Y-117012477D01*
X114184288Y-116922516D01*
X114276148Y-116844751D01*
X114276150Y-116844749D01*
X114279721Y-116841726D01*
X114453967Y-116643036D01*
X114469135Y-116619456D01*
X114594403Y-116424704D01*
X114596931Y-116420774D01*
X114705472Y-116179822D01*
X114735706Y-116072622D01*
X114775936Y-115929977D01*
X114775937Y-115929974D01*
X114777206Y-115925473D01*
X114786641Y-115851309D01*
X114810158Y-115666445D01*
X114810158Y-115666441D01*
X114810556Y-115663315D01*
X114810831Y-115652836D01*
X114812628Y-115584188D01*
X114813000Y-115570000D01*
X114809631Y-115524666D01*
X114793761Y-115311108D01*
X114793760Y-115311104D01*
X114793415Y-115306456D01*
X114735091Y-115048701D01*
X114733398Y-115044347D01*
X114641003Y-114806752D01*
X114641002Y-114806749D01*
X114639310Y-114802399D01*
X114508174Y-114572959D01*
X114426370Y-114469191D01*
X114347457Y-114369091D01*
X114347454Y-114369088D01*
X114344565Y-114365423D01*
X114152078Y-114184349D01*
X113934941Y-114033715D01*
X113930748Y-114031647D01*
X113702112Y-113918896D01*
X113702109Y-113918895D01*
X113697924Y-113916831D01*
X113651199Y-113901874D01*
X113450678Y-113837687D01*
X113450680Y-113837687D01*
X113446233Y-113836264D01*
X113267305Y-113807124D01*
X113190011Y-113794536D01*
X113190010Y-113794536D01*
X113185399Y-113793785D01*
X113053275Y-113792056D01*
X112925827Y-113790387D01*
X112925824Y-113790387D01*
X112921150Y-113790326D01*
X112659293Y-113825963D01*
X112654807Y-113827271D01*
X112654805Y-113827271D01*
X112619069Y-113837687D01*
X112405580Y-113899913D01*
X112165584Y-114010553D01*
X112161675Y-114013116D01*
X111948491Y-114152885D01*
X111948486Y-114152889D01*
X111944578Y-114155451D01*
X111941086Y-114158568D01*
X111831291Y-114256564D01*
X111747417Y-114331424D01*
X111578432Y-114534607D01*
X111441335Y-114760535D01*
X111439526Y-114764849D01*
X111439524Y-114764853D01*
X111391716Y-114878863D01*
X111339139Y-115004246D01*
X111274088Y-115260385D01*
X111273619Y-115265043D01*
X111249583Y-115503741D01*
X111222857Y-115569515D01*
X111164813Y-115610398D01*
X111093880Y-115613410D01*
X111032579Y-115577595D01*
X110999746Y-115510690D01*
X110999621Y-115509891D01*
X110999529Y-115509310D01*
X110998000Y-115489737D01*
X110998000Y-92791957D01*
X110999782Y-92770839D01*
X111002418Y-92755334D01*
X111004274Y-92755649D01*
X111027462Y-92697063D01*
X111085132Y-92655654D01*
X111156034Y-92651998D01*
X111217658Y-92687255D01*
X111250438Y-92750232D01*
X111252664Y-92768515D01*
X111253832Y-92792836D01*
X111260290Y-92927293D01*
X111311847Y-93186486D01*
X111401148Y-93435211D01*
X111526233Y-93668005D01*
X111529028Y-93671748D01*
X111529030Y-93671751D01*
X111681561Y-93876015D01*
X111681566Y-93876021D01*
X111684353Y-93879753D01*
X111687662Y-93883033D01*
X111687667Y-93883039D01*
X111868717Y-94062516D01*
X111872034Y-94065804D01*
X111875796Y-94068562D01*
X111875799Y-94068565D01*
X111964898Y-94133895D01*
X112085154Y-94222070D01*
X112089297Y-94224250D01*
X112089299Y-94224251D01*
X112314880Y-94342935D01*
X112314885Y-94342937D01*
X112319030Y-94345118D01*
X112323453Y-94346663D01*
X112323454Y-94346663D01*
X112552794Y-94426752D01*
X112568526Y-94432246D01*
X112573119Y-94433118D01*
X112823570Y-94480668D01*
X112823573Y-94480668D01*
X112828159Y-94481539D01*
X112953654Y-94486470D01*
X113087558Y-94491731D01*
X113087563Y-94491731D01*
X113092226Y-94491914D01*
X113194914Y-94480668D01*
X113350273Y-94463654D01*
X113350279Y-94463653D01*
X113354926Y-94463144D01*
X113373895Y-94458150D01*
X113605965Y-94397051D01*
X113605967Y-94397050D01*
X113610488Y-94395860D01*
X113633762Y-94385861D01*
X113849004Y-94293385D01*
X113849006Y-94293384D01*
X113853298Y-94291540D01*
X114078021Y-94152477D01*
X114103143Y-94131210D01*
X114276148Y-93984751D01*
X114276150Y-93984749D01*
X114279721Y-93981726D01*
X114453967Y-93783036D01*
X114596931Y-93560774D01*
X114705472Y-93319822D01*
X114744368Y-93181909D01*
X114775936Y-93069977D01*
X114775937Y-93069974D01*
X114777206Y-93065473D01*
X114780400Y-93040362D01*
X114810158Y-92806445D01*
X114810158Y-92806441D01*
X114810556Y-92803315D01*
X114810831Y-92792836D01*
X114812917Y-92713160D01*
X114813000Y-92710000D01*
X114801246Y-92551834D01*
X114793761Y-92451108D01*
X114793760Y-92451104D01*
X114793415Y-92446456D01*
X114735091Y-92188701D01*
X114725032Y-92162833D01*
X114641003Y-91946752D01*
X114641002Y-91946749D01*
X114639310Y-91942399D01*
X114508174Y-91712959D01*
X114344565Y-91505423D01*
X114152078Y-91324349D01*
X113934941Y-91173715D01*
X113902675Y-91157803D01*
X113702112Y-91058896D01*
X113702109Y-91058895D01*
X113697924Y-91056831D01*
X113651199Y-91041874D01*
X113450678Y-90977687D01*
X113450680Y-90977687D01*
X113446233Y-90976264D01*
X113303236Y-90952976D01*
X113190011Y-90934536D01*
X113190010Y-90934536D01*
X113185399Y-90933785D01*
X113092243Y-90932566D01*
X113024391Y-90911675D01*
X112978604Y-90857415D01*
X112969421Y-90787015D01*
X112999756Y-90722826D01*
X113059980Y-90685227D01*
X113074291Y-90682111D01*
X113090661Y-90679534D01*
X113110257Y-90678000D01*
X143428043Y-90678000D01*
X143449160Y-90679782D01*
G37*
G04 #@! TD.AperFunction*
G04 #@! TA.AperFunction,Conductor*
G36*
X126262661Y-95732563D02*
G01*
X126343250Y-95791114D01*
X126349278Y-95793798D01*
X126349280Y-95793799D01*
X126477430Y-95850855D01*
X126517713Y-95868790D01*
X126611113Y-95888643D01*
X126698056Y-95907124D01*
X126698061Y-95907124D01*
X126704513Y-95908496D01*
X126767409Y-95908496D01*
X126835530Y-95928498D01*
X126882023Y-95982154D01*
X126892127Y-96052428D01*
X126862633Y-96117008D01*
X126856516Y-96123579D01*
X125949496Y-97030600D01*
X125887185Y-97064624D01*
X125860402Y-97067504D01*
X125804513Y-97067504D01*
X125798061Y-97068876D01*
X125798056Y-97068876D01*
X125714510Y-97086635D01*
X125617713Y-97107210D01*
X125611683Y-97109895D01*
X125611682Y-97109895D01*
X125449280Y-97182201D01*
X125449278Y-97182202D01*
X125443250Y-97184886D01*
X125437910Y-97188766D01*
X125388778Y-97224462D01*
X125321910Y-97248320D01*
X125252759Y-97232239D01*
X125203279Y-97181324D01*
X125189180Y-97111742D01*
X125191472Y-97096324D01*
X125191496Y-97096213D01*
X125193538Y-97089927D01*
X125213500Y-96900000D01*
X125205628Y-96825106D01*
X125194228Y-96716637D01*
X125194228Y-96716636D01*
X125193538Y-96710073D01*
X125183982Y-96680661D01*
X125136566Y-96534731D01*
X125134524Y-96528446D01*
X125039037Y-96363058D01*
X125016081Y-96337562D01*
X124915673Y-96226048D01*
X124915672Y-96226047D01*
X124911251Y-96221137D01*
X124905909Y-96217256D01*
X124905907Y-96217254D01*
X124762092Y-96112767D01*
X124762091Y-96112766D01*
X124756750Y-96108886D01*
X124750722Y-96106202D01*
X124750720Y-96106201D01*
X124588318Y-96033895D01*
X124588317Y-96033895D01*
X124582287Y-96031210D01*
X124488887Y-96011357D01*
X124401944Y-95992876D01*
X124401939Y-95992876D01*
X124395487Y-95991504D01*
X124204513Y-95991504D01*
X124198061Y-95992876D01*
X124198056Y-95992876D01*
X124111113Y-96011357D01*
X124017713Y-96031210D01*
X124011683Y-96033895D01*
X124011682Y-96033895D01*
X123849280Y-96106201D01*
X123849278Y-96106202D01*
X123843250Y-96108886D01*
X123837909Y-96112766D01*
X123837908Y-96112767D01*
X123694093Y-96217254D01*
X123694091Y-96217256D01*
X123688749Y-96221137D01*
X123684328Y-96226047D01*
X123679425Y-96230462D01*
X123678299Y-96229211D01*
X123625000Y-96262049D01*
X123591806Y-96266500D01*
X122178383Y-96266500D01*
X122167479Y-96265986D01*
X122160088Y-96264334D01*
X122152163Y-96264583D01*
X122152162Y-96264583D01*
X122093147Y-96266438D01*
X122089189Y-96266500D01*
X122060422Y-96266500D01*
X122056137Y-96267041D01*
X122044303Y-96267973D01*
X122018286Y-96268791D01*
X122008036Y-96269113D01*
X122008035Y-96269113D01*
X122000116Y-96269362D01*
X121992508Y-96271572D01*
X121992503Y-96271573D01*
X121980661Y-96275013D01*
X121961307Y-96279021D01*
X121949079Y-96280566D01*
X121941212Y-96281560D01*
X121933844Y-96284477D01*
X121933837Y-96284479D01*
X121900099Y-96297837D01*
X121888869Y-96301682D01*
X121854031Y-96311803D01*
X121854030Y-96311804D01*
X121846421Y-96314014D01*
X121833640Y-96321573D01*
X121828988Y-96324324D01*
X121811241Y-96333018D01*
X121792400Y-96340478D01*
X121776979Y-96351682D01*
X121756629Y-96366467D01*
X121746712Y-96372982D01*
X121708658Y-96395487D01*
X121708240Y-96395855D01*
X121694158Y-96409937D01*
X121679125Y-96422778D01*
X121662917Y-96434554D01*
X121657868Y-96440657D01*
X121657867Y-96440658D01*
X121634970Y-96468336D01*
X121626980Y-96477115D01*
X120607478Y-97496618D01*
X120599400Y-97503969D01*
X120593006Y-97508027D01*
X120587579Y-97513806D01*
X120587578Y-97513807D01*
X120547148Y-97556861D01*
X120544393Y-97559703D01*
X120524062Y-97580034D01*
X120521628Y-97583171D01*
X120521626Y-97583174D01*
X120521403Y-97583461D01*
X120513707Y-97592471D01*
X120490251Y-97617450D01*
X120483444Y-97624699D01*
X120479628Y-97631640D01*
X120479626Y-97631643D01*
X120473688Y-97642445D01*
X120462834Y-97658968D01*
X120455278Y-97668710D01*
X120450417Y-97674977D01*
X120435478Y-97709500D01*
X120432859Y-97715551D01*
X120427637Y-97726211D01*
X120406339Y-97764952D01*
X120401301Y-97784572D01*
X120394902Y-97803264D01*
X120386853Y-97821865D01*
X120385613Y-97829692D01*
X120385613Y-97829693D01*
X120379937Y-97865531D01*
X120377530Y-97877154D01*
X120366536Y-97919975D01*
X120366501Y-97920531D01*
X120366501Y-97940447D01*
X120364950Y-97960157D01*
X120361816Y-97979945D01*
X120362562Y-97987837D01*
X120365942Y-98023593D01*
X120366501Y-98035451D01*
X120366500Y-107821617D01*
X120365986Y-107832521D01*
X120364334Y-107839912D01*
X120364583Y-107847837D01*
X120364583Y-107847838D01*
X120366438Y-107906853D01*
X120366500Y-107910811D01*
X120366500Y-107939577D01*
X120367041Y-107943856D01*
X120367973Y-107955696D01*
X120369362Y-107999883D01*
X120371572Y-108007491D01*
X120371573Y-108007496D01*
X120375013Y-108019338D01*
X120379021Y-108038692D01*
X120381560Y-108058787D01*
X120384477Y-108066155D01*
X120384479Y-108066162D01*
X120397837Y-108099900D01*
X120401682Y-108111130D01*
X120414014Y-108153578D01*
X120418049Y-108160400D01*
X120424324Y-108171011D01*
X120433018Y-108188758D01*
X120440478Y-108207599D01*
X120445137Y-108214011D01*
X120445140Y-108214017D01*
X120466468Y-108243372D01*
X120472985Y-108253294D01*
X120492471Y-108286242D01*
X120495487Y-108291341D01*
X120495855Y-108291759D01*
X120509938Y-108305842D01*
X120522778Y-108320875D01*
X120534554Y-108337083D01*
X120568335Y-108365029D01*
X120577115Y-108373019D01*
X122996618Y-110792523D01*
X123003969Y-110800601D01*
X123008027Y-110806995D01*
X123013806Y-110812422D01*
X123013807Y-110812423D01*
X123056862Y-110852854D01*
X123059704Y-110855609D01*
X123080033Y-110875938D01*
X123083453Y-110878590D01*
X123092476Y-110886297D01*
X123124699Y-110916557D01*
X123131643Y-110920374D01*
X123131648Y-110920378D01*
X123142450Y-110926316D01*
X123158977Y-110937172D01*
X123174977Y-110949583D01*
X123182251Y-110952731D01*
X123182253Y-110952732D01*
X123215552Y-110967142D01*
X123226198Y-110972357D01*
X123264952Y-110993662D01*
X123284581Y-110998702D01*
X123303271Y-111005101D01*
X123321864Y-111013147D01*
X123351071Y-111017773D01*
X123365528Y-111020063D01*
X123377149Y-111022470D01*
X123414218Y-111031987D01*
X123419975Y-111033465D01*
X123420531Y-111033500D01*
X123440453Y-111033500D01*
X123460162Y-111035051D01*
X123479944Y-111038184D01*
X123487836Y-111037438D01*
X123523582Y-111034059D01*
X123535440Y-111033500D01*
X127091806Y-111033500D01*
X127159927Y-111053502D01*
X127179151Y-111069842D01*
X127179425Y-111069538D01*
X127184327Y-111073952D01*
X127188749Y-111078863D01*
X127194091Y-111082744D01*
X127194093Y-111082746D01*
X127254668Y-111126756D01*
X127343250Y-111191114D01*
X127349278Y-111193798D01*
X127349280Y-111193799D01*
X127511682Y-111266105D01*
X127517713Y-111268790D01*
X127611113Y-111288643D01*
X127698056Y-111307124D01*
X127698061Y-111307124D01*
X127704513Y-111308496D01*
X127895487Y-111308496D01*
X127901939Y-111307124D01*
X127901944Y-111307124D01*
X127988887Y-111288643D01*
X128082287Y-111268790D01*
X128088318Y-111266105D01*
X128250720Y-111193799D01*
X128250722Y-111193798D01*
X128256750Y-111191114D01*
X128345332Y-111126756D01*
X128405907Y-111082746D01*
X128405909Y-111082744D01*
X128411251Y-111078863D01*
X128444762Y-111041645D01*
X128534618Y-110941850D01*
X128534619Y-110941849D01*
X128539037Y-110936942D01*
X128622418Y-110792523D01*
X128631220Y-110777277D01*
X128631221Y-110777276D01*
X128634524Y-110771554D01*
X128693538Y-110589927D01*
X128713500Y-110400000D01*
X128693538Y-110210073D01*
X128634524Y-110028446D01*
X128539037Y-109863058D01*
X128411251Y-109721137D01*
X128405909Y-109717256D01*
X128405907Y-109717254D01*
X128262092Y-109612767D01*
X128262091Y-109612766D01*
X128256750Y-109608886D01*
X128250722Y-109606202D01*
X128250720Y-109606201D01*
X128088318Y-109533895D01*
X128088317Y-109533895D01*
X128082287Y-109531210D01*
X127988887Y-109511357D01*
X127901944Y-109492876D01*
X127901939Y-109492876D01*
X127895487Y-109491504D01*
X127704513Y-109491504D01*
X127698061Y-109492876D01*
X127698056Y-109492876D01*
X127611113Y-109511357D01*
X127517713Y-109531210D01*
X127511683Y-109533895D01*
X127511682Y-109533895D01*
X127349280Y-109606201D01*
X127349278Y-109606202D01*
X127343250Y-109608886D01*
X127337909Y-109612766D01*
X127337908Y-109612767D01*
X127194093Y-109717254D01*
X127194091Y-109717256D01*
X127188749Y-109721137D01*
X127184328Y-109726047D01*
X127179425Y-109730462D01*
X127178299Y-109729211D01*
X127125000Y-109762049D01*
X127091806Y-109766500D01*
X123814595Y-109766500D01*
X123746474Y-109746498D01*
X123725500Y-109729595D01*
X121670405Y-107674501D01*
X121636380Y-107612189D01*
X121633500Y-107585406D01*
X121633500Y-106170004D01*
X121653502Y-106101883D01*
X121707158Y-106055390D01*
X121777432Y-106045286D01*
X121842012Y-106074780D01*
X121848593Y-106080907D01*
X122435178Y-106667493D01*
X122910218Y-107142533D01*
X122917569Y-107150611D01*
X122921627Y-107157005D01*
X122927406Y-107162432D01*
X122927407Y-107162433D01*
X122948193Y-107181952D01*
X122969716Y-107202163D01*
X122970462Y-107202864D01*
X122973304Y-107205619D01*
X122993633Y-107225948D01*
X122996770Y-107228382D01*
X122996773Y-107228384D01*
X122997060Y-107228607D01*
X123006070Y-107236303D01*
X123024070Y-107253205D01*
X123038299Y-107266567D01*
X123045979Y-107270789D01*
X123056045Y-107276323D01*
X123072564Y-107287174D01*
X123082308Y-107294732D01*
X123082313Y-107294735D01*
X123088576Y-107299593D01*
X123129146Y-107317149D01*
X123139807Y-107322372D01*
X123178552Y-107343672D01*
X123186234Y-107345644D01*
X123186235Y-107345645D01*
X123198177Y-107348712D01*
X123216872Y-107355112D01*
X123235464Y-107363157D01*
X123243293Y-107364397D01*
X123279128Y-107370073D01*
X123290749Y-107372480D01*
X123327818Y-107381997D01*
X123333575Y-107383475D01*
X123334131Y-107383510D01*
X123354053Y-107383510D01*
X123373762Y-107385061D01*
X123393544Y-107388194D01*
X123401436Y-107387448D01*
X123437182Y-107384069D01*
X123449040Y-107383510D01*
X128746806Y-107383510D01*
X128814927Y-107403512D01*
X128835901Y-107420415D01*
X132685728Y-111270243D01*
X132685731Y-111270246D01*
X132685738Y-111270252D01*
X132774594Y-111359108D01*
X132808620Y-111421420D01*
X132811499Y-111448203D01*
X132811500Y-112275519D01*
X132811499Y-112275533D01*
X132811499Y-113664739D01*
X132791497Y-113732860D01*
X132737841Y-113779353D01*
X132667567Y-113789457D01*
X132602987Y-113759963D01*
X132576383Y-113727742D01*
X132539037Y-113663058D01*
X132516081Y-113637562D01*
X132415673Y-113526048D01*
X132415672Y-113526047D01*
X132411251Y-113521137D01*
X132405909Y-113517256D01*
X132405907Y-113517254D01*
X132262092Y-113412767D01*
X132262091Y-113412766D01*
X132256750Y-113408886D01*
X132250722Y-113406202D01*
X132250720Y-113406201D01*
X132088318Y-113333895D01*
X132088317Y-113333895D01*
X132082287Y-113331210D01*
X131988887Y-113311357D01*
X131901944Y-113292876D01*
X131901939Y-113292876D01*
X131895487Y-113291504D01*
X131704513Y-113291504D01*
X131698061Y-113292876D01*
X131698056Y-113292876D01*
X131611113Y-113311357D01*
X131517713Y-113331210D01*
X131511683Y-113333895D01*
X131511682Y-113333895D01*
X131349280Y-113406201D01*
X131349278Y-113406202D01*
X131343250Y-113408886D01*
X131337909Y-113412766D01*
X131337908Y-113412767D01*
X131194093Y-113517254D01*
X131194091Y-113517256D01*
X131188749Y-113521137D01*
X131184328Y-113526047D01*
X131179425Y-113530462D01*
X131178299Y-113529211D01*
X131125000Y-113562049D01*
X131091806Y-113566500D01*
X128478383Y-113566500D01*
X128467479Y-113565986D01*
X128460088Y-113564334D01*
X128452163Y-113564583D01*
X128452162Y-113564583D01*
X128393147Y-113566438D01*
X128389189Y-113566500D01*
X128360422Y-113566500D01*
X128356137Y-113567041D01*
X128344303Y-113567973D01*
X128318286Y-113568791D01*
X128308036Y-113569113D01*
X128308035Y-113569113D01*
X128300116Y-113569362D01*
X128292508Y-113571572D01*
X128292503Y-113571573D01*
X128280661Y-113575013D01*
X128261307Y-113579021D01*
X128249079Y-113580566D01*
X128241212Y-113581560D01*
X128233844Y-113584477D01*
X128233837Y-113584479D01*
X128200099Y-113597837D01*
X128188869Y-113601682D01*
X128154031Y-113611803D01*
X128154030Y-113611804D01*
X128146421Y-113614014D01*
X128128988Y-113624324D01*
X128111241Y-113633018D01*
X128092400Y-113640478D01*
X128085985Y-113645139D01*
X128056629Y-113666467D01*
X128046712Y-113672982D01*
X128008658Y-113695487D01*
X128008240Y-113695855D01*
X127994158Y-113709937D01*
X127979125Y-113722778D01*
X127962917Y-113734554D01*
X127957868Y-113740657D01*
X127957867Y-113740658D01*
X127934970Y-113768336D01*
X127926980Y-113777115D01*
X126607486Y-115096610D01*
X126599399Y-115103969D01*
X126593005Y-115108027D01*
X126587580Y-115113804D01*
X126587579Y-115113805D01*
X126547137Y-115156872D01*
X126544381Y-115159715D01*
X126524062Y-115180034D01*
X126521638Y-115183159D01*
X126521631Y-115183167D01*
X126521411Y-115183451D01*
X126513703Y-115192476D01*
X126483443Y-115224700D01*
X126473687Y-115242446D01*
X126462836Y-115258965D01*
X126455278Y-115268709D01*
X126455275Y-115268714D01*
X126450417Y-115274977D01*
X126447268Y-115282255D01*
X126432861Y-115315547D01*
X126427638Y-115326208D01*
X126406338Y-115364953D01*
X126404366Y-115372635D01*
X126404365Y-115372636D01*
X126401298Y-115384578D01*
X126394898Y-115403273D01*
X126386853Y-115421865D01*
X126385613Y-115429694D01*
X126379937Y-115465529D01*
X126377530Y-115477150D01*
X126369124Y-115509891D01*
X126366535Y-115519976D01*
X126366500Y-115520532D01*
X126366500Y-115540454D01*
X126364949Y-115560163D01*
X126361816Y-115579945D01*
X126361816Y-115579946D01*
X126360033Y-115579664D01*
X126340984Y-115637732D01*
X126302543Y-115674037D01*
X126196631Y-115738306D01*
X126192601Y-115741803D01*
X126026815Y-115885664D01*
X126022492Y-115889415D01*
X126019109Y-115893541D01*
X126019105Y-115893545D01*
X125984545Y-115935695D01*
X125876304Y-116067705D01*
X125873667Y-116072338D01*
X125873666Y-116072339D01*
X125840116Y-116131278D01*
X125789033Y-116180584D01*
X125719402Y-116194445D01*
X125653332Y-116168461D01*
X125626094Y-116139312D01*
X125620686Y-116131278D01*
X125525818Y-115990366D01*
X125525607Y-115990052D01*
X125525605Y-115990050D01*
X125522627Y-115985626D01*
X125460820Y-115920835D01*
X125367161Y-115822656D01*
X125363482Y-115818799D01*
X125178504Y-115681171D01*
X125173753Y-115678755D01*
X125173749Y-115678753D01*
X124977740Y-115579097D01*
X124977739Y-115579097D01*
X124972982Y-115576678D01*
X124851514Y-115538961D01*
X124757895Y-115509891D01*
X124757889Y-115509890D01*
X124752792Y-115508307D01*
X124647798Y-115494391D01*
X124529515Y-115478714D01*
X124529510Y-115478714D01*
X124524230Y-115478014D01*
X124518900Y-115478214D01*
X124518899Y-115478214D01*
X124409030Y-115482339D01*
X124293831Y-115486663D01*
X124229272Y-115500209D01*
X124073411Y-115532912D01*
X124073408Y-115532913D01*
X124068184Y-115534009D01*
X123853740Y-115618697D01*
X123656631Y-115738306D01*
X123652601Y-115741803D01*
X123486815Y-115885664D01*
X123482492Y-115889415D01*
X123479109Y-115893541D01*
X123479105Y-115893545D01*
X123444545Y-115935695D01*
X123336304Y-116067705D01*
X123333667Y-116072338D01*
X123333666Y-116072339D01*
X123300116Y-116131278D01*
X123249033Y-116180584D01*
X123179402Y-116194445D01*
X123113332Y-116168461D01*
X123086094Y-116139312D01*
X123080686Y-116131278D01*
X122985818Y-115990366D01*
X122985607Y-115990052D01*
X122985605Y-115990050D01*
X122982627Y-115985626D01*
X122920820Y-115920835D01*
X122827161Y-115822656D01*
X122823482Y-115818799D01*
X122638504Y-115681171D01*
X122633753Y-115678755D01*
X122633749Y-115678753D01*
X122437740Y-115579097D01*
X122437739Y-115579097D01*
X122432982Y-115576678D01*
X122311514Y-115538961D01*
X122217895Y-115509891D01*
X122217889Y-115509890D01*
X122212792Y-115508307D01*
X122107798Y-115494391D01*
X121989515Y-115478714D01*
X121989510Y-115478714D01*
X121984230Y-115478014D01*
X121978900Y-115478214D01*
X121978899Y-115478214D01*
X121869030Y-115482339D01*
X121753831Y-115486663D01*
X121689272Y-115500209D01*
X121533411Y-115532912D01*
X121533408Y-115532913D01*
X121528184Y-115534009D01*
X121313740Y-115618697D01*
X121116631Y-115738306D01*
X121112601Y-115741803D01*
X120946815Y-115885664D01*
X120942492Y-115889415D01*
X120939109Y-115893541D01*
X120939105Y-115893545D01*
X120904545Y-115935695D01*
X120796304Y-116067705D01*
X120793667Y-116072338D01*
X120793666Y-116072339D01*
X120760116Y-116131278D01*
X120709033Y-116180584D01*
X120639402Y-116194445D01*
X120573332Y-116168461D01*
X120546094Y-116139312D01*
X120540686Y-116131278D01*
X120445818Y-115990366D01*
X120445607Y-115990052D01*
X120445605Y-115990050D01*
X120442627Y-115985626D01*
X120380820Y-115920835D01*
X120287161Y-115822656D01*
X120283482Y-115818799D01*
X120098504Y-115681171D01*
X120093753Y-115678755D01*
X120093749Y-115678753D01*
X119897740Y-115579097D01*
X119897739Y-115579097D01*
X119892982Y-115576678D01*
X119771514Y-115538961D01*
X119677895Y-115509891D01*
X119677889Y-115509890D01*
X119672792Y-115508307D01*
X119567798Y-115494391D01*
X119449515Y-115478714D01*
X119449510Y-115478714D01*
X119444230Y-115478014D01*
X119438900Y-115478214D01*
X119438899Y-115478214D01*
X119329030Y-115482339D01*
X119213831Y-115486663D01*
X119149272Y-115500209D01*
X118993411Y-115532912D01*
X118993408Y-115532913D01*
X118988184Y-115534009D01*
X118773740Y-115618697D01*
X118576631Y-115738306D01*
X118572601Y-115741803D01*
X118406815Y-115885664D01*
X118402492Y-115889415D01*
X118397339Y-115895700D01*
X118396364Y-115896365D01*
X118395390Y-115897366D01*
X118395186Y-115897168D01*
X118338681Y-115935695D01*
X118267710Y-115937628D01*
X118206961Y-115900885D01*
X118179008Y-115851309D01*
X118161557Y-115791878D01*
X118157096Y-115776684D01*
X118122802Y-115723322D01*
X118082949Y-115661309D01*
X118082947Y-115661306D01*
X118078077Y-115653729D01*
X118040343Y-115621032D01*
X117974431Y-115563918D01*
X117974428Y-115563916D01*
X117967619Y-115558016D01*
X117922584Y-115537449D01*
X117842864Y-115501042D01*
X117842863Y-115501042D01*
X117834670Y-115497300D01*
X117825755Y-115496018D01*
X117825754Y-115496018D01*
X117716569Y-115480320D01*
X117651988Y-115450827D01*
X117613604Y-115391101D01*
X117608500Y-115355602D01*
X117608500Y-114345660D01*
X117628502Y-114277539D01*
X117645405Y-114256564D01*
X118256566Y-113645404D01*
X118318878Y-113611379D01*
X118345661Y-113608500D01*
X125888601Y-113608500D01*
X125962661Y-113632563D01*
X126043250Y-113691114D01*
X126049278Y-113693798D01*
X126049280Y-113693799D01*
X126197887Y-113759963D01*
X126217713Y-113768790D01*
X126311113Y-113788643D01*
X126398056Y-113807124D01*
X126398061Y-113807124D01*
X126404513Y-113808496D01*
X126595487Y-113808496D01*
X126601939Y-113807124D01*
X126601944Y-113807124D01*
X126688887Y-113788643D01*
X126782287Y-113768790D01*
X126802113Y-113759963D01*
X126950720Y-113693799D01*
X126950722Y-113693798D01*
X126956750Y-113691114D01*
X126962092Y-113687233D01*
X127105907Y-113582746D01*
X127105909Y-113582744D01*
X127111251Y-113578863D01*
X127120030Y-113569113D01*
X127234618Y-113441850D01*
X127234619Y-113441849D01*
X127239037Y-113436942D01*
X127334524Y-113271554D01*
X127393538Y-113089927D01*
X127413500Y-112900000D01*
X127393538Y-112710073D01*
X127388423Y-112694329D01*
X127336566Y-112534731D01*
X127334524Y-112528446D01*
X127239037Y-112363058D01*
X127160255Y-112275561D01*
X127115673Y-112226048D01*
X127115672Y-112226047D01*
X127111251Y-112221137D01*
X127105909Y-112217256D01*
X127105907Y-112217254D01*
X126962092Y-112112767D01*
X126962091Y-112112766D01*
X126956750Y-112108886D01*
X126950722Y-112106202D01*
X126950720Y-112106201D01*
X126788318Y-112033895D01*
X126788317Y-112033895D01*
X126782287Y-112031210D01*
X126688887Y-112011357D01*
X126601944Y-111992876D01*
X126601939Y-111992876D01*
X126595487Y-111991504D01*
X126404513Y-111991504D01*
X126398061Y-111992876D01*
X126398056Y-111992876D01*
X126311113Y-112011357D01*
X126217713Y-112031210D01*
X126211683Y-112033895D01*
X126211682Y-112033895D01*
X126049280Y-112106201D01*
X126049278Y-112106202D01*
X126043250Y-112108886D01*
X125970961Y-112161407D01*
X125962661Y-112167437D01*
X125888601Y-112191500D01*
X118025938Y-112191500D01*
X118017368Y-112191208D01*
X117970234Y-112187994D01*
X117970230Y-112187994D01*
X117962658Y-112187478D01*
X117899707Y-112198464D01*
X117893217Y-112199422D01*
X117867798Y-112202498D01*
X117837347Y-112206183D01*
X117837344Y-112206184D01*
X117829806Y-112207096D01*
X117822700Y-112209781D01*
X117820127Y-112210413D01*
X117803803Y-112214878D01*
X117801255Y-112215647D01*
X117793775Y-112216953D01*
X117786825Y-112220004D01*
X117786821Y-112220005D01*
X117735291Y-112242626D01*
X117729182Y-112245119D01*
X117676543Y-112265009D01*
X117676541Y-112265010D01*
X117669438Y-112267694D01*
X117663181Y-112271994D01*
X117660802Y-112273238D01*
X117646069Y-112281438D01*
X117643752Y-112282809D01*
X117636798Y-112285861D01*
X117586107Y-112324758D01*
X117580803Y-112328611D01*
X117534417Y-112360491D01*
X117534414Y-112360493D01*
X117528154Y-112364796D01*
X117523099Y-112370470D01*
X117489061Y-112408673D01*
X117484081Y-112413949D01*
X117203702Y-112694329D01*
X117123596Y-112774435D01*
X117061283Y-112808460D01*
X116990468Y-112803396D01*
X116933632Y-112760849D01*
X116908821Y-112694329D01*
X116908500Y-112685340D01*
X116908500Y-97645659D01*
X116928502Y-97577538D01*
X116945405Y-97556564D01*
X118756565Y-95745405D01*
X118818877Y-95711379D01*
X118845660Y-95708500D01*
X126188601Y-95708500D01*
X126262661Y-95732563D01*
G37*
G04 #@! TD.AperFunction*
M02*
