G04 #@! TF.GenerationSoftware,KiCad,Pcbnew,(5.99.0-6951-g72beaf1538)*
G04 #@! TF.CreationDate,2020-12-10T21:20:36+11:00*
G04 #@! TF.ProjectId,MCP39F511_Breakout,4d435033-3946-4353-9131-5f427265616b,rev?*
G04 #@! TF.SameCoordinates,Original*
G04 #@! TF.FileFunction,Legend,Bot*
G04 #@! TF.FilePolarity,Positive*
%FSLAX46Y46*%
G04 Gerber Fmt 4.6, Leading zero omitted, Abs format (unit mm)*
G04 Created by KiCad (PCBNEW (5.99.0-6951-g72beaf1538)) date 2020-12-10 21:20:36*
%MOMM*%
%LPD*%
G01*
G04 APERTURE LIST*
%ADD10C,0.200000*%
%ADD11C,0.250000*%
%ADD12C,0.010000*%
%ADD13C,0.120000*%
G04 APERTURE END LIST*
D10*
X139200000Y-112990476D02*
X139152380Y-112895238D01*
X139152380Y-112752381D01*
X139200000Y-112609523D01*
X139295238Y-112514285D01*
X139390476Y-112466666D01*
X139580952Y-112419047D01*
X139723809Y-112419047D01*
X139914285Y-112466666D01*
X140009523Y-112514285D01*
X140104761Y-112609523D01*
X140152380Y-112752381D01*
X140152380Y-112847619D01*
X140104761Y-112990476D01*
X140057142Y-113038095D01*
X139723809Y-113038095D01*
X139723809Y-112847619D01*
X140152380Y-113466666D02*
X139152380Y-113466666D01*
X140152380Y-114038095D01*
X139152380Y-114038095D01*
X140152380Y-114514285D02*
X139152380Y-114514285D01*
X139152380Y-114752381D01*
X139200000Y-114895238D01*
X139295238Y-114990476D01*
X139390476Y-115038095D01*
X139580952Y-115085714D01*
X139723809Y-115085714D01*
X139914285Y-115038095D01*
X140009523Y-114990476D01*
X140104761Y-114895238D01*
X140152380Y-114752381D01*
X140152380Y-114514285D01*
X137612380Y-113990475D02*
X136612380Y-113990475D01*
X137612380Y-114466665D02*
X136612380Y-114466665D01*
X137612380Y-115038094D01*
X136612380Y-115038094D01*
X123757000Y-110752380D02*
X123757000Y-111752380D01*
X125039380Y-111561904D02*
X124563190Y-111228570D01*
X125039380Y-110990475D02*
X124039380Y-110990475D01*
X124039380Y-111371427D01*
X124087000Y-111466665D01*
X124134619Y-111514285D01*
X124229857Y-111561904D01*
X124372714Y-111561904D01*
X124467952Y-111514285D01*
X124515571Y-111466665D01*
X124563190Y-111371427D01*
X124563190Y-110990475D01*
X123757000Y-111752380D02*
X123757000Y-112657142D01*
X124515571Y-111990475D02*
X124515571Y-112323808D01*
X125039380Y-112466665D02*
X125039380Y-111990475D01*
X124039380Y-111990475D01*
X124039380Y-112466665D01*
X123757000Y-112657142D02*
X123757000Y-113609523D01*
X124991761Y-112847618D02*
X125039380Y-112990475D01*
X125039380Y-113228570D01*
X124991761Y-113323808D01*
X124944142Y-113371427D01*
X124848904Y-113419046D01*
X124753666Y-113419046D01*
X124658428Y-113371427D01*
X124610809Y-113323808D01*
X124563190Y-113228570D01*
X124515571Y-113038094D01*
X124467952Y-112942856D01*
X124420333Y-112895237D01*
X124325095Y-112847618D01*
X124229857Y-112847618D01*
X124134619Y-112895237D01*
X124087000Y-112942856D01*
X124039380Y-113038094D01*
X124039380Y-113276189D01*
X124087000Y-113419046D01*
X123757000Y-113609523D02*
X123757000Y-114514285D01*
X124515571Y-113847618D02*
X124515571Y-114180951D01*
X125039380Y-114323808D02*
X125039380Y-113847618D01*
X124039380Y-113847618D01*
X124039380Y-114323808D01*
X123757000Y-114514285D02*
X123757000Y-115276189D01*
X124039380Y-114609523D02*
X124039380Y-115180951D01*
X125039380Y-114895237D02*
X124039380Y-114895237D01*
X116292380Y-112657142D02*
X116292380Y-113276190D01*
X116673333Y-112942857D01*
X116673333Y-113085714D01*
X116720952Y-113180952D01*
X116768571Y-113228571D01*
X116863809Y-113276190D01*
X117101904Y-113276190D01*
X117197142Y-113228571D01*
X117244761Y-113180952D01*
X117292380Y-113085714D01*
X117292380Y-112799999D01*
X117244761Y-112704761D01*
X117197142Y-112657142D01*
X116292380Y-113561904D02*
X117292380Y-113895238D01*
X116292380Y-114228571D01*
X116292380Y-114466666D02*
X116292380Y-115085714D01*
X116673333Y-114752380D01*
X116673333Y-114895238D01*
X116720952Y-114990476D01*
X116768571Y-115038095D01*
X116863809Y-115085714D01*
X117101904Y-115085714D01*
X117197142Y-115038095D01*
X117244761Y-114990476D01*
X117292380Y-114895238D01*
X117292380Y-114609523D01*
X117244761Y-114514285D01*
X117197142Y-114466666D01*
D11*
X134571666Y-93457380D02*
X134571666Y-92457380D01*
X134571666Y-92838333D02*
X134476428Y-92790714D01*
X134285952Y-92790714D01*
X134190714Y-92838333D01*
X134143095Y-92885952D01*
X134095476Y-92981190D01*
X134095476Y-93266904D01*
X134143095Y-93362142D01*
X134190714Y-93409761D01*
X134285952Y-93457380D01*
X134476428Y-93457380D01*
X134571666Y-93409761D01*
X133762142Y-92790714D02*
X133524047Y-93457380D01*
X133285952Y-92790714D02*
X133524047Y-93457380D01*
X133619285Y-93695476D01*
X133666904Y-93743095D01*
X133762142Y-93790714D01*
X132285952Y-92457380D02*
X131714523Y-92457380D01*
X132000238Y-93457380D02*
X132000238Y-92457380D01*
X131381190Y-93457380D02*
X131381190Y-92790714D01*
X131381190Y-92457380D02*
X131428809Y-92505000D01*
X131381190Y-92552619D01*
X131333571Y-92505000D01*
X131381190Y-92457380D01*
X131381190Y-92552619D01*
X130952619Y-93409761D02*
X130857380Y-93457380D01*
X130666904Y-93457380D01*
X130571666Y-93409761D01*
X130524047Y-93314523D01*
X130524047Y-93266904D01*
X130571666Y-93171666D01*
X130666904Y-93124047D01*
X130809761Y-93124047D01*
X130905000Y-93076428D01*
X130952619Y-92981190D01*
X130952619Y-92933571D01*
X130905000Y-92838333D01*
X130809761Y-92790714D01*
X130666904Y-92790714D01*
X130571666Y-92838333D01*
X130095476Y-93457380D02*
X130095476Y-92457380D01*
X129666904Y-93457380D02*
X129666904Y-92933571D01*
X129714523Y-92838333D01*
X129809761Y-92790714D01*
X129952619Y-92790714D01*
X130047857Y-92838333D01*
X130095476Y-92885952D01*
X128762142Y-93457380D02*
X128762142Y-92933571D01*
X128809761Y-92838333D01*
X128905000Y-92790714D01*
X129095476Y-92790714D01*
X129190714Y-92838333D01*
X128762142Y-93409761D02*
X128857380Y-93457380D01*
X129095476Y-93457380D01*
X129190714Y-93409761D01*
X129238333Y-93314523D01*
X129238333Y-93219285D01*
X129190714Y-93124047D01*
X129095476Y-93076428D01*
X128857380Y-93076428D01*
X128762142Y-93028809D01*
X128285952Y-93457380D02*
X128285952Y-92790714D01*
X128285952Y-92885952D02*
X128238333Y-92838333D01*
X128143095Y-92790714D01*
X128000238Y-92790714D01*
X127905000Y-92838333D01*
X127857380Y-92933571D01*
X127857380Y-93457380D01*
X127857380Y-92933571D02*
X127809761Y-92838333D01*
X127714523Y-92790714D01*
X127571666Y-92790714D01*
X127476428Y-92838333D01*
X127428809Y-92933571D01*
X127428809Y-93457380D01*
X126190714Y-93457380D02*
X126190714Y-92457380D01*
X125952619Y-92457380D01*
X125809761Y-92505000D01*
X125714523Y-92600238D01*
X125666904Y-92695476D01*
X125619285Y-92885952D01*
X125619285Y-93028809D01*
X125666904Y-93219285D01*
X125714523Y-93314523D01*
X125809761Y-93409761D01*
X125952619Y-93457380D01*
X126190714Y-93457380D01*
X125190714Y-93457380D02*
X125190714Y-92457380D01*
X124762142Y-93457380D02*
X124762142Y-92933571D01*
X124809761Y-92838333D01*
X124905000Y-92790714D01*
X125047857Y-92790714D01*
X125143095Y-92838333D01*
X125190714Y-92885952D01*
X123857380Y-93457380D02*
X123857380Y-92933571D01*
X123905000Y-92838333D01*
X124000238Y-92790714D01*
X124190714Y-92790714D01*
X124285952Y-92838333D01*
X123857380Y-93409761D02*
X123952619Y-93457380D01*
X124190714Y-93457380D01*
X124285952Y-93409761D01*
X124333571Y-93314523D01*
X124333571Y-93219285D01*
X124285952Y-93124047D01*
X124190714Y-93076428D01*
X123952619Y-93076428D01*
X123857380Y-93028809D01*
X123381190Y-93457380D02*
X123381190Y-92790714D01*
X123381190Y-92981190D02*
X123333571Y-92885952D01*
X123285952Y-92838333D01*
X123190714Y-92790714D01*
X123095476Y-92790714D01*
X136452619Y-95067380D02*
X136452619Y-94067380D01*
X136024047Y-95067380D02*
X136024047Y-94543571D01*
X136071666Y-94448333D01*
X136166904Y-94400714D01*
X136309761Y-94400714D01*
X136405000Y-94448333D01*
X136452619Y-94495952D01*
X135690714Y-94400714D02*
X135309761Y-94400714D01*
X135547857Y-94067380D02*
X135547857Y-94924523D01*
X135500238Y-95019761D01*
X135405000Y-95067380D01*
X135309761Y-95067380D01*
X135119285Y-94400714D02*
X134738333Y-94400714D01*
X134976428Y-94067380D02*
X134976428Y-94924523D01*
X134928809Y-95019761D01*
X134833571Y-95067380D01*
X134738333Y-95067380D01*
X134405000Y-94400714D02*
X134405000Y-95400714D01*
X134405000Y-94448333D02*
X134309761Y-94400714D01*
X134119285Y-94400714D01*
X134024047Y-94448333D01*
X133976428Y-94495952D01*
X133928809Y-94591190D01*
X133928809Y-94876904D01*
X133976428Y-94972142D01*
X134024047Y-95019761D01*
X134119285Y-95067380D01*
X134309761Y-95067380D01*
X134405000Y-95019761D01*
X133500238Y-94972142D02*
X133452619Y-95019761D01*
X133500238Y-95067380D01*
X133547857Y-95019761D01*
X133500238Y-94972142D01*
X133500238Y-95067380D01*
X133500238Y-94448333D02*
X133452619Y-94495952D01*
X133500238Y-94543571D01*
X133547857Y-94495952D01*
X133500238Y-94448333D01*
X133500238Y-94543571D01*
X132309761Y-94019761D02*
X133166904Y-95305476D01*
X131262142Y-94019761D02*
X132119285Y-95305476D01*
X131024047Y-94400714D02*
X130833571Y-95067380D01*
X130643095Y-94591190D01*
X130452619Y-95067380D01*
X130262142Y-94400714D01*
X129881190Y-95067380D02*
X129881190Y-94067380D01*
X129452619Y-95067380D02*
X129452619Y-94543571D01*
X129500238Y-94448333D01*
X129595476Y-94400714D01*
X129738333Y-94400714D01*
X129833571Y-94448333D01*
X129881190Y-94495952D01*
X128547857Y-95067380D02*
X128547857Y-94543571D01*
X128595476Y-94448333D01*
X128690714Y-94400714D01*
X128881190Y-94400714D01*
X128976428Y-94448333D01*
X128547857Y-95019761D02*
X128643095Y-95067380D01*
X128881190Y-95067380D01*
X128976428Y-95019761D01*
X129024047Y-94924523D01*
X129024047Y-94829285D01*
X128976428Y-94734047D01*
X128881190Y-94686428D01*
X128643095Y-94686428D01*
X128547857Y-94638809D01*
X128214523Y-94400714D02*
X127833571Y-94400714D01*
X128071666Y-94067380D02*
X128071666Y-94924523D01*
X128024047Y-95019761D01*
X127928809Y-95067380D01*
X127833571Y-95067380D01*
X127500238Y-94400714D02*
X127500238Y-95067380D01*
X127500238Y-94495952D02*
X127452619Y-94448333D01*
X127357380Y-94400714D01*
X127214523Y-94400714D01*
X127119285Y-94448333D01*
X127071666Y-94543571D01*
X127071666Y-95067380D01*
X126595476Y-95067380D02*
X126595476Y-94400714D01*
X126595476Y-94067380D02*
X126643095Y-94115000D01*
X126595476Y-94162619D01*
X126547857Y-94115000D01*
X126595476Y-94067380D01*
X126595476Y-94162619D01*
X125690714Y-95019761D02*
X125785952Y-95067380D01*
X125976428Y-95067380D01*
X126071666Y-95019761D01*
X126119285Y-94972142D01*
X126166904Y-94876904D01*
X126166904Y-94591190D01*
X126119285Y-94495952D01*
X126071666Y-94448333D01*
X125976428Y-94400714D01*
X125785952Y-94400714D01*
X125690714Y-94448333D01*
X125262142Y-95067380D02*
X125262142Y-94067380D01*
X125166904Y-94686428D02*
X124881190Y-95067380D01*
X124881190Y-94400714D02*
X125262142Y-94781666D01*
X124452619Y-94972142D02*
X124405000Y-95019761D01*
X124452619Y-95067380D01*
X124500238Y-95019761D01*
X124452619Y-94972142D01*
X124452619Y-95067380D01*
X123547857Y-95019761D02*
X123643095Y-95067380D01*
X123833571Y-95067380D01*
X123928809Y-95019761D01*
X123976428Y-94972142D01*
X124024047Y-94876904D01*
X124024047Y-94591190D01*
X123976428Y-94495952D01*
X123928809Y-94448333D01*
X123833571Y-94400714D01*
X123643095Y-94400714D01*
X123547857Y-94448333D01*
X122976428Y-95067380D02*
X123071666Y-95019761D01*
X123119285Y-94972142D01*
X123166904Y-94876904D01*
X123166904Y-94591190D01*
X123119285Y-94495952D01*
X123071666Y-94448333D01*
X122976428Y-94400714D01*
X122833571Y-94400714D01*
X122738333Y-94448333D01*
X122690714Y-94495952D01*
X122643095Y-94591190D01*
X122643095Y-94876904D01*
X122690714Y-94972142D01*
X122738333Y-95019761D01*
X122833571Y-95067380D01*
X122976428Y-95067380D01*
X122214523Y-95067380D02*
X122214523Y-94400714D01*
X122214523Y-94495952D02*
X122166904Y-94448333D01*
X122071666Y-94400714D01*
X121928809Y-94400714D01*
X121833571Y-94448333D01*
X121785952Y-94543571D01*
X121785952Y-95067380D01*
X121785952Y-94543571D02*
X121738333Y-94448333D01*
X121643095Y-94400714D01*
X121500238Y-94400714D01*
X121405000Y-94448333D01*
X121357380Y-94543571D01*
X121357380Y-95067380D01*
X135571666Y-96010714D02*
X135333571Y-96677380D01*
X135095476Y-96010714D01*
X134524047Y-95677380D02*
X134428809Y-95677380D01*
X134333571Y-95725000D01*
X134285952Y-95772619D01*
X134238333Y-95867857D01*
X134190714Y-96058333D01*
X134190714Y-96296428D01*
X134238333Y-96486904D01*
X134285952Y-96582142D01*
X134333571Y-96629761D01*
X134428809Y-96677380D01*
X134524047Y-96677380D01*
X134619285Y-96629761D01*
X134666904Y-96582142D01*
X134714523Y-96486904D01*
X134762142Y-96296428D01*
X134762142Y-96058333D01*
X134714523Y-95867857D01*
X134666904Y-95772619D01*
X134619285Y-95725000D01*
X134524047Y-95677380D01*
X133762142Y-96582142D02*
X133714523Y-96629761D01*
X133762142Y-96677380D01*
X133809761Y-96629761D01*
X133762142Y-96582142D01*
X133762142Y-96677380D01*
X133333571Y-95772619D02*
X133285952Y-95725000D01*
X133190714Y-95677380D01*
X132952619Y-95677380D01*
X132857380Y-95725000D01*
X132809761Y-95772619D01*
X132762142Y-95867857D01*
X132762142Y-95963095D01*
X132809761Y-96105952D01*
X133381190Y-96677380D01*
X132762142Y-96677380D01*
X131381190Y-95677380D02*
X131285952Y-95677380D01*
X131190714Y-95725000D01*
X131143095Y-95772619D01*
X131095476Y-95867857D01*
X131047857Y-96058333D01*
X131047857Y-96296428D01*
X131095476Y-96486904D01*
X131143095Y-96582142D01*
X131190714Y-96629761D01*
X131285952Y-96677380D01*
X131381190Y-96677380D01*
X131476428Y-96629761D01*
X131524047Y-96582142D01*
X131571666Y-96486904D01*
X131619285Y-96296428D01*
X131619285Y-96058333D01*
X131571666Y-95867857D01*
X131524047Y-95772619D01*
X131476428Y-95725000D01*
X131381190Y-95677380D01*
X130190714Y-95677380D02*
X130381190Y-95677380D01*
X130476428Y-95725000D01*
X130524047Y-95772619D01*
X130619285Y-95915476D01*
X130666904Y-96105952D01*
X130666904Y-96486904D01*
X130619285Y-96582142D01*
X130571666Y-96629761D01*
X130476428Y-96677380D01*
X130285952Y-96677380D01*
X130190714Y-96629761D01*
X130143095Y-96582142D01*
X130095476Y-96486904D01*
X130095476Y-96248809D01*
X130143095Y-96153571D01*
X130190714Y-96105952D01*
X130285952Y-96058333D01*
X130476428Y-96058333D01*
X130571666Y-96105952D01*
X130619285Y-96153571D01*
X130666904Y-96248809D01*
X128952619Y-95629761D02*
X129809761Y-96915476D01*
X128095476Y-96677380D02*
X128666904Y-96677380D01*
X128381190Y-96677380D02*
X128381190Y-95677380D01*
X128476428Y-95820238D01*
X128571666Y-95915476D01*
X128666904Y-95963095D01*
X127714523Y-95772619D02*
X127666904Y-95725000D01*
X127571666Y-95677380D01*
X127333571Y-95677380D01*
X127238333Y-95725000D01*
X127190714Y-95772619D01*
X127143095Y-95867857D01*
X127143095Y-95963095D01*
X127190714Y-96105952D01*
X127762142Y-96677380D01*
X127143095Y-96677380D01*
X126000238Y-95629761D02*
X126857380Y-96915476D01*
X125714523Y-95772619D02*
X125666904Y-95725000D01*
X125571666Y-95677380D01*
X125333571Y-95677380D01*
X125238333Y-95725000D01*
X125190714Y-95772619D01*
X125143095Y-95867857D01*
X125143095Y-95963095D01*
X125190714Y-96105952D01*
X125762142Y-96677380D01*
X125143095Y-96677380D01*
X124524047Y-95677380D02*
X124428809Y-95677380D01*
X124333571Y-95725000D01*
X124285952Y-95772619D01*
X124238333Y-95867857D01*
X124190714Y-96058333D01*
X124190714Y-96296428D01*
X124238333Y-96486904D01*
X124285952Y-96582142D01*
X124333571Y-96629761D01*
X124428809Y-96677380D01*
X124524047Y-96677380D01*
X124619285Y-96629761D01*
X124666904Y-96582142D01*
X124714523Y-96486904D01*
X124762142Y-96296428D01*
X124762142Y-96058333D01*
X124714523Y-95867857D01*
X124666904Y-95772619D01*
X124619285Y-95725000D01*
X124524047Y-95677380D01*
X123809761Y-95772619D02*
X123762142Y-95725000D01*
X123666904Y-95677380D01*
X123428809Y-95677380D01*
X123333571Y-95725000D01*
X123285952Y-95772619D01*
X123238333Y-95867857D01*
X123238333Y-95963095D01*
X123285952Y-96105952D01*
X123857380Y-96677380D01*
X123238333Y-96677380D01*
X122619285Y-95677380D02*
X122524047Y-95677380D01*
X122428809Y-95725000D01*
X122381190Y-95772619D01*
X122333571Y-95867857D01*
X122285952Y-96058333D01*
X122285952Y-96296428D01*
X122333571Y-96486904D01*
X122381190Y-96582142D01*
X122428809Y-96629761D01*
X122524047Y-96677380D01*
X122619285Y-96677380D01*
X122714523Y-96629761D01*
X122762142Y-96582142D01*
X122809761Y-96486904D01*
X122857380Y-96296428D01*
X122857380Y-96058333D01*
X122809761Y-95867857D01*
X122762142Y-95772619D01*
X122714523Y-95725000D01*
X122619285Y-95677380D01*
D10*
X121372380Y-113466666D02*
X122372380Y-113799999D01*
X121372380Y-114133332D01*
X122372380Y-114466666D02*
X121372380Y-114466666D01*
X122372380Y-115038094D01*
X121372380Y-115038094D01*
X128992380Y-113657142D02*
X128992380Y-114228570D01*
X129992380Y-113942856D02*
X128992380Y-113942856D01*
X128992380Y-114466666D02*
X129992380Y-115133332D01*
X128992380Y-115133332D02*
X129992380Y-114466666D01*
X127452380Y-112228571D02*
X126452380Y-112228571D01*
X126452380Y-112609523D01*
X126500000Y-112704761D01*
X126547619Y-112752380D01*
X126642857Y-112799999D01*
X126785714Y-112799999D01*
X126880952Y-112752380D01*
X126928571Y-112704761D01*
X126976190Y-112609523D01*
X126976190Y-112228571D01*
X126452380Y-113133333D02*
X127452380Y-113371428D01*
X126738095Y-113561904D01*
X127452380Y-113752380D01*
X126452380Y-113990475D01*
X127452380Y-114371428D02*
X126452380Y-114371428D01*
X127166666Y-114704761D01*
X126452380Y-115038094D01*
X127452380Y-115038094D01*
X118959380Y-113514285D02*
X119959380Y-113847619D01*
X118959380Y-114180952D01*
X119959380Y-114514285D02*
X118959380Y-114514285D01*
X118959380Y-114895238D01*
X119007000Y-114990476D01*
X119054619Y-115038095D01*
X119149857Y-115085714D01*
X119292714Y-115085714D01*
X119387952Y-115038095D01*
X119435571Y-114990476D01*
X119483190Y-114895238D01*
X119483190Y-114514285D01*
X135072380Y-114038095D02*
X134072380Y-114038095D01*
X135072380Y-114514285D02*
X134072380Y-114514285D01*
X134072380Y-114895237D01*
X134120000Y-114990475D01*
X134167619Y-115038095D01*
X134262857Y-115085714D01*
X134405714Y-115085714D01*
X134500952Y-115038095D01*
X134548571Y-114990475D01*
X134596190Y-114895237D01*
X134596190Y-114514285D01*
X132532380Y-114133333D02*
X132056190Y-113800000D01*
X132532380Y-113561904D02*
X131532380Y-113561904D01*
X131532380Y-113942857D01*
X131580000Y-114038095D01*
X131627619Y-114085714D01*
X131722857Y-114133333D01*
X131865714Y-114133333D01*
X131960952Y-114085714D01*
X132008571Y-114038095D01*
X132056190Y-113942857D01*
X132056190Y-113561904D01*
X131532380Y-114466666D02*
X132532380Y-115133333D01*
X131532380Y-115133333D02*
X132532380Y-114466666D01*
X139439523Y-98923904D02*
X138982380Y-98923904D01*
X139210952Y-99723904D02*
X139210952Y-98923904D01*
X138715714Y-99723904D02*
X138715714Y-98923904D01*
X138410952Y-98923904D01*
X138334761Y-98962000D01*
X138296666Y-99000095D01*
X138258571Y-99076285D01*
X138258571Y-99190571D01*
X138296666Y-99266761D01*
X138334761Y-99304857D01*
X138410952Y-99342952D01*
X138715714Y-99342952D01*
X137572857Y-99190571D02*
X137572857Y-99723904D01*
X137763333Y-98885809D02*
X137953809Y-99457238D01*
X137458571Y-99457238D01*
X143489523Y-102973904D02*
X143032380Y-102973904D01*
X143260952Y-103773904D02*
X143260952Y-102973904D01*
X142765714Y-103773904D02*
X142765714Y-102973904D01*
X142460952Y-102973904D01*
X142384761Y-103012000D01*
X142346666Y-103050095D01*
X142308571Y-103126285D01*
X142308571Y-103240571D01*
X142346666Y-103316761D01*
X142384761Y-103354857D01*
X142460952Y-103392952D01*
X142765714Y-103392952D01*
X142003809Y-103050095D02*
X141965714Y-103012000D01*
X141889523Y-102973904D01*
X141699047Y-102973904D01*
X141622857Y-103012000D01*
X141584761Y-103050095D01*
X141546666Y-103126285D01*
X141546666Y-103202476D01*
X141584761Y-103316761D01*
X142041904Y-103773904D01*
X141546666Y-103773904D01*
X139439523Y-102973904D02*
X138982380Y-102973904D01*
X139210952Y-103773904D02*
X139210952Y-102973904D01*
X138715714Y-103773904D02*
X138715714Y-102973904D01*
X138410952Y-102973904D01*
X138334761Y-103012000D01*
X138296666Y-103050095D01*
X138258571Y-103126285D01*
X138258571Y-103240571D01*
X138296666Y-103316761D01*
X138334761Y-103354857D01*
X138410952Y-103392952D01*
X138715714Y-103392952D01*
X137991904Y-102973904D02*
X137496666Y-102973904D01*
X137763333Y-103278666D01*
X137649047Y-103278666D01*
X137572857Y-103316761D01*
X137534761Y-103354857D01*
X137496666Y-103431047D01*
X137496666Y-103621523D01*
X137534761Y-103697714D01*
X137572857Y-103735809D01*
X137649047Y-103773904D01*
X137877619Y-103773904D01*
X137953809Y-103735809D01*
X137991904Y-103697714D01*
X143489523Y-98923904D02*
X143032380Y-98923904D01*
X143260952Y-99723904D02*
X143260952Y-98923904D01*
X142765714Y-99723904D02*
X142765714Y-98923904D01*
X142460952Y-98923904D01*
X142384761Y-98962000D01*
X142346666Y-99000095D01*
X142308571Y-99076285D01*
X142308571Y-99190571D01*
X142346666Y-99266761D01*
X142384761Y-99304857D01*
X142460952Y-99342952D01*
X142765714Y-99342952D01*
X141546666Y-99723904D02*
X142003809Y-99723904D01*
X141775238Y-99723904D02*
X141775238Y-98923904D01*
X141851428Y-99038190D01*
X141927619Y-99114380D01*
X142003809Y-99152476D01*
G36*
X130935684Y-110889078D02*
G01*
X130933078Y-110912387D01*
X130913660Y-110995352D01*
X130878573Y-111058448D01*
X130825212Y-111106808D01*
X130822196Y-111108804D01*
X130754362Y-111137185D01*
X130683535Y-111139711D01*
X130615289Y-111118097D01*
X130555196Y-111074062D01*
X130508829Y-111009322D01*
X130508050Y-111007761D01*
X130492643Y-110967558D01*
X130481357Y-110921866D01*
X130475370Y-110878972D01*
X130475861Y-110847160D01*
X130484007Y-110834714D01*
X130491244Y-110835471D01*
X130525851Y-110849235D01*
X130565078Y-110874546D01*
X130598448Y-110903845D01*
X130615483Y-110929572D01*
X130633192Y-110964471D01*
X130669485Y-110996212D01*
X130711630Y-111008886D01*
X130727077Y-111005221D01*
X130757569Y-110986774D01*
X130784128Y-110961166D01*
X130795486Y-110937934D01*
X130795482Y-110937848D01*
X130782596Y-110927179D01*
X130748241Y-110907933D01*
X130697593Y-110882813D01*
X130635829Y-110854524D01*
X130635489Y-110854374D01*
X130568388Y-110824498D01*
X130523411Y-110802973D01*
X130496145Y-110786437D01*
X130482178Y-110771531D01*
X130477097Y-110754893D01*
X130476490Y-110733162D01*
X130480711Y-110692013D01*
X130624000Y-110692013D01*
X130638791Y-110704949D01*
X130675644Y-110724333D01*
X130676725Y-110724881D01*
X130720205Y-110745587D01*
X130759102Y-110762105D01*
X130783778Y-110769093D01*
X130793676Y-110759753D01*
X130795486Y-110727748D01*
X130787966Y-110687915D01*
X130761897Y-110651717D01*
X130724154Y-110632950D01*
X130682077Y-110634845D01*
X130643005Y-110660632D01*
X130627647Y-110678451D01*
X130624000Y-110692013D01*
X130480711Y-110692013D01*
X130481833Y-110681086D01*
X130508251Y-110610335D01*
X130552473Y-110554735D01*
X130609697Y-110516239D01*
X130675120Y-110496797D01*
X130743937Y-110498359D01*
X130811347Y-110522878D01*
X130872544Y-110572302D01*
X130906450Y-110621212D01*
X130930806Y-110691027D01*
X130934767Y-110727748D01*
X130940299Y-110779055D01*
X130935684Y-110889078D01*
G37*
D12*
X130935684Y-110889078D02*
X130933078Y-110912387D01*
X130913660Y-110995352D01*
X130878573Y-111058448D01*
X130825212Y-111106808D01*
X130822196Y-111108804D01*
X130754362Y-111137185D01*
X130683535Y-111139711D01*
X130615289Y-111118097D01*
X130555196Y-111074062D01*
X130508829Y-111009322D01*
X130508050Y-111007761D01*
X130492643Y-110967558D01*
X130481357Y-110921866D01*
X130475370Y-110878972D01*
X130475861Y-110847160D01*
X130484007Y-110834714D01*
X130491244Y-110835471D01*
X130525851Y-110849235D01*
X130565078Y-110874546D01*
X130598448Y-110903845D01*
X130615483Y-110929572D01*
X130633192Y-110964471D01*
X130669485Y-110996212D01*
X130711630Y-111008886D01*
X130727077Y-111005221D01*
X130757569Y-110986774D01*
X130784128Y-110961166D01*
X130795486Y-110937934D01*
X130795482Y-110937848D01*
X130782596Y-110927179D01*
X130748241Y-110907933D01*
X130697593Y-110882813D01*
X130635829Y-110854524D01*
X130635489Y-110854374D01*
X130568388Y-110824498D01*
X130523411Y-110802973D01*
X130496145Y-110786437D01*
X130482178Y-110771531D01*
X130477097Y-110754893D01*
X130476490Y-110733162D01*
X130480711Y-110692013D01*
X130624000Y-110692013D01*
X130638791Y-110704949D01*
X130675644Y-110724333D01*
X130676725Y-110724881D01*
X130720205Y-110745587D01*
X130759102Y-110762105D01*
X130783778Y-110769093D01*
X130793676Y-110759753D01*
X130795486Y-110727748D01*
X130787966Y-110687915D01*
X130761897Y-110651717D01*
X130724154Y-110632950D01*
X130682077Y-110634845D01*
X130643005Y-110660632D01*
X130627647Y-110678451D01*
X130624000Y-110692013D01*
X130480711Y-110692013D01*
X130481833Y-110681086D01*
X130508251Y-110610335D01*
X130552473Y-110554735D01*
X130609697Y-110516239D01*
X130675120Y-110496797D01*
X130743937Y-110498359D01*
X130811347Y-110522878D01*
X130872544Y-110572302D01*
X130906450Y-110621212D01*
X130930806Y-110691027D01*
X130934767Y-110727748D01*
X130940299Y-110779055D01*
X130935684Y-110889078D01*
G36*
X128385691Y-110551467D02*
G01*
X128390273Y-110554003D01*
X128427704Y-110583057D01*
X128461170Y-110620410D01*
X128467007Y-110628852D01*
X128478165Y-110648553D01*
X128486136Y-110671935D01*
X128491618Y-110704067D01*
X128495307Y-110750019D01*
X128497899Y-110814859D01*
X128500092Y-110903657D01*
X128500402Y-110918669D01*
X128501400Y-111015999D01*
X128499994Y-111084934D01*
X128496164Y-111125948D01*
X128489889Y-111139514D01*
X128470898Y-111135452D01*
X128438638Y-111123144D01*
X128431041Y-111119545D01*
X128419176Y-111111398D01*
X128410994Y-111098004D01*
X128405643Y-111074608D01*
X128402269Y-111036455D01*
X128400019Y-110978790D01*
X128398040Y-110896857D01*
X128397498Y-110872907D01*
X128395403Y-110797266D01*
X128392683Y-110744328D01*
X128388515Y-110709075D01*
X128382079Y-110686487D01*
X128372550Y-110671544D01*
X128359106Y-110659227D01*
X128319305Y-110637634D01*
X128270341Y-110633476D01*
X128226529Y-110649999D01*
X128195008Y-110684210D01*
X128182914Y-110733114D01*
X128182578Y-110746407D01*
X128175972Y-110770472D01*
X128156470Y-110774144D01*
X128118283Y-110759813D01*
X128109438Y-110755217D01*
X128085534Y-110728186D01*
X128085061Y-110687994D01*
X128107836Y-110632409D01*
X128128727Y-110602117D01*
X128182142Y-110559084D01*
X128248074Y-110534755D01*
X128318574Y-110531443D01*
X128385691Y-110551467D01*
G37*
X128385691Y-110551467D02*
X128390273Y-110554003D01*
X128427704Y-110583057D01*
X128461170Y-110620410D01*
X128467007Y-110628852D01*
X128478165Y-110648553D01*
X128486136Y-110671935D01*
X128491618Y-110704067D01*
X128495307Y-110750019D01*
X128497899Y-110814859D01*
X128500092Y-110903657D01*
X128500402Y-110918669D01*
X128501400Y-111015999D01*
X128499994Y-111084934D01*
X128496164Y-111125948D01*
X128489889Y-111139514D01*
X128470898Y-111135452D01*
X128438638Y-111123144D01*
X128431041Y-111119545D01*
X128419176Y-111111398D01*
X128410994Y-111098004D01*
X128405643Y-111074608D01*
X128402269Y-111036455D01*
X128400019Y-110978790D01*
X128398040Y-110896857D01*
X128397498Y-110872907D01*
X128395403Y-110797266D01*
X128392683Y-110744328D01*
X128388515Y-110709075D01*
X128382079Y-110686487D01*
X128372550Y-110671544D01*
X128359106Y-110659227D01*
X128319305Y-110637634D01*
X128270341Y-110633476D01*
X128226529Y-110649999D01*
X128195008Y-110684210D01*
X128182914Y-110733114D01*
X128182578Y-110746407D01*
X128175972Y-110770472D01*
X128156470Y-110774144D01*
X128118283Y-110759813D01*
X128109438Y-110755217D01*
X128085534Y-110728186D01*
X128085061Y-110687994D01*
X128107836Y-110632409D01*
X128128727Y-110602117D01*
X128182142Y-110559084D01*
X128248074Y-110534755D01*
X128318574Y-110531443D01*
X128385691Y-110551467D01*
G36*
X130209020Y-110502822D02*
G01*
X130276810Y-110534680D01*
X130332366Y-110589770D01*
X130343881Y-110607016D01*
X130353432Y-110626562D01*
X130360206Y-110651198D01*
X130364819Y-110685711D01*
X130367888Y-110734889D01*
X130370029Y-110803519D01*
X130371859Y-110896389D01*
X130376404Y-111154007D01*
X130338225Y-111139491D01*
X130303268Y-111126156D01*
X130277097Y-111113323D01*
X130260013Y-111096780D01*
X130250086Y-111071465D01*
X130245386Y-111032316D01*
X130243982Y-110974268D01*
X130243943Y-110892261D01*
X130243744Y-110826895D01*
X130242559Y-110764173D01*
X130239729Y-110721334D01*
X130234609Y-110693220D01*
X130226553Y-110674675D01*
X130214914Y-110660543D01*
X130186303Y-110640600D01*
X130138239Y-110633083D01*
X130090688Y-110652079D01*
X130087550Y-110654511D01*
X130077769Y-110665748D01*
X130070553Y-110683770D01*
X130065299Y-110713026D01*
X130061402Y-110757962D01*
X130058256Y-110823028D01*
X130055257Y-110912670D01*
X130048000Y-111152697D01*
X129986314Y-111125044D01*
X129924629Y-111097391D01*
X129924629Y-110878246D01*
X129924884Y-110818711D01*
X129927086Y-110735892D01*
X129932661Y-110674227D01*
X129942941Y-110628748D01*
X129959258Y-110594484D01*
X129982943Y-110566466D01*
X130015328Y-110539723D01*
X130061907Y-110512780D01*
X130135287Y-110495191D01*
X130209020Y-110502822D01*
G37*
X130209020Y-110502822D02*
X130276810Y-110534680D01*
X130332366Y-110589770D01*
X130343881Y-110607016D01*
X130353432Y-110626562D01*
X130360206Y-110651198D01*
X130364819Y-110685711D01*
X130367888Y-110734889D01*
X130370029Y-110803519D01*
X130371859Y-110896389D01*
X130376404Y-111154007D01*
X130338225Y-111139491D01*
X130303268Y-111126156D01*
X130277097Y-111113323D01*
X130260013Y-111096780D01*
X130250086Y-111071465D01*
X130245386Y-111032316D01*
X130243982Y-110974268D01*
X130243943Y-110892261D01*
X130243744Y-110826895D01*
X130242559Y-110764173D01*
X130239729Y-110721334D01*
X130234609Y-110693220D01*
X130226553Y-110674675D01*
X130214914Y-110660543D01*
X130186303Y-110640600D01*
X130138239Y-110633083D01*
X130090688Y-110652079D01*
X130087550Y-110654511D01*
X130077769Y-110665748D01*
X130070553Y-110683770D01*
X130065299Y-110713026D01*
X130061402Y-110757962D01*
X130058256Y-110823028D01*
X130055257Y-110912670D01*
X130048000Y-111152697D01*
X129986314Y-111125044D01*
X129924629Y-111097391D01*
X129924629Y-110878246D01*
X129924884Y-110818711D01*
X129927086Y-110735892D01*
X129932661Y-110674227D01*
X129942941Y-110628748D01*
X129959258Y-110594484D01*
X129982943Y-110566466D01*
X130015328Y-110539723D01*
X130061907Y-110512780D01*
X130135287Y-110495191D01*
X130209020Y-110502822D01*
G36*
X126745495Y-110531220D02*
G01*
X126776599Y-110539121D01*
X126805559Y-110558817D01*
X126842831Y-110595484D01*
X126866801Y-110621378D01*
X126891770Y-110654997D01*
X126903031Y-110686506D01*
X126905657Y-110726485D01*
X126905657Y-110791917D01*
X126861035Y-110768842D01*
X126825673Y-110740724D01*
X126801451Y-110702848D01*
X126797291Y-110692551D01*
X126765594Y-110652637D01*
X126721554Y-110632624D01*
X126673531Y-110634572D01*
X126629886Y-110660543D01*
X126611420Y-110681635D01*
X126600663Y-110708619D01*
X126612178Y-110732634D01*
X126647981Y-110756791D01*
X126710090Y-110784199D01*
X126719515Y-110787985D01*
X126776058Y-110812759D01*
X126824580Y-110837189D01*
X126855451Y-110856486D01*
X126886371Y-110890953D01*
X126906927Y-110945957D01*
X126904744Y-111004983D01*
X126880424Y-111060845D01*
X126834568Y-111106355D01*
X126797438Y-111125727D01*
X126725711Y-111139292D01*
X126685852Y-111137462D01*
X126648953Y-111127568D01*
X126634797Y-111106806D01*
X126640091Y-111072613D01*
X126641631Y-111068092D01*
X126653842Y-111044116D01*
X126674174Y-111035042D01*
X126712908Y-111035649D01*
X126740257Y-111036474D01*
X126772257Y-111029392D01*
X126794182Y-111008219D01*
X126806670Y-110982152D01*
X126808062Y-110954845D01*
X126807998Y-110954685D01*
X126791807Y-110939930D01*
X126757155Y-110918457D01*
X126712321Y-110894458D01*
X126665582Y-110872125D01*
X126625217Y-110855652D01*
X126599504Y-110849229D01*
X126595679Y-110855518D01*
X126590864Y-110885115D01*
X126587566Y-110933447D01*
X126586343Y-110994372D01*
X126586058Y-111036542D01*
X126584718Y-111089653D01*
X126582528Y-111126025D01*
X126579769Y-111139514D01*
X126565344Y-111134981D01*
X126536226Y-111122670D01*
X126499257Y-111105826D01*
X126499257Y-110889721D01*
X126499493Y-110834327D01*
X126501729Y-110750207D01*
X126507423Y-110687800D01*
X126517903Y-110642358D01*
X126534497Y-110609133D01*
X126558531Y-110583378D01*
X126591333Y-110560344D01*
X126633124Y-110541335D01*
X126710287Y-110529914D01*
X126745495Y-110531220D01*
G37*
X126745495Y-110531220D02*
X126776599Y-110539121D01*
X126805559Y-110558817D01*
X126842831Y-110595484D01*
X126866801Y-110621378D01*
X126891770Y-110654997D01*
X126903031Y-110686506D01*
X126905657Y-110726485D01*
X126905657Y-110791917D01*
X126861035Y-110768842D01*
X126825673Y-110740724D01*
X126801451Y-110702848D01*
X126797291Y-110692551D01*
X126765594Y-110652637D01*
X126721554Y-110632624D01*
X126673531Y-110634572D01*
X126629886Y-110660543D01*
X126611420Y-110681635D01*
X126600663Y-110708619D01*
X126612178Y-110732634D01*
X126647981Y-110756791D01*
X126710090Y-110784199D01*
X126719515Y-110787985D01*
X126776058Y-110812759D01*
X126824580Y-110837189D01*
X126855451Y-110856486D01*
X126886371Y-110890953D01*
X126906927Y-110945957D01*
X126904744Y-111004983D01*
X126880424Y-111060845D01*
X126834568Y-111106355D01*
X126797438Y-111125727D01*
X126725711Y-111139292D01*
X126685852Y-111137462D01*
X126648953Y-111127568D01*
X126634797Y-111106806D01*
X126640091Y-111072613D01*
X126641631Y-111068092D01*
X126653842Y-111044116D01*
X126674174Y-111035042D01*
X126712908Y-111035649D01*
X126740257Y-111036474D01*
X126772257Y-111029392D01*
X126794182Y-111008219D01*
X126806670Y-110982152D01*
X126808062Y-110954845D01*
X126807998Y-110954685D01*
X126791807Y-110939930D01*
X126757155Y-110918457D01*
X126712321Y-110894458D01*
X126665582Y-110872125D01*
X126625217Y-110855652D01*
X126599504Y-110849229D01*
X126595679Y-110855518D01*
X126590864Y-110885115D01*
X126587566Y-110933447D01*
X126586343Y-110994372D01*
X126586058Y-111036542D01*
X126584718Y-111089653D01*
X126582528Y-111126025D01*
X126579769Y-111139514D01*
X126565344Y-111134981D01*
X126536226Y-111122670D01*
X126499257Y-111105826D01*
X126499257Y-110889721D01*
X126499493Y-110834327D01*
X126501729Y-110750207D01*
X126507423Y-110687800D01*
X126517903Y-110642358D01*
X126534497Y-110609133D01*
X126558531Y-110583378D01*
X126591333Y-110560344D01*
X126633124Y-110541335D01*
X126710287Y-110529914D01*
X126745495Y-110531220D01*
G36*
X126260829Y-110536097D02*
G01*
X126320753Y-110558355D01*
X126345673Y-110575080D01*
X126370910Y-110599043D01*
X126388912Y-110629526D01*
X126400858Y-110671023D01*
X126407930Y-110728032D01*
X126411308Y-110805047D01*
X126412171Y-110906565D01*
X126412002Y-110959027D01*
X126411153Y-111030715D01*
X126409711Y-111087925D01*
X126407814Y-111125809D01*
X126405597Y-111139514D01*
X126391172Y-111134981D01*
X126362054Y-111122670D01*
X126361181Y-111122272D01*
X126346060Y-111114356D01*
X126335891Y-111103495D01*
X126329691Y-111084471D01*
X126326478Y-111052069D01*
X126325270Y-111001071D01*
X126325086Y-110926261D01*
X126324714Y-110878804D01*
X126320750Y-110789615D01*
X126311673Y-110724287D01*
X126296524Y-110679393D01*
X126274345Y-110651507D01*
X126244175Y-110637203D01*
X126239990Y-110636206D01*
X126183480Y-110635427D01*
X126139410Y-110660744D01*
X126108972Y-110711502D01*
X126103544Y-110726175D01*
X126091171Y-110758649D01*
X126084905Y-110773572D01*
X126072036Y-110771516D01*
X126043933Y-110760357D01*
X126017721Y-110741927D01*
X126005771Y-110707098D01*
X126009336Y-110682151D01*
X126031235Y-110631547D01*
X126066644Y-110584128D01*
X126108052Y-110551334D01*
X126125400Y-110543752D01*
X126191089Y-110531076D01*
X126260829Y-110536097D01*
G37*
X126260829Y-110536097D02*
X126320753Y-110558355D01*
X126345673Y-110575080D01*
X126370910Y-110599043D01*
X126388912Y-110629526D01*
X126400858Y-110671023D01*
X126407930Y-110728032D01*
X126411308Y-110805047D01*
X126412171Y-110906565D01*
X126412002Y-110959027D01*
X126411153Y-111030715D01*
X126409711Y-111087925D01*
X126407814Y-111125809D01*
X126405597Y-111139514D01*
X126391172Y-111134981D01*
X126362054Y-111122670D01*
X126361181Y-111122272D01*
X126346060Y-111114356D01*
X126335891Y-111103495D01*
X126329691Y-111084471D01*
X126326478Y-111052069D01*
X126325270Y-111001071D01*
X126325086Y-110926261D01*
X126324714Y-110878804D01*
X126320750Y-110789615D01*
X126311673Y-110724287D01*
X126296524Y-110679393D01*
X126274345Y-110651507D01*
X126244175Y-110637203D01*
X126239990Y-110636206D01*
X126183480Y-110635427D01*
X126139410Y-110660744D01*
X126108972Y-110711502D01*
X126103544Y-110726175D01*
X126091171Y-110758649D01*
X126084905Y-110773572D01*
X126072036Y-110771516D01*
X126043933Y-110760357D01*
X126017721Y-110741927D01*
X126005771Y-110707098D01*
X126009336Y-110682151D01*
X126031235Y-110631547D01*
X126066644Y-110584128D01*
X126108052Y-110551334D01*
X126125400Y-110543752D01*
X126191089Y-110531076D01*
X126260829Y-110536097D01*
G36*
X128867483Y-110545569D02*
G01*
X128917376Y-110574661D01*
X128939325Y-110597327D01*
X128981504Y-110665082D01*
X128995714Y-110738950D01*
X128995714Y-110789770D01*
X128948999Y-110770128D01*
X128916692Y-110750308D01*
X128891231Y-110709160D01*
X128888616Y-110700675D01*
X128860478Y-110657451D01*
X128818067Y-110634103D01*
X128769370Y-110633100D01*
X128722373Y-110656914D01*
X128715357Y-110663056D01*
X128691893Y-110689745D01*
X128688019Y-110713014D01*
X128705768Y-110735862D01*
X128747179Y-110761287D01*
X128814286Y-110792288D01*
X128818824Y-110794252D01*
X128893322Y-110828990D01*
X128944203Y-110859763D01*
X128975525Y-110890488D01*
X128991343Y-110925082D01*
X128995714Y-110967462D01*
X128989986Y-111014446D01*
X128961062Y-111074585D01*
X128910178Y-111117788D01*
X128873374Y-111130759D01*
X128821434Y-111137856D01*
X128770999Y-111136340D01*
X128734983Y-111125632D01*
X128731158Y-111122966D01*
X128720998Y-111104337D01*
X128728048Y-111071505D01*
X128740297Y-111045735D01*
X128759939Y-111035006D01*
X128797191Y-111035539D01*
X128848908Y-111032462D01*
X128882701Y-111011212D01*
X128894114Y-110971877D01*
X128894104Y-110970747D01*
X128887187Y-110947913D01*
X128863659Y-110926963D01*
X128817914Y-110902815D01*
X128755704Y-110873741D01*
X128714499Y-110857925D01*
X128690712Y-110858944D01*
X128679597Y-110879837D01*
X128676408Y-110923641D01*
X128676400Y-110993393D01*
X128676044Y-111036452D01*
X128674413Y-111089626D01*
X128671761Y-111126022D01*
X128668422Y-111139514D01*
X128667530Y-111139423D01*
X128648237Y-111132110D01*
X128616284Y-111116678D01*
X128572124Y-111093842D01*
X128577371Y-110888078D01*
X128577736Y-110874432D01*
X128581904Y-110778651D01*
X128589268Y-110706462D01*
X128601330Y-110653058D01*
X128619593Y-110613633D01*
X128645560Y-110583380D01*
X128680733Y-110557493D01*
X128681384Y-110557087D01*
X128738256Y-110535968D01*
X128804033Y-110532400D01*
X128867483Y-110545569D01*
G37*
X128867483Y-110545569D02*
X128917376Y-110574661D01*
X128939325Y-110597327D01*
X128981504Y-110665082D01*
X128995714Y-110738950D01*
X128995714Y-110789770D01*
X128948999Y-110770128D01*
X128916692Y-110750308D01*
X128891231Y-110709160D01*
X128888616Y-110700675D01*
X128860478Y-110657451D01*
X128818067Y-110634103D01*
X128769370Y-110633100D01*
X128722373Y-110656914D01*
X128715357Y-110663056D01*
X128691893Y-110689745D01*
X128688019Y-110713014D01*
X128705768Y-110735862D01*
X128747179Y-110761287D01*
X128814286Y-110792288D01*
X128818824Y-110794252D01*
X128893322Y-110828990D01*
X128944203Y-110859763D01*
X128975525Y-110890488D01*
X128991343Y-110925082D01*
X128995714Y-110967462D01*
X128989986Y-111014446D01*
X128961062Y-111074585D01*
X128910178Y-111117788D01*
X128873374Y-111130759D01*
X128821434Y-111137856D01*
X128770999Y-111136340D01*
X128734983Y-111125632D01*
X128731158Y-111122966D01*
X128720998Y-111104337D01*
X128728048Y-111071505D01*
X128740297Y-111045735D01*
X128759939Y-111035006D01*
X128797191Y-111035539D01*
X128848908Y-111032462D01*
X128882701Y-111011212D01*
X128894114Y-110971877D01*
X128894104Y-110970747D01*
X128887187Y-110947913D01*
X128863659Y-110926963D01*
X128817914Y-110902815D01*
X128755704Y-110873741D01*
X128714499Y-110857925D01*
X128690712Y-110858944D01*
X128679597Y-110879837D01*
X128676408Y-110923641D01*
X128676400Y-110993393D01*
X128676044Y-111036452D01*
X128674413Y-111089626D01*
X128671761Y-111126022D01*
X128668422Y-111139514D01*
X128667530Y-111139423D01*
X128648237Y-111132110D01*
X128616284Y-111116678D01*
X128572124Y-111093842D01*
X128577371Y-110888078D01*
X128577736Y-110874432D01*
X128581904Y-110778651D01*
X128589268Y-110706462D01*
X128601330Y-110653058D01*
X128619593Y-110613633D01*
X128645560Y-110583380D01*
X128680733Y-110557493D01*
X128681384Y-110557087D01*
X128738256Y-110535968D01*
X128804033Y-110532400D01*
X128867483Y-110545569D01*
G36*
X128891933Y-105827371D02*
G01*
X128967856Y-105827865D01*
X129022491Y-105829135D01*
X129059500Y-105831547D01*
X129082547Y-105835467D01*
X129095296Y-105841262D01*
X129101411Y-105849299D01*
X129104556Y-105859943D01*
X129104646Y-105860325D01*
X129109814Y-105885347D01*
X129119209Y-105933681D01*
X129131867Y-106000260D01*
X129146825Y-106080014D01*
X129163119Y-106167875D01*
X129164448Y-106175064D01*
X129180691Y-106260340D01*
X129195805Y-106335242D01*
X129208808Y-106395219D01*
X129218715Y-106435717D01*
X129224544Y-106452184D01*
X129224575Y-106452210D01*
X129242943Y-106461320D01*
X129280640Y-106476457D01*
X129329543Y-106494358D01*
X129332297Y-106495330D01*
X129394817Y-106518959D01*
X129467543Y-106548595D01*
X129535294Y-106578062D01*
X129646703Y-106628626D01*
X129893399Y-106460160D01*
X129910775Y-106448311D01*
X129985202Y-106397947D01*
X130051614Y-106353612D01*
X130106039Y-106317916D01*
X130144506Y-106293471D01*
X130163042Y-106282889D01*
X130175743Y-106285315D01*
X130204579Y-106304110D01*
X130249143Y-106341330D01*
X130310670Y-106398020D01*
X130390398Y-106475227D01*
X130397532Y-106482255D01*
X130460796Y-106545222D01*
X130516990Y-106602268D01*
X130562677Y-106649817D01*
X130594414Y-106684297D01*
X130608764Y-106702131D01*
X130608810Y-106702217D01*
X130610633Y-106715795D01*
X130603910Y-106737820D01*
X130586946Y-106771304D01*
X130558044Y-106819261D01*
X130515508Y-106884704D01*
X130457644Y-106970645D01*
X130447783Y-106985151D01*
X130397913Y-107058635D01*
X130353905Y-107123687D01*
X130318380Y-107176417D01*
X130293959Y-107212936D01*
X130283264Y-107229356D01*
X130282458Y-107232834D01*
X130287518Y-107258785D01*
X130302677Y-107301159D01*
X130325463Y-107352728D01*
X130356429Y-107420170D01*
X130391004Y-107500195D01*
X130420366Y-107572629D01*
X130427645Y-107591377D01*
X130446710Y-107639246D01*
X130460715Y-107672596D01*
X130467041Y-107685114D01*
X130474025Y-107686050D01*
X130505413Y-107691461D01*
X130556787Y-107700806D01*
X130622802Y-107713069D01*
X130698113Y-107727232D01*
X130777375Y-107742280D01*
X130855243Y-107757195D01*
X130926370Y-107770961D01*
X130985412Y-107782562D01*
X131027022Y-107790980D01*
X131045857Y-107795199D01*
X131048980Y-107796389D01*
X131056591Y-107802805D01*
X131062254Y-107816465D01*
X131066251Y-107840999D01*
X131068866Y-107880038D01*
X131070384Y-107937213D01*
X131071086Y-108016154D01*
X131071257Y-108120492D01*
X131071257Y-108437799D01*
X130995057Y-108452839D01*
X130985840Y-108454642D01*
X130936891Y-108463980D01*
X130869205Y-108476669D01*
X130790478Y-108491273D01*
X130708400Y-108506355D01*
X130676078Y-108512422D01*
X130603855Y-108527181D01*
X130543666Y-108541137D01*
X130501040Y-108552952D01*
X130481510Y-108561287D01*
X130472660Y-108574905D01*
X130456548Y-108610938D01*
X130440065Y-108657572D01*
X130434263Y-108675034D01*
X130412906Y-108732358D01*
X130385359Y-108800201D01*
X130356107Y-108867355D01*
X130340463Y-108902430D01*
X130318174Y-108954822D01*
X130302857Y-108994058D01*
X130297162Y-109013563D01*
X130297478Y-109015036D01*
X130308281Y-109035729D01*
X130332638Y-109075665D01*
X130368081Y-109130972D01*
X130412136Y-109197781D01*
X130462332Y-109272220D01*
X130627501Y-109514623D01*
X130410503Y-109731983D01*
X130389516Y-109752899D01*
X130325342Y-109815505D01*
X130267990Y-109869495D01*
X130220820Y-109911826D01*
X130187192Y-109939457D01*
X130170467Y-109949343D01*
X130152303Y-109941821D01*
X130114265Y-109920227D01*
X130060726Y-109887151D01*
X129995884Y-109845191D01*
X129923940Y-109796943D01*
X129853275Y-109749291D01*
X129789526Y-109707328D01*
X129737513Y-109674165D01*
X129701279Y-109652378D01*
X129684867Y-109644543D01*
X129683905Y-109644614D01*
X129662103Y-109652338D01*
X129623440Y-109670323D01*
X129575612Y-109695013D01*
X129575110Y-109695284D01*
X129511587Y-109727099D01*
X129468060Y-109742642D01*
X129441052Y-109742685D01*
X129427090Y-109728000D01*
X129421180Y-109713544D01*
X129405229Y-109674831D01*
X129380660Y-109615316D01*
X129348779Y-109538165D01*
X129310893Y-109446541D01*
X129268310Y-109343607D01*
X129222337Y-109232526D01*
X129180667Y-109131472D01*
X129138268Y-109027780D01*
X129100756Y-108935119D01*
X129069388Y-108856642D01*
X129045425Y-108795500D01*
X129030123Y-108754843D01*
X129024743Y-108737825D01*
X129035018Y-108722219D01*
X129063563Y-108696162D01*
X129103971Y-108665887D01*
X129200979Y-108586684D01*
X129287793Y-108485475D01*
X129351322Y-108374116D01*
X129391177Y-108255893D01*
X129406965Y-108134095D01*
X129398296Y-108012010D01*
X129364778Y-107892925D01*
X129306021Y-107780129D01*
X129221632Y-107676911D01*
X129177631Y-107636713D01*
X129072211Y-107565638D01*
X128959410Y-107519301D01*
X128842525Y-107496599D01*
X128724853Y-107496428D01*
X128609690Y-107517687D01*
X128500335Y-107559270D01*
X128400083Y-107620076D01*
X128312233Y-107699001D01*
X128240080Y-107794941D01*
X128186922Y-107906795D01*
X128156057Y-108033457D01*
X128150392Y-108094507D01*
X128158185Y-108226776D01*
X128193284Y-108352266D01*
X128254649Y-108468759D01*
X128341243Y-108574039D01*
X128452029Y-108665887D01*
X128490931Y-108694930D01*
X128520104Y-108721272D01*
X128531257Y-108737800D01*
X128526810Y-108752209D01*
X128512378Y-108790815D01*
X128489173Y-108850201D01*
X128458452Y-108927215D01*
X128421474Y-109018703D01*
X128379496Y-109121516D01*
X128333778Y-109232502D01*
X128292178Y-109333072D01*
X128249222Y-109436947D01*
X128210829Y-109529819D01*
X128178305Y-109608525D01*
X128152958Y-109669899D01*
X128136095Y-109710779D01*
X128129025Y-109728000D01*
X128128943Y-109728204D01*
X128114798Y-109742745D01*
X128087659Y-109742579D01*
X128044023Y-109726927D01*
X127980388Y-109695013D01*
X127975379Y-109692326D01*
X127928125Y-109668150D01*
X127890811Y-109651037D01*
X127871133Y-109644543D01*
X127855005Y-109652218D01*
X127818959Y-109673871D01*
X127767092Y-109706928D01*
X127703445Y-109748810D01*
X127632060Y-109796943D01*
X127561724Y-109844131D01*
X127496670Y-109886267D01*
X127442820Y-109919578D01*
X127404374Y-109941469D01*
X127385534Y-109949343D01*
X127382325Y-109948343D01*
X127359954Y-109932584D01*
X127321733Y-109900033D01*
X127271021Y-109853733D01*
X127211181Y-109796726D01*
X127145571Y-109732058D01*
X126928648Y-109514772D01*
X127097601Y-109266253D01*
X127266553Y-109017733D01*
X127215183Y-108906595D01*
X127215031Y-108906266D01*
X127184183Y-108835418D01*
X127152661Y-108756523D01*
X127127266Y-108686600D01*
X127123423Y-108675322D01*
X127104047Y-108622967D01*
X127086574Y-108582283D01*
X127074388Y-108561287D01*
X127069426Y-108558322D01*
X127039634Y-108548375D01*
X126989047Y-108535505D01*
X126923194Y-108521053D01*
X126847600Y-108506355D01*
X126824957Y-108502210D01*
X126743038Y-108487116D01*
X126666600Y-108472899D01*
X126603337Y-108460995D01*
X126560943Y-108452839D01*
X126484743Y-108437799D01*
X126484743Y-108120492D01*
X126484760Y-108081476D01*
X126485082Y-107986292D01*
X126486033Y-107915255D01*
X126487896Y-107864734D01*
X126490955Y-107831098D01*
X126495494Y-107810718D01*
X126501795Y-107799962D01*
X126510143Y-107795199D01*
X126518224Y-107793270D01*
X126551172Y-107786445D01*
X126603736Y-107776022D01*
X126670569Y-107763018D01*
X126746328Y-107748449D01*
X126825665Y-107733333D01*
X126903237Y-107718685D01*
X126973698Y-107705523D01*
X127031702Y-107694863D01*
X127071904Y-107687721D01*
X127088959Y-107685114D01*
X127090112Y-107683541D01*
X127099385Y-107663119D01*
X127115432Y-107624045D01*
X127135635Y-107572629D01*
X127163672Y-107503353D01*
X127198186Y-107423290D01*
X127230538Y-107352728D01*
X127237952Y-107336889D01*
X127258755Y-107287293D01*
X127271219Y-107249038D01*
X127272863Y-107229356D01*
X127272015Y-107227962D01*
X127258548Y-107207420D01*
X127231850Y-107167516D01*
X127194539Y-107112140D01*
X127149234Y-107045177D01*
X127098552Y-106970517D01*
X127041445Y-106885692D01*
X126998607Y-106819800D01*
X126969460Y-106771478D01*
X126952317Y-106737733D01*
X126945495Y-106715572D01*
X126947306Y-106702002D01*
X126947915Y-106700984D01*
X126964297Y-106681210D01*
X126997695Y-106645175D01*
X127044671Y-106596451D01*
X127101786Y-106538612D01*
X127165603Y-106475227D01*
X127231802Y-106410905D01*
X127296648Y-106350447D01*
X127344299Y-106309655D01*
X127375990Y-106287484D01*
X127392958Y-106282889D01*
X127395175Y-106283921D01*
X127418524Y-106297837D01*
X127460912Y-106325030D01*
X127518369Y-106362889D01*
X127586923Y-106408803D01*
X127662601Y-106460160D01*
X127909298Y-106628626D01*
X128020706Y-106578062D01*
X128023943Y-106576597D01*
X128092343Y-106546965D01*
X128164907Y-106517493D01*
X128226457Y-106494358D01*
X128226729Y-106494262D01*
X128275595Y-106476367D01*
X128313212Y-106461253D01*
X128331457Y-106452184D01*
X128331752Y-106451855D01*
X128337946Y-106433282D01*
X128348139Y-106391045D01*
X128361348Y-106329696D01*
X128376590Y-106253789D01*
X128392881Y-106167875D01*
X128393449Y-106164796D01*
X128409713Y-106077128D01*
X128424608Y-105997741D01*
X128437171Y-105931701D01*
X128446438Y-105884079D01*
X128451444Y-105859943D01*
X128451764Y-105858605D01*
X128455060Y-105848273D01*
X128461738Y-105840506D01*
X128475462Y-105834940D01*
X128499895Y-105831207D01*
X128538702Y-105828942D01*
X128595546Y-105827778D01*
X128674090Y-105827348D01*
X128778000Y-105827286D01*
X128791056Y-105827286D01*
X128891933Y-105827371D01*
G37*
X128891933Y-105827371D02*
X128967856Y-105827865D01*
X129022491Y-105829135D01*
X129059500Y-105831547D01*
X129082547Y-105835467D01*
X129095296Y-105841262D01*
X129101411Y-105849299D01*
X129104556Y-105859943D01*
X129104646Y-105860325D01*
X129109814Y-105885347D01*
X129119209Y-105933681D01*
X129131867Y-106000260D01*
X129146825Y-106080014D01*
X129163119Y-106167875D01*
X129164448Y-106175064D01*
X129180691Y-106260340D01*
X129195805Y-106335242D01*
X129208808Y-106395219D01*
X129218715Y-106435717D01*
X129224544Y-106452184D01*
X129224575Y-106452210D01*
X129242943Y-106461320D01*
X129280640Y-106476457D01*
X129329543Y-106494358D01*
X129332297Y-106495330D01*
X129394817Y-106518959D01*
X129467543Y-106548595D01*
X129535294Y-106578062D01*
X129646703Y-106628626D01*
X129893399Y-106460160D01*
X129910775Y-106448311D01*
X129985202Y-106397947D01*
X130051614Y-106353612D01*
X130106039Y-106317916D01*
X130144506Y-106293471D01*
X130163042Y-106282889D01*
X130175743Y-106285315D01*
X130204579Y-106304110D01*
X130249143Y-106341330D01*
X130310670Y-106398020D01*
X130390398Y-106475227D01*
X130397532Y-106482255D01*
X130460796Y-106545222D01*
X130516990Y-106602268D01*
X130562677Y-106649817D01*
X130594414Y-106684297D01*
X130608764Y-106702131D01*
X130608810Y-106702217D01*
X130610633Y-106715795D01*
X130603910Y-106737820D01*
X130586946Y-106771304D01*
X130558044Y-106819261D01*
X130515508Y-106884704D01*
X130457644Y-106970645D01*
X130447783Y-106985151D01*
X130397913Y-107058635D01*
X130353905Y-107123687D01*
X130318380Y-107176417D01*
X130293959Y-107212936D01*
X130283264Y-107229356D01*
X130282458Y-107232834D01*
X130287518Y-107258785D01*
X130302677Y-107301159D01*
X130325463Y-107352728D01*
X130356429Y-107420170D01*
X130391004Y-107500195D01*
X130420366Y-107572629D01*
X130427645Y-107591377D01*
X130446710Y-107639246D01*
X130460715Y-107672596D01*
X130467041Y-107685114D01*
X130474025Y-107686050D01*
X130505413Y-107691461D01*
X130556787Y-107700806D01*
X130622802Y-107713069D01*
X130698113Y-107727232D01*
X130777375Y-107742280D01*
X130855243Y-107757195D01*
X130926370Y-107770961D01*
X130985412Y-107782562D01*
X131027022Y-107790980D01*
X131045857Y-107795199D01*
X131048980Y-107796389D01*
X131056591Y-107802805D01*
X131062254Y-107816465D01*
X131066251Y-107840999D01*
X131068866Y-107880038D01*
X131070384Y-107937213D01*
X131071086Y-108016154D01*
X131071257Y-108120492D01*
X131071257Y-108437799D01*
X130995057Y-108452839D01*
X130985840Y-108454642D01*
X130936891Y-108463980D01*
X130869205Y-108476669D01*
X130790478Y-108491273D01*
X130708400Y-108506355D01*
X130676078Y-108512422D01*
X130603855Y-108527181D01*
X130543666Y-108541137D01*
X130501040Y-108552952D01*
X130481510Y-108561287D01*
X130472660Y-108574905D01*
X130456548Y-108610938D01*
X130440065Y-108657572D01*
X130434263Y-108675034D01*
X130412906Y-108732358D01*
X130385359Y-108800201D01*
X130356107Y-108867355D01*
X130340463Y-108902430D01*
X130318174Y-108954822D01*
X130302857Y-108994058D01*
X130297162Y-109013563D01*
X130297478Y-109015036D01*
X130308281Y-109035729D01*
X130332638Y-109075665D01*
X130368081Y-109130972D01*
X130412136Y-109197781D01*
X130462332Y-109272220D01*
X130627501Y-109514623D01*
X130410503Y-109731983D01*
X130389516Y-109752899D01*
X130325342Y-109815505D01*
X130267990Y-109869495D01*
X130220820Y-109911826D01*
X130187192Y-109939457D01*
X130170467Y-109949343D01*
X130152303Y-109941821D01*
X130114265Y-109920227D01*
X130060726Y-109887151D01*
X129995884Y-109845191D01*
X129923940Y-109796943D01*
X129853275Y-109749291D01*
X129789526Y-109707328D01*
X129737513Y-109674165D01*
X129701279Y-109652378D01*
X129684867Y-109644543D01*
X129683905Y-109644614D01*
X129662103Y-109652338D01*
X129623440Y-109670323D01*
X129575612Y-109695013D01*
X129575110Y-109695284D01*
X129511587Y-109727099D01*
X129468060Y-109742642D01*
X129441052Y-109742685D01*
X129427090Y-109728000D01*
X129421180Y-109713544D01*
X129405229Y-109674831D01*
X129380660Y-109615316D01*
X129348779Y-109538165D01*
X129310893Y-109446541D01*
X129268310Y-109343607D01*
X129222337Y-109232526D01*
X129180667Y-109131472D01*
X129138268Y-109027780D01*
X129100756Y-108935119D01*
X129069388Y-108856642D01*
X129045425Y-108795500D01*
X129030123Y-108754843D01*
X129024743Y-108737825D01*
X129035018Y-108722219D01*
X129063563Y-108696162D01*
X129103971Y-108665887D01*
X129200979Y-108586684D01*
X129287793Y-108485475D01*
X129351322Y-108374116D01*
X129391177Y-108255893D01*
X129406965Y-108134095D01*
X129398296Y-108012010D01*
X129364778Y-107892925D01*
X129306021Y-107780129D01*
X129221632Y-107676911D01*
X129177631Y-107636713D01*
X129072211Y-107565638D01*
X128959410Y-107519301D01*
X128842525Y-107496599D01*
X128724853Y-107496428D01*
X128609690Y-107517687D01*
X128500335Y-107559270D01*
X128400083Y-107620076D01*
X128312233Y-107699001D01*
X128240080Y-107794941D01*
X128186922Y-107906795D01*
X128156057Y-108033457D01*
X128150392Y-108094507D01*
X128158185Y-108226776D01*
X128193284Y-108352266D01*
X128254649Y-108468759D01*
X128341243Y-108574039D01*
X128452029Y-108665887D01*
X128490931Y-108694930D01*
X128520104Y-108721272D01*
X128531257Y-108737800D01*
X128526810Y-108752209D01*
X128512378Y-108790815D01*
X128489173Y-108850201D01*
X128458452Y-108927215D01*
X128421474Y-109018703D01*
X128379496Y-109121516D01*
X128333778Y-109232502D01*
X128292178Y-109333072D01*
X128249222Y-109436947D01*
X128210829Y-109529819D01*
X128178305Y-109608525D01*
X128152958Y-109669899D01*
X128136095Y-109710779D01*
X128129025Y-109728000D01*
X128128943Y-109728204D01*
X128114798Y-109742745D01*
X128087659Y-109742579D01*
X128044023Y-109726927D01*
X127980388Y-109695013D01*
X127975379Y-109692326D01*
X127928125Y-109668150D01*
X127890811Y-109651037D01*
X127871133Y-109644543D01*
X127855005Y-109652218D01*
X127818959Y-109673871D01*
X127767092Y-109706928D01*
X127703445Y-109748810D01*
X127632060Y-109796943D01*
X127561724Y-109844131D01*
X127496670Y-109886267D01*
X127442820Y-109919578D01*
X127404374Y-109941469D01*
X127385534Y-109949343D01*
X127382325Y-109948343D01*
X127359954Y-109932584D01*
X127321733Y-109900033D01*
X127271021Y-109853733D01*
X127211181Y-109796726D01*
X127145571Y-109732058D01*
X126928648Y-109514772D01*
X127097601Y-109266253D01*
X127266553Y-109017733D01*
X127215183Y-108906595D01*
X127215031Y-108906266D01*
X127184183Y-108835418D01*
X127152661Y-108756523D01*
X127127266Y-108686600D01*
X127123423Y-108675322D01*
X127104047Y-108622967D01*
X127086574Y-108582283D01*
X127074388Y-108561287D01*
X127069426Y-108558322D01*
X127039634Y-108548375D01*
X126989047Y-108535505D01*
X126923194Y-108521053D01*
X126847600Y-108506355D01*
X126824957Y-108502210D01*
X126743038Y-108487116D01*
X126666600Y-108472899D01*
X126603337Y-108460995D01*
X126560943Y-108452839D01*
X126484743Y-108437799D01*
X126484743Y-108120492D01*
X126484760Y-108081476D01*
X126485082Y-107986292D01*
X126486033Y-107915255D01*
X126487896Y-107864734D01*
X126490955Y-107831098D01*
X126495494Y-107810718D01*
X126501795Y-107799962D01*
X126510143Y-107795199D01*
X126518224Y-107793270D01*
X126551172Y-107786445D01*
X126603736Y-107776022D01*
X126670569Y-107763018D01*
X126746328Y-107748449D01*
X126825665Y-107733333D01*
X126903237Y-107718685D01*
X126973698Y-107705523D01*
X127031702Y-107694863D01*
X127071904Y-107687721D01*
X127088959Y-107685114D01*
X127090112Y-107683541D01*
X127099385Y-107663119D01*
X127115432Y-107624045D01*
X127135635Y-107572629D01*
X127163672Y-107503353D01*
X127198186Y-107423290D01*
X127230538Y-107352728D01*
X127237952Y-107336889D01*
X127258755Y-107287293D01*
X127271219Y-107249038D01*
X127272863Y-107229356D01*
X127272015Y-107227962D01*
X127258548Y-107207420D01*
X127231850Y-107167516D01*
X127194539Y-107112140D01*
X127149234Y-107045177D01*
X127098552Y-106970517D01*
X127041445Y-106885692D01*
X126998607Y-106819800D01*
X126969460Y-106771478D01*
X126952317Y-106737733D01*
X126945495Y-106715572D01*
X126947306Y-106702002D01*
X126947915Y-106700984D01*
X126964297Y-106681210D01*
X126997695Y-106645175D01*
X127044671Y-106596451D01*
X127101786Y-106538612D01*
X127165603Y-106475227D01*
X127231802Y-106410905D01*
X127296648Y-106350447D01*
X127344299Y-106309655D01*
X127375990Y-106287484D01*
X127392958Y-106282889D01*
X127395175Y-106283921D01*
X127418524Y-106297837D01*
X127460912Y-106325030D01*
X127518369Y-106362889D01*
X127586923Y-106408803D01*
X127662601Y-106460160D01*
X127909298Y-106628626D01*
X128020706Y-106578062D01*
X128023943Y-106576597D01*
X128092343Y-106546965D01*
X128164907Y-106517493D01*
X128226457Y-106494358D01*
X128226729Y-106494262D01*
X128275595Y-106476367D01*
X128313212Y-106461253D01*
X128331457Y-106452184D01*
X128331752Y-106451855D01*
X128337946Y-106433282D01*
X128348139Y-106391045D01*
X128361348Y-106329696D01*
X128376590Y-106253789D01*
X128392881Y-106167875D01*
X128393449Y-106164796D01*
X128409713Y-106077128D01*
X128424608Y-105997741D01*
X128437171Y-105931701D01*
X128446438Y-105884079D01*
X128451444Y-105859943D01*
X128451764Y-105858605D01*
X128455060Y-105848273D01*
X128461738Y-105840506D01*
X128475462Y-105834940D01*
X128499895Y-105831207D01*
X128538702Y-105828942D01*
X128595546Y-105827778D01*
X128674090Y-105827348D01*
X128778000Y-105827286D01*
X128791056Y-105827286D01*
X128891933Y-105827371D01*
G36*
X129456543Y-110334444D02*
G01*
X129503714Y-110354342D01*
X129503714Y-110751509D01*
X129503519Y-110854498D01*
X129502998Y-110947141D01*
X129502199Y-111025700D01*
X129501172Y-111086439D01*
X129499963Y-111125623D01*
X129498623Y-111139514D01*
X129498099Y-111139468D01*
X129480287Y-111134420D01*
X129447823Y-111123580D01*
X129402114Y-111107646D01*
X129402114Y-110903173D01*
X129401824Y-110822832D01*
X129400474Y-110764562D01*
X129397369Y-110724909D01*
X129391812Y-110698618D01*
X129383107Y-110680436D01*
X129370556Y-110665107D01*
X129361999Y-110656955D01*
X129315728Y-110634375D01*
X129264728Y-110636375D01*
X129217993Y-110663073D01*
X129211189Y-110669698D01*
X129200293Y-110683456D01*
X129192836Y-110701642D01*
X129188169Y-110729177D01*
X129185642Y-110770981D01*
X129184602Y-110831973D01*
X129184400Y-110917073D01*
X129184303Y-110960234D01*
X129183674Y-111031224D01*
X129182556Y-111088076D01*
X129181063Y-111125828D01*
X129179309Y-111139514D01*
X129178785Y-111139468D01*
X129160973Y-111134420D01*
X129128509Y-111123580D01*
X129082800Y-111107646D01*
X129082823Y-110902237D01*
X129082857Y-110883951D01*
X129084778Y-110788626D01*
X129090678Y-110716543D01*
X129102001Y-110662813D01*
X129120187Y-110622549D01*
X129146679Y-110590861D01*
X129182918Y-110562861D01*
X129218263Y-110545333D01*
X129274773Y-110531785D01*
X129330356Y-110531015D01*
X129373086Y-110544195D01*
X129376298Y-110546015D01*
X129386205Y-110545820D01*
X129392975Y-110530572D01*
X129397861Y-110495613D01*
X129402114Y-110436289D01*
X129409371Y-110314547D01*
X129456543Y-110334444D01*
G37*
X129456543Y-110334444D02*
X129503714Y-110354342D01*
X129503714Y-110751509D01*
X129503519Y-110854498D01*
X129502998Y-110947141D01*
X129502199Y-111025700D01*
X129501172Y-111086439D01*
X129499963Y-111125623D01*
X129498623Y-111139514D01*
X129498099Y-111139468D01*
X129480287Y-111134420D01*
X129447823Y-111123580D01*
X129402114Y-111107646D01*
X129402114Y-110903173D01*
X129401824Y-110822832D01*
X129400474Y-110764562D01*
X129397369Y-110724909D01*
X129391812Y-110698618D01*
X129383107Y-110680436D01*
X129370556Y-110665107D01*
X129361999Y-110656955D01*
X129315728Y-110634375D01*
X129264728Y-110636375D01*
X129217993Y-110663073D01*
X129211189Y-110669698D01*
X129200293Y-110683456D01*
X129192836Y-110701642D01*
X129188169Y-110729177D01*
X129185642Y-110770981D01*
X129184602Y-110831973D01*
X129184400Y-110917073D01*
X129184303Y-110960234D01*
X129183674Y-111031224D01*
X129182556Y-111088076D01*
X129181063Y-111125828D01*
X129179309Y-111139514D01*
X129178785Y-111139468D01*
X129160973Y-111134420D01*
X129128509Y-111123580D01*
X129082800Y-111107646D01*
X129082823Y-110902237D01*
X129082857Y-110883951D01*
X129084778Y-110788626D01*
X129090678Y-110716543D01*
X129102001Y-110662813D01*
X129120187Y-110622549D01*
X129146679Y-110590861D01*
X129182918Y-110562861D01*
X129218263Y-110545333D01*
X129274773Y-110531785D01*
X129330356Y-110531015D01*
X129373086Y-110544195D01*
X129376298Y-110546015D01*
X129386205Y-110545820D01*
X129392975Y-110530572D01*
X129397861Y-110495613D01*
X129402114Y-110436289D01*
X129409371Y-110314547D01*
X129456543Y-110334444D01*
G36*
X125918307Y-110876305D02*
G01*
X125914762Y-110952521D01*
X125905483Y-111008294D01*
X125888375Y-111049613D01*
X125861344Y-111082467D01*
X125822292Y-111112846D01*
X125797445Y-111126660D01*
X125757615Y-111135965D01*
X125701665Y-111135230D01*
X125670385Y-111132283D01*
X125632653Y-111123283D01*
X125602494Y-111103720D01*
X125567408Y-111067267D01*
X125562720Y-111061943D01*
X125531177Y-111020969D01*
X125516128Y-110985283D01*
X125512286Y-110942966D01*
X125512286Y-110880779D01*
X125555742Y-110897182D01*
X125587424Y-110916356D01*
X125614962Y-110961347D01*
X125620711Y-110975752D01*
X125652855Y-111016546D01*
X125696611Y-111037081D01*
X125744254Y-111035235D01*
X125788057Y-111008886D01*
X125803111Y-110992455D01*
X125816763Y-110967667D01*
X125812493Y-110945144D01*
X125787916Y-110921964D01*
X125740651Y-110895202D01*
X125668314Y-110861934D01*
X125519543Y-110796816D01*
X125515595Y-110732308D01*
X125517079Y-110691220D01*
X125614010Y-110691220D01*
X125621368Y-110716657D01*
X125654848Y-110743814D01*
X125715614Y-110774714D01*
X125725669Y-110779190D01*
X125773751Y-110800017D01*
X125809726Y-110814665D01*
X125826444Y-110820200D01*
X125828977Y-110816126D01*
X125829993Y-110791247D01*
X125826369Y-110751257D01*
X125817242Y-110712152D01*
X125788773Y-110662884D01*
X125747678Y-110635122D01*
X125698590Y-110631364D01*
X125646144Y-110654109D01*
X125631609Y-110665481D01*
X125614010Y-110691220D01*
X125517079Y-110691220D01*
X125517338Y-110684064D01*
X125539281Y-110623096D01*
X125566979Y-110589497D01*
X125624405Y-110551966D01*
X125692527Y-110533006D01*
X125762947Y-110534507D01*
X125827267Y-110558355D01*
X125841426Y-110567513D01*
X125873904Y-110595849D01*
X125896116Y-110631695D01*
X125909804Y-110680384D01*
X125916715Y-110747249D01*
X125917628Y-110791247D01*
X125918590Y-110837622D01*
X125918307Y-110876305D01*
G37*
X125918307Y-110876305D02*
X125914762Y-110952521D01*
X125905483Y-111008294D01*
X125888375Y-111049613D01*
X125861344Y-111082467D01*
X125822292Y-111112846D01*
X125797445Y-111126660D01*
X125757615Y-111135965D01*
X125701665Y-111135230D01*
X125670385Y-111132283D01*
X125632653Y-111123283D01*
X125602494Y-111103720D01*
X125567408Y-111067267D01*
X125562720Y-111061943D01*
X125531177Y-111020969D01*
X125516128Y-110985283D01*
X125512286Y-110942966D01*
X125512286Y-110880779D01*
X125555742Y-110897182D01*
X125587424Y-110916356D01*
X125614962Y-110961347D01*
X125620711Y-110975752D01*
X125652855Y-111016546D01*
X125696611Y-111037081D01*
X125744254Y-111035235D01*
X125788057Y-111008886D01*
X125803111Y-110992455D01*
X125816763Y-110967667D01*
X125812493Y-110945144D01*
X125787916Y-110921964D01*
X125740651Y-110895202D01*
X125668314Y-110861934D01*
X125519543Y-110796816D01*
X125515595Y-110732308D01*
X125517079Y-110691220D01*
X125614010Y-110691220D01*
X125621368Y-110716657D01*
X125654848Y-110743814D01*
X125715614Y-110774714D01*
X125725669Y-110779190D01*
X125773751Y-110800017D01*
X125809726Y-110814665D01*
X125826444Y-110820200D01*
X125828977Y-110816126D01*
X125829993Y-110791247D01*
X125826369Y-110751257D01*
X125817242Y-110712152D01*
X125788773Y-110662884D01*
X125747678Y-110635122D01*
X125698590Y-110631364D01*
X125646144Y-110654109D01*
X125631609Y-110665481D01*
X125614010Y-110691220D01*
X125517079Y-110691220D01*
X125517338Y-110684064D01*
X125539281Y-110623096D01*
X125566979Y-110589497D01*
X125624405Y-110551966D01*
X125692527Y-110533006D01*
X125762947Y-110534507D01*
X125827267Y-110558355D01*
X125841426Y-110567513D01*
X125873904Y-110595849D01*
X125896116Y-110631695D01*
X125909804Y-110680384D01*
X125916715Y-110747249D01*
X125917628Y-110791247D01*
X125918590Y-110837622D01*
X125918307Y-110876305D01*
G36*
X132043701Y-110835935D02*
G01*
X132042914Y-110906119D01*
X132040210Y-110955022D01*
X132034606Y-110989178D01*
X132025119Y-111015124D01*
X132010768Y-111039397D01*
X132007237Y-111044433D01*
X131969878Y-111084143D01*
X131927311Y-111114092D01*
X131905452Y-111123810D01*
X131826908Y-111140020D01*
X131749231Y-111129535D01*
X131677645Y-111093707D01*
X131617374Y-111033887D01*
X131612286Y-111025873D01*
X131595730Y-110979342D01*
X131584573Y-110914552D01*
X131579160Y-110839727D01*
X131579767Y-110770513D01*
X131726248Y-110770513D01*
X131727402Y-110866399D01*
X131727866Y-110872569D01*
X131734629Y-110925478D01*
X131746671Y-110959029D01*
X131767005Y-110982016D01*
X131801097Y-111003548D01*
X131834814Y-111004680D01*
X131869543Y-110979857D01*
X131875584Y-110973325D01*
X131887417Y-110953779D01*
X131894404Y-110925386D01*
X131897727Y-110881430D01*
X131898571Y-110815192D01*
X131897125Y-110753150D01*
X131889907Y-110694042D01*
X131875006Y-110656686D01*
X131850636Y-110637152D01*
X131815008Y-110631514D01*
X131801440Y-110632635D01*
X131763430Y-110653194D01*
X131738312Y-110699299D01*
X131726248Y-110770513D01*
X131579767Y-110770513D01*
X131579833Y-110763096D01*
X131586937Y-110692882D01*
X131600815Y-110637312D01*
X131618649Y-110600301D01*
X131668855Y-110542733D01*
X131736885Y-110506962D01*
X131820158Y-110494665D01*
X131842398Y-110495331D01*
X131907891Y-110508947D01*
X131961687Y-110543249D01*
X132011057Y-110602338D01*
X132013995Y-110606722D01*
X132027287Y-110630299D01*
X132035932Y-110656949D01*
X132040904Y-110693159D01*
X132043174Y-110745413D01*
X132043678Y-110815192D01*
X132043714Y-110820200D01*
X132043701Y-110835935D01*
G37*
X132043701Y-110835935D02*
X132042914Y-110906119D01*
X132040210Y-110955022D01*
X132034606Y-110989178D01*
X132025119Y-111015124D01*
X132010768Y-111039397D01*
X132007237Y-111044433D01*
X131969878Y-111084143D01*
X131927311Y-111114092D01*
X131905452Y-111123810D01*
X131826908Y-111140020D01*
X131749231Y-111129535D01*
X131677645Y-111093707D01*
X131617374Y-111033887D01*
X131612286Y-111025873D01*
X131595730Y-110979342D01*
X131584573Y-110914552D01*
X131579160Y-110839727D01*
X131579767Y-110770513D01*
X131726248Y-110770513D01*
X131727402Y-110866399D01*
X131727866Y-110872569D01*
X131734629Y-110925478D01*
X131746671Y-110959029D01*
X131767005Y-110982016D01*
X131801097Y-111003548D01*
X131834814Y-111004680D01*
X131869543Y-110979857D01*
X131875584Y-110973325D01*
X131887417Y-110953779D01*
X131894404Y-110925386D01*
X131897727Y-110881430D01*
X131898571Y-110815192D01*
X131897125Y-110753150D01*
X131889907Y-110694042D01*
X131875006Y-110656686D01*
X131850636Y-110637152D01*
X131815008Y-110631514D01*
X131801440Y-110632635D01*
X131763430Y-110653194D01*
X131738312Y-110699299D01*
X131726248Y-110770513D01*
X131579767Y-110770513D01*
X131579833Y-110763096D01*
X131586937Y-110692882D01*
X131600815Y-110637312D01*
X131618649Y-110600301D01*
X131668855Y-110542733D01*
X131736885Y-110506962D01*
X131820158Y-110494665D01*
X131842398Y-110495331D01*
X131907891Y-110508947D01*
X131961687Y-110543249D01*
X132011057Y-110602338D01*
X132013995Y-110606722D01*
X132027287Y-110630299D01*
X132035932Y-110656949D01*
X132040904Y-110693159D01*
X132043174Y-110745413D01*
X132043678Y-110815192D01*
X132043714Y-110820200D01*
X132043701Y-110835935D01*
G36*
X128007537Y-110891313D02*
G01*
X127999345Y-110968462D01*
X127981519Y-111026276D01*
X127951975Y-111070422D01*
X127908625Y-111106568D01*
X127867332Y-111127463D01*
X127797987Y-111139090D01*
X127728736Y-111126377D01*
X127666145Y-111090945D01*
X127616779Y-111034418D01*
X127610818Y-111023995D01*
X127602945Y-111005733D01*
X127597106Y-110982429D01*
X127592999Y-110950085D01*
X127590325Y-110904704D01*
X127588781Y-110842287D01*
X127588734Y-110836748D01*
X127689429Y-110836748D01*
X127689772Y-110889577D01*
X127691942Y-110937362D01*
X127697307Y-110968209D01*
X127707217Y-110988935D01*
X127723021Y-111006356D01*
X127726724Y-111009705D01*
X127774299Y-111034419D01*
X127824635Y-111031890D01*
X127871517Y-111002288D01*
X127885477Y-110986953D01*
X127897160Y-110966622D01*
X127903686Y-110938514D01*
X127906524Y-110895550D01*
X127907143Y-110830647D01*
X127906837Y-110781122D01*
X127904722Y-110732782D01*
X127899390Y-110701587D01*
X127889460Y-110680647D01*
X127873550Y-110663073D01*
X127864204Y-110655159D01*
X127815776Y-110633843D01*
X127765040Y-110637198D01*
X127720987Y-110665107D01*
X127711504Y-110676173D01*
X127699939Y-110697009D01*
X127693252Y-110726106D01*
X127690173Y-110770381D01*
X127689429Y-110836748D01*
X127588734Y-110836748D01*
X127588067Y-110758837D01*
X127587883Y-110650358D01*
X127587829Y-110313601D01*
X127635000Y-110333362D01*
X127647472Y-110338770D01*
X127667324Y-110350985D01*
X127678687Y-110369482D01*
X127684933Y-110401829D01*
X127689429Y-110455593D01*
X127693535Y-110503866D01*
X127698963Y-110535557D01*
X127706739Y-110547383D01*
X127718457Y-110544212D01*
X127748318Y-110533067D01*
X127801684Y-110530304D01*
X127859093Y-110540625D01*
X127908625Y-110562861D01*
X127935876Y-110583443D01*
X127970865Y-110623600D01*
X127993274Y-110675086D01*
X128005190Y-110743568D01*
X128008542Y-110830647D01*
X128008698Y-110834714D01*
X128007537Y-110891313D01*
G37*
X128007537Y-110891313D02*
X127999345Y-110968462D01*
X127981519Y-111026276D01*
X127951975Y-111070422D01*
X127908625Y-111106568D01*
X127867332Y-111127463D01*
X127797987Y-111139090D01*
X127728736Y-111126377D01*
X127666145Y-111090945D01*
X127616779Y-111034418D01*
X127610818Y-111023995D01*
X127602945Y-111005733D01*
X127597106Y-110982429D01*
X127592999Y-110950085D01*
X127590325Y-110904704D01*
X127588781Y-110842287D01*
X127588734Y-110836748D01*
X127689429Y-110836748D01*
X127689772Y-110889577D01*
X127691942Y-110937362D01*
X127697307Y-110968209D01*
X127707217Y-110988935D01*
X127723021Y-111006356D01*
X127726724Y-111009705D01*
X127774299Y-111034419D01*
X127824635Y-111031890D01*
X127871517Y-111002288D01*
X127885477Y-110986953D01*
X127897160Y-110966622D01*
X127903686Y-110938514D01*
X127906524Y-110895550D01*
X127907143Y-110830647D01*
X127906837Y-110781122D01*
X127904722Y-110732782D01*
X127899390Y-110701587D01*
X127889460Y-110680647D01*
X127873550Y-110663073D01*
X127864204Y-110655159D01*
X127815776Y-110633843D01*
X127765040Y-110637198D01*
X127720987Y-110665107D01*
X127711504Y-110676173D01*
X127699939Y-110697009D01*
X127693252Y-110726106D01*
X127690173Y-110770381D01*
X127689429Y-110836748D01*
X127588734Y-110836748D01*
X127588067Y-110758837D01*
X127587883Y-110650358D01*
X127587829Y-110313601D01*
X127635000Y-110333362D01*
X127647472Y-110338770D01*
X127667324Y-110350985D01*
X127678687Y-110369482D01*
X127684933Y-110401829D01*
X127689429Y-110455593D01*
X127693535Y-110503866D01*
X127698963Y-110535557D01*
X127706739Y-110547383D01*
X127718457Y-110544212D01*
X127748318Y-110533067D01*
X127801684Y-110530304D01*
X127859093Y-110540625D01*
X127908625Y-110562861D01*
X127935876Y-110583443D01*
X127970865Y-110623600D01*
X127993274Y-110675086D01*
X128005190Y-110743568D01*
X128008542Y-110830647D01*
X128008698Y-110834714D01*
X128007537Y-110891313D01*
G36*
X131489252Y-110998000D02*
G01*
X131489651Y-111030339D01*
X131490929Y-111138455D01*
X131491185Y-111221186D01*
X131489634Y-111281426D01*
X131485490Y-111322073D01*
X131477964Y-111346023D01*
X131466271Y-111356171D01*
X131449624Y-111355414D01*
X131427236Y-111346648D01*
X131398321Y-111332769D01*
X131392142Y-111329808D01*
X131366413Y-111315311D01*
X131352976Y-111298065D01*
X131347834Y-111269308D01*
X131346990Y-111220283D01*
X131346952Y-111132257D01*
X131256276Y-111132257D01*
X131200498Y-111129815D01*
X131156640Y-111119908D01*
X131120218Y-111099886D01*
X131117503Y-111097929D01*
X131080546Y-111064869D01*
X131054826Y-111024931D01*
X131038606Y-110972657D01*
X131030148Y-110902588D01*
X131028084Y-110823430D01*
X131172857Y-110823430D01*
X131172882Y-110836697D01*
X131174261Y-110896584D01*
X131178687Y-110935732D01*
X131187461Y-110961153D01*
X131201886Y-110979857D01*
X131202784Y-110980750D01*
X131238237Y-111004952D01*
X131272596Y-111002567D01*
X131311403Y-110973260D01*
X131320895Y-110963244D01*
X131334876Y-110942708D01*
X131342760Y-110915997D01*
X131346245Y-110875499D01*
X131347029Y-110813603D01*
X131346350Y-110776130D01*
X131338983Y-110707980D01*
X131322168Y-110663330D01*
X131294234Y-110638926D01*
X131253509Y-110631514D01*
X131236350Y-110633094D01*
X131206660Y-110648766D01*
X131187031Y-110683691D01*
X131176188Y-110740901D01*
X131172857Y-110823430D01*
X131028084Y-110823430D01*
X131027714Y-110809267D01*
X131028253Y-110741169D01*
X131030707Y-110689587D01*
X131036158Y-110653816D01*
X131045686Y-110627015D01*
X131060371Y-110602338D01*
X131073852Y-110583480D01*
X131122799Y-110532568D01*
X131178256Y-110504918D01*
X131247928Y-110496165D01*
X131327664Y-110504890D01*
X131396595Y-110536185D01*
X131451113Y-110591381D01*
X131455223Y-110597224D01*
X131464808Y-110612753D01*
X131472151Y-110630498D01*
X131477612Y-110654290D01*
X131481550Y-110687958D01*
X131484323Y-110735333D01*
X131486292Y-110800245D01*
X131486528Y-110813603D01*
X131487815Y-110886524D01*
X131489252Y-110998000D01*
G37*
X131489252Y-110998000D02*
X131489651Y-111030339D01*
X131490929Y-111138455D01*
X131491185Y-111221186D01*
X131489634Y-111281426D01*
X131485490Y-111322073D01*
X131477964Y-111346023D01*
X131466271Y-111356171D01*
X131449624Y-111355414D01*
X131427236Y-111346648D01*
X131398321Y-111332769D01*
X131392142Y-111329808D01*
X131366413Y-111315311D01*
X131352976Y-111298065D01*
X131347834Y-111269308D01*
X131346990Y-111220283D01*
X131346952Y-111132257D01*
X131256276Y-111132257D01*
X131200498Y-111129815D01*
X131156640Y-111119908D01*
X131120218Y-111099886D01*
X131117503Y-111097929D01*
X131080546Y-111064869D01*
X131054826Y-111024931D01*
X131038606Y-110972657D01*
X131030148Y-110902588D01*
X131028084Y-110823430D01*
X131172857Y-110823430D01*
X131172882Y-110836697D01*
X131174261Y-110896584D01*
X131178687Y-110935732D01*
X131187461Y-110961153D01*
X131201886Y-110979857D01*
X131202784Y-110980750D01*
X131238237Y-111004952D01*
X131272596Y-111002567D01*
X131311403Y-110973260D01*
X131320895Y-110963244D01*
X131334876Y-110942708D01*
X131342760Y-110915997D01*
X131346245Y-110875499D01*
X131347029Y-110813603D01*
X131346350Y-110776130D01*
X131338983Y-110707980D01*
X131322168Y-110663330D01*
X131294234Y-110638926D01*
X131253509Y-110631514D01*
X131236350Y-110633094D01*
X131206660Y-110648766D01*
X131187031Y-110683691D01*
X131176188Y-110740901D01*
X131172857Y-110823430D01*
X131028084Y-110823430D01*
X131027714Y-110809267D01*
X131028253Y-110741169D01*
X131030707Y-110689587D01*
X131036158Y-110653816D01*
X131045686Y-110627015D01*
X131060371Y-110602338D01*
X131073852Y-110583480D01*
X131122799Y-110532568D01*
X131178256Y-110504918D01*
X131247928Y-110496165D01*
X131327664Y-110504890D01*
X131396595Y-110536185D01*
X131451113Y-110591381D01*
X131455223Y-110597224D01*
X131464808Y-110612753D01*
X131472151Y-110630498D01*
X131477612Y-110654290D01*
X131481550Y-110687958D01*
X131484323Y-110735333D01*
X131486292Y-110800245D01*
X131486528Y-110813603D01*
X131487815Y-110886524D01*
X131489252Y-110998000D01*
G36*
X127431941Y-110534282D02*
G01*
X127463774Y-110546758D01*
X127500743Y-110563602D01*
X127500743Y-111050196D01*
X127454812Y-111096127D01*
X127444320Y-111106427D01*
X127415255Y-111129320D01*
X127385943Y-111136735D01*
X127342326Y-111133321D01*
X127324568Y-111131114D01*
X127278767Y-111126445D01*
X127246743Y-111124585D01*
X127237244Y-111124869D01*
X127198274Y-111127948D01*
X127151160Y-111133321D01*
X127136085Y-111135168D01*
X127098110Y-111135893D01*
X127070325Y-111124429D01*
X127038674Y-111096127D01*
X126992743Y-111050196D01*
X126992743Y-110790055D01*
X126993101Y-110713180D01*
X126994216Y-110639886D01*
X126995952Y-110581850D01*
X126998167Y-110543663D01*
X127000721Y-110529914D01*
X127001256Y-110529951D01*
X127019808Y-110536793D01*
X127051153Y-110551868D01*
X127093608Y-110573822D01*
X127097604Y-110802240D01*
X127101600Y-111030657D01*
X127188686Y-111030657D01*
X127192657Y-110780286D01*
X127193916Y-110712227D01*
X127195718Y-110639482D01*
X127197671Y-110581730D01*
X127199612Y-110543648D01*
X127201377Y-110529914D01*
X127201885Y-110529962D01*
X127219482Y-110535015D01*
X127251834Y-110545849D01*
X127297543Y-110561783D01*
X127297765Y-110781706D01*
X127297988Y-110819909D01*
X127299531Y-110894146D01*
X127302292Y-110956145D01*
X127305977Y-111000308D01*
X127310292Y-111021041D01*
X127325732Y-111032131D01*
X127357241Y-111035556D01*
X127391886Y-111030657D01*
X127395857Y-110780286D01*
X127397278Y-110716663D01*
X127400225Y-110641356D01*
X127404079Y-110582286D01*
X127408542Y-110543718D01*
X127413317Y-110529914D01*
X127431941Y-110534282D01*
G37*
X127431941Y-110534282D02*
X127463774Y-110546758D01*
X127500743Y-110563602D01*
X127500743Y-111050196D01*
X127454812Y-111096127D01*
X127444320Y-111106427D01*
X127415255Y-111129320D01*
X127385943Y-111136735D01*
X127342326Y-111133321D01*
X127324568Y-111131114D01*
X127278767Y-111126445D01*
X127246743Y-111124585D01*
X127237244Y-111124869D01*
X127198274Y-111127948D01*
X127151160Y-111133321D01*
X127136085Y-111135168D01*
X127098110Y-111135893D01*
X127070325Y-111124429D01*
X127038674Y-111096127D01*
X126992743Y-111050196D01*
X126992743Y-110790055D01*
X126993101Y-110713180D01*
X126994216Y-110639886D01*
X126995952Y-110581850D01*
X126998167Y-110543663D01*
X127000721Y-110529914D01*
X127001256Y-110529951D01*
X127019808Y-110536793D01*
X127051153Y-110551868D01*
X127093608Y-110573822D01*
X127097604Y-110802240D01*
X127101600Y-111030657D01*
X127188686Y-111030657D01*
X127192657Y-110780286D01*
X127193916Y-110712227D01*
X127195718Y-110639482D01*
X127197671Y-110581730D01*
X127199612Y-110543648D01*
X127201377Y-110529914D01*
X127201885Y-110529962D01*
X127219482Y-110535015D01*
X127251834Y-110545849D01*
X127297543Y-110561783D01*
X127297765Y-110781706D01*
X127297988Y-110819909D01*
X127299531Y-110894146D01*
X127302292Y-110956145D01*
X127305977Y-111000308D01*
X127310292Y-111021041D01*
X127325732Y-111032131D01*
X127357241Y-111035556D01*
X127391886Y-111030657D01*
X127395857Y-110780286D01*
X127397278Y-110716663D01*
X127400225Y-110641356D01*
X127404079Y-110582286D01*
X127408542Y-110543718D01*
X127413317Y-110529914D01*
X127431941Y-110534282D01*
D13*
X139630000Y-101360000D02*
G75*
G03*
X139630000Y-101360000I-1200000J0D01*
G01*
X143680000Y-105410000D02*
G75*
G03*
X143680000Y-105410000I-1200000J0D01*
G01*
X139630000Y-105410000D02*
G75*
G03*
X139630000Y-105410000I-1200000J0D01*
G01*
X143680000Y-101360000D02*
G75*
G03*
X143680000Y-101360000I-1200000J0D01*
G01*
M02*
