G04 #@! TF.GenerationSoftware,KiCad,Pcbnew,(5.99.0-6951-g72beaf1538)*
G04 #@! TF.CreationDate,2020-11-15T14:58:15+11:00*
G04 #@! TF.ProjectId,MCP39F511_Breakout,4d435033-3946-4353-9131-5f427265616b,rev?*
G04 #@! TF.SameCoordinates,Original*
G04 #@! TF.FileFunction,Legend,Top*
G04 #@! TF.FilePolarity,Positive*
%FSLAX46Y46*%
G04 Gerber Fmt 4.6, Leading zero omitted, Abs format (unit mm)*
G04 Created by KiCad (PCBNEW (5.99.0-6951-g72beaf1538)) date 2020-11-15 14:58:15*
%MOMM*%
%LPD*%
G01*
G04 APERTURE LIST*
%ADD10C,0.300000*%
%ADD11C,0.200000*%
%ADD12C,0.127000*%
%ADD13C,0.120000*%
%ADD14C,0.010000*%
G04 APERTURE END LIST*
D10*
X116555714Y-94023571D02*
X116555714Y-92523571D01*
X117055714Y-93595000D01*
X117555714Y-92523571D01*
X117555714Y-94023571D01*
X119127142Y-93880714D02*
X119055714Y-93952142D01*
X118841428Y-94023571D01*
X118698571Y-94023571D01*
X118484285Y-93952142D01*
X118341428Y-93809285D01*
X118270000Y-93666428D01*
X118198571Y-93380714D01*
X118198571Y-93166428D01*
X118270000Y-92880714D01*
X118341428Y-92737857D01*
X118484285Y-92595000D01*
X118698571Y-92523571D01*
X118841428Y-92523571D01*
X119055714Y-92595000D01*
X119127142Y-92666428D01*
X119770000Y-94023571D02*
X119770000Y-92523571D01*
X120341428Y-92523571D01*
X120484285Y-92595000D01*
X120555714Y-92666428D01*
X120627142Y-92809285D01*
X120627142Y-93023571D01*
X120555714Y-93166428D01*
X120484285Y-93237857D01*
X120341428Y-93309285D01*
X119770000Y-93309285D01*
X121127142Y-92523571D02*
X122055714Y-92523571D01*
X121555714Y-93095000D01*
X121770000Y-93095000D01*
X121912857Y-93166428D01*
X121984285Y-93237857D01*
X122055714Y-93380714D01*
X122055714Y-93737857D01*
X121984285Y-93880714D01*
X121912857Y-93952142D01*
X121770000Y-94023571D01*
X121341428Y-94023571D01*
X121198571Y-93952142D01*
X121127142Y-93880714D01*
X122770000Y-94023571D02*
X123055714Y-94023571D01*
X123198571Y-93952142D01*
X123270000Y-93880714D01*
X123412857Y-93666428D01*
X123484285Y-93380714D01*
X123484285Y-92809285D01*
X123412857Y-92666428D01*
X123341428Y-92595000D01*
X123198571Y-92523571D01*
X122912857Y-92523571D01*
X122770000Y-92595000D01*
X122698571Y-92666428D01*
X122627142Y-92809285D01*
X122627142Y-93166428D01*
X122698571Y-93309285D01*
X122770000Y-93380714D01*
X122912857Y-93452142D01*
X123198571Y-93452142D01*
X123341428Y-93380714D01*
X123412857Y-93309285D01*
X123484285Y-93166428D01*
X124627142Y-93237857D02*
X124127142Y-93237857D01*
X124127142Y-94023571D02*
X124127142Y-92523571D01*
X124841428Y-92523571D01*
X126127142Y-92523571D02*
X125412857Y-92523571D01*
X125341428Y-93237857D01*
X125412857Y-93166428D01*
X125555714Y-93095000D01*
X125912857Y-93095000D01*
X126055714Y-93166428D01*
X126127142Y-93237857D01*
X126198571Y-93380714D01*
X126198571Y-93737857D01*
X126127142Y-93880714D01*
X126055714Y-93952142D01*
X125912857Y-94023571D01*
X125555714Y-94023571D01*
X125412857Y-93952142D01*
X125341428Y-93880714D01*
X127627142Y-94023571D02*
X126770000Y-94023571D01*
X127198571Y-94023571D02*
X127198571Y-92523571D01*
X127055714Y-92737857D01*
X126912857Y-92880714D01*
X126770000Y-92952142D01*
X129055714Y-94023571D02*
X128198571Y-94023571D01*
X128627142Y-94023571D02*
X128627142Y-92523571D01*
X128484285Y-92737857D01*
X128341428Y-92880714D01*
X128198571Y-92952142D01*
X131341428Y-93237857D02*
X131555714Y-93309285D01*
X131627142Y-93380714D01*
X131698571Y-93523571D01*
X131698571Y-93737857D01*
X131627142Y-93880714D01*
X131555714Y-93952142D01*
X131412857Y-94023571D01*
X130841428Y-94023571D01*
X130841428Y-92523571D01*
X131341428Y-92523571D01*
X131484285Y-92595000D01*
X131555714Y-92666428D01*
X131627142Y-92809285D01*
X131627142Y-92952142D01*
X131555714Y-93095000D01*
X131484285Y-93166428D01*
X131341428Y-93237857D01*
X130841428Y-93237857D01*
X132341428Y-94023571D02*
X132341428Y-93023571D01*
X132341428Y-93309285D02*
X132412857Y-93166428D01*
X132484285Y-93095000D01*
X132627142Y-93023571D01*
X132770000Y-93023571D01*
X133841428Y-93952142D02*
X133698571Y-94023571D01*
X133412857Y-94023571D01*
X133270000Y-93952142D01*
X133198571Y-93809285D01*
X133198571Y-93237857D01*
X133270000Y-93095000D01*
X133412857Y-93023571D01*
X133698571Y-93023571D01*
X133841428Y-93095000D01*
X133912857Y-93237857D01*
X133912857Y-93380714D01*
X133198571Y-93523571D01*
X135198571Y-94023571D02*
X135198571Y-93237857D01*
X135127142Y-93095000D01*
X134984285Y-93023571D01*
X134698571Y-93023571D01*
X134555714Y-93095000D01*
X135198571Y-93952142D02*
X135055714Y-94023571D01*
X134698571Y-94023571D01*
X134555714Y-93952142D01*
X134484285Y-93809285D01*
X134484285Y-93666428D01*
X134555714Y-93523571D01*
X134698571Y-93452142D01*
X135055714Y-93452142D01*
X135198571Y-93380714D01*
X135912857Y-94023571D02*
X135912857Y-92523571D01*
X136055714Y-93452142D02*
X136484285Y-94023571D01*
X136484285Y-93023571D02*
X135912857Y-93595000D01*
X137341428Y-94023571D02*
X137198571Y-93952142D01*
X137127142Y-93880714D01*
X137055714Y-93737857D01*
X137055714Y-93309285D01*
X137127142Y-93166428D01*
X137198571Y-93095000D01*
X137341428Y-93023571D01*
X137555714Y-93023571D01*
X137698571Y-93095000D01*
X137770000Y-93166428D01*
X137841428Y-93309285D01*
X137841428Y-93737857D01*
X137770000Y-93880714D01*
X137698571Y-93952142D01*
X137555714Y-94023571D01*
X137341428Y-94023571D01*
X139127142Y-93023571D02*
X139127142Y-94023571D01*
X138484285Y-93023571D02*
X138484285Y-93809285D01*
X138555714Y-93952142D01*
X138698571Y-94023571D01*
X138912857Y-94023571D01*
X139055714Y-93952142D01*
X139127142Y-93880714D01*
X139627142Y-93023571D02*
X140198571Y-93023571D01*
X139841428Y-92523571D02*
X139841428Y-93809285D01*
X139912857Y-93952142D01*
X140055714Y-94023571D01*
X140198571Y-94023571D01*
D11*
X131851476Y-100907904D02*
X131851476Y-101555523D01*
X131889571Y-101631714D01*
X131927666Y-101669809D01*
X132003857Y-101707904D01*
X132156238Y-101707904D01*
X132232428Y-101669809D01*
X132270523Y-101631714D01*
X132308619Y-101555523D01*
X132308619Y-100907904D01*
X133108619Y-101707904D02*
X132651476Y-101707904D01*
X132880047Y-101707904D02*
X132880047Y-100907904D01*
X132803857Y-101022190D01*
X132727666Y-101098380D01*
X132651476Y-101136476D01*
X128670666Y-105789714D02*
X128632571Y-105827809D01*
X128518285Y-105865904D01*
X128442095Y-105865904D01*
X128327809Y-105827809D01*
X128251619Y-105751619D01*
X128213523Y-105675428D01*
X128175428Y-105523047D01*
X128175428Y-105408761D01*
X128213523Y-105256380D01*
X128251619Y-105180190D01*
X128327809Y-105104000D01*
X128442095Y-105065904D01*
X128518285Y-105065904D01*
X128632571Y-105104000D01*
X128670666Y-105142095D01*
X129356380Y-105332571D02*
X129356380Y-105865904D01*
X129165904Y-105027809D02*
X128975428Y-105599238D01*
X129470666Y-105599238D01*
X135756666Y-105822714D02*
X135718571Y-105860809D01*
X135604285Y-105898904D01*
X135528095Y-105898904D01*
X135413809Y-105860809D01*
X135337619Y-105784619D01*
X135299523Y-105708428D01*
X135261428Y-105556047D01*
X135261428Y-105441761D01*
X135299523Y-105289380D01*
X135337619Y-105213190D01*
X135413809Y-105137000D01*
X135528095Y-105098904D01*
X135604285Y-105098904D01*
X135718571Y-105137000D01*
X135756666Y-105175095D01*
X136213809Y-105441761D02*
X136137619Y-105403666D01*
X136099523Y-105365571D01*
X136061428Y-105289380D01*
X136061428Y-105251285D01*
X136099523Y-105175095D01*
X136137619Y-105137000D01*
X136213809Y-105098904D01*
X136366190Y-105098904D01*
X136442380Y-105137000D01*
X136480476Y-105175095D01*
X136518571Y-105251285D01*
X136518571Y-105289380D01*
X136480476Y-105365571D01*
X136442380Y-105403666D01*
X136366190Y-105441761D01*
X136213809Y-105441761D01*
X136137619Y-105479857D01*
X136099523Y-105517952D01*
X136061428Y-105594142D01*
X136061428Y-105746523D01*
X136099523Y-105822714D01*
X136137619Y-105860809D01*
X136213809Y-105898904D01*
X136366190Y-105898904D01*
X136442380Y-105860809D01*
X136480476Y-105822714D01*
X136518571Y-105746523D01*
X136518571Y-105594142D01*
X136480476Y-105517952D01*
X136442380Y-105479857D01*
X136366190Y-105441761D01*
X134201222Y-95873710D02*
X134201222Y-96521329D01*
X134239317Y-96597520D01*
X134277412Y-96635615D01*
X134353603Y-96673710D01*
X134505984Y-96673710D01*
X134582174Y-96635615D01*
X134620269Y-96597520D01*
X134658365Y-96521329D01*
X134658365Y-95873710D01*
X135001222Y-95949901D02*
X135039317Y-95911806D01*
X135115507Y-95873710D01*
X135305984Y-95873710D01*
X135382174Y-95911806D01*
X135420269Y-95949901D01*
X135458365Y-96026091D01*
X135458365Y-96102282D01*
X135420269Y-96216567D01*
X134963126Y-96673710D01*
X135458365Y-96673710D01*
X140703333Y-113861904D02*
X140703333Y-114433333D01*
X140665238Y-114547619D01*
X140589047Y-114623809D01*
X140474761Y-114661904D01*
X140398571Y-114661904D01*
X141503333Y-114661904D02*
X141046190Y-114661904D01*
X141274761Y-114661904D02*
X141274761Y-113861904D01*
X141198571Y-113976190D01*
X141122380Y-114052380D01*
X141046190Y-114090476D01*
X115436666Y-97186714D02*
X115398571Y-97224809D01*
X115284285Y-97262904D01*
X115208095Y-97262904D01*
X115093809Y-97224809D01*
X115017619Y-97148619D01*
X114979523Y-97072428D01*
X114941428Y-96920047D01*
X114941428Y-96805761D01*
X114979523Y-96653380D01*
X115017619Y-96577190D01*
X115093809Y-96501000D01*
X115208095Y-96462904D01*
X115284285Y-96462904D01*
X115398571Y-96501000D01*
X115436666Y-96539095D01*
X116198571Y-97262904D02*
X115741428Y-97262904D01*
X115970000Y-97262904D02*
X115970000Y-96462904D01*
X115893809Y-96577190D01*
X115817619Y-96653380D01*
X115741428Y-96691476D01*
X123945666Y-111156714D02*
X123907571Y-111194809D01*
X123793285Y-111232904D01*
X123717095Y-111232904D01*
X123602809Y-111194809D01*
X123526619Y-111118619D01*
X123488523Y-111042428D01*
X123450428Y-110890047D01*
X123450428Y-110775761D01*
X123488523Y-110623380D01*
X123526619Y-110547190D01*
X123602809Y-110471000D01*
X123717095Y-110432904D01*
X123793285Y-110432904D01*
X123907571Y-110471000D01*
X123945666Y-110509095D01*
X124212333Y-110432904D02*
X124745666Y-110432904D01*
X124402809Y-111232904D01*
X119246666Y-111105904D02*
X118980000Y-110724952D01*
X118789523Y-111105904D02*
X118789523Y-110305904D01*
X119094285Y-110305904D01*
X119170476Y-110344000D01*
X119208571Y-110382095D01*
X119246666Y-110458285D01*
X119246666Y-110572571D01*
X119208571Y-110648761D01*
X119170476Y-110686857D01*
X119094285Y-110724952D01*
X118789523Y-110724952D01*
X119513333Y-110305904D02*
X120008571Y-110305904D01*
X119741904Y-110610666D01*
X119856190Y-110610666D01*
X119932380Y-110648761D01*
X119970476Y-110686857D01*
X120008571Y-110763047D01*
X120008571Y-110953523D01*
X119970476Y-111029714D01*
X119932380Y-111067809D01*
X119856190Y-111105904D01*
X119627619Y-111105904D01*
X119551428Y-111067809D01*
X119513333Y-111029714D01*
X140836666Y-108438904D02*
X140570000Y-108057952D01*
X140379523Y-108438904D02*
X140379523Y-107638904D01*
X140684285Y-107638904D01*
X140760476Y-107677000D01*
X140798571Y-107715095D01*
X140836666Y-107791285D01*
X140836666Y-107905571D01*
X140798571Y-107981761D01*
X140760476Y-108019857D01*
X140684285Y-108057952D01*
X140379523Y-108057952D01*
X141522380Y-107638904D02*
X141370000Y-107638904D01*
X141293809Y-107677000D01*
X141255714Y-107715095D01*
X141179523Y-107829380D01*
X141141428Y-107981761D01*
X141141428Y-108286523D01*
X141179523Y-108362714D01*
X141217619Y-108400809D01*
X141293809Y-108438904D01*
X141446190Y-108438904D01*
X141522380Y-108400809D01*
X141560476Y-108362714D01*
X141598571Y-108286523D01*
X141598571Y-108096047D01*
X141560476Y-108019857D01*
X141522380Y-107981761D01*
X141446190Y-107943666D01*
X141293809Y-107943666D01*
X141217619Y-107981761D01*
X141179523Y-108019857D01*
X141141428Y-108096047D01*
X128390666Y-111029714D02*
X128352571Y-111067809D01*
X128238285Y-111105904D01*
X128162095Y-111105904D01*
X128047809Y-111067809D01*
X127971619Y-110991619D01*
X127933523Y-110915428D01*
X127895428Y-110763047D01*
X127895428Y-110648761D01*
X127933523Y-110496380D01*
X127971619Y-110420190D01*
X128047809Y-110344000D01*
X128162095Y-110305904D01*
X128238285Y-110305904D01*
X128352571Y-110344000D01*
X128390666Y-110382095D01*
X129114476Y-110305904D02*
X128733523Y-110305904D01*
X128695428Y-110686857D01*
X128733523Y-110648761D01*
X128809714Y-110610666D01*
X129000190Y-110610666D01*
X129076380Y-110648761D01*
X129114476Y-110686857D01*
X129152571Y-110763047D01*
X129152571Y-110953523D01*
X129114476Y-111029714D01*
X129076380Y-111067809D01*
X129000190Y-111105904D01*
X128809714Y-111105904D01*
X128733523Y-111067809D01*
X128695428Y-111029714D01*
X115182666Y-109124714D02*
X115144571Y-109162809D01*
X115030285Y-109200904D01*
X114954095Y-109200904D01*
X114839809Y-109162809D01*
X114763619Y-109086619D01*
X114725523Y-109010428D01*
X114687428Y-108858047D01*
X114687428Y-108743761D01*
X114725523Y-108591380D01*
X114763619Y-108515190D01*
X114839809Y-108439000D01*
X114954095Y-108400904D01*
X115030285Y-108400904D01*
X115144571Y-108439000D01*
X115182666Y-108477095D01*
X115487428Y-108477095D02*
X115525523Y-108439000D01*
X115601714Y-108400904D01*
X115792190Y-108400904D01*
X115868380Y-108439000D01*
X115906476Y-108477095D01*
X115944571Y-108553285D01*
X115944571Y-108629476D01*
X115906476Y-108743761D01*
X115449333Y-109200904D01*
X115944571Y-109200904D01*
X140836666Y-105822714D02*
X140798571Y-105860809D01*
X140684285Y-105898904D01*
X140608095Y-105898904D01*
X140493809Y-105860809D01*
X140417619Y-105784619D01*
X140379523Y-105708428D01*
X140341428Y-105556047D01*
X140341428Y-105441761D01*
X140379523Y-105289380D01*
X140417619Y-105213190D01*
X140493809Y-105137000D01*
X140608095Y-105098904D01*
X140684285Y-105098904D01*
X140798571Y-105137000D01*
X140836666Y-105175095D01*
X141217619Y-105898904D02*
X141370000Y-105898904D01*
X141446190Y-105860809D01*
X141484285Y-105822714D01*
X141560476Y-105708428D01*
X141598571Y-105556047D01*
X141598571Y-105251285D01*
X141560476Y-105175095D01*
X141522380Y-105137000D01*
X141446190Y-105098904D01*
X141293809Y-105098904D01*
X141217619Y-105137000D01*
X141179523Y-105175095D01*
X141141428Y-105251285D01*
X141141428Y-105441761D01*
X141179523Y-105517952D01*
X141217619Y-105556047D01*
X141293809Y-105594142D01*
X141446190Y-105594142D01*
X141522380Y-105556047D01*
X141560476Y-105517952D01*
X141598571Y-105441761D01*
X129533666Y-95789714D02*
X129495571Y-95827809D01*
X129381285Y-95865904D01*
X129305095Y-95865904D01*
X129190809Y-95827809D01*
X129114619Y-95751619D01*
X129076523Y-95675428D01*
X129038428Y-95523047D01*
X129038428Y-95408761D01*
X129076523Y-95256380D01*
X129114619Y-95180190D01*
X129190809Y-95104000D01*
X129305095Y-95065904D01*
X129381285Y-95065904D01*
X129495571Y-95104000D01*
X129533666Y-95142095D01*
X129800333Y-95065904D02*
X130295571Y-95065904D01*
X130028904Y-95370666D01*
X130143190Y-95370666D01*
X130219380Y-95408761D01*
X130257476Y-95446857D01*
X130295571Y-95523047D01*
X130295571Y-95713523D01*
X130257476Y-95789714D01*
X130219380Y-95827809D01*
X130143190Y-95865904D01*
X129914619Y-95865904D01*
X129838428Y-95827809D01*
X129800333Y-95789714D01*
X137026666Y-109962904D02*
X136760000Y-109581952D01*
X136569523Y-109962904D02*
X136569523Y-109162904D01*
X136874285Y-109162904D01*
X136950476Y-109201000D01*
X136988571Y-109239095D01*
X137026666Y-109315285D01*
X137026666Y-109429571D01*
X136988571Y-109505761D01*
X136950476Y-109543857D01*
X136874285Y-109581952D01*
X136569523Y-109581952D01*
X137750476Y-109162904D02*
X137369523Y-109162904D01*
X137331428Y-109543857D01*
X137369523Y-109505761D01*
X137445714Y-109467666D01*
X137636190Y-109467666D01*
X137712380Y-109505761D01*
X137750476Y-109543857D01*
X137788571Y-109620047D01*
X137788571Y-109810523D01*
X137750476Y-109886714D01*
X137712380Y-109924809D01*
X137636190Y-109962904D01*
X137445714Y-109962904D01*
X137369523Y-109924809D01*
X137331428Y-109886714D01*
X135756666Y-108311904D02*
X135490000Y-107930952D01*
X135299523Y-108311904D02*
X135299523Y-107511904D01*
X135604285Y-107511904D01*
X135680476Y-107550000D01*
X135718571Y-107588095D01*
X135756666Y-107664285D01*
X135756666Y-107778571D01*
X135718571Y-107854761D01*
X135680476Y-107892857D01*
X135604285Y-107930952D01*
X135299523Y-107930952D01*
X136023333Y-107511904D02*
X136556666Y-107511904D01*
X136213809Y-108311904D01*
X134486666Y-109962904D02*
X134220000Y-109581952D01*
X134029523Y-109962904D02*
X134029523Y-109162904D01*
X134334285Y-109162904D01*
X134410476Y-109201000D01*
X134448571Y-109239095D01*
X134486666Y-109315285D01*
X134486666Y-109429571D01*
X134448571Y-109505761D01*
X134410476Y-109543857D01*
X134334285Y-109581952D01*
X134029523Y-109581952D01*
X135172380Y-109429571D02*
X135172380Y-109962904D01*
X134981904Y-109124809D02*
X134791428Y-109696238D01*
X135286666Y-109696238D01*
X117214666Y-111030214D02*
X117176571Y-111068309D01*
X117062285Y-111106404D01*
X116986095Y-111106404D01*
X116871809Y-111068309D01*
X116795619Y-110992119D01*
X116757523Y-110915928D01*
X116719428Y-110763547D01*
X116719428Y-110649261D01*
X116757523Y-110496880D01*
X116795619Y-110420690D01*
X116871809Y-110344500D01*
X116986095Y-110306404D01*
X117062285Y-110306404D01*
X117176571Y-110344500D01*
X117214666Y-110382595D01*
X117900380Y-110306404D02*
X117748000Y-110306404D01*
X117671809Y-110344500D01*
X117633714Y-110382595D01*
X117557523Y-110496880D01*
X117519428Y-110649261D01*
X117519428Y-110954023D01*
X117557523Y-111030214D01*
X117595619Y-111068309D01*
X117671809Y-111106404D01*
X117824190Y-111106404D01*
X117900380Y-111068309D01*
X117938476Y-111030214D01*
X117976571Y-110954023D01*
X117976571Y-110763547D01*
X117938476Y-110687357D01*
X117900380Y-110649261D01*
X117824190Y-110611166D01*
X117671809Y-110611166D01*
X117595619Y-110649261D01*
X117557523Y-110687357D01*
X117519428Y-110763547D01*
X121786666Y-111105904D02*
X121520000Y-110724952D01*
X121329523Y-111105904D02*
X121329523Y-110305904D01*
X121634285Y-110305904D01*
X121710476Y-110344000D01*
X121748571Y-110382095D01*
X121786666Y-110458285D01*
X121786666Y-110572571D01*
X121748571Y-110648761D01*
X121710476Y-110686857D01*
X121634285Y-110724952D01*
X121329523Y-110724952D01*
X122091428Y-110382095D02*
X122129523Y-110344000D01*
X122205714Y-110305904D01*
X122396190Y-110305904D01*
X122472380Y-110344000D01*
X122510476Y-110382095D01*
X122548571Y-110458285D01*
X122548571Y-110534476D01*
X122510476Y-110648761D01*
X122053333Y-111105904D01*
X122548571Y-111105904D01*
X126486166Y-95865904D02*
X126219500Y-95484952D01*
X126029023Y-95865904D02*
X126029023Y-95065904D01*
X126333785Y-95065904D01*
X126409976Y-95104000D01*
X126448071Y-95142095D01*
X126486166Y-95218285D01*
X126486166Y-95332571D01*
X126448071Y-95408761D01*
X126409976Y-95446857D01*
X126333785Y-95484952D01*
X126029023Y-95484952D01*
X127248071Y-95865904D02*
X126790928Y-95865904D01*
X127019500Y-95865904D02*
X127019500Y-95065904D01*
X126943309Y-95180190D01*
X126867119Y-95256380D01*
X126790928Y-95294476D01*
X120142047Y-95484952D02*
X120142047Y-95865904D01*
X119875380Y-95065904D02*
X120142047Y-95484952D01*
X120408714Y-95065904D01*
X121094428Y-95865904D02*
X120637285Y-95865904D01*
X120865857Y-95865904D02*
X120865857Y-95065904D01*
X120789666Y-95180190D01*
X120713476Y-95256380D01*
X120637285Y-95294476D01*
X125469666Y-110089904D02*
X125203000Y-109708952D01*
X125012523Y-110089904D02*
X125012523Y-109289904D01*
X125317285Y-109289904D01*
X125393476Y-109328000D01*
X125431571Y-109366095D01*
X125469666Y-109442285D01*
X125469666Y-109556571D01*
X125431571Y-109632761D01*
X125393476Y-109670857D01*
X125317285Y-109708952D01*
X125012523Y-109708952D01*
X125926809Y-109632761D02*
X125850619Y-109594666D01*
X125812523Y-109556571D01*
X125774428Y-109480380D01*
X125774428Y-109442285D01*
X125812523Y-109366095D01*
X125850619Y-109328000D01*
X125926809Y-109289904D01*
X126079190Y-109289904D01*
X126155380Y-109328000D01*
X126193476Y-109366095D01*
X126231571Y-109442285D01*
X126231571Y-109480380D01*
X126193476Y-109556571D01*
X126155380Y-109594666D01*
X126079190Y-109632761D01*
X125926809Y-109632761D01*
X125850619Y-109670857D01*
X125812523Y-109708952D01*
X125774428Y-109785142D01*
X125774428Y-109937523D01*
X125812523Y-110013714D01*
X125850619Y-110051809D01*
X125926809Y-110089904D01*
X126079190Y-110089904D01*
X126155380Y-110051809D01*
X126193476Y-110013714D01*
X126231571Y-109937523D01*
X126231571Y-109785142D01*
X126193476Y-109708952D01*
X126155380Y-109670857D01*
X126079190Y-109632761D01*
D12*
X125770000Y-99600000D02*
X125770000Y-99100000D01*
X130270000Y-99100000D02*
X130770000Y-99100000D01*
X125770000Y-104100000D02*
X125770000Y-103600000D01*
X126270000Y-104100000D02*
X125770000Y-104100000D01*
X125770000Y-99100000D02*
X126270000Y-99100000D01*
X130770000Y-104100000D02*
X130270000Y-104100000D01*
X130770000Y-103600000D02*
X130770000Y-104100000D01*
X130770000Y-99100000D02*
X130770000Y-99600000D01*
D11*
X125070000Y-100100000D02*
G75*
G03*
X125070000Y-100100000I-100000J0D01*
G01*
D13*
X128641221Y-107444000D02*
X128966779Y-107444000D01*
X128641221Y-106424000D02*
X128966779Y-106424000D01*
X133512779Y-105920000D02*
X133187221Y-105920000D01*
X133512779Y-104900000D02*
X133187221Y-104900000D01*
X135570746Y-100391806D02*
X134110746Y-100391806D01*
X135570746Y-100391806D02*
X135570746Y-99461806D01*
X135570746Y-97231806D02*
X135570746Y-98161806D01*
X135570746Y-97231806D02*
X133410746Y-97231806D01*
X118110000Y-118170000D02*
X141030000Y-118170000D01*
X141030000Y-118170000D02*
X141030000Y-115510000D01*
X118110000Y-115510000D02*
X141030000Y-115510000D01*
X115510000Y-118170000D02*
X115510000Y-116840000D01*
X116840000Y-118170000D02*
X115510000Y-118170000D01*
X118110000Y-118170000D02*
X118110000Y-115510000D01*
X115060000Y-98897221D02*
X115060000Y-99222779D01*
X116080000Y-98897221D02*
X116080000Y-99222779D01*
X123569000Y-113192779D02*
X123569000Y-112867221D01*
X124589000Y-113192779D02*
X124589000Y-112867221D01*
X118870000Y-112867221D02*
X118870000Y-113192779D01*
X119890000Y-112867221D02*
X119890000Y-113192779D01*
G36*
X138798006Y-98593722D02*
G01*
X138804742Y-98595464D01*
X138864899Y-98619887D01*
X138903621Y-98671324D01*
X138925587Y-98773849D01*
X138935478Y-98951538D01*
X138937974Y-99228465D01*
X138938000Y-99280925D01*
X138938000Y-99931537D01*
X138493500Y-100262071D01*
X138294165Y-100414215D01*
X138141079Y-100538518D01*
X138057644Y-100615644D01*
X138049000Y-100629262D01*
X138106858Y-100642440D01*
X138259174Y-100642754D01*
X138474067Y-100630248D01*
X138493500Y-100628654D01*
X138725438Y-100611515D01*
X138858416Y-100613011D01*
X138919872Y-100639433D01*
X138937247Y-100697074D01*
X138938000Y-100730569D01*
X138931897Y-100792541D01*
X138898531Y-100832717D01*
X138815322Y-100855811D01*
X138659686Y-100866536D01*
X138409043Y-100869608D01*
X138271250Y-100869750D01*
X137974092Y-100868291D01*
X137781406Y-100860947D01*
X137670672Y-100843262D01*
X137619372Y-100810784D01*
X137604986Y-100759058D01*
X137604500Y-100737882D01*
X137661505Y-100614455D01*
X137833703Y-100447193D01*
X137992885Y-100325132D01*
X138381269Y-100044250D01*
X137992885Y-100025344D01*
X137776361Y-100009597D01*
X137658517Y-99982213D01*
X137611041Y-99932776D01*
X137604500Y-99882469D01*
X137614821Y-99823357D01*
X137661898Y-99786690D01*
X137769906Y-99767190D01*
X137963017Y-99759580D01*
X138172253Y-99758500D01*
X138491507Y-99747583D01*
X138704794Y-99716151D01*
X138806180Y-99666178D01*
X138789728Y-99599639D01*
X138746530Y-99567400D01*
X138695409Y-99472588D01*
X138700700Y-99383999D01*
X138710542Y-99320547D01*
X138684301Y-99281233D01*
X138599074Y-99260294D01*
X138431961Y-99251971D01*
X138170056Y-99250500D01*
X137901146Y-99249014D01*
X137734685Y-99240194D01*
X137646123Y-99217494D01*
X137610913Y-99174371D01*
X137604505Y-99104279D01*
X137604500Y-99099722D01*
X137608862Y-99028871D01*
X137638133Y-98986268D01*
X137716594Y-98966944D01*
X137868528Y-98965926D01*
X138118214Y-98978246D01*
X138180579Y-98981791D01*
X138756658Y-99014637D01*
X138714070Y-98787627D01*
X138693076Y-98639986D01*
X138716286Y-98585457D01*
X138798006Y-98593722D01*
G37*
D14*
X138798006Y-98593722D02*
X138804742Y-98595464D01*
X138864899Y-98619887D01*
X138903621Y-98671324D01*
X138925587Y-98773849D01*
X138935478Y-98951538D01*
X138937974Y-99228465D01*
X138938000Y-99280925D01*
X138938000Y-99931537D01*
X138493500Y-100262071D01*
X138294165Y-100414215D01*
X138141079Y-100538518D01*
X138057644Y-100615644D01*
X138049000Y-100629262D01*
X138106858Y-100642440D01*
X138259174Y-100642754D01*
X138474067Y-100630248D01*
X138493500Y-100628654D01*
X138725438Y-100611515D01*
X138858416Y-100613011D01*
X138919872Y-100639433D01*
X138937247Y-100697074D01*
X138938000Y-100730569D01*
X138931897Y-100792541D01*
X138898531Y-100832717D01*
X138815322Y-100855811D01*
X138659686Y-100866536D01*
X138409043Y-100869608D01*
X138271250Y-100869750D01*
X137974092Y-100868291D01*
X137781406Y-100860947D01*
X137670672Y-100843262D01*
X137619372Y-100810784D01*
X137604986Y-100759058D01*
X137604500Y-100737882D01*
X137661505Y-100614455D01*
X137833703Y-100447193D01*
X137992885Y-100325132D01*
X138381269Y-100044250D01*
X137992885Y-100025344D01*
X137776361Y-100009597D01*
X137658517Y-99982213D01*
X137611041Y-99932776D01*
X137604500Y-99882469D01*
X137614821Y-99823357D01*
X137661898Y-99786690D01*
X137769906Y-99767190D01*
X137963017Y-99759580D01*
X138172253Y-99758500D01*
X138491507Y-99747583D01*
X138704794Y-99716151D01*
X138806180Y-99666178D01*
X138789728Y-99599639D01*
X138746530Y-99567400D01*
X138695409Y-99472588D01*
X138700700Y-99383999D01*
X138710542Y-99320547D01*
X138684301Y-99281233D01*
X138599074Y-99260294D01*
X138431961Y-99251971D01*
X138170056Y-99250500D01*
X137901146Y-99249014D01*
X137734685Y-99240194D01*
X137646123Y-99217494D01*
X137610913Y-99174371D01*
X137604505Y-99104279D01*
X137604500Y-99099722D01*
X137608862Y-99028871D01*
X137638133Y-98986268D01*
X137716594Y-98966944D01*
X137868528Y-98965926D01*
X138118214Y-98978246D01*
X138180579Y-98981791D01*
X138756658Y-99014637D01*
X138714070Y-98787627D01*
X138693076Y-98639986D01*
X138716286Y-98585457D01*
X138798006Y-98593722D01*
G36*
X143486180Y-99221444D02*
G01*
X143585998Y-99298745D01*
X143636338Y-99345115D01*
X143763191Y-99447865D01*
X143853974Y-99487745D01*
X143870794Y-99482373D01*
X143920573Y-99509988D01*
X144010658Y-99615720D01*
X144119050Y-99767020D01*
X144223750Y-99931338D01*
X144302760Y-100076124D01*
X144334066Y-100167831D01*
X144295188Y-100164021D01*
X144194454Y-100087590D01*
X144120388Y-100019418D01*
X143971895Y-99895308D01*
X143890324Y-99874891D01*
X143878135Y-99892347D01*
X143839316Y-99878243D01*
X143760641Y-99783528D01*
X143662118Y-99639600D01*
X143563755Y-99477853D01*
X143485558Y-99329683D01*
X143447534Y-99226488D01*
X143446500Y-99215015D01*
X143486180Y-99221444D01*
G37*
X143486180Y-99221444D02*
X143585998Y-99298745D01*
X143636338Y-99345115D01*
X143763191Y-99447865D01*
X143853974Y-99487745D01*
X143870794Y-99482373D01*
X143920573Y-99509988D01*
X144010658Y-99615720D01*
X144119050Y-99767020D01*
X144223750Y-99931338D01*
X144302760Y-100076124D01*
X144334066Y-100167831D01*
X144295188Y-100164021D01*
X144194454Y-100087590D01*
X144120388Y-100019418D01*
X143971895Y-99895308D01*
X143890324Y-99874891D01*
X143878135Y-99892347D01*
X143839316Y-99878243D01*
X143760641Y-99783528D01*
X143662118Y-99639600D01*
X143563755Y-99477853D01*
X143485558Y-99329683D01*
X143447534Y-99226488D01*
X143446500Y-99215015D01*
X143486180Y-99221444D01*
G36*
X142177802Y-97330456D02*
G01*
X142490606Y-97525891D01*
X142719432Y-97756160D01*
X142882595Y-97949339D01*
X143043419Y-98138373D01*
X143098587Y-98202750D01*
X143284021Y-98430548D01*
X143373774Y-98584255D01*
X143363553Y-98677966D01*
X143249067Y-98725779D01*
X143026023Y-98741790D01*
X142934221Y-98742500D01*
X142701499Y-98740424D01*
X142570969Y-98728378D01*
X142517828Y-98697631D01*
X142517276Y-98639455D01*
X142528286Y-98599625D01*
X142599721Y-98444423D01*
X142656432Y-98366901D01*
X142702903Y-98287526D01*
X142674681Y-98190388D01*
X142613745Y-98097310D01*
X142485757Y-97917567D01*
X141982489Y-98300673D01*
X141676930Y-98554391D01*
X141487166Y-98773132D01*
X141413246Y-98973267D01*
X141455224Y-99171162D01*
X141613150Y-99383188D01*
X141887074Y-99625712D01*
X141986882Y-99703072D01*
X142209438Y-99870044D01*
X142355360Y-99969201D01*
X142448520Y-100010371D01*
X142512786Y-100003379D01*
X142572029Y-99958051D01*
X142582333Y-99948192D01*
X142653478Y-99867454D01*
X142669102Y-99785837D01*
X142631169Y-99655997D01*
X142597962Y-99571255D01*
X142537989Y-99406296D01*
X142530666Y-99320857D01*
X142574923Y-99279376D01*
X142589005Y-99273557D01*
X142669526Y-99186876D01*
X142684500Y-99116706D01*
X142726079Y-99017541D01*
X142779750Y-98996500D01*
X142857322Y-99049439D01*
X142875000Y-99123500D01*
X142901593Y-99226685D01*
X142938500Y-99250500D01*
X142990093Y-99197315D01*
X143002000Y-99123500D01*
X143041705Y-99020071D01*
X143097250Y-98996500D01*
X143174822Y-99049439D01*
X143192500Y-99123500D01*
X143235106Y-99229154D01*
X143294634Y-99250500D01*
X143362248Y-99295011D01*
X143358112Y-99410028D01*
X143290912Y-99567777D01*
X143169334Y-99740484D01*
X143126565Y-99787914D01*
X142975178Y-99951857D01*
X142795906Y-100152862D01*
X142706879Y-100255223D01*
X142369420Y-100560228D01*
X141987287Y-100759143D01*
X141578798Y-100856153D01*
X141162272Y-100855445D01*
X140756025Y-100761205D01*
X140378376Y-100577621D01*
X140047643Y-100308878D01*
X139782142Y-99959163D01*
X139604125Y-99546083D01*
X139520005Y-99067182D01*
X139541695Y-98811225D01*
X139852804Y-98811225D01*
X139854981Y-99234815D01*
X139969590Y-99640964D01*
X140045981Y-99790399D01*
X140303523Y-100115944D01*
X140631746Y-100357047D01*
X141006077Y-100505953D01*
X141401944Y-100554909D01*
X141794774Y-100496159D01*
X142010320Y-100410294D01*
X142193389Y-100318005D01*
X141915070Y-100159076D01*
X141529853Y-99947545D01*
X141210123Y-99794236D01*
X140918077Y-99683478D01*
X140615907Y-99599605D01*
X140504742Y-99574557D01*
X140251743Y-99517484D01*
X140095538Y-99469575D01*
X140008346Y-99415302D01*
X139962383Y-99339137D01*
X139938145Y-99257878D01*
X139915861Y-99057136D01*
X139929785Y-98828275D01*
X139936537Y-98789414D01*
X139988385Y-98527239D01*
X140426180Y-98446439D01*
X140789515Y-98350751D01*
X141207209Y-98194641D01*
X141634219Y-97996729D01*
X141979253Y-97804414D01*
X142194756Y-97672331D01*
X141955623Y-97572415D01*
X141590077Y-97481035D01*
X141197366Y-97485954D01*
X140811355Y-97578729D01*
X140465906Y-97750918D01*
X140194884Y-97994080D01*
X140178019Y-98015576D01*
X139961127Y-98396158D01*
X139852804Y-98811225D01*
X139541695Y-98811225D01*
X139559365Y-98602712D01*
X139602828Y-98439083D01*
X139795692Y-98028705D01*
X140096616Y-97665695D01*
X140490096Y-97368076D01*
X140557250Y-97329576D01*
X140720427Y-97254938D01*
X140901258Y-97211395D01*
X141140626Y-97191662D01*
X141351000Y-97188142D01*
X141590077Y-97205573D01*
X141806278Y-97221337D01*
X142177802Y-97330456D01*
G37*
X142177802Y-97330456D02*
X142490606Y-97525891D01*
X142719432Y-97756160D01*
X142882595Y-97949339D01*
X143043419Y-98138373D01*
X143098587Y-98202750D01*
X143284021Y-98430548D01*
X143373774Y-98584255D01*
X143363553Y-98677966D01*
X143249067Y-98725779D01*
X143026023Y-98741790D01*
X142934221Y-98742500D01*
X142701499Y-98740424D01*
X142570969Y-98728378D01*
X142517828Y-98697631D01*
X142517276Y-98639455D01*
X142528286Y-98599625D01*
X142599721Y-98444423D01*
X142656432Y-98366901D01*
X142702903Y-98287526D01*
X142674681Y-98190388D01*
X142613745Y-98097310D01*
X142485757Y-97917567D01*
X141982489Y-98300673D01*
X141676930Y-98554391D01*
X141487166Y-98773132D01*
X141413246Y-98973267D01*
X141455224Y-99171162D01*
X141613150Y-99383188D01*
X141887074Y-99625712D01*
X141986882Y-99703072D01*
X142209438Y-99870044D01*
X142355360Y-99969201D01*
X142448520Y-100010371D01*
X142512786Y-100003379D01*
X142572029Y-99958051D01*
X142582333Y-99948192D01*
X142653478Y-99867454D01*
X142669102Y-99785837D01*
X142631169Y-99655997D01*
X142597962Y-99571255D01*
X142537989Y-99406296D01*
X142530666Y-99320857D01*
X142574923Y-99279376D01*
X142589005Y-99273557D01*
X142669526Y-99186876D01*
X142684500Y-99116706D01*
X142726079Y-99017541D01*
X142779750Y-98996500D01*
X142857322Y-99049439D01*
X142875000Y-99123500D01*
X142901593Y-99226685D01*
X142938500Y-99250500D01*
X142990093Y-99197315D01*
X143002000Y-99123500D01*
X143041705Y-99020071D01*
X143097250Y-98996500D01*
X143174822Y-99049439D01*
X143192500Y-99123500D01*
X143235106Y-99229154D01*
X143294634Y-99250500D01*
X143362248Y-99295011D01*
X143358112Y-99410028D01*
X143290912Y-99567777D01*
X143169334Y-99740484D01*
X143126565Y-99787914D01*
X142975178Y-99951857D01*
X142795906Y-100152862D01*
X142706879Y-100255223D01*
X142369420Y-100560228D01*
X141987287Y-100759143D01*
X141578798Y-100856153D01*
X141162272Y-100855445D01*
X140756025Y-100761205D01*
X140378376Y-100577621D01*
X140047643Y-100308878D01*
X139782142Y-99959163D01*
X139604125Y-99546083D01*
X139520005Y-99067182D01*
X139541695Y-98811225D01*
X139852804Y-98811225D01*
X139854981Y-99234815D01*
X139969590Y-99640964D01*
X140045981Y-99790399D01*
X140303523Y-100115944D01*
X140631746Y-100357047D01*
X141006077Y-100505953D01*
X141401944Y-100554909D01*
X141794774Y-100496159D01*
X142010320Y-100410294D01*
X142193389Y-100318005D01*
X141915070Y-100159076D01*
X141529853Y-99947545D01*
X141210123Y-99794236D01*
X140918077Y-99683478D01*
X140615907Y-99599605D01*
X140504742Y-99574557D01*
X140251743Y-99517484D01*
X140095538Y-99469575D01*
X140008346Y-99415302D01*
X139962383Y-99339137D01*
X139938145Y-99257878D01*
X139915861Y-99057136D01*
X139929785Y-98828275D01*
X139936537Y-98789414D01*
X139988385Y-98527239D01*
X140426180Y-98446439D01*
X140789515Y-98350751D01*
X141207209Y-98194641D01*
X141634219Y-97996729D01*
X141979253Y-97804414D01*
X142194756Y-97672331D01*
X141955623Y-97572415D01*
X141590077Y-97481035D01*
X141197366Y-97485954D01*
X140811355Y-97578729D01*
X140465906Y-97750918D01*
X140194884Y-97994080D01*
X140178019Y-98015576D01*
X139961127Y-98396158D01*
X139852804Y-98811225D01*
X139541695Y-98811225D01*
X139559365Y-98602712D01*
X139602828Y-98439083D01*
X139795692Y-98028705D01*
X140096616Y-97665695D01*
X140490096Y-97368076D01*
X140557250Y-97329576D01*
X140720427Y-97254938D01*
X140901258Y-97211395D01*
X141140626Y-97191662D01*
X141351000Y-97188142D01*
X141590077Y-97205573D01*
X141806278Y-97221337D01*
X142177802Y-97330456D01*
G36*
X144171998Y-98162539D02*
G01*
X144059516Y-98349857D01*
X143954222Y-98487094D01*
X143892748Y-98536972D01*
X143783043Y-98600946D01*
X143641319Y-98713636D01*
X143621125Y-98731938D01*
X143502784Y-98828373D01*
X143456885Y-98830355D01*
X143483607Y-98735094D01*
X143583133Y-98539798D01*
X143640128Y-98438691D01*
X143751466Y-98267855D01*
X143846747Y-98162602D01*
X143898692Y-98144003D01*
X143981566Y-98130137D01*
X144110013Y-98046380D01*
X144159535Y-98003311D01*
X144354248Y-97821750D01*
X144171998Y-98162539D01*
G37*
X144171998Y-98162539D02*
X144059516Y-98349857D01*
X143954222Y-98487094D01*
X143892748Y-98536972D01*
X143783043Y-98600946D01*
X143641319Y-98713636D01*
X143621125Y-98731938D01*
X143502784Y-98828373D01*
X143456885Y-98830355D01*
X143483607Y-98735094D01*
X143583133Y-98539798D01*
X143640128Y-98438691D01*
X143751466Y-98267855D01*
X143846747Y-98162602D01*
X143898692Y-98144003D01*
X143981566Y-98130137D01*
X144110013Y-98046380D01*
X144159535Y-98003311D01*
X144354248Y-97821750D01*
X144171998Y-98162539D01*
G36*
X138932876Y-94415574D02*
G01*
X138938000Y-94521742D01*
X138929306Y-94620459D01*
X138885360Y-94683050D01*
X138779371Y-94724104D01*
X138584546Y-94758208D01*
X138476396Y-94773084D01*
X138308465Y-94806539D01*
X138214940Y-94847039D01*
X138207695Y-94868910D01*
X138283034Y-94915301D01*
X138442598Y-94978148D01*
X138598389Y-95027820D01*
X138778069Y-95089813D01*
X138885168Y-95146310D01*
X138898841Y-95179513D01*
X138812178Y-95223411D01*
X138643544Y-95289021D01*
X138466299Y-95349903D01*
X138089848Y-95472250D01*
X138513924Y-95565720D01*
X138740034Y-95620202D01*
X138868043Y-95668819D01*
X138925011Y-95727240D01*
X138938000Y-95811132D01*
X138938000Y-95811251D01*
X138919014Y-95920033D01*
X138837780Y-95932588D01*
X138795125Y-95921589D01*
X138668646Y-95886171D01*
X138458727Y-95828902D01*
X138204688Y-95760485D01*
X138128375Y-95740086D01*
X137826931Y-95647328D01*
X137650561Y-95561102D01*
X137597755Y-95477728D01*
X137666999Y-95393523D01*
X137856780Y-95304806D01*
X137937875Y-95276468D01*
X138271250Y-95165730D01*
X137953750Y-95059545D01*
X137724383Y-94963992D01*
X137621929Y-94872690D01*
X137646410Y-94784891D01*
X137797846Y-94699845D01*
X137965540Y-94645361D01*
X138226829Y-94570477D01*
X138489901Y-94491513D01*
X138615937Y-94451900D01*
X138786383Y-94398090D01*
X138897369Y-94365482D01*
X138917562Y-94361000D01*
X138932876Y-94415574D01*
G37*
X138932876Y-94415574D02*
X138938000Y-94521742D01*
X138929306Y-94620459D01*
X138885360Y-94683050D01*
X138779371Y-94724104D01*
X138584546Y-94758208D01*
X138476396Y-94773084D01*
X138308465Y-94806539D01*
X138214940Y-94847039D01*
X138207695Y-94868910D01*
X138283034Y-94915301D01*
X138442598Y-94978148D01*
X138598389Y-95027820D01*
X138778069Y-95089813D01*
X138885168Y-95146310D01*
X138898841Y-95179513D01*
X138812178Y-95223411D01*
X138643544Y-95289021D01*
X138466299Y-95349903D01*
X138089848Y-95472250D01*
X138513924Y-95565720D01*
X138740034Y-95620202D01*
X138868043Y-95668819D01*
X138925011Y-95727240D01*
X138938000Y-95811132D01*
X138938000Y-95811251D01*
X138919014Y-95920033D01*
X138837780Y-95932588D01*
X138795125Y-95921589D01*
X138668646Y-95886171D01*
X138458727Y-95828902D01*
X138204688Y-95760485D01*
X138128375Y-95740086D01*
X137826931Y-95647328D01*
X137650561Y-95561102D01*
X137597755Y-95477728D01*
X137666999Y-95393523D01*
X137856780Y-95304806D01*
X137937875Y-95276468D01*
X138271250Y-95165730D01*
X137953750Y-95059545D01*
X137724383Y-94963992D01*
X137621929Y-94872690D01*
X137646410Y-94784891D01*
X137797846Y-94699845D01*
X137965540Y-94645361D01*
X138226829Y-94570477D01*
X138489901Y-94491513D01*
X138615937Y-94451900D01*
X138786383Y-94398090D01*
X138897369Y-94365482D01*
X138917562Y-94361000D01*
X138932876Y-94415574D01*
G36*
X138568040Y-101093187D02*
G01*
X138760433Y-101099977D01*
X138871032Y-101117215D01*
X138922437Y-101149741D01*
X138937250Y-101202401D01*
X138938000Y-101234875D01*
X138932460Y-101298472D01*
X138900770Y-101339699D01*
X138820330Y-101363399D01*
X138668538Y-101374414D01*
X138422793Y-101377589D01*
X138271250Y-101377750D01*
X137974461Y-101376562D01*
X137782068Y-101369772D01*
X137671469Y-101352534D01*
X137620064Y-101320008D01*
X137605251Y-101267348D01*
X137604500Y-101234875D01*
X137610041Y-101171277D01*
X137641731Y-101130050D01*
X137722171Y-101106350D01*
X137873963Y-101095335D01*
X138119708Y-101092160D01*
X138271250Y-101092000D01*
X138568040Y-101093187D01*
G37*
X138568040Y-101093187D02*
X138760433Y-101099977D01*
X138871032Y-101117215D01*
X138922437Y-101149741D01*
X138937250Y-101202401D01*
X138938000Y-101234875D01*
X138932460Y-101298472D01*
X138900770Y-101339699D01*
X138820330Y-101363399D01*
X138668538Y-101374414D01*
X138422793Y-101377589D01*
X138271250Y-101377750D01*
X137974461Y-101376562D01*
X137782068Y-101369772D01*
X137671469Y-101352534D01*
X137620064Y-101320008D01*
X137605251Y-101267348D01*
X137604500Y-101234875D01*
X137610041Y-101171277D01*
X137641731Y-101130050D01*
X137722171Y-101106350D01*
X137873963Y-101095335D01*
X138119708Y-101092160D01*
X138271250Y-101092000D01*
X138568040Y-101093187D01*
G36*
X138938000Y-102907331D02*
G01*
X138929342Y-103008594D01*
X138880280Y-103048726D01*
X138756187Y-103043589D01*
X138668125Y-103030960D01*
X138398250Y-102990257D01*
X138620500Y-103182420D01*
X138762610Y-103297440D01*
X138866062Y-103367026D01*
X138890375Y-103376291D01*
X138923496Y-103432937D01*
X138937976Y-103567537D01*
X138938000Y-103573896D01*
X138938000Y-103769793D01*
X138643102Y-103510213D01*
X138458629Y-103365658D01*
X138326769Y-103299163D01*
X138277977Y-103302956D01*
X138192943Y-103368908D01*
X138044737Y-103486056D01*
X137906125Y-103596539D01*
X137604500Y-103837798D01*
X137604500Y-103644828D01*
X137633415Y-103491511D01*
X137740709Y-103372088D01*
X137819612Y-103318911D01*
X137982912Y-103205143D01*
X138107355Y-103096622D01*
X138121237Y-103080983D01*
X138161302Y-103019909D01*
X138131585Y-102996316D01*
X138009961Y-103003625D01*
X137906125Y-103017035D01*
X137724928Y-103037427D01*
X137636231Y-103025245D01*
X137607098Y-102967770D01*
X137604500Y-102900535D01*
X137604500Y-102743000D01*
X138938000Y-102743000D01*
X138938000Y-102907331D01*
G37*
X138938000Y-102907331D02*
X138929342Y-103008594D01*
X138880280Y-103048726D01*
X138756187Y-103043589D01*
X138668125Y-103030960D01*
X138398250Y-102990257D01*
X138620500Y-103182420D01*
X138762610Y-103297440D01*
X138866062Y-103367026D01*
X138890375Y-103376291D01*
X138923496Y-103432937D01*
X138937976Y-103567537D01*
X138938000Y-103573896D01*
X138938000Y-103769793D01*
X138643102Y-103510213D01*
X138458629Y-103365658D01*
X138326769Y-103299163D01*
X138277977Y-103302956D01*
X138192943Y-103368908D01*
X138044737Y-103486056D01*
X137906125Y-103596539D01*
X137604500Y-103837798D01*
X137604500Y-103644828D01*
X137633415Y-103491511D01*
X137740709Y-103372088D01*
X137819612Y-103318911D01*
X137982912Y-103205143D01*
X138107355Y-103096622D01*
X138121237Y-103080983D01*
X138161302Y-103019909D01*
X138131585Y-102996316D01*
X138009961Y-103003625D01*
X137906125Y-103017035D01*
X137724928Y-103037427D01*
X137636231Y-103025245D01*
X137607098Y-102967770D01*
X137604500Y-102900535D01*
X137604500Y-102743000D01*
X138938000Y-102743000D01*
X138938000Y-102907331D01*
G36*
X138567934Y-96076509D02*
G01*
X138760242Y-96082952D01*
X138870799Y-96099950D01*
X138922228Y-96132626D01*
X138937154Y-96186102D01*
X138938000Y-96226449D01*
X138927800Y-96317941D01*
X138874717Y-96356080D01*
X138745025Y-96354880D01*
X138652250Y-96345191D01*
X138366500Y-96312983D01*
X138366500Y-96854016D01*
X138652250Y-96821808D01*
X138827622Y-96807429D01*
X138911146Y-96826057D01*
X138936547Y-96891704D01*
X138938000Y-96940550D01*
X138933542Y-97007718D01*
X138905083Y-97051256D01*
X138830000Y-97076285D01*
X138685669Y-97087929D01*
X138449466Y-97091308D01*
X138271250Y-97091500D01*
X137974567Y-97090490D01*
X137782259Y-97084047D01*
X137671702Y-97067049D01*
X137620273Y-97034373D01*
X137605347Y-96980897D01*
X137604500Y-96940550D01*
X137614701Y-96849058D01*
X137667784Y-96810919D01*
X137797476Y-96812119D01*
X137890250Y-96821808D01*
X138176000Y-96854016D01*
X138176000Y-96312983D01*
X137890250Y-96345191D01*
X137714879Y-96359570D01*
X137631355Y-96340942D01*
X137605954Y-96275295D01*
X137604500Y-96226449D01*
X137608959Y-96159281D01*
X137637418Y-96115743D01*
X137712501Y-96090714D01*
X137856832Y-96079070D01*
X138093035Y-96075691D01*
X138271250Y-96075500D01*
X138567934Y-96076509D01*
G37*
X138567934Y-96076509D02*
X138760242Y-96082952D01*
X138870799Y-96099950D01*
X138922228Y-96132626D01*
X138937154Y-96186102D01*
X138938000Y-96226449D01*
X138927800Y-96317941D01*
X138874717Y-96356080D01*
X138745025Y-96354880D01*
X138652250Y-96345191D01*
X138366500Y-96312983D01*
X138366500Y-96854016D01*
X138652250Y-96821808D01*
X138827622Y-96807429D01*
X138911146Y-96826057D01*
X138936547Y-96891704D01*
X138938000Y-96940550D01*
X138933542Y-97007718D01*
X138905083Y-97051256D01*
X138830000Y-97076285D01*
X138685669Y-97087929D01*
X138449466Y-97091308D01*
X138271250Y-97091500D01*
X137974567Y-97090490D01*
X137782259Y-97084047D01*
X137671702Y-97067049D01*
X137620273Y-97034373D01*
X137605347Y-96980897D01*
X137604500Y-96940550D01*
X137614701Y-96849058D01*
X137667784Y-96810919D01*
X137797476Y-96812119D01*
X137890250Y-96821808D01*
X138176000Y-96854016D01*
X138176000Y-96312983D01*
X137890250Y-96345191D01*
X137714879Y-96359570D01*
X137631355Y-96340942D01*
X137605954Y-96275295D01*
X137604500Y-96226449D01*
X137608959Y-96159281D01*
X137637418Y-96115743D01*
X137712501Y-96090714D01*
X137856832Y-96079070D01*
X138093035Y-96075691D01*
X138271250Y-96075500D01*
X138567934Y-96076509D01*
G36*
X138574129Y-97683352D02*
G01*
X138768931Y-97789870D01*
X138888563Y-97866042D01*
X138914940Y-97897727D01*
X138845869Y-97938548D01*
X138686860Y-98020978D01*
X138462808Y-98132378D01*
X138241308Y-98239693D01*
X137604500Y-98544835D01*
X137604500Y-98365855D01*
X137626993Y-98233029D01*
X137720050Y-98167633D01*
X137798882Y-98147998D01*
X137925978Y-98110542D01*
X137975357Y-98038992D01*
X137974873Y-97889436D01*
X137974047Y-97879305D01*
X138239500Y-97879305D01*
X138286041Y-97941473D01*
X138371868Y-97933995D01*
X138456947Y-97896366D01*
X138424487Y-97848889D01*
X138419493Y-97845662D01*
X138295251Y-97794146D01*
X138242265Y-97845069D01*
X138239500Y-97879305D01*
X137974047Y-97879305D01*
X137973507Y-97872694D01*
X137942772Y-97706428D01*
X137869709Y-97624850D01*
X137795000Y-97599496D01*
X137664725Y-97526944D01*
X137615490Y-97383693D01*
X137616275Y-97264818D01*
X137647240Y-97230788D01*
X137722892Y-97267607D01*
X137887134Y-97347099D01*
X138114159Y-97456786D01*
X138295251Y-97544185D01*
X138325758Y-97558909D01*
X138574129Y-97683352D01*
G37*
X138574129Y-97683352D02*
X138768931Y-97789870D01*
X138888563Y-97866042D01*
X138914940Y-97897727D01*
X138845869Y-97938548D01*
X138686860Y-98020978D01*
X138462808Y-98132378D01*
X138241308Y-98239693D01*
X137604500Y-98544835D01*
X137604500Y-98365855D01*
X137626993Y-98233029D01*
X137720050Y-98167633D01*
X137798882Y-98147998D01*
X137925978Y-98110542D01*
X137975357Y-98038992D01*
X137974873Y-97889436D01*
X137974047Y-97879305D01*
X138239500Y-97879305D01*
X138286041Y-97941473D01*
X138371868Y-97933995D01*
X138456947Y-97896366D01*
X138424487Y-97848889D01*
X138419493Y-97845662D01*
X138295251Y-97794146D01*
X138242265Y-97845069D01*
X138239500Y-97879305D01*
X137974047Y-97879305D01*
X137973507Y-97872694D01*
X137942772Y-97706428D01*
X137869709Y-97624850D01*
X137795000Y-97599496D01*
X137664725Y-97526944D01*
X137615490Y-97383693D01*
X137616275Y-97264818D01*
X137647240Y-97230788D01*
X137722892Y-97267607D01*
X137887134Y-97347099D01*
X138114159Y-97456786D01*
X138295251Y-97544185D01*
X138325758Y-97558909D01*
X138574129Y-97683352D01*
G36*
X138539639Y-101622942D02*
G01*
X138703072Y-101728371D01*
X138827587Y-101876820D01*
X138905195Y-102068384D01*
X138934559Y-102270521D01*
X138914344Y-102450689D01*
X138843215Y-102576345D01*
X138739497Y-102616000D01*
X138645222Y-102592733D01*
X138652954Y-102506474D01*
X138653623Y-102504875D01*
X138717794Y-102242420D01*
X138677701Y-102032106D01*
X138541789Y-101889329D01*
X138318505Y-101829486D01*
X138282590Y-101828600D01*
X138038356Y-101878180D01*
X137871893Y-102010982D01*
X137798167Y-102203094D01*
X137832143Y-102430606D01*
X137863445Y-102498239D01*
X137898959Y-102591422D01*
X137842127Y-102611684D01*
X137784070Y-102605189D01*
X137695954Y-102577647D01*
X137647866Y-102504879D01*
X137624045Y-102353484D01*
X137617072Y-102251292D01*
X137614902Y-102038002D01*
X137648681Y-101899176D01*
X137732628Y-101784150D01*
X137754478Y-101761750D01*
X137999757Y-101591912D01*
X138265235Y-101545511D01*
X138539639Y-101622942D01*
G37*
X138539639Y-101622942D02*
X138703072Y-101728371D01*
X138827587Y-101876820D01*
X138905195Y-102068384D01*
X138934559Y-102270521D01*
X138914344Y-102450689D01*
X138843215Y-102576345D01*
X138739497Y-102616000D01*
X138645222Y-102592733D01*
X138652954Y-102506474D01*
X138653623Y-102504875D01*
X138717794Y-102242420D01*
X138677701Y-102032106D01*
X138541789Y-101889329D01*
X138318505Y-101829486D01*
X138282590Y-101828600D01*
X138038356Y-101878180D01*
X137871893Y-102010982D01*
X137798167Y-102203094D01*
X137832143Y-102430606D01*
X137863445Y-102498239D01*
X137898959Y-102591422D01*
X137842127Y-102611684D01*
X137784070Y-102605189D01*
X137695954Y-102577647D01*
X137647866Y-102504879D01*
X137624045Y-102353484D01*
X137617072Y-102251292D01*
X137614902Y-102038002D01*
X137648681Y-101899176D01*
X137732628Y-101784150D01*
X137754478Y-101761750D01*
X137999757Y-101591912D01*
X138265235Y-101545511D01*
X138539639Y-101622942D01*
G36*
X142029107Y-98634718D02*
G01*
X142190786Y-98729297D01*
X142288689Y-98894762D01*
X142302528Y-99001500D01*
X142270182Y-99188247D01*
X142155675Y-99316628D01*
X142069533Y-99368002D01*
X141885140Y-99409004D01*
X141722904Y-99351837D01*
X141601133Y-99225277D01*
X141538133Y-99058097D01*
X141552211Y-98879071D01*
X141657626Y-98720591D01*
X141839453Y-98626617D01*
X142029107Y-98634718D01*
G37*
X142029107Y-98634718D02*
X142190786Y-98729297D01*
X142288689Y-98894762D01*
X142302528Y-99001500D01*
X142270182Y-99188247D01*
X142155675Y-99316628D01*
X142069533Y-99368002D01*
X141885140Y-99409004D01*
X141722904Y-99351837D01*
X141601133Y-99225277D01*
X141538133Y-99058097D01*
X141552211Y-98879071D01*
X141657626Y-98720591D01*
X141839453Y-98626617D01*
X142029107Y-98634718D01*
D13*
X138267221Y-107440000D02*
X138592779Y-107440000D01*
X138267221Y-108460000D02*
X138592779Y-108460000D01*
X128615221Y-109730000D02*
X128940779Y-109730000D01*
X128615221Y-108710000D02*
X128940779Y-108710000D01*
X116080000Y-106842779D02*
X116080000Y-106517221D01*
X115060000Y-106842779D02*
X115060000Y-106517221D01*
X138592779Y-104900000D02*
X138267221Y-104900000D01*
X138592779Y-105920000D02*
X138267221Y-105920000D01*
X129956779Y-97411000D02*
X129631221Y-97411000D01*
X129956779Y-96391000D02*
X129631221Y-96391000D01*
X136650000Y-111922779D02*
X136650000Y-111597221D01*
X137670000Y-111922779D02*
X137670000Y-111597221D01*
X133512779Y-108460000D02*
X133187221Y-108460000D01*
X133512779Y-107440000D02*
X133187221Y-107440000D01*
X134110000Y-111597221D02*
X134110000Y-111922779D01*
X135130000Y-111597221D02*
X135130000Y-111922779D01*
X117858000Y-112893221D02*
X117858000Y-113218779D01*
X116838000Y-112893221D02*
X116838000Y-113218779D01*
X122430000Y-112867221D02*
X122430000Y-113192779D01*
X121410000Y-112867221D02*
X121410000Y-113192779D01*
X126431221Y-97411000D02*
X126756779Y-97411000D01*
X126431221Y-96391000D02*
X126756779Y-96391000D01*
X118100000Y-96970000D02*
X118100000Y-109570000D01*
X123200000Y-109570000D02*
X123200000Y-96970000D01*
X118100000Y-109570000D02*
X123200000Y-109570000D01*
X125093000Y-107406221D02*
X125093000Y-107731779D01*
X126113000Y-107406221D02*
X126113000Y-107731779D01*
M02*
