M48
INCH,TZ
T1C0.0157
T2C0.0394
%
G90
G05
T1
X44000Y-37500
X44000Y-38500
X44000Y-39500
X44000Y-40500
X44000Y-41500
X44000Y-42500
X44000Y-43500
X44000Y-44500
X45500Y-36000
X46500Y-36000
X46535Y-45156
X47500Y-36000
X48500Y-36000
X48543Y-45197
X48701Y-40000
X48780Y-40984
X48898Y-41380
X48937Y-38150
X48957Y-39701
X49000Y-39200
X49500Y-36000
X49567Y-38573
X49803Y-44449
X49921Y-37402
X50059Y-39587
X50098Y-40394
X50315Y-43465
X50500Y-36000
X50512Y-40000
X50906Y-40394
X50925Y-39567
X51024Y-43583
X51181Y-41407
X51500Y-36000
X51890Y-44961
X51969Y-39321
X52126Y-40984
X52165Y-41969
X52500Y-36000
X52521Y-39844
X52598Y-40276
X52992Y-43189
X53346Y-39882
X53500Y-36000
X54000Y-43213
X54500Y-36000
X55315Y-41929
X55500Y-36000
X56220Y-40551
X57000Y-37500
X57000Y-38500
X57000Y-39500
X57000Y-40500
X57000Y-41500
X57000Y-42500
X57000Y-43500
X57000Y-44500
T2
X46000Y-46000
X47000Y-46000
X48000Y-46000
X49000Y-46000
X50000Y-46000
X51000Y-46000
X52000Y-46000
X53000Y-46000
X54000Y-46000
X55000Y-46000
T0
M30
