G04 #@! TF.GenerationSoftware,KiCad,Pcbnew,(5.99.0-8018-g9a0f685a75)*
G04 #@! TF.CreationDate,2021-01-11T06:07:01+10:30*
G04 #@! TF.ProjectId,MCP39F511_Breakout,4d435033-3946-4353-9131-5f427265616b,rev?*
G04 #@! TF.SameCoordinates,Original*
G04 #@! TF.FileFunction,Soldermask,Top*
G04 #@! TF.FilePolarity,Negative*
%FSLAX46Y46*%
G04 Gerber Fmt 4.6, Leading zero omitted, Abs format (unit mm)*
G04 Created by KiCad (PCBNEW (5.99.0-8018-g9a0f685a75)) date 2021-01-11 06:07:01*
%MOMM*%
%LPD*%
G01*
G04 APERTURE LIST*
G04 Aperture macros list*
%AMRoundRect*
0 Rectangle with rounded corners*
0 $1 Rounding radius*
0 $2 $3 $4 $5 $6 $7 $8 $9 X,Y pos of 4 corners*
0 Add a 4 corners polygon primitive as box body*
4,1,4,$2,$3,$4,$5,$6,$7,$8,$9,$2,$3,0*
0 Add four circle primitives for the rounded corners*
1,1,$1+$1,$2,$3,0*
1,1,$1+$1,$4,$5,0*
1,1,$1+$1,$6,$7,0*
1,1,$1+$1,$8,$9,0*
0 Add four rect primitives between the rounded corners*
20,1,$1+$1,$2,$3,$4,$5,0*
20,1,$1+$1,$4,$5,$6,$7,0*
20,1,$1+$1,$6,$7,$8,$9,0*
20,1,$1+$1,$8,$9,$2,$3,0*%
G04 Aperture macros list end*
%ADD10R,0.810000X0.260000*%
%ADD11R,0.260000X0.810000*%
%ADD12R,3.250000X3.250000*%
%ADD13RoundRect,0.218750X-0.218750X-0.256250X0.218750X-0.256250X0.218750X0.256250X-0.218750X0.256250X0*%
%ADD14RoundRect,0.218750X0.218750X0.256250X-0.218750X0.256250X-0.218750X-0.256250X0.218750X-0.256250X0*%
%ADD15R,0.900000X0.800000*%
%ADD16R,1.700000X1.700000*%
%ADD17O,1.700000X1.700000*%
%ADD18RoundRect,0.218750X-0.256250X0.218750X-0.256250X-0.218750X0.256250X-0.218750X0.256250X0.218750X0*%
%ADD19RoundRect,0.218750X0.256250X-0.218750X0.256250X0.218750X-0.256250X0.218750X-0.256250X-0.218750X0*%
%ADD20R,2.000000X4.500000*%
G04 APERTURE END LIST*
D10*
X125820000Y-100100000D03*
X125820000Y-100600000D03*
X125820000Y-101100000D03*
X125820000Y-101600000D03*
X125820000Y-102100000D03*
X125820000Y-102600000D03*
X125820000Y-103100000D03*
D11*
X126770000Y-104050000D03*
X127270000Y-104050000D03*
X127770000Y-104050000D03*
X128270000Y-104050000D03*
X128770000Y-104050000D03*
X129270000Y-104050000D03*
X129770000Y-104050000D03*
D10*
X130720000Y-103100000D03*
X130720000Y-102600000D03*
X130720000Y-102100000D03*
X130720000Y-101600000D03*
X130720000Y-101100000D03*
X130720000Y-100600000D03*
X130720000Y-100100000D03*
D11*
X129770000Y-99150000D03*
X129270000Y-99150000D03*
X128770000Y-99150000D03*
X128270000Y-99150000D03*
X127770000Y-99150000D03*
X127270000Y-99150000D03*
X126770000Y-99150000D03*
D12*
X128270000Y-101600000D03*
D13*
X128016500Y-106934000D03*
X129591500Y-106934000D03*
D14*
X134137500Y-105410000D03*
X132562500Y-105410000D03*
D15*
X133810746Y-97861806D03*
X133810746Y-99761806D03*
X135810746Y-98811806D03*
D16*
X116840000Y-116840000D03*
D17*
X119380000Y-116840000D03*
X121920000Y-116840000D03*
X124460000Y-116840000D03*
X127000000Y-116840000D03*
X129540000Y-116840000D03*
X132080000Y-116840000D03*
X134620000Y-116840000D03*
X137160000Y-116840000D03*
X139700000Y-116840000D03*
D18*
X115570000Y-98272500D03*
X115570000Y-99847500D03*
D19*
X124079000Y-113817500D03*
X124079000Y-112242500D03*
D18*
X119380000Y-112242500D03*
X119380000Y-113817500D03*
X142875000Y-106273500D03*
X142875000Y-107848500D03*
D13*
X137642500Y-107950000D03*
X139217500Y-107950000D03*
X127990500Y-109220000D03*
X129565500Y-109220000D03*
D19*
X115570000Y-107467500D03*
X115570000Y-105892500D03*
D14*
X139217500Y-105410000D03*
X137642500Y-105410000D03*
X130581500Y-96901000D03*
X129006500Y-96901000D03*
D19*
X137160000Y-112547500D03*
X137160000Y-110972500D03*
D14*
X134137500Y-107950000D03*
X132562500Y-107950000D03*
D18*
X134620000Y-110972500D03*
X134620000Y-112547500D03*
X117348000Y-112268500D03*
X117348000Y-113843500D03*
X121920000Y-112242500D03*
X121920000Y-113817500D03*
D13*
X125806500Y-96901000D03*
X127381500Y-96901000D03*
D20*
X120650000Y-107120000D03*
X120650000Y-98620000D03*
D18*
X125603000Y-106781500D03*
X125603000Y-108356500D03*
M02*
