M48
INCH,TZ
T1C0.0157
T2C0.0394
%
G90
G05
T1
X44000Y-37500
X44000Y-38500
X44000Y-39500
X44000Y-40500
X44000Y-41500
X44000Y-42500
X44000Y-43500
X44000Y-44500
X45500Y-36000
X46500Y-36000
X47500Y-36000
X47505Y-44190
X48379Y-43889
X48500Y-36000
X48623Y-40108
X48727Y-39647
X49000Y-39931
X49000Y-42040
X49140Y-39319
X49500Y-36000
X49871Y-38526
X50500Y-36000
X50681Y-42629
X50717Y-37697
X51013Y-41435
X51290Y-43435
X51500Y-36000
X51544Y-38639
X51596Y-43149
X52150Y-40900
X52490Y-39728
X52500Y-36000
X52572Y-40169
X53500Y-36000
X54500Y-36000
X54984Y-42926
X55500Y-36000
X57000Y-37500
X57000Y-38500
X57000Y-39500
X57000Y-40500
X57000Y-41500
X57000Y-42500
X57000Y-43500
X57000Y-44500
T2
X46000Y-46000
X47000Y-46000
X48000Y-46000
X49000Y-46000
X50000Y-46000
X51000Y-46000
X52000Y-46000
X53000Y-46000
X54000Y-46000
X55000Y-46000
T0
M30
