G04 #@! TF.GenerationSoftware,KiCad,Pcbnew,(5.99.0-6951-g72beaf1538)*
G04 #@! TF.CreationDate,2020-11-15T14:58:15+11:00*
G04 #@! TF.ProjectId,MCP39F511_Breakout,4d435033-3946-4353-9131-5f427265616b,rev?*
G04 #@! TF.SameCoordinates,Original*
G04 #@! TF.FileFunction,Copper,L1,Top*
G04 #@! TF.FilePolarity,Positive*
%FSLAX46Y46*%
G04 Gerber Fmt 4.6, Leading zero omitted, Abs format (unit mm)*
G04 Created by KiCad (PCBNEW (5.99.0-6951-g72beaf1538)) date 2020-11-15 14:58:15*
%MOMM*%
%LPD*%
G01*
G04 APERTURE LIST*
G04 Aperture macros list*
%AMRoundRect*
0 Rectangle with rounded corners*
0 $1 Rounding radius*
0 $2 $3 $4 $5 $6 $7 $8 $9 X,Y pos of 4 corners*
0 Add a 4 corners polygon primitive as box body*
4,1,4,$2,$3,$4,$5,$6,$7,$8,$9,$2,$3,0*
0 Add four circle primitives for the rounded corners*
1,1,$1+$1,$2,$3,0*
1,1,$1+$1,$4,$5,0*
1,1,$1+$1,$6,$7,0*
1,1,$1+$1,$8,$9,0*
0 Add four rect primitives between the rounded corners*
20,1,$1+$1,$2,$3,$4,$5,0*
20,1,$1+$1,$4,$5,$6,$7,0*
20,1,$1+$1,$6,$7,$8,$9,0*
20,1,$1+$1,$8,$9,$2,$3,0*%
G04 Aperture macros list end*
G04 #@! TA.AperFunction,SMDPad,CuDef*
%ADD10R,0.810000X0.260000*%
G04 #@! TD*
G04 #@! TA.AperFunction,SMDPad,CuDef*
%ADD11R,0.260000X0.810000*%
G04 #@! TD*
G04 #@! TA.AperFunction,SMDPad,CuDef*
%ADD12R,3.250000X3.250000*%
G04 #@! TD*
G04 #@! TA.AperFunction,SMDPad,CuDef*
%ADD13RoundRect,0.218750X-0.218750X-0.256250X0.218750X-0.256250X0.218750X0.256250X-0.218750X0.256250X0*%
G04 #@! TD*
G04 #@! TA.AperFunction,SMDPad,CuDef*
%ADD14RoundRect,0.218750X0.218750X0.256250X-0.218750X0.256250X-0.218750X-0.256250X0.218750X-0.256250X0*%
G04 #@! TD*
G04 #@! TA.AperFunction,SMDPad,CuDef*
%ADD15R,0.900000X0.800000*%
G04 #@! TD*
G04 #@! TA.AperFunction,ComponentPad*
%ADD16R,1.700000X1.700000*%
G04 #@! TD*
G04 #@! TA.AperFunction,ComponentPad*
%ADD17O,1.700000X1.700000*%
G04 #@! TD*
G04 #@! TA.AperFunction,SMDPad,CuDef*
%ADD18RoundRect,0.218750X-0.256250X0.218750X-0.256250X-0.218750X0.256250X-0.218750X0.256250X0.218750X0*%
G04 #@! TD*
G04 #@! TA.AperFunction,SMDPad,CuDef*
%ADD19RoundRect,0.218750X0.256250X-0.218750X0.256250X0.218750X-0.256250X0.218750X-0.256250X-0.218750X0*%
G04 #@! TD*
G04 #@! TA.AperFunction,SMDPad,CuDef*
%ADD20R,2.000000X4.500000*%
G04 #@! TD*
G04 #@! TA.AperFunction,ViaPad*
%ADD21C,0.800000*%
G04 #@! TD*
G04 #@! TA.AperFunction,Conductor*
%ADD22C,0.250000*%
G04 #@! TD*
G04 APERTURE END LIST*
D10*
X125820000Y-100100000D03*
X125820000Y-100600000D03*
X125820000Y-101100000D03*
X125820000Y-101600000D03*
X125820000Y-102100000D03*
X125820000Y-102600000D03*
X125820000Y-103100000D03*
D11*
X126770000Y-104050000D03*
X127270000Y-104050000D03*
X127770000Y-104050000D03*
X128270000Y-104050000D03*
X128770000Y-104050000D03*
X129270000Y-104050000D03*
X129770000Y-104050000D03*
D10*
X130720000Y-103100000D03*
X130720000Y-102600000D03*
X130720000Y-102100000D03*
X130720000Y-101600000D03*
X130720000Y-101100000D03*
X130720000Y-100600000D03*
X130720000Y-100100000D03*
D11*
X129770000Y-99150000D03*
X129270000Y-99150000D03*
X128770000Y-99150000D03*
X128270000Y-99150000D03*
X127770000Y-99150000D03*
X127270000Y-99150000D03*
X126770000Y-99150000D03*
D12*
X128270000Y-101600000D03*
D13*
X128016500Y-106934000D03*
X129591500Y-106934000D03*
D14*
X134137500Y-105410000D03*
X132562500Y-105410000D03*
D15*
X133810746Y-97861806D03*
X133810746Y-99761806D03*
X135810746Y-98811806D03*
D16*
X116840000Y-116840000D03*
D17*
X119380000Y-116840000D03*
X121920000Y-116840000D03*
X124460000Y-116840000D03*
X127000000Y-116840000D03*
X129540000Y-116840000D03*
X132080000Y-116840000D03*
X134620000Y-116840000D03*
X137160000Y-116840000D03*
X139700000Y-116840000D03*
D18*
X115570000Y-98272500D03*
X115570000Y-99847500D03*
D19*
X124079000Y-113817500D03*
X124079000Y-112242500D03*
D18*
X119380000Y-112242500D03*
X119380000Y-113817500D03*
D13*
X137642500Y-107950000D03*
X139217500Y-107950000D03*
X127990500Y-109220000D03*
X129565500Y-109220000D03*
D19*
X115570000Y-107467500D03*
X115570000Y-105892500D03*
D14*
X139217500Y-105410000D03*
X137642500Y-105410000D03*
X130581500Y-96901000D03*
X129006500Y-96901000D03*
D19*
X137160000Y-112547500D03*
X137160000Y-110972500D03*
D14*
X134137500Y-107950000D03*
X132562500Y-107950000D03*
D18*
X134620000Y-110972500D03*
X134620000Y-112547500D03*
X117348000Y-112268500D03*
X117348000Y-113843500D03*
X121920000Y-112242500D03*
X121920000Y-113817500D03*
D13*
X125806500Y-96901000D03*
X127381500Y-96901000D03*
D20*
X120650000Y-107120000D03*
X120650000Y-98620000D03*
D18*
X125603000Y-106781500D03*
X125603000Y-108356500D03*
D21*
X131053001Y-109599320D03*
X122883000Y-111478800D03*
X133325507Y-100909234D03*
X120661900Y-112242500D03*
X133533960Y-102028640D03*
X123767577Y-100703469D03*
X128729800Y-108278500D03*
X126671400Y-97856900D03*
X124814600Y-99871200D03*
X132461000Y-103886000D03*
X130921819Y-98143935D03*
X123502658Y-101874990D03*
X129572440Y-105246010D03*
X144780000Y-100330000D03*
X123190000Y-91440000D03*
X111760000Y-100330000D03*
X128270000Y-91440000D03*
X111760000Y-107950000D03*
X111760000Y-113030000D03*
X111760000Y-95250000D03*
X111760000Y-110490000D03*
X120650000Y-91440000D03*
X144780000Y-105410000D03*
X115570000Y-91440000D03*
X144780000Y-107950000D03*
X144780000Y-113030000D03*
X144780000Y-102870000D03*
X125730000Y-91440000D03*
X144780000Y-110490000D03*
X111760000Y-102870000D03*
X140970000Y-91440000D03*
X130810000Y-91440000D03*
X138430000Y-91440000D03*
X111760000Y-97790000D03*
X133350000Y-91440000D03*
X118110000Y-91440000D03*
X144780000Y-95250000D03*
X135890000Y-91440000D03*
X111760000Y-105410000D03*
X144780000Y-97790000D03*
X139660200Y-109030800D03*
X124459999Y-101424979D03*
X130276118Y-110324330D03*
X124460000Y-106781500D03*
X128821800Y-95750500D03*
D22*
X129770000Y-104050000D02*
X131053001Y-105333001D01*
X131053001Y-105333001D02*
X131053001Y-109599320D01*
X119380000Y-112242500D02*
X120143700Y-111478800D01*
X133134741Y-101100000D02*
X133325507Y-100909234D01*
X130720000Y-101100000D02*
X133134741Y-101100000D01*
X120143700Y-111478800D02*
X122883000Y-111478800D01*
X117348000Y-112268500D02*
X119354000Y-112268500D01*
X119354000Y-112268500D02*
X119380000Y-112242500D01*
X125820000Y-102600000D02*
X123140651Y-102600000D01*
X123140651Y-102600000D02*
X120650000Y-100109349D01*
X115917500Y-98620000D02*
X120650000Y-98620000D01*
X120650000Y-100109349D02*
X120650000Y-98620000D01*
X115570000Y-98272500D02*
X115917500Y-98620000D01*
X124079000Y-112242500D02*
X121920000Y-112242500D01*
X121920000Y-112242500D02*
X120661900Y-112242500D01*
X133105320Y-101600000D02*
X133533960Y-102028640D01*
X130720000Y-101600000D02*
X133105320Y-101600000D01*
X125820000Y-103100000D02*
X121800000Y-107120000D01*
X115570000Y-107467500D02*
X115917500Y-107120000D01*
X115917500Y-107120000D02*
X120650000Y-107120000D01*
X121800000Y-107120000D02*
X120650000Y-107120000D01*
X130581500Y-96901000D02*
X130376524Y-96901000D01*
X129270000Y-98007524D02*
X129270000Y-99150000D01*
X130376524Y-96901000D02*
X129270000Y-98007524D01*
X132319411Y-102600000D02*
X134137500Y-104418089D01*
X134137500Y-104418089D02*
X134137500Y-105410000D01*
X130720000Y-102600000D02*
X132319411Y-102600000D01*
X134137500Y-107950000D02*
X134137500Y-105410000D01*
X130720000Y-102100000D02*
X132455822Y-102100000D01*
X137642500Y-105410000D02*
X137642500Y-107950000D01*
X135765822Y-105410000D02*
X137642500Y-105410000D01*
X132455822Y-102100000D02*
X135765822Y-105410000D01*
X133810746Y-99761806D02*
X133438700Y-99761806D01*
X132600506Y-100600000D02*
X130720000Y-100600000D01*
X133438700Y-99761806D02*
X132600506Y-100600000D01*
X128270000Y-104704565D02*
X128016500Y-104958065D01*
X128016500Y-107565200D02*
X128729800Y-108278500D01*
X123767577Y-98939923D02*
X123767577Y-100703469D01*
X127990500Y-109017800D02*
X127990500Y-109220000D01*
X128016500Y-106934000D02*
X128016500Y-107565200D01*
X125806500Y-96901000D02*
X123767577Y-98939923D01*
X128270000Y-104050000D02*
X128270000Y-104704565D01*
X128729800Y-108278500D02*
X127990500Y-109017800D01*
X128016500Y-104958065D02*
X128016500Y-106934000D01*
X127770000Y-98419700D02*
X127207200Y-97856900D01*
X127770000Y-99150000D02*
X127770000Y-98419700D01*
X127207200Y-97856900D02*
X126671400Y-97856900D01*
X125089700Y-100100000D02*
X124860900Y-99871200D01*
X125820000Y-100100000D02*
X125089700Y-100100000D01*
X124860900Y-99871200D02*
X124814600Y-99871200D01*
X131675000Y-103100000D02*
X132461000Y-103886000D01*
X130720000Y-103100000D02*
X131675000Y-103100000D01*
X129770000Y-98143935D02*
X130921819Y-98143935D01*
X129770000Y-99150000D02*
X129770000Y-98143935D01*
X129270000Y-104050000D02*
X129270000Y-104943570D01*
X124983013Y-102149989D02*
X123777657Y-102149989D01*
X129270000Y-104943570D02*
X129572440Y-105246010D01*
X125033002Y-102100000D02*
X124983013Y-102149989D01*
X123777657Y-102149989D02*
X123502658Y-101874990D01*
X125820000Y-102100000D02*
X125033002Y-102100000D01*
X129006500Y-96901000D02*
X129823500Y-96084000D01*
X117348000Y-113843500D02*
X118161500Y-113030000D01*
X131646821Y-99040779D02*
X131627600Y-99060000D01*
X127077100Y-108496700D02*
X127077100Y-109614200D01*
X129379900Y-100490100D02*
X129770000Y-100100000D01*
X132562500Y-106680000D02*
X133350000Y-107467500D01*
X126149400Y-107569000D02*
X127077100Y-108496700D01*
X128770000Y-99767700D02*
X128770000Y-99880300D01*
X129823500Y-96084000D02*
X131011100Y-96084000D01*
X133350000Y-109702500D02*
X134620000Y-110972500D01*
X121790000Y-109695400D02*
X123916400Y-107569000D01*
X128721000Y-110064500D02*
X129565500Y-109220000D01*
X131778021Y-109927496D02*
X131778021Y-107486779D01*
X123917000Y-113655500D02*
X124079000Y-113817500D01*
X118161500Y-113030000D02*
X123291500Y-113030000D01*
X115570000Y-105892500D02*
X114733600Y-106728900D01*
X127270000Y-99515100D02*
X127270000Y-99150000D01*
X128770000Y-99880300D02*
X129379900Y-100490100D01*
X115570000Y-105892500D02*
X115570000Y-99847500D01*
X127077100Y-109614200D02*
X127527400Y-110064500D01*
X135700700Y-97518300D02*
X133192900Y-95010500D01*
X114727100Y-99004600D02*
X115570000Y-99847500D01*
X128050017Y-113655500D02*
X131778021Y-109927496D01*
X132116000Y-107148800D02*
X132548800Y-106680000D01*
X131881600Y-98806000D02*
X135446700Y-98806000D01*
X123917000Y-113655500D02*
X128050017Y-113655500D01*
X135700700Y-98921852D02*
X135810746Y-98811806D01*
X127527400Y-110064500D02*
X128721000Y-110064500D01*
X114733600Y-107887600D02*
X116541400Y-109695400D01*
X131450300Y-100100000D02*
X131450300Y-99237300D01*
X133350000Y-107467500D02*
X133350000Y-109702500D01*
X123916400Y-107569000D02*
X126149400Y-107569000D01*
X129770000Y-100100000D02*
X130720000Y-100100000D01*
X128770000Y-99150000D02*
X128770000Y-99767700D01*
X130720000Y-100100000D02*
X131450300Y-100100000D01*
X114733600Y-106728900D02*
X114733600Y-107887600D01*
X135700700Y-99060000D02*
X135700700Y-98921852D01*
X129565500Y-109220000D02*
X129591500Y-109194000D01*
X127270000Y-99880300D02*
X128770000Y-99880300D01*
X114727100Y-97830700D02*
X114727100Y-99004600D01*
X135700700Y-99060000D02*
X135700700Y-97518300D01*
X138430000Y-110972500D02*
X138430000Y-106197500D01*
X131011100Y-96084000D02*
X131646821Y-96719721D01*
X138430000Y-106197500D02*
X139217500Y-105410000D01*
X129591500Y-109194000D02*
X129591500Y-106934000D01*
X132548800Y-106680000D02*
X132562500Y-105410000D01*
X128270000Y-101600000D02*
X129379900Y-100490100D01*
X139700000Y-112242500D02*
X138430000Y-110972500D01*
X131450300Y-99237300D02*
X131627600Y-99060000D01*
X116541400Y-109695400D02*
X121790000Y-109695400D01*
X131778021Y-107486779D02*
X132116000Y-107148800D01*
X137160000Y-110972500D02*
X138430000Y-110972500D01*
X139700000Y-116840000D02*
X139700000Y-112242500D01*
X135446700Y-98806000D02*
X135700700Y-99060000D01*
X131646821Y-96719721D02*
X131646821Y-99040779D01*
X133192900Y-95010500D02*
X117547300Y-95010500D01*
X131627600Y-99060000D02*
X131881600Y-98806000D01*
X134620000Y-110972500D02*
X137160000Y-110972500D01*
X123291500Y-113030000D02*
X123917000Y-113655500D01*
X127270000Y-99515100D02*
X127270000Y-99880300D01*
X117547300Y-95010500D02*
X114727100Y-97830700D01*
X139217500Y-108588100D02*
X139660200Y-109030800D01*
X139217500Y-107950000D02*
X139217500Y-108588100D01*
X137160000Y-116840000D02*
X137160000Y-112547500D01*
X134620000Y-112547500D02*
X134620000Y-116840000D01*
X132562500Y-110490000D02*
X134620000Y-112547500D01*
X132562500Y-107950000D02*
X132562500Y-110490000D01*
X125820000Y-101600000D02*
X124635020Y-101600000D01*
X124635020Y-101600000D02*
X124459999Y-101424979D01*
X128770000Y-104050000D02*
X128770000Y-104840975D01*
X130328000Y-109251319D02*
X130328000Y-110272448D01*
X130354010Y-106452516D02*
X130354010Y-109225309D01*
X130328000Y-110272448D02*
X130276118Y-110324330D01*
X128472536Y-105138439D02*
X128472536Y-106133990D01*
X130354010Y-109225309D02*
X130328000Y-109251319D01*
X130035484Y-106133990D02*
X130354010Y-106452516D01*
X128472536Y-106133990D02*
X130035484Y-106133990D01*
X128770000Y-104840975D02*
X128472536Y-105138439D01*
X127770000Y-104050000D02*
X127770000Y-104568154D01*
X125603000Y-106735154D02*
X125603000Y-106781500D01*
X125603000Y-106781500D02*
X124460000Y-106781500D01*
X127770000Y-104568154D02*
X125603000Y-106735154D01*
X121920000Y-113817500D02*
X121920000Y-116840000D01*
X119380000Y-113817500D02*
X119380000Y-116840000D01*
X122294100Y-111028500D02*
X119478900Y-111028500D01*
X133827800Y-96959400D02*
X132952300Y-96083900D01*
X119478900Y-111028500D02*
X119215200Y-111292200D01*
X128270000Y-97789500D02*
X127381500Y-96901000D01*
X132146700Y-96083900D02*
X131696400Y-95633600D01*
X128270000Y-99150000D02*
X128270000Y-97789500D01*
X133827800Y-97844752D02*
X133827800Y-96959400D01*
X116483200Y-111885400D02*
X116483200Y-115307900D01*
X122850900Y-110471700D02*
X122294100Y-111028500D01*
X132952300Y-96083900D02*
X132146700Y-96083900D01*
X128532000Y-95750500D02*
X127381500Y-96901000D01*
X125603000Y-108356500D02*
X124024900Y-109934600D01*
X116483200Y-115307900D02*
X116840000Y-115664700D01*
X128821800Y-95750500D02*
X128532000Y-95750500D01*
X124024900Y-109934600D02*
X123519500Y-109934600D01*
X116840000Y-116840000D02*
X116840000Y-115664700D01*
X116889800Y-111478800D02*
X116483200Y-111885400D01*
X119215200Y-111478800D02*
X116889800Y-111478800D01*
X133810746Y-97861806D02*
X133827800Y-97844752D01*
X123519500Y-109934600D02*
X123094600Y-110359500D01*
X123094600Y-110471700D02*
X122850900Y-110471700D01*
X131696400Y-95633600D02*
X128938700Y-95633600D01*
X123094600Y-110359500D02*
X123094600Y-110471700D01*
X119215200Y-111292200D02*
X119215200Y-111478800D01*
X128938700Y-95633600D02*
X128821800Y-95750500D01*
G04 #@! TA.AperFunction,Conductor*
G36*
X143449160Y-90679782D02*
G01*
X143453413Y-90680505D01*
X143517218Y-90711641D01*
X143554061Y-90772329D01*
X143552244Y-90843303D01*
X143512345Y-90902027D01*
X143447031Y-90929858D01*
X143430647Y-90930712D01*
X143405828Y-90930387D01*
X143405825Y-90930387D01*
X143401150Y-90930326D01*
X143139293Y-90965963D01*
X143134807Y-90967271D01*
X143134805Y-90967271D01*
X143099069Y-90977687D01*
X142885580Y-91039913D01*
X142645584Y-91150553D01*
X142641675Y-91153116D01*
X142428491Y-91292885D01*
X142428486Y-91292889D01*
X142424578Y-91295451D01*
X142421086Y-91298568D01*
X142241399Y-91458945D01*
X142227417Y-91471424D01*
X142196090Y-91509091D01*
X142070126Y-91660547D01*
X142058432Y-91674607D01*
X141921335Y-91900535D01*
X141919526Y-91904849D01*
X141919524Y-91904853D01*
X141898445Y-91955122D01*
X141819139Y-92144246D01*
X141754088Y-92400385D01*
X141727611Y-92663327D01*
X141727835Y-92667993D01*
X141727835Y-92667998D01*
X141732046Y-92755649D01*
X141733832Y-92792836D01*
X141740290Y-92927293D01*
X141791847Y-93186486D01*
X141881148Y-93435211D01*
X142006233Y-93668005D01*
X142009028Y-93671748D01*
X142009030Y-93671751D01*
X142161561Y-93876015D01*
X142161566Y-93876021D01*
X142164353Y-93879753D01*
X142167662Y-93883033D01*
X142167667Y-93883039D01*
X142348717Y-94062516D01*
X142352034Y-94065804D01*
X142355796Y-94068562D01*
X142355799Y-94068565D01*
X142466111Y-94149449D01*
X142565154Y-94222070D01*
X142569297Y-94224250D01*
X142569299Y-94224251D01*
X142794880Y-94342935D01*
X142794885Y-94342937D01*
X142799030Y-94345118D01*
X142803453Y-94346663D01*
X142803454Y-94346663D01*
X142944333Y-94395860D01*
X143048526Y-94432246D01*
X143053119Y-94433118D01*
X143303570Y-94480668D01*
X143303573Y-94480668D01*
X143308159Y-94481539D01*
X143433654Y-94486470D01*
X143567558Y-94491731D01*
X143567563Y-94491731D01*
X143572226Y-94491914D01*
X143674914Y-94480668D01*
X143830273Y-94463654D01*
X143830279Y-94463653D01*
X143834926Y-94463144D01*
X143839450Y-94461953D01*
X144085965Y-94397051D01*
X144085967Y-94397050D01*
X144090488Y-94395860D01*
X144204997Y-94346663D01*
X144329004Y-94293385D01*
X144329006Y-94293384D01*
X144333298Y-94291540D01*
X144558021Y-94152477D01*
X144759721Y-93981726D01*
X144933967Y-93783036D01*
X145076931Y-93560774D01*
X145185472Y-93319822D01*
X145224368Y-93181909D01*
X145255936Y-93069977D01*
X145255937Y-93069974D01*
X145257206Y-93065473D01*
X145259367Y-93048486D01*
X145290158Y-92806446D01*
X145290158Y-92806440D01*
X145290556Y-92803315D01*
X145290559Y-92803203D01*
X145315506Y-92737313D01*
X145372552Y-92695048D01*
X145443392Y-92690333D01*
X145505535Y-92724666D01*
X145539251Y-92787146D01*
X145542000Y-92813320D01*
X145542001Y-115488037D01*
X145540219Y-115509151D01*
X145538310Y-115520382D01*
X145507176Y-115584188D01*
X145446488Y-115621032D01*
X145375515Y-115619217D01*
X145316789Y-115579319D01*
X145288439Y-115508606D01*
X145273763Y-115311122D01*
X145273761Y-115311105D01*
X145273415Y-115306456D01*
X145215091Y-115048701D01*
X145203964Y-115020088D01*
X145121003Y-114806752D01*
X145121002Y-114806749D01*
X145119310Y-114802399D01*
X144988174Y-114572959D01*
X144905632Y-114468255D01*
X144827457Y-114369091D01*
X144827454Y-114369088D01*
X144824565Y-114365423D01*
X144632078Y-114184349D01*
X144469402Y-114071496D01*
X144418783Y-114036380D01*
X144418780Y-114036378D01*
X144414941Y-114033715D01*
X144410748Y-114031647D01*
X144182112Y-113918896D01*
X144182109Y-113918895D01*
X144177924Y-113916831D01*
X144131199Y-113901874D01*
X143930678Y-113837687D01*
X143930680Y-113837687D01*
X143926233Y-113836264D01*
X143783236Y-113812976D01*
X143670011Y-113794536D01*
X143670010Y-113794536D01*
X143665399Y-113793785D01*
X143533275Y-113792056D01*
X143405827Y-113790387D01*
X143405824Y-113790387D01*
X143401150Y-113790326D01*
X143139293Y-113825963D01*
X143134807Y-113827271D01*
X143134805Y-113827271D01*
X143099069Y-113837687D01*
X142885580Y-113899913D01*
X142645584Y-114010553D01*
X142641675Y-114013116D01*
X142428491Y-114152885D01*
X142428486Y-114152889D01*
X142424578Y-114155451D01*
X142342662Y-114228564D01*
X142238841Y-114321228D01*
X142227417Y-114331424D01*
X142058432Y-114534607D01*
X142056009Y-114538600D01*
X141924960Y-114754562D01*
X141921335Y-114760535D01*
X141919526Y-114764849D01*
X141919524Y-114764853D01*
X141898445Y-114815122D01*
X141819139Y-115004246D01*
X141754088Y-115260385D01*
X141727611Y-115523327D01*
X141727835Y-115527993D01*
X141727835Y-115527998D01*
X141731793Y-115610398D01*
X141733832Y-115652836D01*
X141740290Y-115787293D01*
X141791847Y-116046486D01*
X141881148Y-116295211D01*
X142006233Y-116528005D01*
X142009028Y-116531748D01*
X142009030Y-116531751D01*
X142161561Y-116736015D01*
X142161566Y-116736021D01*
X142164353Y-116739753D01*
X142167662Y-116743033D01*
X142167667Y-116743039D01*
X142348717Y-116922516D01*
X142352034Y-116925804D01*
X142355796Y-116928562D01*
X142355799Y-116928565D01*
X142459239Y-117004410D01*
X142565154Y-117082070D01*
X142569297Y-117084250D01*
X142569299Y-117084251D01*
X142794880Y-117202935D01*
X142794885Y-117202937D01*
X142799030Y-117205118D01*
X142803453Y-117206663D01*
X142803454Y-117206663D01*
X142944333Y-117255860D01*
X143048526Y-117292246D01*
X143053119Y-117293118D01*
X143303570Y-117340668D01*
X143303573Y-117340668D01*
X143308159Y-117341539D01*
X143452916Y-117347226D01*
X143520198Y-117369887D01*
X143564549Y-117425326D01*
X143571886Y-117495943D01*
X143539881Y-117559316D01*
X143478694Y-117595325D01*
X143467569Y-117597595D01*
X143449337Y-117600466D01*
X143429737Y-117602000D01*
X141040938Y-117602000D01*
X140972817Y-117581998D01*
X140926324Y-117528342D01*
X140916220Y-117458068D01*
X140927071Y-117422054D01*
X140974399Y-117322156D01*
X140978123Y-117312197D01*
X141035968Y-117105718D01*
X141034430Y-117097351D01*
X141022137Y-117094000D01*
X139954002Y-117093999D01*
X139953996Y-117094000D01*
X139572000Y-117093999D01*
X139503879Y-117073997D01*
X139457386Y-117020341D01*
X139446000Y-116967999D01*
X139446000Y-116567885D01*
X139953999Y-116567885D01*
X139958474Y-116583124D01*
X139959864Y-116584329D01*
X139967547Y-116586000D01*
X141019079Y-116586001D01*
X141032610Y-116582028D01*
X141033876Y-116573219D01*
X140986954Y-116392433D01*
X140983419Y-116382395D01*
X140893147Y-116181998D01*
X140887967Y-116172692D01*
X140765218Y-115990366D01*
X140758557Y-115982080D01*
X140606830Y-115823030D01*
X140598873Y-115815990D01*
X140422523Y-115684782D01*
X140413486Y-115679178D01*
X140217550Y-115579559D01*
X140207699Y-115575559D01*
X139997778Y-115510378D01*
X139987396Y-115508095D01*
X139971959Y-115506049D01*
X139957792Y-115508246D01*
X139954000Y-115521430D01*
X139953999Y-116567885D01*
X139446000Y-116567885D01*
X139446001Y-115523716D01*
X139442028Y-115510185D01*
X139431421Y-115508660D01*
X139313555Y-115533391D01*
X139303358Y-115536451D01*
X139098932Y-115617182D01*
X139089396Y-115621916D01*
X138901486Y-115735942D01*
X138892896Y-115742206D01*
X138726884Y-115886264D01*
X138719464Y-115893895D01*
X138580100Y-116063860D01*
X138574079Y-116072622D01*
X138540427Y-116131739D01*
X138489344Y-116181045D01*
X138419714Y-116194906D01*
X138353643Y-116168922D01*
X138326405Y-116139773D01*
X138260519Y-116041909D01*
X138222627Y-115985626D01*
X138160820Y-115920835D01*
X138127507Y-115885915D01*
X138063482Y-115818799D01*
X137878504Y-115681171D01*
X137873747Y-115678752D01*
X137873743Y-115678750D01*
X137862394Y-115672980D01*
X137810737Y-115624276D01*
X137793500Y-115560664D01*
X137793500Y-113456677D01*
X137813502Y-113388556D01*
X137850415Y-113351305D01*
X137885951Y-113328007D01*
X138002586Y-113204885D01*
X138087767Y-113058234D01*
X138136927Y-112895920D01*
X138148500Y-112766250D01*
X138148500Y-112328751D01*
X138128860Y-112160297D01*
X138086565Y-112043774D01*
X138073491Y-112007757D01*
X138070994Y-112000878D01*
X137978007Y-111859049D01*
X137972686Y-111854008D01*
X137967658Y-111849244D01*
X137931961Y-111787875D01*
X137935109Y-111716948D01*
X137962840Y-111671119D01*
X137997149Y-111634902D01*
X138005862Y-111623255D01*
X138083635Y-111489360D01*
X138089429Y-111476035D01*
X138134562Y-111327016D01*
X138137010Y-111314393D01*
X138143244Y-111244544D01*
X138140272Y-111229625D01*
X138128464Y-111226500D01*
X137414002Y-111226499D01*
X137413996Y-111226500D01*
X136194225Y-111226499D01*
X136180157Y-111230630D01*
X136178109Y-111243641D01*
X136190778Y-111352316D01*
X136194123Y-111366468D01*
X136246956Y-111512019D01*
X136253466Y-111525018D01*
X136338365Y-111654511D01*
X136347689Y-111665663D01*
X136352322Y-111670052D01*
X136388020Y-111731421D01*
X136384872Y-111802348D01*
X136357142Y-111848178D01*
X136317414Y-111890115D01*
X136232233Y-112036766D01*
X136183073Y-112199080D01*
X136171500Y-112328750D01*
X136171500Y-112766249D01*
X136191140Y-112934703D01*
X136193636Y-112941581D01*
X136193637Y-112941583D01*
X136238277Y-113064564D01*
X136249006Y-113094122D01*
X136341993Y-113235951D01*
X136465115Y-113352586D01*
X136471445Y-113356263D01*
X136475977Y-113359653D01*
X136518542Y-113416475D01*
X136526501Y-113460546D01*
X136526500Y-115564302D01*
X136506498Y-115632423D01*
X136465867Y-115672020D01*
X136356631Y-115738306D01*
X136352601Y-115741803D01*
X136226406Y-115851309D01*
X136182492Y-115889415D01*
X136179109Y-115893541D01*
X136179105Y-115893545D01*
X136144545Y-115935695D01*
X136036304Y-116067705D01*
X136033667Y-116072338D01*
X136033666Y-116072339D01*
X136000116Y-116131278D01*
X135949033Y-116180584D01*
X135879402Y-116194445D01*
X135813332Y-116168461D01*
X135786094Y-116139312D01*
X135780686Y-116131278D01*
X135685818Y-115990366D01*
X135685607Y-115990052D01*
X135685605Y-115990050D01*
X135682627Y-115985626D01*
X135620820Y-115920835D01*
X135587507Y-115885915D01*
X135523482Y-115818799D01*
X135338504Y-115681171D01*
X135333747Y-115678752D01*
X135333743Y-115678750D01*
X135322394Y-115672980D01*
X135270737Y-115624276D01*
X135253500Y-115560664D01*
X135253500Y-113456677D01*
X135273502Y-113388556D01*
X135310415Y-113351305D01*
X135321575Y-113343988D01*
X135345950Y-113328007D01*
X135462585Y-113204885D01*
X135547766Y-113058234D01*
X135583347Y-112940756D01*
X135595051Y-112902112D01*
X135595052Y-112902109D01*
X135596926Y-112895920D01*
X135608500Y-112766250D01*
X135608500Y-112328751D01*
X135588860Y-112160297D01*
X135530994Y-112000879D01*
X135438007Y-111859050D01*
X135432695Y-111854017D01*
X135432690Y-111854012D01*
X135427657Y-111849244D01*
X135391960Y-111787875D01*
X135395108Y-111716948D01*
X135422839Y-111671119D01*
X135457148Y-111634902D01*
X135465861Y-111623255D01*
X135543634Y-111489360D01*
X135549428Y-111476035D01*
X135594561Y-111327017D01*
X135597009Y-111314392D01*
X135603243Y-111244546D01*
X135600272Y-111229625D01*
X135588462Y-111226500D01*
X134874002Y-111226499D01*
X134873996Y-111226500D01*
X134492000Y-111226499D01*
X134423879Y-111206497D01*
X134377386Y-111152841D01*
X134366000Y-111100499D01*
X134366000Y-110700385D01*
X134873999Y-110700385D01*
X134878474Y-110715624D01*
X134879864Y-110716829D01*
X134887547Y-110718500D01*
X135585775Y-110718501D01*
X135599843Y-110714370D01*
X135601891Y-110701359D01*
X135601786Y-110700456D01*
X136176756Y-110700456D01*
X136179728Y-110715375D01*
X136191536Y-110718500D01*
X136887885Y-110718501D01*
X136903124Y-110714026D01*
X136904329Y-110712636D01*
X136906000Y-110704953D01*
X136906000Y-110700385D01*
X137413999Y-110700385D01*
X137418474Y-110715624D01*
X137419864Y-110716829D01*
X137427547Y-110718500D01*
X138125775Y-110718501D01*
X138139843Y-110714370D01*
X138141891Y-110701359D01*
X138129222Y-110592684D01*
X138125877Y-110578532D01*
X138073044Y-110432981D01*
X138066534Y-110419982D01*
X137981635Y-110290489D01*
X137972311Y-110279337D01*
X137859902Y-110172851D01*
X137848255Y-110164138D01*
X137714360Y-110086365D01*
X137701035Y-110080571D01*
X137552016Y-110035438D01*
X137539393Y-110032990D01*
X137428417Y-110023086D01*
X137416876Y-110026475D01*
X137415671Y-110027865D01*
X137414000Y-110035548D01*
X137413999Y-110700385D01*
X136906000Y-110700385D01*
X136906001Y-110040115D01*
X136901526Y-110024876D01*
X136900136Y-110023671D01*
X136896395Y-110022858D01*
X136742684Y-110040778D01*
X136728532Y-110044123D01*
X136582981Y-110096956D01*
X136569982Y-110103466D01*
X136440489Y-110188365D01*
X136429337Y-110197689D01*
X136322851Y-110310098D01*
X136314138Y-110321745D01*
X136236365Y-110455640D01*
X136230571Y-110468965D01*
X136185438Y-110617984D01*
X136182990Y-110630607D01*
X136176756Y-110700456D01*
X135601786Y-110700456D01*
X135589222Y-110592682D01*
X135585878Y-110578535D01*
X135533043Y-110432979D01*
X135526535Y-110419984D01*
X135441635Y-110290490D01*
X135432311Y-110279338D01*
X135319902Y-110172852D01*
X135308255Y-110164139D01*
X135174360Y-110086366D01*
X135161035Y-110080572D01*
X135012017Y-110035439D01*
X134999392Y-110032991D01*
X134888417Y-110023086D01*
X134876876Y-110026475D01*
X134875671Y-110027865D01*
X134874000Y-110035548D01*
X134873999Y-110700385D01*
X134366000Y-110700385D01*
X134366001Y-110040115D01*
X134361526Y-110024876D01*
X134360136Y-110023671D01*
X134356395Y-110022858D01*
X134202682Y-110040778D01*
X134188535Y-110044122D01*
X134042979Y-110096957D01*
X134029984Y-110103465D01*
X133900490Y-110188365D01*
X133889338Y-110197689D01*
X133782852Y-110310098D01*
X133774139Y-110321745D01*
X133696366Y-110455640D01*
X133687650Y-110475685D01*
X133684546Y-110474335D01*
X133654039Y-110521198D01*
X133589287Y-110550312D01*
X133519073Y-110539797D01*
X133482991Y-110514587D01*
X133232905Y-110264501D01*
X133198879Y-110202189D01*
X133196000Y-110175406D01*
X133196000Y-108871736D01*
X133216002Y-108803615D01*
X133241176Y-108775074D01*
X133244825Y-108772022D01*
X133250950Y-108768007D01*
X133260415Y-108758015D01*
X133321783Y-108722319D01*
X133392710Y-108725468D01*
X133438537Y-108753198D01*
X133480115Y-108792585D01*
X133499105Y-108803615D01*
X133620433Y-108874088D01*
X133620436Y-108874089D01*
X133626766Y-108877766D01*
X133789080Y-108926927D01*
X133795516Y-108927501D01*
X133795519Y-108927502D01*
X133915957Y-108938251D01*
X133915963Y-108938251D01*
X133918750Y-108938500D01*
X134356249Y-108938500D01*
X134479105Y-108924176D01*
X134517431Y-108919708D01*
X134517432Y-108919708D01*
X134524703Y-108918860D01*
X134531580Y-108916364D01*
X134531583Y-108916363D01*
X134677242Y-108863491D01*
X134684121Y-108860994D01*
X134825950Y-108768007D01*
X134942585Y-108644885D01*
X135006921Y-108534122D01*
X135024088Y-108504567D01*
X135024089Y-108504564D01*
X135027766Y-108498234D01*
X135076927Y-108335920D01*
X135082252Y-108276263D01*
X135088251Y-108209043D01*
X135088251Y-108209037D01*
X135088500Y-108206250D01*
X135088500Y-107693751D01*
X135068860Y-107525297D01*
X135066363Y-107518416D01*
X135013491Y-107372758D01*
X135010994Y-107365879D01*
X134918007Y-107224050D01*
X134912694Y-107219017D01*
X134912691Y-107219013D01*
X134810347Y-107122061D01*
X134774649Y-107060692D01*
X134771000Y-107030589D01*
X134771000Y-106331736D01*
X134791002Y-106263615D01*
X134816178Y-106235073D01*
X134819830Y-106232019D01*
X134825950Y-106228007D01*
X134942585Y-106104885D01*
X135003598Y-105999843D01*
X135024088Y-105964567D01*
X135024089Y-105964564D01*
X135027766Y-105958234D01*
X135029948Y-105951030D01*
X135057330Y-105860624D01*
X135096220Y-105801226D01*
X135161049Y-105772283D01*
X135231234Y-105782983D01*
X135272535Y-105814924D01*
X135273849Y-105816995D01*
X135279627Y-105822421D01*
X135322684Y-105862854D01*
X135325526Y-105865609D01*
X135345855Y-105885938D01*
X135349275Y-105888590D01*
X135358298Y-105896297D01*
X135390521Y-105926557D01*
X135397465Y-105930374D01*
X135397470Y-105930378D01*
X135408272Y-105936316D01*
X135424799Y-105947172D01*
X135440799Y-105959583D01*
X135448073Y-105962731D01*
X135448075Y-105962732D01*
X135481374Y-105977142D01*
X135492020Y-105982357D01*
X135530774Y-106003662D01*
X135550403Y-106008702D01*
X135569093Y-106015101D01*
X135587686Y-106023147D01*
X135616893Y-106027773D01*
X135631350Y-106030063D01*
X135642971Y-106032470D01*
X135680040Y-106041987D01*
X135685797Y-106043465D01*
X135686353Y-106043500D01*
X135706275Y-106043500D01*
X135725984Y-106045051D01*
X135745766Y-106048184D01*
X135753658Y-106047438D01*
X135789404Y-106044059D01*
X135801262Y-106043500D01*
X136733323Y-106043500D01*
X136801444Y-106063502D01*
X136838695Y-106100415D01*
X136861993Y-106135950D01*
X136867305Y-106140982D01*
X136867309Y-106140987D01*
X136969653Y-106237939D01*
X137005351Y-106299308D01*
X137009000Y-106329411D01*
X137009001Y-106680552D01*
X137009001Y-107028262D01*
X136988999Y-107096383D01*
X136963824Y-107124925D01*
X136960173Y-107127978D01*
X136954049Y-107131993D01*
X136949014Y-107137308D01*
X136940023Y-107146799D01*
X136837414Y-107255115D01*
X136752233Y-107401766D01*
X136703073Y-107564080D01*
X136702498Y-107570520D01*
X136702498Y-107570521D01*
X136691845Y-107689890D01*
X136691500Y-107693750D01*
X136691500Y-108206250D01*
X136697585Y-108258443D01*
X136707340Y-108342107D01*
X136711140Y-108374704D01*
X136713636Y-108381581D01*
X136713637Y-108381584D01*
X136723045Y-108407502D01*
X136769006Y-108534122D01*
X136861993Y-108675951D01*
X136985115Y-108792586D01*
X137131766Y-108877767D01*
X137294080Y-108926927D01*
X137300520Y-108927502D01*
X137300521Y-108927502D01*
X137420957Y-108938251D01*
X137420963Y-108938251D01*
X137423750Y-108938500D01*
X137861250Y-108938500D01*
X137984106Y-108924176D01*
X138022432Y-108919708D01*
X138022433Y-108919708D01*
X138029704Y-108918860D01*
X138036581Y-108916364D01*
X138036584Y-108916363D01*
X138182243Y-108863491D01*
X138189122Y-108860994D01*
X138330951Y-108768007D01*
X138340413Y-108758018D01*
X138401783Y-108722321D01*
X138472710Y-108725469D01*
X138518537Y-108753199D01*
X138560115Y-108792586D01*
X138596219Y-108813557D01*
X138641426Y-108858439D01*
X138641863Y-108859179D01*
X138650520Y-108876864D01*
X138657978Y-108895700D01*
X138683978Y-108931485D01*
X138690483Y-108941389D01*
X138712987Y-108979441D01*
X138713355Y-108979859D01*
X138715624Y-108982128D01*
X138715801Y-108982372D01*
X138715854Y-108982428D01*
X138715881Y-108982482D01*
X138720380Y-108988679D01*
X138719381Y-108989404D01*
X138747891Y-109045785D01*
X138749295Y-109055490D01*
X138761467Y-109171295D01*
X138766662Y-109220727D01*
X138768702Y-109227005D01*
X138768702Y-109227006D01*
X138792777Y-109301100D01*
X138825676Y-109402354D01*
X138828979Y-109408076D01*
X138828980Y-109408077D01*
X138841688Y-109430087D01*
X138921163Y-109567742D01*
X138925581Y-109572649D01*
X138925582Y-109572650D01*
X138999218Y-109654431D01*
X139048949Y-109709663D01*
X139054291Y-109713544D01*
X139054293Y-109713546D01*
X139178961Y-109804122D01*
X139203450Y-109821914D01*
X139209478Y-109824598D01*
X139209480Y-109824599D01*
X139371882Y-109896905D01*
X139377913Y-109899590D01*
X139471313Y-109919443D01*
X139558256Y-109937924D01*
X139558261Y-109937924D01*
X139564713Y-109939296D01*
X139755687Y-109939296D01*
X139762139Y-109937924D01*
X139762144Y-109937924D01*
X139849087Y-109919443D01*
X139942487Y-109899590D01*
X139948518Y-109896905D01*
X140110920Y-109824599D01*
X140110922Y-109824598D01*
X140116950Y-109821914D01*
X140141439Y-109804122D01*
X140266107Y-109713546D01*
X140266109Y-109713544D01*
X140271451Y-109709663D01*
X140321182Y-109654431D01*
X140394818Y-109572650D01*
X140394819Y-109572649D01*
X140399237Y-109567742D01*
X140478712Y-109430087D01*
X140491420Y-109408077D01*
X140491421Y-109408076D01*
X140494724Y-109402354D01*
X140527623Y-109301100D01*
X140551698Y-109227006D01*
X140551698Y-109227005D01*
X140553738Y-109220727D01*
X140558934Y-109171295D01*
X140573010Y-109037365D01*
X140573700Y-109030800D01*
X140573010Y-109024235D01*
X140554428Y-108847437D01*
X140554428Y-108847436D01*
X140553738Y-108840873D01*
X140530063Y-108768007D01*
X140496766Y-108665531D01*
X140494724Y-108659246D01*
X140482778Y-108638554D01*
X140418512Y-108527243D01*
X140399237Y-108493858D01*
X140331385Y-108418500D01*
X140275873Y-108356848D01*
X140275872Y-108356847D01*
X140271451Y-108351937D01*
X140266111Y-108348058D01*
X140266103Y-108348050D01*
X140220151Y-108314665D01*
X140176796Y-108258443D01*
X140168392Y-108207456D01*
X140168500Y-108206250D01*
X140168500Y-107693750D01*
X140148860Y-107525296D01*
X140135100Y-107487386D01*
X140093491Y-107372757D01*
X140090994Y-107365878D01*
X139998007Y-107224049D01*
X139874885Y-107107414D01*
X139728234Y-107022233D01*
X139565920Y-106973073D01*
X139559480Y-106972498D01*
X139559479Y-106972498D01*
X139439043Y-106961749D01*
X139439037Y-106961749D01*
X139436250Y-106961500D01*
X138998750Y-106961500D01*
X138875894Y-106975824D01*
X138837568Y-106980292D01*
X138837567Y-106980292D01*
X138830296Y-106981140D01*
X138823419Y-106983636D01*
X138823416Y-106983637D01*
X138694069Y-107030588D01*
X138670878Y-107039006D01*
X138529049Y-107131993D01*
X138524011Y-107137311D01*
X138524010Y-107137312D01*
X138519586Y-107141982D01*
X138458217Y-107177679D01*
X138387290Y-107174531D01*
X138341461Y-107146800D01*
X138323643Y-107129920D01*
X138315345Y-107122059D01*
X138279648Y-107060689D01*
X138276000Y-107030588D01*
X138276000Y-106331736D01*
X138296002Y-106263615D01*
X138321178Y-106235073D01*
X138324830Y-106232019D01*
X138330950Y-106228007D01*
X138335983Y-106222695D01*
X138335988Y-106222690D01*
X138340756Y-106217657D01*
X138402125Y-106181960D01*
X138473052Y-106185108D01*
X138518881Y-106212839D01*
X138555098Y-106247148D01*
X138566745Y-106255861D01*
X138700638Y-106333633D01*
X138713970Y-106339430D01*
X138862981Y-106384561D01*
X138875607Y-106387010D01*
X138945456Y-106393244D01*
X138960375Y-106390272D01*
X138963500Y-106378464D01*
X138963500Y-106375775D01*
X139471499Y-106375775D01*
X139475630Y-106389843D01*
X139488641Y-106391891D01*
X139597318Y-106379222D01*
X139611465Y-106375878D01*
X139757021Y-106323043D01*
X139770016Y-106316535D01*
X139899510Y-106231635D01*
X139910662Y-106222311D01*
X140017148Y-106109902D01*
X140025861Y-106098255D01*
X140103633Y-105964362D01*
X140109430Y-105951030D01*
X140154561Y-105802019D01*
X140157010Y-105789393D01*
X140166914Y-105678417D01*
X140163525Y-105666876D01*
X140162135Y-105665671D01*
X140154452Y-105664000D01*
X139489615Y-105663999D01*
X139474376Y-105668474D01*
X139473171Y-105669864D01*
X139471500Y-105677547D01*
X139471499Y-106375775D01*
X138963500Y-106375775D01*
X138963501Y-105664000D01*
X138963500Y-105663996D01*
X138963500Y-105137885D01*
X139471499Y-105137885D01*
X139475974Y-105153124D01*
X139477364Y-105154329D01*
X139485047Y-105156000D01*
X140149885Y-105156001D01*
X140165124Y-105151526D01*
X140166329Y-105150136D01*
X140167142Y-105146395D01*
X140149222Y-104992682D01*
X140145878Y-104978535D01*
X140093043Y-104832979D01*
X140086535Y-104819984D01*
X140001635Y-104690490D01*
X139992311Y-104679338D01*
X139879902Y-104572852D01*
X139868255Y-104564139D01*
X139734362Y-104486367D01*
X139721030Y-104480570D01*
X139572019Y-104435439D01*
X139559393Y-104432990D01*
X139489544Y-104426756D01*
X139474625Y-104429728D01*
X139471500Y-104441536D01*
X139471499Y-105137885D01*
X138963500Y-105137885D01*
X138963501Y-104444225D01*
X138959370Y-104430157D01*
X138946359Y-104428109D01*
X138837682Y-104440778D01*
X138823535Y-104444122D01*
X138677979Y-104496957D01*
X138664984Y-104503465D01*
X138535490Y-104588365D01*
X138524333Y-104597693D01*
X138519947Y-104602323D01*
X138458578Y-104638021D01*
X138387651Y-104634873D01*
X138341822Y-104607143D01*
X138299885Y-104567415D01*
X138232163Y-104528079D01*
X138159567Y-104485912D01*
X138159564Y-104485911D01*
X138153234Y-104482234D01*
X138136122Y-104477051D01*
X138018862Y-104441536D01*
X137990920Y-104433073D01*
X137984484Y-104432499D01*
X137984481Y-104432498D01*
X137864043Y-104421749D01*
X137864037Y-104421749D01*
X137861250Y-104421500D01*
X137423751Y-104421500D01*
X137308415Y-104434947D01*
X137262569Y-104440292D01*
X137262568Y-104440292D01*
X137255297Y-104441140D01*
X137248420Y-104443636D01*
X137248417Y-104443637D01*
X137102758Y-104496509D01*
X137095879Y-104499006D01*
X136954050Y-104591993D01*
X136837415Y-104715115D01*
X136833739Y-104721443D01*
X136830349Y-104725975D01*
X136773528Y-104768541D01*
X136729456Y-104776500D01*
X136080417Y-104776500D01*
X136012296Y-104756498D01*
X135991322Y-104739595D01*
X134140745Y-102889018D01*
X134106719Y-102826706D01*
X134111784Y-102755891D01*
X134144204Y-102708235D01*
X134145211Y-102707503D01*
X134272997Y-102565582D01*
X134368484Y-102400194D01*
X134393003Y-102324733D01*
X134425458Y-102224846D01*
X134425458Y-102224845D01*
X134427498Y-102218567D01*
X134447460Y-102028640D01*
X134427498Y-101838713D01*
X134368484Y-101657086D01*
X134272997Y-101491698D01*
X134188306Y-101397639D01*
X134157588Y-101333632D01*
X134162109Y-101274393D01*
X134217005Y-101105440D01*
X134217005Y-101105439D01*
X134219045Y-101099161D01*
X134239007Y-100909234D01*
X134237713Y-100896921D01*
X134228261Y-100806987D01*
X134241033Y-100737149D01*
X134289536Y-100685302D01*
X134329707Y-100670374D01*
X134333825Y-100670079D01*
X134340305Y-100668176D01*
X134340307Y-100668176D01*
X134465416Y-100631441D01*
X134465418Y-100631440D01*
X134474062Y-100628902D01*
X134512218Y-100604380D01*
X134589437Y-100554755D01*
X134589440Y-100554753D01*
X134597017Y-100549883D01*
X134605007Y-100540662D01*
X134686828Y-100446237D01*
X134686830Y-100446234D01*
X134692730Y-100439425D01*
X134753446Y-100306476D01*
X134762793Y-100241465D01*
X134773607Y-100166254D01*
X134773608Y-100166247D01*
X134774246Y-100161806D01*
X134774246Y-99651390D01*
X134794248Y-99583269D01*
X134847904Y-99536776D01*
X134918178Y-99526672D01*
X134982758Y-99556165D01*
X135076586Y-99637468D01*
X135091594Y-99647113D01*
X135208021Y-99700283D01*
X135225134Y-99705308D01*
X135356300Y-99724167D01*
X135365241Y-99724806D01*
X135538631Y-99724806D01*
X135553870Y-99720331D01*
X135555075Y-99718941D01*
X135556746Y-99711258D01*
X135556746Y-99083921D01*
X135555405Y-99079354D01*
X136064746Y-99079354D01*
X136064746Y-99706691D01*
X136069221Y-99721930D01*
X136070611Y-99723135D01*
X136078294Y-99724806D01*
X136258489Y-99724806D01*
X136262996Y-99724645D01*
X136327015Y-99720066D01*
X136340237Y-99717680D01*
X136465204Y-99680987D01*
X136481438Y-99673573D01*
X136589106Y-99604380D01*
X136602593Y-99592694D01*
X136686408Y-99495966D01*
X136696053Y-99480958D01*
X136749223Y-99364531D01*
X136754248Y-99347418D01*
X136773107Y-99216252D01*
X136773746Y-99207311D01*
X136773746Y-99083921D01*
X136769271Y-99068682D01*
X136767881Y-99067477D01*
X136760198Y-99065806D01*
X136082861Y-99065806D01*
X136067622Y-99070281D01*
X136066417Y-99071671D01*
X136064746Y-99079354D01*
X135555405Y-99079354D01*
X135552271Y-99068682D01*
X135550881Y-99067477D01*
X135543198Y-99065806D01*
X134865861Y-99065806D01*
X134834695Y-99074957D01*
X134801765Y-99096120D01*
X134730769Y-99096120D01*
X134671043Y-99057737D01*
X134660270Y-99043346D01*
X134653696Y-99033117D01*
X134653695Y-99033116D01*
X134648823Y-99025535D01*
X134625234Y-99005095D01*
X134545177Y-98935724D01*
X134545174Y-98935722D01*
X134538365Y-98929822D01*
X134530165Y-98926077D01*
X134527912Y-98925048D01*
X134526039Y-98923425D01*
X134522586Y-98921206D01*
X134522905Y-98920710D01*
X134474256Y-98878556D01*
X134454253Y-98810436D01*
X134474254Y-98742315D01*
X134512132Y-98704436D01*
X134589437Y-98654755D01*
X134589440Y-98654753D01*
X134597017Y-98649883D01*
X134630915Y-98610763D01*
X134670941Y-98564571D01*
X134730667Y-98526188D01*
X134801664Y-98526188D01*
X134848678Y-98551860D01*
X134853611Y-98556135D01*
X134861294Y-98557806D01*
X135538631Y-98557806D01*
X135553870Y-98553331D01*
X135555075Y-98551941D01*
X135556746Y-98544258D01*
X135556746Y-97916921D01*
X135555405Y-97912354D01*
X136064746Y-97912354D01*
X136064746Y-98539691D01*
X136069221Y-98554930D01*
X136070611Y-98556135D01*
X136078294Y-98557806D01*
X136755631Y-98557806D01*
X136770870Y-98553331D01*
X136772075Y-98551941D01*
X136773746Y-98544258D01*
X136773746Y-98414063D01*
X136773585Y-98409556D01*
X136769006Y-98345537D01*
X136766620Y-98332315D01*
X136729927Y-98207348D01*
X136722513Y-98191114D01*
X136653320Y-98083446D01*
X136641634Y-98069959D01*
X136544906Y-97986144D01*
X136529898Y-97976499D01*
X136413471Y-97923329D01*
X136396358Y-97918304D01*
X136265192Y-97899445D01*
X136256251Y-97898806D01*
X136082861Y-97898806D01*
X136067622Y-97903281D01*
X136066417Y-97904671D01*
X136064746Y-97912354D01*
X135555405Y-97912354D01*
X135552271Y-97901682D01*
X135550881Y-97900477D01*
X135543198Y-97898806D01*
X135363003Y-97898806D01*
X135358496Y-97898967D01*
X135294477Y-97903546D01*
X135281255Y-97905932D01*
X135156288Y-97942625D01*
X135140054Y-97950039D01*
X135032386Y-98019232D01*
X135018899Y-98030918D01*
X134995471Y-98057956D01*
X134935745Y-98096340D01*
X134864748Y-98096340D01*
X134805022Y-98057957D01*
X134775529Y-97993376D01*
X134774246Y-97975444D01*
X134774246Y-97461806D01*
X134769019Y-97388727D01*
X134739126Y-97286920D01*
X134730381Y-97257136D01*
X134730380Y-97257134D01*
X134727842Y-97248490D01*
X134686517Y-97184187D01*
X134653695Y-97133115D01*
X134653693Y-97133112D01*
X134648823Y-97125535D01*
X134538365Y-97029822D01*
X134530165Y-97026077D01*
X134522587Y-97021207D01*
X134524030Y-97018961D01*
X134480903Y-96981592D01*
X134461300Y-96921842D01*
X134461300Y-96919822D01*
X134460759Y-96915537D01*
X134459826Y-96903696D01*
X134458687Y-96867436D01*
X134458687Y-96867435D01*
X134458438Y-96859516D01*
X134456228Y-96851908D01*
X134456227Y-96851903D01*
X134452787Y-96840061D01*
X134448779Y-96820707D01*
X134447234Y-96808479D01*
X134446240Y-96800612D01*
X134443323Y-96793244D01*
X134443321Y-96793237D01*
X134429963Y-96759499D01*
X134426118Y-96748269D01*
X134415997Y-96713431D01*
X134415996Y-96713430D01*
X134413786Y-96705821D01*
X134403476Y-96688388D01*
X134394782Y-96670641D01*
X134387322Y-96651800D01*
X134370482Y-96628622D01*
X134361333Y-96616029D01*
X134354817Y-96606110D01*
X134350709Y-96599164D01*
X134332313Y-96568058D01*
X134331945Y-96567640D01*
X134317863Y-96553558D01*
X134305022Y-96538525D01*
X134297903Y-96528727D01*
X134293246Y-96522317D01*
X134277015Y-96508889D01*
X134259470Y-96494375D01*
X134250691Y-96486386D01*
X133856686Y-96092381D01*
X133455686Y-95691382D01*
X133448330Y-95683298D01*
X133444273Y-95676905D01*
X133395421Y-95631030D01*
X133392580Y-95628276D01*
X133372266Y-95607962D01*
X133368855Y-95605317D01*
X133359833Y-95597611D01*
X133333377Y-95572767D01*
X133327601Y-95567343D01*
X133320657Y-95563526D01*
X133320655Y-95563524D01*
X133309847Y-95557582D01*
X133293323Y-95546728D01*
X133283586Y-95539175D01*
X133283585Y-95539175D01*
X133277323Y-95534317D01*
X133270050Y-95531170D01*
X133270047Y-95531168D01*
X133249635Y-95522335D01*
X133236758Y-95516763D01*
X133226100Y-95511542D01*
X133194294Y-95494056D01*
X133194290Y-95494054D01*
X133187348Y-95490238D01*
X133179673Y-95488268D01*
X133179672Y-95488267D01*
X133167726Y-95485200D01*
X133149019Y-95478795D01*
X133137710Y-95473901D01*
X133137708Y-95473901D01*
X133130435Y-95470753D01*
X133122607Y-95469513D01*
X133122606Y-95469513D01*
X133086773Y-95463838D01*
X133075148Y-95461430D01*
X133038082Y-95451913D01*
X133038080Y-95451913D01*
X133032325Y-95450435D01*
X133031769Y-95450400D01*
X133011846Y-95450400D01*
X132992137Y-95448849D01*
X132972355Y-95445716D01*
X132964463Y-95446462D01*
X132928718Y-95449841D01*
X132916860Y-95450400D01*
X132461294Y-95450400D01*
X132393173Y-95430398D01*
X132372199Y-95413495D01*
X132199791Y-95241087D01*
X132192431Y-95232999D01*
X132188373Y-95226605D01*
X132139521Y-95180730D01*
X132136680Y-95177976D01*
X132116366Y-95157662D01*
X132112955Y-95155017D01*
X132103933Y-95147311D01*
X132077477Y-95122467D01*
X132071701Y-95117043D01*
X132064757Y-95113226D01*
X132064755Y-95113224D01*
X132053947Y-95107282D01*
X132037423Y-95096428D01*
X132027686Y-95088875D01*
X132027685Y-95088875D01*
X132021423Y-95084017D01*
X132014150Y-95080870D01*
X132014147Y-95080868D01*
X131983841Y-95067754D01*
X131980858Y-95066463D01*
X131970200Y-95061242D01*
X131938394Y-95043756D01*
X131938390Y-95043754D01*
X131931448Y-95039938D01*
X131923773Y-95037968D01*
X131923772Y-95037967D01*
X131911826Y-95034900D01*
X131893119Y-95028495D01*
X131881810Y-95023601D01*
X131881808Y-95023601D01*
X131874535Y-95020453D01*
X131866707Y-95019213D01*
X131866706Y-95019213D01*
X131830873Y-95013538D01*
X131819248Y-95011130D01*
X131782182Y-95001613D01*
X131782180Y-95001613D01*
X131776425Y-95000135D01*
X131775869Y-95000100D01*
X131755946Y-95000100D01*
X131736237Y-94998549D01*
X131716455Y-94995416D01*
X131708563Y-94996162D01*
X131672818Y-94999541D01*
X131660960Y-95000100D01*
X129375528Y-95000100D01*
X129301468Y-94976037D01*
X129278550Y-94959386D01*
X129272522Y-94956702D01*
X129272520Y-94956701D01*
X129110118Y-94884395D01*
X129110117Y-94884395D01*
X129104087Y-94881710D01*
X129010687Y-94861857D01*
X128923744Y-94843376D01*
X128923739Y-94843376D01*
X128917287Y-94842004D01*
X128726313Y-94842004D01*
X128719861Y-94843376D01*
X128719856Y-94843376D01*
X128632913Y-94861857D01*
X128539513Y-94881710D01*
X128533483Y-94884395D01*
X128533482Y-94884395D01*
X128371080Y-94956701D01*
X128371078Y-94956702D01*
X128365050Y-94959386D01*
X128359709Y-94963266D01*
X128359708Y-94963267D01*
X128215893Y-95067754D01*
X128215891Y-95067756D01*
X128210549Y-95071637D01*
X128206128Y-95076547D01*
X128206127Y-95076548D01*
X128112321Y-95180731D01*
X128082763Y-95213558D01*
X127987276Y-95378946D01*
X127985234Y-95385230D01*
X127982550Y-95391259D01*
X127980657Y-95390416D01*
X127956079Y-95430517D01*
X127511001Y-95875595D01*
X127448689Y-95909621D01*
X127421906Y-95912500D01*
X127162750Y-95912500D01*
X127039894Y-95926824D01*
X127001568Y-95931292D01*
X127001567Y-95931292D01*
X126994296Y-95932140D01*
X126987419Y-95934636D01*
X126987416Y-95934637D01*
X126870957Y-95976910D01*
X126834878Y-95990006D01*
X126693049Y-96082993D01*
X126688011Y-96088311D01*
X126688010Y-96088312D01*
X126683586Y-96092982D01*
X126622217Y-96128679D01*
X126551290Y-96125531D01*
X126505463Y-96097801D01*
X126463885Y-96058414D01*
X126317234Y-95973233D01*
X126154920Y-95924073D01*
X126148480Y-95923498D01*
X126148479Y-95923498D01*
X126028043Y-95912749D01*
X126028037Y-95912749D01*
X126025250Y-95912500D01*
X125587750Y-95912500D01*
X125464894Y-95926824D01*
X125426568Y-95931292D01*
X125426567Y-95931292D01*
X125419296Y-95932140D01*
X125412419Y-95934636D01*
X125412416Y-95934637D01*
X125295957Y-95976910D01*
X125259878Y-95990006D01*
X125118049Y-96082993D01*
X125001414Y-96206115D01*
X124916233Y-96352766D01*
X124867073Y-96515080D01*
X124866498Y-96521520D01*
X124866498Y-96521521D01*
X124856225Y-96636630D01*
X124855500Y-96644750D01*
X124855500Y-96903906D01*
X124835498Y-96972027D01*
X124818595Y-96993001D01*
X123375063Y-98436533D01*
X123366976Y-98443892D01*
X123360582Y-98447950D01*
X123355157Y-98453727D01*
X123355156Y-98453728D01*
X123314714Y-98496795D01*
X123311958Y-98499638D01*
X123291639Y-98519957D01*
X123289215Y-98523082D01*
X123289208Y-98523090D01*
X123288988Y-98523374D01*
X123281280Y-98532399D01*
X123270144Y-98544258D01*
X123251020Y-98564623D01*
X123241264Y-98582369D01*
X123230413Y-98598888D01*
X123222855Y-98608632D01*
X123222852Y-98608637D01*
X123217994Y-98614900D01*
X123214845Y-98622178D01*
X123200438Y-98655470D01*
X123195215Y-98666132D01*
X123180010Y-98693790D01*
X123173915Y-98704876D01*
X123171943Y-98712558D01*
X123171942Y-98712559D01*
X123168875Y-98724501D01*
X123162475Y-98743196D01*
X123154430Y-98761788D01*
X123153190Y-98769617D01*
X123147514Y-98805452D01*
X123145107Y-98817073D01*
X123135746Y-98853533D01*
X123134112Y-98859899D01*
X123134077Y-98860455D01*
X123134077Y-98880377D01*
X123132526Y-98900086D01*
X123129393Y-98919868D01*
X123130139Y-98927760D01*
X123133518Y-98963506D01*
X123134077Y-98975364D01*
X123134078Y-99505608D01*
X123134078Y-100000949D01*
X123114076Y-100069070D01*
X123101714Y-100085258D01*
X123028540Y-100166527D01*
X122933053Y-100331915D01*
X122874039Y-100513542D01*
X122854077Y-100703469D01*
X122854767Y-100710034D01*
X122856866Y-100730000D01*
X122874039Y-100893396D01*
X122876079Y-100899674D01*
X122876079Y-100899675D01*
X122929018Y-101062603D01*
X122931046Y-101133570D01*
X122894112Y-101194161D01*
X122891407Y-101196127D01*
X122886996Y-101201026D01*
X122886987Y-101201034D01*
X122857668Y-101233597D01*
X122797222Y-101270837D01*
X122726238Y-101269485D01*
X122674937Y-101238382D01*
X122200405Y-100763850D01*
X122166379Y-100701538D01*
X122163500Y-100674755D01*
X122163500Y-96370000D01*
X122158273Y-96296921D01*
X122125939Y-96186800D01*
X122119635Y-96165330D01*
X122119634Y-96165328D01*
X122117096Y-96156684D01*
X122071393Y-96085569D01*
X122042949Y-96041309D01*
X122042947Y-96041306D01*
X122038077Y-96033729D01*
X121992250Y-95994019D01*
X121934431Y-95943918D01*
X121934428Y-95943916D01*
X121927619Y-95938016D01*
X121919421Y-95934272D01*
X121802864Y-95881042D01*
X121802863Y-95881042D01*
X121794670Y-95877300D01*
X121785755Y-95876018D01*
X121785754Y-95876018D01*
X121654448Y-95857139D01*
X121654441Y-95857138D01*
X121650000Y-95856500D01*
X119650000Y-95856500D01*
X119576921Y-95861727D01*
X119523884Y-95877300D01*
X119445330Y-95900365D01*
X119445328Y-95900366D01*
X119436684Y-95902904D01*
X119421365Y-95912749D01*
X119321309Y-95977051D01*
X119321306Y-95977053D01*
X119313729Y-95981923D01*
X119307828Y-95988733D01*
X119223918Y-96085569D01*
X119223916Y-96085572D01*
X119218016Y-96092381D01*
X119157300Y-96225330D01*
X119156018Y-96234245D01*
X119156018Y-96234246D01*
X119137139Y-96365552D01*
X119137138Y-96365559D01*
X119136500Y-96370000D01*
X119136500Y-97860500D01*
X119116498Y-97928621D01*
X119062842Y-97975114D01*
X119010500Y-97986500D01*
X116661600Y-97986500D01*
X116593479Y-97966498D01*
X116546986Y-97912842D01*
X116539538Y-97891116D01*
X116538860Y-97885297D01*
X116497874Y-97772381D01*
X116483491Y-97732758D01*
X116480994Y-97725879D01*
X116388007Y-97584050D01*
X116264885Y-97467415D01*
X116118234Y-97382234D01*
X116019786Y-97352417D01*
X115962112Y-97334949D01*
X115962109Y-97334948D01*
X115955920Y-97333074D01*
X115826250Y-97321500D01*
X115313751Y-97321500D01*
X115198398Y-97334949D01*
X115152569Y-97340292D01*
X115152568Y-97340292D01*
X115145297Y-97341140D01*
X115138420Y-97343636D01*
X115138417Y-97343637D01*
X114992758Y-97396509D01*
X114985879Y-97399006D01*
X114844050Y-97491993D01*
X114727415Y-97615115D01*
X114642234Y-97761766D01*
X114637116Y-97778666D01*
X114596478Y-97912842D01*
X114593074Y-97924080D01*
X114581500Y-98053750D01*
X114581500Y-98491249D01*
X114601140Y-98659703D01*
X114603636Y-98666580D01*
X114603637Y-98666583D01*
X114643102Y-98775306D01*
X114659006Y-98819121D01*
X114751993Y-98960950D01*
X114757305Y-98965983D01*
X114757310Y-98965988D01*
X114762343Y-98970756D01*
X114798040Y-99032125D01*
X114794892Y-99103052D01*
X114767161Y-99148881D01*
X114732852Y-99185098D01*
X114724139Y-99196745D01*
X114646366Y-99330640D01*
X114640572Y-99343965D01*
X114595439Y-99492983D01*
X114592991Y-99505608D01*
X114586757Y-99575454D01*
X114589728Y-99590375D01*
X114601538Y-99593500D01*
X115315998Y-99593501D01*
X115316004Y-99593500D01*
X116535775Y-99593501D01*
X116549843Y-99589370D01*
X116551891Y-99576359D01*
X116539222Y-99467682D01*
X116535876Y-99453529D01*
X116524610Y-99422490D01*
X116520169Y-99351633D01*
X116554742Y-99289623D01*
X116617352Y-99256148D01*
X116643049Y-99253500D01*
X119010500Y-99253500D01*
X119078621Y-99273502D01*
X119125114Y-99327158D01*
X119136500Y-99379500D01*
X119136500Y-100870000D01*
X119141727Y-100943079D01*
X119182904Y-101083316D01*
X119187775Y-101090895D01*
X119257051Y-101198691D01*
X119257053Y-101198694D01*
X119261923Y-101206271D01*
X119268733Y-101212172D01*
X119365569Y-101296082D01*
X119365572Y-101296084D01*
X119372381Y-101301984D01*
X119380579Y-101305728D01*
X119477033Y-101349777D01*
X119505330Y-101362700D01*
X119514245Y-101363982D01*
X119514246Y-101363982D01*
X119645552Y-101382861D01*
X119645559Y-101382862D01*
X119650000Y-101383500D01*
X120976057Y-101383500D01*
X121044178Y-101403502D01*
X121065152Y-101420405D01*
X122637260Y-102992513D01*
X122644620Y-103000601D01*
X122648678Y-103006995D01*
X122654455Y-103012420D01*
X122697529Y-103052869D01*
X122700371Y-103055624D01*
X122720684Y-103075937D01*
X122724095Y-103078582D01*
X122733115Y-103086286D01*
X122765350Y-103116557D01*
X122772295Y-103120375D01*
X122772298Y-103120377D01*
X122783103Y-103126317D01*
X122799630Y-103137173D01*
X122815627Y-103149582D01*
X122856206Y-103167143D01*
X122866838Y-103172351D01*
X122905603Y-103193662D01*
X122913280Y-103195633D01*
X122913285Y-103195635D01*
X122925217Y-103198698D01*
X122943925Y-103205103D01*
X122948264Y-103206980D01*
X122955243Y-103210001D01*
X122955247Y-103210002D01*
X122962514Y-103213147D01*
X122970338Y-103214386D01*
X122970341Y-103214387D01*
X122991152Y-103217683D01*
X123006188Y-103220064D01*
X123017796Y-103222468D01*
X123060626Y-103233465D01*
X123061182Y-103233500D01*
X123081104Y-103233500D01*
X123100813Y-103235051D01*
X123120595Y-103238184D01*
X123128486Y-103237438D01*
X123164230Y-103234059D01*
X123176088Y-103233500D01*
X124486406Y-103233500D01*
X124554527Y-103253502D01*
X124601020Y-103307158D01*
X124611124Y-103377432D01*
X124581630Y-103442012D01*
X124575501Y-103448595D01*
X122378595Y-105645501D01*
X122316283Y-105679527D01*
X122245468Y-105674462D01*
X122188632Y-105631915D01*
X122163821Y-105565395D01*
X122163500Y-105556406D01*
X122163500Y-104870000D01*
X122158273Y-104796921D01*
X122127022Y-104690490D01*
X122119635Y-104665330D01*
X122119634Y-104665328D01*
X122117096Y-104656684D01*
X122081039Y-104600579D01*
X122042949Y-104541309D01*
X122042947Y-104541306D01*
X122038077Y-104533729D01*
X122031267Y-104527828D01*
X121934431Y-104443918D01*
X121934428Y-104443916D01*
X121927619Y-104438016D01*
X121919421Y-104434272D01*
X121802864Y-104381042D01*
X121802863Y-104381042D01*
X121794670Y-104377300D01*
X121785755Y-104376018D01*
X121785754Y-104376018D01*
X121654448Y-104357139D01*
X121654441Y-104357138D01*
X121650000Y-104356500D01*
X119650000Y-104356500D01*
X119576921Y-104361727D01*
X119523884Y-104377300D01*
X119445330Y-104400365D01*
X119445328Y-104400366D01*
X119436684Y-104402904D01*
X119429105Y-104407775D01*
X119321309Y-104477051D01*
X119321306Y-104477053D01*
X119313729Y-104481923D01*
X119307828Y-104488733D01*
X119223918Y-104585569D01*
X119223916Y-104585572D01*
X119218016Y-104592381D01*
X119214272Y-104600579D01*
X119183338Y-104668316D01*
X119157300Y-104725330D01*
X119156018Y-104734245D01*
X119156018Y-104734246D01*
X119137139Y-104865552D01*
X119137138Y-104865559D01*
X119136500Y-104870000D01*
X119136500Y-106360500D01*
X119116498Y-106428621D01*
X119062842Y-106475114D01*
X119010500Y-106486500D01*
X116641844Y-106486500D01*
X116573723Y-106466498D01*
X116527230Y-106412842D01*
X116517126Y-106342568D01*
X116521254Y-106323977D01*
X116544560Y-106247025D01*
X116547010Y-106234393D01*
X116553244Y-106164544D01*
X116550272Y-106149625D01*
X116538464Y-106146500D01*
X115824002Y-106146499D01*
X115823996Y-106146500D01*
X114604225Y-106146499D01*
X114590157Y-106150630D01*
X114588109Y-106163641D01*
X114600778Y-106272316D01*
X114604123Y-106286468D01*
X114656956Y-106432019D01*
X114663466Y-106445018D01*
X114748365Y-106574511D01*
X114757689Y-106585663D01*
X114762322Y-106590052D01*
X114798020Y-106651421D01*
X114794872Y-106722348D01*
X114767142Y-106768178D01*
X114727414Y-106810115D01*
X114642233Y-106956766D01*
X114593073Y-107119080D01*
X114592498Y-107125520D01*
X114592498Y-107125521D01*
X114582656Y-107235801D01*
X114581500Y-107248750D01*
X114581500Y-107686249D01*
X114591673Y-107773502D01*
X114597929Y-107827158D01*
X114601140Y-107854703D01*
X114603636Y-107861581D01*
X114603637Y-107861583D01*
X114652380Y-107995868D01*
X114659006Y-108014122D01*
X114751993Y-108155951D01*
X114875115Y-108272586D01*
X115021766Y-108357767D01*
X115184080Y-108406927D01*
X115190520Y-108407502D01*
X115190521Y-108407502D01*
X115310957Y-108418251D01*
X115310963Y-108418251D01*
X115313750Y-108418500D01*
X115826249Y-108418500D01*
X115949105Y-108404176D01*
X115987431Y-108399708D01*
X115987432Y-108399708D01*
X115994703Y-108398860D01*
X116001581Y-108396364D01*
X116001583Y-108396363D01*
X116147243Y-108343491D01*
X116154122Y-108340994D01*
X116295951Y-108248007D01*
X116412586Y-108124885D01*
X116497767Y-107978234D01*
X116538733Y-107842973D01*
X116577621Y-107783579D01*
X116642449Y-107754635D01*
X116659322Y-107753500D01*
X119010500Y-107753500D01*
X119078621Y-107773502D01*
X119125114Y-107827158D01*
X119136500Y-107879500D01*
X119136500Y-109370000D01*
X119141727Y-109443079D01*
X119182904Y-109583316D01*
X119187775Y-109590895D01*
X119257051Y-109698691D01*
X119257053Y-109698694D01*
X119261923Y-109706271D01*
X119268733Y-109712172D01*
X119365569Y-109796082D01*
X119365572Y-109796084D01*
X119372381Y-109801984D01*
X119380579Y-109805728D01*
X119480600Y-109851406D01*
X119505330Y-109862700D01*
X119514245Y-109863982D01*
X119514246Y-109863982D01*
X119645552Y-109882861D01*
X119645559Y-109882862D01*
X119650000Y-109883500D01*
X121650000Y-109883500D01*
X121723079Y-109878273D01*
X121808266Y-109853260D01*
X121854670Y-109839635D01*
X121854672Y-109839634D01*
X121863316Y-109837096D01*
X121970467Y-109768234D01*
X121978691Y-109762949D01*
X121978694Y-109762947D01*
X121986271Y-109758077D01*
X122026048Y-109712172D01*
X122076082Y-109654431D01*
X122076084Y-109654428D01*
X122081984Y-109647619D01*
X122142700Y-109514670D01*
X122144387Y-109502935D01*
X122162861Y-109374448D01*
X122162862Y-109374441D01*
X122163500Y-109370000D01*
X122163500Y-107704594D01*
X122183502Y-107636473D01*
X122200405Y-107615499D01*
X122205842Y-107610062D01*
X122220867Y-107597228D01*
X122237083Y-107585446D01*
X122265030Y-107551664D01*
X122273019Y-107542885D01*
X123360023Y-106455881D01*
X123422335Y-106421855D01*
X123493150Y-106426920D01*
X123549986Y-106469467D01*
X123574797Y-106535987D01*
X123569578Y-106578773D01*
X123569875Y-106578836D01*
X123569161Y-106582194D01*
X123568952Y-106583909D01*
X123566462Y-106591573D01*
X123565772Y-106598136D01*
X123565772Y-106598137D01*
X123547900Y-106768179D01*
X123546500Y-106781500D01*
X123566462Y-106971427D01*
X123568502Y-106977705D01*
X123568502Y-106977706D01*
X123585685Y-107030589D01*
X123625476Y-107153054D01*
X123720963Y-107318442D01*
X123725381Y-107323349D01*
X123725382Y-107323350D01*
X123795988Y-107401766D01*
X123848749Y-107460363D01*
X123854091Y-107464244D01*
X123854093Y-107464246D01*
X123991504Y-107564080D01*
X124003250Y-107572614D01*
X124009278Y-107575298D01*
X124009280Y-107575299D01*
X124156798Y-107640978D01*
X124177713Y-107650290D01*
X124271113Y-107670143D01*
X124358056Y-107688624D01*
X124358061Y-107688624D01*
X124364513Y-107689996D01*
X124552599Y-107689996D01*
X124620720Y-107709998D01*
X124667213Y-107763654D01*
X124677317Y-107833928D01*
X124673190Y-107852516D01*
X124670444Y-107861583D01*
X124629773Y-107995868D01*
X124626074Y-108008080D01*
X124614500Y-108137750D01*
X124614500Y-108396906D01*
X124594498Y-108465027D01*
X124577595Y-108486001D01*
X123799401Y-109264195D01*
X123737089Y-109298221D01*
X123710306Y-109301100D01*
X123597883Y-109301100D01*
X123586979Y-109300586D01*
X123579588Y-109298934D01*
X123571663Y-109299183D01*
X123571662Y-109299183D01*
X123512647Y-109301038D01*
X123508689Y-109301100D01*
X123479922Y-109301100D01*
X123475637Y-109301641D01*
X123463803Y-109302573D01*
X123437786Y-109303391D01*
X123427536Y-109303713D01*
X123427535Y-109303713D01*
X123419616Y-109303962D01*
X123412008Y-109306172D01*
X123412003Y-109306173D01*
X123400161Y-109309613D01*
X123380807Y-109313621D01*
X123368579Y-109315166D01*
X123360712Y-109316160D01*
X123353344Y-109319077D01*
X123353337Y-109319079D01*
X123319599Y-109332437D01*
X123308369Y-109336282D01*
X123273531Y-109346403D01*
X123273530Y-109346404D01*
X123265921Y-109348614D01*
X123248488Y-109358924D01*
X123230741Y-109367618D01*
X123211900Y-109375078D01*
X123205485Y-109379739D01*
X123176129Y-109401067D01*
X123166212Y-109407582D01*
X123128158Y-109430087D01*
X123127740Y-109430456D01*
X123113658Y-109444538D01*
X123098633Y-109457372D01*
X123082417Y-109469154D01*
X123076547Y-109476250D01*
X123054471Y-109502935D01*
X123046481Y-109511715D01*
X122731794Y-109826402D01*
X122689082Y-109854459D01*
X122650999Y-109869537D01*
X122639769Y-109873382D01*
X122604931Y-109883503D01*
X122604930Y-109883504D01*
X122597321Y-109885714D01*
X122579888Y-109896024D01*
X122562141Y-109904718D01*
X122543300Y-109912178D01*
X122536885Y-109916839D01*
X122507529Y-109938167D01*
X122497612Y-109944682D01*
X122459558Y-109967187D01*
X122459140Y-109967555D01*
X122445058Y-109981637D01*
X122430025Y-109994478D01*
X122413817Y-110006254D01*
X122408768Y-110012357D01*
X122408767Y-110012358D01*
X122385875Y-110040030D01*
X122377886Y-110048809D01*
X122218196Y-110208500D01*
X122068601Y-110358095D01*
X122006288Y-110392120D01*
X121979505Y-110395000D01*
X119557283Y-110395000D01*
X119546379Y-110394486D01*
X119538988Y-110392834D01*
X119531063Y-110393083D01*
X119531062Y-110393083D01*
X119472047Y-110394938D01*
X119468089Y-110395000D01*
X119439322Y-110395000D01*
X119435037Y-110395541D01*
X119423203Y-110396473D01*
X119397186Y-110397291D01*
X119386936Y-110397613D01*
X119386935Y-110397613D01*
X119379016Y-110397862D01*
X119371408Y-110400072D01*
X119371403Y-110400073D01*
X119359561Y-110403513D01*
X119340207Y-110407521D01*
X119327979Y-110409066D01*
X119320112Y-110410060D01*
X119312744Y-110412977D01*
X119312737Y-110412979D01*
X119278999Y-110426337D01*
X119267769Y-110430182D01*
X119258135Y-110432981D01*
X119225321Y-110442514D01*
X119218494Y-110446551D01*
X119218495Y-110446551D01*
X119207889Y-110452823D01*
X119190136Y-110461520D01*
X119171300Y-110468978D01*
X119164885Y-110473639D01*
X119135526Y-110494969D01*
X119125607Y-110501484D01*
X119092658Y-110520971D01*
X119092655Y-110520973D01*
X119087559Y-110523987D01*
X119087141Y-110524355D01*
X119073058Y-110538438D01*
X119058033Y-110551272D01*
X119041817Y-110563054D01*
X119019622Y-110589883D01*
X119013871Y-110596835D01*
X119005881Y-110605615D01*
X118822687Y-110788809D01*
X118814599Y-110796169D01*
X118808205Y-110800227D01*
X118802780Y-110806004D01*
X118796671Y-110811058D01*
X118795743Y-110809936D01*
X118741997Y-110841517D01*
X118711354Y-110845300D01*
X116968183Y-110845300D01*
X116957279Y-110844786D01*
X116949888Y-110843134D01*
X116941963Y-110843383D01*
X116941962Y-110843383D01*
X116882947Y-110845238D01*
X116878989Y-110845300D01*
X116850222Y-110845300D01*
X116845937Y-110845841D01*
X116834103Y-110846773D01*
X116808086Y-110847591D01*
X116797836Y-110847913D01*
X116797835Y-110847913D01*
X116789916Y-110848162D01*
X116782308Y-110850372D01*
X116782303Y-110850373D01*
X116770461Y-110853813D01*
X116751107Y-110857821D01*
X116738879Y-110859366D01*
X116731012Y-110860360D01*
X116723644Y-110863277D01*
X116723637Y-110863279D01*
X116689899Y-110876637D01*
X116678669Y-110880482D01*
X116643831Y-110890603D01*
X116643830Y-110890604D01*
X116636221Y-110892814D01*
X116619236Y-110902859D01*
X116618788Y-110903124D01*
X116601041Y-110911818D01*
X116582200Y-110919278D01*
X116564504Y-110932135D01*
X116546429Y-110945267D01*
X116536512Y-110951782D01*
X116498458Y-110974287D01*
X116498040Y-110974655D01*
X116483958Y-110988737D01*
X116468925Y-111001578D01*
X116452717Y-111013354D01*
X116447668Y-111019457D01*
X116447667Y-111019458D01*
X116424775Y-111047130D01*
X116416786Y-111055909D01*
X116090679Y-111382017D01*
X116082598Y-111389370D01*
X116076205Y-111393427D01*
X116070779Y-111399205D01*
X116070778Y-111399206D01*
X116030337Y-111442272D01*
X116027581Y-111445115D01*
X116007262Y-111465434D01*
X116004838Y-111468559D01*
X116004831Y-111468567D01*
X116004611Y-111468851D01*
X115996903Y-111477876D01*
X115966643Y-111510100D01*
X115958442Y-111525018D01*
X115956887Y-111527846D01*
X115946036Y-111544365D01*
X115938478Y-111554109D01*
X115938475Y-111554114D01*
X115933617Y-111560377D01*
X115930468Y-111567655D01*
X115916061Y-111600947D01*
X115910838Y-111611608D01*
X115889538Y-111650353D01*
X115887566Y-111658035D01*
X115887565Y-111658036D01*
X115884498Y-111669978D01*
X115878098Y-111688673D01*
X115870053Y-111707265D01*
X115868813Y-111715094D01*
X115863137Y-111750929D01*
X115860730Y-111762550D01*
X115854228Y-111787875D01*
X115849735Y-111805376D01*
X115849700Y-111805932D01*
X115849700Y-111825854D01*
X115848149Y-111845563D01*
X115845016Y-111865345D01*
X115845762Y-111873237D01*
X115849141Y-111908983D01*
X115849700Y-111920841D01*
X115849701Y-115229505D01*
X115849187Y-115240419D01*
X115847534Y-115247812D01*
X115847783Y-115255737D01*
X115847783Y-115255738D01*
X115849639Y-115314784D01*
X115849701Y-115318742D01*
X115849701Y-115347478D01*
X115850196Y-115351395D01*
X115850240Y-115351744D01*
X115851172Y-115363581D01*
X115851561Y-115375936D01*
X115852466Y-115404746D01*
X115834613Y-115473461D01*
X115780621Y-115521748D01*
X115776684Y-115522904D01*
X115746600Y-115542238D01*
X115661309Y-115597051D01*
X115661306Y-115597053D01*
X115653729Y-115601923D01*
X115647828Y-115608733D01*
X115563918Y-115705569D01*
X115563916Y-115705572D01*
X115558016Y-115712381D01*
X115497300Y-115845330D01*
X115496018Y-115854245D01*
X115496018Y-115854246D01*
X115477139Y-115985552D01*
X115477138Y-115985559D01*
X115476500Y-115990000D01*
X115476500Y-117476000D01*
X115456498Y-117544121D01*
X115402842Y-117590614D01*
X115350500Y-117602000D01*
X113116581Y-117602000D01*
X113048460Y-117581998D01*
X113001967Y-117528342D01*
X112991863Y-117458068D01*
X113021357Y-117393488D01*
X113081083Y-117355104D01*
X113102864Y-117350749D01*
X113350273Y-117323654D01*
X113350279Y-117323653D01*
X113354926Y-117323144D01*
X113396506Y-117312197D01*
X113605965Y-117257051D01*
X113605967Y-117257050D01*
X113610488Y-117255860D01*
X113724997Y-117206663D01*
X113849004Y-117153385D01*
X113849006Y-117153384D01*
X113853298Y-117151540D01*
X114078021Y-117012477D01*
X114184288Y-116922516D01*
X114276148Y-116844751D01*
X114276150Y-116844749D01*
X114279721Y-116841726D01*
X114453967Y-116643036D01*
X114469135Y-116619456D01*
X114594403Y-116424704D01*
X114596931Y-116420774D01*
X114705472Y-116179822D01*
X114735706Y-116072622D01*
X114775936Y-115929977D01*
X114775937Y-115929974D01*
X114777206Y-115925473D01*
X114788444Y-115837136D01*
X114810158Y-115666445D01*
X114810158Y-115666441D01*
X114810556Y-115663315D01*
X114810831Y-115652836D01*
X114812164Y-115601923D01*
X114813000Y-115570000D01*
X114812577Y-115564302D01*
X114793761Y-115311108D01*
X114793760Y-115311104D01*
X114793415Y-115306456D01*
X114735091Y-115048701D01*
X114723964Y-115020088D01*
X114641003Y-114806752D01*
X114641002Y-114806749D01*
X114639310Y-114802399D01*
X114508174Y-114572959D01*
X114425632Y-114468255D01*
X114347457Y-114369091D01*
X114347454Y-114369088D01*
X114344565Y-114365423D01*
X114152078Y-114184349D01*
X113989402Y-114071496D01*
X113938783Y-114036380D01*
X113938780Y-114036378D01*
X113934941Y-114033715D01*
X113930748Y-114031647D01*
X113702112Y-113918896D01*
X113702109Y-113918895D01*
X113697924Y-113916831D01*
X113651199Y-113901874D01*
X113450678Y-113837687D01*
X113450680Y-113837687D01*
X113446233Y-113836264D01*
X113303236Y-113812976D01*
X113190011Y-113794536D01*
X113190010Y-113794536D01*
X113185399Y-113793785D01*
X113053275Y-113792056D01*
X112925827Y-113790387D01*
X112925824Y-113790387D01*
X112921150Y-113790326D01*
X112659293Y-113825963D01*
X112654807Y-113827271D01*
X112654805Y-113827271D01*
X112619069Y-113837687D01*
X112405580Y-113899913D01*
X112165584Y-114010553D01*
X112161675Y-114013116D01*
X111948491Y-114152885D01*
X111948486Y-114152889D01*
X111944578Y-114155451D01*
X111862662Y-114228564D01*
X111758841Y-114321228D01*
X111747417Y-114331424D01*
X111578432Y-114534607D01*
X111576009Y-114538600D01*
X111444960Y-114754562D01*
X111441335Y-114760535D01*
X111439526Y-114764849D01*
X111439524Y-114764853D01*
X111418445Y-114815122D01*
X111339139Y-115004246D01*
X111274088Y-115260385D01*
X111273619Y-115265043D01*
X111249583Y-115503741D01*
X111222857Y-115569515D01*
X111164813Y-115610398D01*
X111093880Y-115613410D01*
X111032579Y-115577595D01*
X110999746Y-115510690D01*
X110999621Y-115509891D01*
X110999529Y-115509310D01*
X110998000Y-115489737D01*
X110998000Y-105620456D01*
X114586756Y-105620456D01*
X114589728Y-105635375D01*
X114601536Y-105638500D01*
X115297885Y-105638501D01*
X115313124Y-105634026D01*
X115314329Y-105632636D01*
X115316000Y-105624953D01*
X115316000Y-105620385D01*
X115823999Y-105620385D01*
X115828474Y-105635624D01*
X115829864Y-105636829D01*
X115837547Y-105638500D01*
X116535775Y-105638501D01*
X116549843Y-105634370D01*
X116551891Y-105621359D01*
X116539222Y-105512684D01*
X116535877Y-105498532D01*
X116483044Y-105352981D01*
X116476534Y-105339982D01*
X116391635Y-105210489D01*
X116382311Y-105199337D01*
X116269902Y-105092851D01*
X116258255Y-105084138D01*
X116124360Y-105006365D01*
X116111035Y-105000571D01*
X115962016Y-104955438D01*
X115949393Y-104952990D01*
X115838417Y-104943086D01*
X115826876Y-104946475D01*
X115825671Y-104947865D01*
X115824000Y-104955548D01*
X115823999Y-105620385D01*
X115316000Y-105620385D01*
X115316001Y-104960115D01*
X115311526Y-104944876D01*
X115310136Y-104943671D01*
X115306395Y-104942858D01*
X115152684Y-104960778D01*
X115138532Y-104964123D01*
X114992981Y-105016956D01*
X114979982Y-105023466D01*
X114850489Y-105108365D01*
X114839337Y-105117689D01*
X114732851Y-105230098D01*
X114724138Y-105241745D01*
X114646365Y-105375640D01*
X114640571Y-105388965D01*
X114595438Y-105537984D01*
X114592990Y-105550607D01*
X114586756Y-105620456D01*
X110998000Y-105620456D01*
X110998000Y-100118641D01*
X114588109Y-100118641D01*
X114600778Y-100227318D01*
X114604122Y-100241465D01*
X114656957Y-100387021D01*
X114663465Y-100400016D01*
X114748365Y-100529510D01*
X114757689Y-100540662D01*
X114870098Y-100647148D01*
X114881745Y-100655861D01*
X115015640Y-100733634D01*
X115028965Y-100739428D01*
X115177983Y-100784561D01*
X115190608Y-100787009D01*
X115301583Y-100796914D01*
X115313124Y-100793525D01*
X115314329Y-100792135D01*
X115316000Y-100784452D01*
X115316000Y-100779885D01*
X115823999Y-100779885D01*
X115828474Y-100795124D01*
X115829864Y-100796329D01*
X115833605Y-100797142D01*
X115987318Y-100779222D01*
X116001465Y-100775878D01*
X116147021Y-100723043D01*
X116160016Y-100716535D01*
X116289510Y-100631635D01*
X116300662Y-100622311D01*
X116407148Y-100509902D01*
X116415861Y-100498255D01*
X116493634Y-100364360D01*
X116499428Y-100351035D01*
X116544561Y-100202017D01*
X116547009Y-100189392D01*
X116553243Y-100119546D01*
X116550272Y-100104625D01*
X116538462Y-100101500D01*
X115842115Y-100101499D01*
X115826876Y-100105974D01*
X115825671Y-100107364D01*
X115824000Y-100115047D01*
X115823999Y-100779885D01*
X115316000Y-100779885D01*
X115316001Y-100119615D01*
X115311526Y-100104376D01*
X115310136Y-100103171D01*
X115302453Y-100101500D01*
X114604225Y-100101499D01*
X114590157Y-100105630D01*
X114588109Y-100118641D01*
X110998000Y-100118641D01*
X110998000Y-92791957D01*
X110999782Y-92770839D01*
X111002418Y-92755334D01*
X111004274Y-92755649D01*
X111027462Y-92697063D01*
X111085132Y-92655654D01*
X111156034Y-92651998D01*
X111217658Y-92687255D01*
X111250438Y-92750232D01*
X111252664Y-92768515D01*
X111253832Y-92792836D01*
X111260290Y-92927293D01*
X111311847Y-93186486D01*
X111401148Y-93435211D01*
X111526233Y-93668005D01*
X111529028Y-93671748D01*
X111529030Y-93671751D01*
X111681561Y-93876015D01*
X111681566Y-93876021D01*
X111684353Y-93879753D01*
X111687662Y-93883033D01*
X111687667Y-93883039D01*
X111868717Y-94062516D01*
X111872034Y-94065804D01*
X111875796Y-94068562D01*
X111875799Y-94068565D01*
X111986111Y-94149449D01*
X112085154Y-94222070D01*
X112089297Y-94224250D01*
X112089299Y-94224251D01*
X112314880Y-94342935D01*
X112314885Y-94342937D01*
X112319030Y-94345118D01*
X112323453Y-94346663D01*
X112323454Y-94346663D01*
X112464333Y-94395860D01*
X112568526Y-94432246D01*
X112573119Y-94433118D01*
X112823570Y-94480668D01*
X112823573Y-94480668D01*
X112828159Y-94481539D01*
X112953654Y-94486470D01*
X113087558Y-94491731D01*
X113087563Y-94491731D01*
X113092226Y-94491914D01*
X113194914Y-94480668D01*
X113350273Y-94463654D01*
X113350279Y-94463653D01*
X113354926Y-94463144D01*
X113359450Y-94461953D01*
X113605965Y-94397051D01*
X113605967Y-94397050D01*
X113610488Y-94395860D01*
X113724997Y-94346663D01*
X113849004Y-94293385D01*
X113849006Y-94293384D01*
X113853298Y-94291540D01*
X114078021Y-94152477D01*
X114279721Y-93981726D01*
X114453967Y-93783036D01*
X114596931Y-93560774D01*
X114705472Y-93319822D01*
X114744368Y-93181909D01*
X114775936Y-93069977D01*
X114775937Y-93069974D01*
X114777206Y-93065473D01*
X114780400Y-93040362D01*
X114810158Y-92806445D01*
X114810158Y-92806441D01*
X114810556Y-92803315D01*
X114810831Y-92792836D01*
X114812917Y-92713160D01*
X114813000Y-92710000D01*
X114801246Y-92551834D01*
X114793761Y-92451108D01*
X114793760Y-92451104D01*
X114793415Y-92446456D01*
X114735091Y-92188701D01*
X114725032Y-92162833D01*
X114641003Y-91946752D01*
X114641002Y-91946749D01*
X114639310Y-91942399D01*
X114508174Y-91712959D01*
X114344565Y-91505423D01*
X114152078Y-91324349D01*
X113934941Y-91173715D01*
X113902675Y-91157803D01*
X113702112Y-91058896D01*
X113702109Y-91058895D01*
X113697924Y-91056831D01*
X113651199Y-91041874D01*
X113450678Y-90977687D01*
X113450680Y-90977687D01*
X113446233Y-90976264D01*
X113303236Y-90952976D01*
X113190011Y-90934536D01*
X113190010Y-90934536D01*
X113185399Y-90933785D01*
X113092243Y-90932566D01*
X113024391Y-90911675D01*
X112978604Y-90857415D01*
X112969421Y-90787015D01*
X112999756Y-90722826D01*
X113059980Y-90685227D01*
X113074291Y-90682111D01*
X113090661Y-90679534D01*
X113110257Y-90678000D01*
X143428043Y-90678000D01*
X143449160Y-90679782D01*
G37*
G04 #@! TD.AperFunction*
G04 #@! TA.AperFunction,Conductor*
G36*
X127024754Y-106313470D02*
G01*
X127081590Y-106356017D01*
X127106401Y-106422537D01*
X127101312Y-106468049D01*
X127099172Y-106475114D01*
X127091163Y-106501560D01*
X127077073Y-106548080D01*
X127076498Y-106554520D01*
X127076498Y-106554521D01*
X127070063Y-106626627D01*
X127065500Y-106677750D01*
X127065500Y-107190250D01*
X127085140Y-107358704D01*
X127087636Y-107365581D01*
X127087637Y-107365584D01*
X127103654Y-107409710D01*
X127143006Y-107518122D01*
X127235993Y-107659951D01*
X127359115Y-107776586D01*
X127391134Y-107795184D01*
X127398952Y-107799725D01*
X127447811Y-107851235D01*
X127452817Y-107862292D01*
X127456978Y-107872800D01*
X127482978Y-107908585D01*
X127489483Y-107918489D01*
X127511987Y-107956541D01*
X127512355Y-107956959D01*
X127526441Y-107971045D01*
X127539281Y-107986078D01*
X127551055Y-108002283D01*
X127572764Y-108020242D01*
X127584830Y-108030224D01*
X127593610Y-108038214D01*
X127612424Y-108057028D01*
X127646450Y-108119340D01*
X127641385Y-108190155D01*
X127598838Y-108246991D01*
X127566322Y-108264561D01*
X127443878Y-108309006D01*
X127302049Y-108401993D01*
X127185414Y-108525115D01*
X127100233Y-108671766D01*
X127051073Y-108834080D01*
X127050498Y-108840520D01*
X127050498Y-108840521D01*
X127041159Y-108945167D01*
X127039500Y-108963750D01*
X127039500Y-109476250D01*
X127059140Y-109644704D01*
X127061636Y-109651581D01*
X127061637Y-109651584D01*
X127100292Y-109758077D01*
X127117006Y-109804122D01*
X127209993Y-109945951D01*
X127333115Y-110062586D01*
X127479766Y-110147767D01*
X127642080Y-110196927D01*
X127648520Y-110197502D01*
X127648521Y-110197502D01*
X127768957Y-110208251D01*
X127768963Y-110208251D01*
X127771750Y-110208500D01*
X128209250Y-110208500D01*
X128332106Y-110194176D01*
X128370432Y-110189708D01*
X128370433Y-110189708D01*
X128377704Y-110188860D01*
X128384581Y-110186364D01*
X128384584Y-110186363D01*
X128530243Y-110133491D01*
X128537122Y-110130994D01*
X128649755Y-110057149D01*
X128672826Y-110042023D01*
X128672828Y-110042022D01*
X128678951Y-110038007D01*
X128683992Y-110032686D01*
X128688756Y-110027658D01*
X128750125Y-109991961D01*
X128821052Y-109995109D01*
X128866881Y-110022840D01*
X128903098Y-110057149D01*
X128914745Y-110065862D01*
X129048640Y-110143635D01*
X129061965Y-110149429D01*
X129210984Y-110194562D01*
X129223607Y-110197010D01*
X129248508Y-110199232D01*
X129314581Y-110225210D01*
X129356121Y-110282786D01*
X129362854Y-110322084D01*
X129362618Y-110324330D01*
X129363308Y-110330895D01*
X129381238Y-110501484D01*
X129382580Y-110514257D01*
X129384620Y-110520535D01*
X129384620Y-110520536D01*
X129410897Y-110601409D01*
X129441594Y-110695884D01*
X129444897Y-110701606D01*
X129444898Y-110701607D01*
X129454651Y-110718500D01*
X129537081Y-110861272D01*
X129541499Y-110866179D01*
X129541500Y-110866180D01*
X129651851Y-110988737D01*
X129664867Y-111003193D01*
X129670209Y-111007074D01*
X129670211Y-111007076D01*
X129798798Y-111100499D01*
X129819368Y-111115444D01*
X129825396Y-111118128D01*
X129825398Y-111118129D01*
X129987800Y-111190435D01*
X129993831Y-111193120D01*
X130087231Y-111212973D01*
X130174174Y-111231454D01*
X130174179Y-111231454D01*
X130180631Y-111232826D01*
X130371605Y-111232826D01*
X130378057Y-111231454D01*
X130378062Y-111231454D01*
X130465005Y-111212973D01*
X130558405Y-111193120D01*
X130564436Y-111190435D01*
X130726838Y-111118129D01*
X130726840Y-111118128D01*
X130732868Y-111115444D01*
X130753438Y-111100499D01*
X130882025Y-111007076D01*
X130882027Y-111007074D01*
X130887369Y-111003193D01*
X130900385Y-110988737D01*
X131010736Y-110866180D01*
X131010737Y-110866179D01*
X131015155Y-110861272D01*
X131097585Y-110718500D01*
X131107338Y-110701607D01*
X131107339Y-110701606D01*
X131110642Y-110695884D01*
X131150995Y-110571690D01*
X131191068Y-110513084D01*
X131244627Y-110487381D01*
X131335288Y-110468110D01*
X131414189Y-110432981D01*
X131503721Y-110393119D01*
X131503723Y-110393118D01*
X131509751Y-110390434D01*
X131591700Y-110330895D01*
X131658908Y-110282066D01*
X131658910Y-110282064D01*
X131664252Y-110278183D01*
X131709367Y-110228078D01*
X131769811Y-110190840D01*
X131840795Y-110192192D01*
X131899779Y-110231706D01*
X131928037Y-110296836D01*
X131929001Y-110312390D01*
X131929001Y-110411605D01*
X131928487Y-110422519D01*
X131926834Y-110429912D01*
X131927083Y-110437837D01*
X131927083Y-110437838D01*
X131928939Y-110496884D01*
X131929001Y-110500842D01*
X131929001Y-110529578D01*
X131929496Y-110533495D01*
X131929540Y-110533844D01*
X131930472Y-110545678D01*
X131931862Y-110589883D01*
X131934075Y-110597499D01*
X131934075Y-110597501D01*
X131937514Y-110609339D01*
X131941523Y-110628698D01*
X131944061Y-110648788D01*
X131946981Y-110656163D01*
X131960333Y-110689889D01*
X131964178Y-110701118D01*
X131968743Y-110716829D01*
X131976514Y-110743578D01*
X131980549Y-110750401D01*
X131986827Y-110761017D01*
X131995523Y-110778769D01*
X132002979Y-110797600D01*
X132007641Y-110804016D01*
X132028968Y-110833371D01*
X132035483Y-110843289D01*
X132057987Y-110881341D01*
X132058355Y-110881759D01*
X132072438Y-110895842D01*
X132085279Y-110910875D01*
X132097055Y-110927083D01*
X132103162Y-110932135D01*
X132130830Y-110955024D01*
X132139610Y-110963014D01*
X133594595Y-112417999D01*
X133628621Y-112480311D01*
X133631500Y-112507094D01*
X133631500Y-112766249D01*
X133651140Y-112934703D01*
X133653636Y-112941580D01*
X133653637Y-112941583D01*
X133692630Y-113049007D01*
X133709006Y-113094121D01*
X133801993Y-113235950D01*
X133925115Y-113352585D01*
X133931443Y-113356261D01*
X133935975Y-113359651D01*
X133978541Y-113416472D01*
X133986500Y-113460544D01*
X133986501Y-115564301D01*
X133966499Y-115632422D01*
X133925866Y-115672020D01*
X133821196Y-115735535D01*
X133821191Y-115735539D01*
X133816631Y-115738306D01*
X133812601Y-115741803D01*
X133686406Y-115851309D01*
X133642492Y-115889415D01*
X133639109Y-115893541D01*
X133639105Y-115893545D01*
X133604545Y-115935695D01*
X133496304Y-116067705D01*
X133493667Y-116072338D01*
X133493666Y-116072339D01*
X133460116Y-116131278D01*
X133409033Y-116180584D01*
X133339402Y-116194445D01*
X133273332Y-116168461D01*
X133246094Y-116139312D01*
X133240686Y-116131278D01*
X133145818Y-115990366D01*
X133145607Y-115990052D01*
X133145605Y-115990050D01*
X133142627Y-115985626D01*
X133080820Y-115920835D01*
X133047507Y-115885915D01*
X132983482Y-115818799D01*
X132798504Y-115681171D01*
X132793753Y-115678755D01*
X132793749Y-115678753D01*
X132597740Y-115579097D01*
X132597739Y-115579097D01*
X132592982Y-115576678D01*
X132471514Y-115538961D01*
X132377895Y-115509891D01*
X132377889Y-115509890D01*
X132372792Y-115508307D01*
X132263947Y-115493881D01*
X132149515Y-115478714D01*
X132149510Y-115478714D01*
X132144230Y-115478014D01*
X132138900Y-115478214D01*
X132138899Y-115478214D01*
X132029030Y-115482339D01*
X131913831Y-115486663D01*
X131849272Y-115500209D01*
X131693411Y-115532912D01*
X131693408Y-115532913D01*
X131688184Y-115534009D01*
X131473740Y-115618697D01*
X131276631Y-115738306D01*
X131272601Y-115741803D01*
X131146406Y-115851309D01*
X131102492Y-115889415D01*
X131099109Y-115893541D01*
X131099105Y-115893545D01*
X131064545Y-115935695D01*
X130956304Y-116067705D01*
X130953667Y-116072338D01*
X130953666Y-116072339D01*
X130920116Y-116131278D01*
X130869033Y-116180584D01*
X130799402Y-116194445D01*
X130733332Y-116168461D01*
X130706094Y-116139312D01*
X130700686Y-116131278D01*
X130605818Y-115990366D01*
X130605607Y-115990052D01*
X130605605Y-115990050D01*
X130602627Y-115985626D01*
X130540820Y-115920835D01*
X130507507Y-115885915D01*
X130443482Y-115818799D01*
X130258504Y-115681171D01*
X130253753Y-115678755D01*
X130253749Y-115678753D01*
X130057740Y-115579097D01*
X130057739Y-115579097D01*
X130052982Y-115576678D01*
X129931514Y-115538961D01*
X129837895Y-115509891D01*
X129837889Y-115509890D01*
X129832792Y-115508307D01*
X129723947Y-115493881D01*
X129609515Y-115478714D01*
X129609510Y-115478714D01*
X129604230Y-115478014D01*
X129598900Y-115478214D01*
X129598899Y-115478214D01*
X129489030Y-115482339D01*
X129373831Y-115486663D01*
X129309272Y-115500209D01*
X129153411Y-115532912D01*
X129153408Y-115532913D01*
X129148184Y-115534009D01*
X128933740Y-115618697D01*
X128736631Y-115738306D01*
X128732601Y-115741803D01*
X128606406Y-115851309D01*
X128562492Y-115889415D01*
X128559109Y-115893541D01*
X128559105Y-115893545D01*
X128524545Y-115935695D01*
X128416304Y-116067705D01*
X128413667Y-116072338D01*
X128413666Y-116072339D01*
X128380116Y-116131278D01*
X128329033Y-116180584D01*
X128259402Y-116194445D01*
X128193332Y-116168461D01*
X128166094Y-116139312D01*
X128160686Y-116131278D01*
X128065818Y-115990366D01*
X128065607Y-115990052D01*
X128065605Y-115990050D01*
X128062627Y-115985626D01*
X128000820Y-115920835D01*
X127967507Y-115885915D01*
X127903482Y-115818799D01*
X127718504Y-115681171D01*
X127713753Y-115678755D01*
X127713749Y-115678753D01*
X127517740Y-115579097D01*
X127517739Y-115579097D01*
X127512982Y-115576678D01*
X127391514Y-115538961D01*
X127297895Y-115509891D01*
X127297889Y-115509890D01*
X127292792Y-115508307D01*
X127183947Y-115493881D01*
X127069515Y-115478714D01*
X127069510Y-115478714D01*
X127064230Y-115478014D01*
X127058900Y-115478214D01*
X127058899Y-115478214D01*
X126949030Y-115482339D01*
X126833831Y-115486663D01*
X126769272Y-115500209D01*
X126613411Y-115532912D01*
X126613408Y-115532913D01*
X126608184Y-115534009D01*
X126393740Y-115618697D01*
X126196631Y-115738306D01*
X126192601Y-115741803D01*
X126066406Y-115851309D01*
X126022492Y-115889415D01*
X126019109Y-115893541D01*
X126019105Y-115893545D01*
X125984545Y-115935695D01*
X125876304Y-116067705D01*
X125873667Y-116072338D01*
X125873666Y-116072339D01*
X125840116Y-116131278D01*
X125789033Y-116180584D01*
X125719402Y-116194445D01*
X125653332Y-116168461D01*
X125626094Y-116139312D01*
X125620686Y-116131278D01*
X125525818Y-115990366D01*
X125525607Y-115990052D01*
X125525605Y-115990050D01*
X125522627Y-115985626D01*
X125460820Y-115920835D01*
X125427507Y-115885915D01*
X125363482Y-115818799D01*
X125178504Y-115681171D01*
X125173753Y-115678755D01*
X125173749Y-115678753D01*
X124977740Y-115579097D01*
X124977739Y-115579097D01*
X124972982Y-115576678D01*
X124851514Y-115538961D01*
X124757895Y-115509891D01*
X124757889Y-115509890D01*
X124752792Y-115508307D01*
X124643947Y-115493881D01*
X124529515Y-115478714D01*
X124529510Y-115478714D01*
X124524230Y-115478014D01*
X124518900Y-115478214D01*
X124518899Y-115478214D01*
X124409030Y-115482339D01*
X124293831Y-115486663D01*
X124229272Y-115500209D01*
X124073411Y-115532912D01*
X124073408Y-115532913D01*
X124068184Y-115534009D01*
X123853740Y-115618697D01*
X123656631Y-115738306D01*
X123652601Y-115741803D01*
X123526406Y-115851309D01*
X123482492Y-115889415D01*
X123479109Y-115893541D01*
X123479105Y-115893545D01*
X123444545Y-115935695D01*
X123336304Y-116067705D01*
X123333667Y-116072338D01*
X123333666Y-116072339D01*
X123300116Y-116131278D01*
X123249033Y-116180584D01*
X123179402Y-116194445D01*
X123113332Y-116168461D01*
X123086094Y-116139312D01*
X123080686Y-116131278D01*
X122985818Y-115990366D01*
X122985607Y-115990052D01*
X122985605Y-115990050D01*
X122982627Y-115985626D01*
X122920820Y-115920835D01*
X122887507Y-115885915D01*
X122823482Y-115818799D01*
X122638504Y-115681171D01*
X122633747Y-115678752D01*
X122633743Y-115678750D01*
X122622394Y-115672980D01*
X122570737Y-115624276D01*
X122553500Y-115560664D01*
X122553500Y-114726677D01*
X122573502Y-114658556D01*
X122610415Y-114621305D01*
X122618919Y-114615729D01*
X122645950Y-114598007D01*
X122762585Y-114474885D01*
X122847766Y-114328234D01*
X122877953Y-114228564D01*
X122916842Y-114169166D01*
X122981671Y-114140223D01*
X123051857Y-114150923D01*
X123105116Y-114197870D01*
X123116982Y-114222097D01*
X123165956Y-114357019D01*
X123172466Y-114370018D01*
X123257365Y-114499511D01*
X123266689Y-114510663D01*
X123379098Y-114617149D01*
X123390745Y-114625862D01*
X123524640Y-114703635D01*
X123537965Y-114709429D01*
X123686984Y-114754562D01*
X123699607Y-114757010D01*
X123810583Y-114766914D01*
X123822124Y-114763525D01*
X123823329Y-114762135D01*
X123825000Y-114754452D01*
X123825000Y-114749885D01*
X124332999Y-114749885D01*
X124337474Y-114765124D01*
X124338864Y-114766329D01*
X124342605Y-114767142D01*
X124496316Y-114749222D01*
X124510468Y-114745877D01*
X124656019Y-114693044D01*
X124669018Y-114686534D01*
X124798511Y-114601635D01*
X124809663Y-114592311D01*
X124916149Y-114479902D01*
X124924862Y-114468255D01*
X125002635Y-114334360D01*
X125008429Y-114321035D01*
X125053562Y-114172016D01*
X125056010Y-114159393D01*
X125062244Y-114089544D01*
X125059272Y-114074625D01*
X125047464Y-114071500D01*
X124351115Y-114071499D01*
X124335876Y-114075974D01*
X124334671Y-114077364D01*
X124333000Y-114085047D01*
X124332999Y-114749885D01*
X123825000Y-114749885D01*
X123825001Y-114071500D01*
X123825000Y-114071496D01*
X123825001Y-113689500D01*
X123845003Y-113621379D01*
X123898659Y-113574886D01*
X123951001Y-113563500D01*
X125044775Y-113563501D01*
X125058843Y-113559370D01*
X125060891Y-113546359D01*
X125048222Y-113437684D01*
X125044877Y-113423532D01*
X124992044Y-113277981D01*
X124985534Y-113264982D01*
X124900635Y-113135489D01*
X124891311Y-113124337D01*
X124886678Y-113119948D01*
X124850980Y-113058579D01*
X124854128Y-112987652D01*
X124881858Y-112941822D01*
X124921586Y-112899885D01*
X125006767Y-112753234D01*
X125055927Y-112590920D01*
X125056502Y-112584479D01*
X125067251Y-112464043D01*
X125067251Y-112464037D01*
X125067500Y-112461250D01*
X125067500Y-112023751D01*
X125049952Y-111873237D01*
X125048708Y-111862569D01*
X125048708Y-111862568D01*
X125047860Y-111855297D01*
X125045277Y-111848179D01*
X124992491Y-111702757D01*
X124989994Y-111695878D01*
X124897007Y-111554049D01*
X124773885Y-111437414D01*
X124627234Y-111352233D01*
X124464920Y-111303073D01*
X124458480Y-111302498D01*
X124458479Y-111302498D01*
X124338043Y-111291749D01*
X124338037Y-111291749D01*
X124335250Y-111291500D01*
X123868936Y-111291500D01*
X123800815Y-111271498D01*
X123754322Y-111217842D01*
X123749103Y-111204436D01*
X123719566Y-111113531D01*
X123717524Y-111107246D01*
X123682816Y-111047130D01*
X123626482Y-110949556D01*
X123609744Y-110880560D01*
X123629109Y-110819378D01*
X123633703Y-110813825D01*
X123657627Y-110762983D01*
X123661194Y-110755983D01*
X123688262Y-110706747D01*
X123690308Y-110698777D01*
X123698345Y-110676455D01*
X123698476Y-110676177D01*
X123701850Y-110669007D01*
X123702397Y-110666141D01*
X123731730Y-110618274D01*
X123744999Y-110605005D01*
X123807311Y-110570979D01*
X123834094Y-110568100D01*
X123946517Y-110568100D01*
X123957421Y-110568614D01*
X123964812Y-110570266D01*
X123972737Y-110570017D01*
X123972738Y-110570017D01*
X124031753Y-110568162D01*
X124035711Y-110568100D01*
X124064478Y-110568100D01*
X124068402Y-110567604D01*
X124068404Y-110567604D01*
X124068752Y-110567560D01*
X124080598Y-110566627D01*
X124124783Y-110565238D01*
X124144239Y-110559586D01*
X124163579Y-110555581D01*
X124183688Y-110553040D01*
X124191058Y-110550122D01*
X124191062Y-110550121D01*
X124224800Y-110536763D01*
X124236030Y-110532918D01*
X124270868Y-110522797D01*
X124270869Y-110522797D01*
X124278478Y-110520586D01*
X124295912Y-110510276D01*
X124313664Y-110501580D01*
X124325125Y-110497042D01*
X124325124Y-110497042D01*
X124332500Y-110494122D01*
X124367108Y-110468978D01*
X124368275Y-110468130D01*
X124378194Y-110461614D01*
X124378353Y-110461520D01*
X124416241Y-110439113D01*
X124416659Y-110438745D01*
X124430742Y-110424662D01*
X124445767Y-110411828D01*
X124461983Y-110400046D01*
X124489930Y-110366264D01*
X124497919Y-110357485D01*
X125510999Y-109344405D01*
X125573311Y-109310379D01*
X125600094Y-109307500D01*
X125859249Y-109307500D01*
X125982105Y-109293176D01*
X126020431Y-109288708D01*
X126020432Y-109288708D01*
X126027703Y-109287860D01*
X126034580Y-109285364D01*
X126034583Y-109285363D01*
X126180242Y-109232491D01*
X126187121Y-109229994D01*
X126328950Y-109137007D01*
X126445585Y-109013885D01*
X126530766Y-108867234D01*
X126563845Y-108758016D01*
X126578051Y-108711112D01*
X126578052Y-108711109D01*
X126579926Y-108704920D01*
X126591500Y-108575250D01*
X126591500Y-108137751D01*
X126574958Y-107995868D01*
X126572708Y-107976569D01*
X126572708Y-107976568D01*
X126571860Y-107969297D01*
X126568206Y-107959229D01*
X126516491Y-107816758D01*
X126513994Y-107809879D01*
X126421007Y-107668050D01*
X126411015Y-107658585D01*
X126375319Y-107597217D01*
X126378468Y-107526290D01*
X126406198Y-107480463D01*
X126445585Y-107438885D01*
X126530766Y-107292234D01*
X126565461Y-107177679D01*
X126578051Y-107136112D01*
X126578052Y-107136109D01*
X126579926Y-107129920D01*
X126589000Y-107028262D01*
X126591251Y-107003040D01*
X126591251Y-107003039D01*
X126591500Y-107000250D01*
X126591500Y-106694748D01*
X126611502Y-106626627D01*
X126628405Y-106605653D01*
X126891627Y-106342431D01*
X126953939Y-106308405D01*
X127024754Y-106313470D01*
G37*
G04 #@! TD.AperFunction*
G04 #@! TA.AperFunction,Conductor*
G36*
X117476001Y-113589501D02*
G01*
X117544121Y-113609503D01*
X117590614Y-113663159D01*
X117602000Y-113715501D01*
X117601999Y-114775885D01*
X117606474Y-114791124D01*
X117607864Y-114792329D01*
X117611605Y-114793142D01*
X117765318Y-114775222D01*
X117779465Y-114771878D01*
X117925021Y-114719043D01*
X117938016Y-114712535D01*
X118067510Y-114627635D01*
X118078662Y-114618311D01*
X118185148Y-114505902D01*
X118193861Y-114494255D01*
X118260725Y-114379141D01*
X118312236Y-114330283D01*
X118381984Y-114317029D01*
X118447826Y-114343589D01*
X118475051Y-114373342D01*
X118520781Y-114443091D01*
X118561993Y-114505950D01*
X118685115Y-114622585D01*
X118691443Y-114626261D01*
X118695975Y-114629651D01*
X118738541Y-114686472D01*
X118746500Y-114730544D01*
X118746501Y-115564301D01*
X118726499Y-115632422D01*
X118685866Y-115672020D01*
X118581196Y-115735535D01*
X118581191Y-115735539D01*
X118576631Y-115738306D01*
X118572601Y-115741803D01*
X118446406Y-115851309D01*
X118402492Y-115889415D01*
X118397339Y-115895700D01*
X118396364Y-115896365D01*
X118395390Y-115897366D01*
X118395186Y-115897168D01*
X118338681Y-115935695D01*
X118267710Y-115937628D01*
X118206961Y-115900885D01*
X118179008Y-115851309D01*
X118161557Y-115791878D01*
X118157096Y-115776684D01*
X118095713Y-115681171D01*
X118082949Y-115661309D01*
X118082947Y-115661306D01*
X118078077Y-115653729D01*
X118040343Y-115621032D01*
X117974431Y-115563918D01*
X117974428Y-115563916D01*
X117967619Y-115558016D01*
X117925895Y-115538961D01*
X117842864Y-115501042D01*
X117842863Y-115501042D01*
X117834670Y-115497300D01*
X117825755Y-115496018D01*
X117825754Y-115496018D01*
X117694448Y-115477139D01*
X117694441Y-115477138D01*
X117690000Y-115476500D01*
X117535962Y-115476500D01*
X117467841Y-115456498D01*
X117428198Y-115409813D01*
X117425986Y-115411121D01*
X117415677Y-115393689D01*
X117406980Y-115375936D01*
X117402442Y-115364475D01*
X117399522Y-115357100D01*
X117373531Y-115321326D01*
X117367016Y-115311407D01*
X117347551Y-115278495D01*
X117347548Y-115278491D01*
X117344513Y-115273359D01*
X117344144Y-115272941D01*
X117330065Y-115258862D01*
X117317224Y-115243828D01*
X117310106Y-115234031D01*
X117305446Y-115227617D01*
X117271664Y-115199670D01*
X117262886Y-115191681D01*
X117153605Y-115082400D01*
X117119579Y-115020088D01*
X117116700Y-114993305D01*
X117116700Y-113715500D01*
X117136702Y-113647379D01*
X117190358Y-113600886D01*
X117242701Y-113589500D01*
X117476001Y-113589501D01*
G37*
G04 #@! TD.AperFunction*
G04 #@! TA.AperFunction,Conductor*
G36*
X123225385Y-112896002D02*
G01*
X123253930Y-112921181D01*
X123256977Y-112924825D01*
X123260993Y-112930951D01*
X123266307Y-112935985D01*
X123266312Y-112935991D01*
X123271342Y-112940756D01*
X123307039Y-113002125D01*
X123303891Y-113073052D01*
X123276160Y-113118881D01*
X123241851Y-113155098D01*
X123233138Y-113166745D01*
X123155365Y-113300640D01*
X123149571Y-113313965D01*
X123121570Y-113406418D01*
X123082680Y-113465816D01*
X123017852Y-113494760D01*
X122947666Y-113484060D01*
X122894407Y-113437114D01*
X122882540Y-113412886D01*
X122833491Y-113277758D01*
X122830994Y-113270879D01*
X122738007Y-113129050D01*
X122728015Y-113119585D01*
X122692319Y-113058217D01*
X122695468Y-112987290D01*
X122723200Y-112941460D01*
X122727873Y-112936528D01*
X122737955Y-112925885D01*
X122747940Y-112915345D01*
X122809310Y-112879648D01*
X122839411Y-112876000D01*
X123157264Y-112876000D01*
X123225385Y-112896002D01*
G37*
G04 #@! TD.AperFunction*
G04 #@! TA.AperFunction,Conductor*
G36*
X118549349Y-112922002D02*
G01*
X118567877Y-112936524D01*
X118571984Y-112940415D01*
X118607680Y-113001783D01*
X118604532Y-113072709D01*
X118576802Y-113118537D01*
X118537415Y-113160115D01*
X118476504Y-113264982D01*
X118466692Y-113281875D01*
X118415182Y-113330734D01*
X118345433Y-113343988D01*
X118279591Y-113317429D01*
X118252366Y-113287675D01*
X118169635Y-113161490D01*
X118160307Y-113150333D01*
X118155677Y-113145947D01*
X118119979Y-113084578D01*
X118123127Y-113013651D01*
X118150859Y-112967820D01*
X118175940Y-112941345D01*
X118237310Y-112905648D01*
X118267411Y-112902000D01*
X118481228Y-112902000D01*
X118549349Y-112922002D01*
G37*
G04 #@! TD.AperFunction*
G04 #@! TA.AperFunction,Conductor*
G36*
X132690500Y-105156001D02*
G01*
X132758621Y-105176003D01*
X132805114Y-105229659D01*
X132816500Y-105282001D01*
X132816499Y-106375775D01*
X132820630Y-106389843D01*
X132833641Y-106391891D01*
X132942318Y-106379222D01*
X132956465Y-106375878D01*
X133102021Y-106323043D01*
X133115016Y-106316535D01*
X133244510Y-106231635D01*
X133255667Y-106222307D01*
X133260053Y-106217677D01*
X133321422Y-106181979D01*
X133392349Y-106185127D01*
X133438179Y-106212858D01*
X133448153Y-106222307D01*
X133464656Y-106237941D01*
X133500353Y-106299311D01*
X133504001Y-106329412D01*
X133504000Y-107028264D01*
X133483998Y-107096385D01*
X133458824Y-107124926D01*
X133455175Y-107127978D01*
X133449050Y-107131993D01*
X133439585Y-107141985D01*
X133378217Y-107177681D01*
X133307290Y-107174532D01*
X133261463Y-107146802D01*
X133219885Y-107107415D01*
X133139440Y-107060689D01*
X133079567Y-107025912D01*
X133079564Y-107025911D01*
X133073234Y-107022234D01*
X132910920Y-106973073D01*
X132904484Y-106972499D01*
X132904481Y-106972498D01*
X132784043Y-106961749D01*
X132784037Y-106961749D01*
X132781250Y-106961500D01*
X132343751Y-106961500D01*
X132220895Y-106975824D01*
X132182569Y-106980292D01*
X132182568Y-106980292D01*
X132175297Y-106981140D01*
X132168420Y-106983636D01*
X132168417Y-106983637D01*
X132039070Y-107030588D01*
X132015879Y-107039006D01*
X131928361Y-107096385D01*
X131881586Y-107127052D01*
X131813650Y-107147675D01*
X131745350Y-107128295D01*
X131698370Y-107075066D01*
X131686501Y-107021680D01*
X131686501Y-106337727D01*
X131706503Y-106269606D01*
X131760159Y-106223113D01*
X131830433Y-106213009D01*
X131893629Y-106243581D01*
X131894239Y-106242765D01*
X131898441Y-106245909D01*
X131899153Y-106246253D01*
X131900098Y-106247148D01*
X131911745Y-106255861D01*
X132045638Y-106333633D01*
X132058970Y-106339430D01*
X132207981Y-106384561D01*
X132220607Y-106387010D01*
X132290456Y-106393244D01*
X132305375Y-106390272D01*
X132308500Y-106378465D01*
X132308501Y-105282000D01*
X132328503Y-105213879D01*
X132382159Y-105167386D01*
X132434501Y-105156000D01*
X132690500Y-105156001D01*
G37*
G04 #@! TD.AperFunction*
G04 #@! TA.AperFunction,Conductor*
G36*
X131744752Y-96575435D02*
G01*
X131765616Y-96595027D01*
X131765619Y-96595029D01*
X131771399Y-96600457D01*
X131778344Y-96604275D01*
X131778347Y-96604277D01*
X131789152Y-96610217D01*
X131805679Y-96621073D01*
X131821676Y-96633482D01*
X131862255Y-96651043D01*
X131872887Y-96656251D01*
X131911652Y-96677562D01*
X131919329Y-96679533D01*
X131919334Y-96679535D01*
X131931266Y-96682598D01*
X131949974Y-96689003D01*
X131954313Y-96690880D01*
X131961292Y-96693901D01*
X131961296Y-96693902D01*
X131968563Y-96697047D01*
X131976387Y-96698286D01*
X131976390Y-96698287D01*
X131997201Y-96701583D01*
X132012237Y-96703964D01*
X132023845Y-96706368D01*
X132066675Y-96717365D01*
X132067231Y-96717400D01*
X132087153Y-96717400D01*
X132106862Y-96718951D01*
X132126644Y-96722084D01*
X132134536Y-96721338D01*
X132170282Y-96717959D01*
X132182140Y-96717400D01*
X132637705Y-96717400D01*
X132705826Y-96737402D01*
X132726801Y-96754305D01*
X132951621Y-96979126D01*
X132985646Y-97041438D01*
X132980581Y-97112254D01*
X132957750Y-97150733D01*
X132928762Y-97184187D01*
X132868046Y-97317136D01*
X132866764Y-97326051D01*
X132866764Y-97326052D01*
X132847885Y-97457358D01*
X132847884Y-97457365D01*
X132847246Y-97461806D01*
X132847246Y-98261806D01*
X132852473Y-98334885D01*
X132854377Y-98341368D01*
X132885672Y-98447950D01*
X132893650Y-98475122D01*
X132898521Y-98482701D01*
X132967797Y-98590497D01*
X132967799Y-98590500D01*
X132972669Y-98598077D01*
X132979479Y-98603978D01*
X133076315Y-98687888D01*
X133076318Y-98687890D01*
X133083127Y-98693790D01*
X133091326Y-98697534D01*
X133091327Y-98697535D01*
X133093580Y-98698564D01*
X133095453Y-98700187D01*
X133098906Y-98702406D01*
X133098587Y-98702902D01*
X133147236Y-98745056D01*
X133167239Y-98813176D01*
X133147238Y-98881297D01*
X133109360Y-98919176D01*
X133032055Y-98968857D01*
X133032052Y-98968859D01*
X133024475Y-98973729D01*
X133018574Y-98980539D01*
X132934664Y-99077375D01*
X132934662Y-99077378D01*
X132928762Y-99084187D01*
X132925018Y-99092385D01*
X132877129Y-99197248D01*
X132868046Y-99217136D01*
X132866764Y-99226051D01*
X132866764Y-99226052D01*
X132847885Y-99357358D01*
X132847884Y-99357365D01*
X132847246Y-99361806D01*
X132847246Y-99405166D01*
X132827244Y-99473287D01*
X132810341Y-99494261D01*
X132375007Y-99929595D01*
X132312695Y-99963621D01*
X132285912Y-99966500D01*
X131747510Y-99966500D01*
X131679389Y-99946498D01*
X131632896Y-99892842D01*
X131626614Y-99875999D01*
X131594180Y-99765540D01*
X131586767Y-99749308D01*
X131517574Y-99641640D01*
X131505888Y-99628153D01*
X131409160Y-99544338D01*
X131394152Y-99534693D01*
X131277725Y-99481523D01*
X131260612Y-99476498D01*
X131129446Y-99457639D01*
X131120505Y-99457000D01*
X130868115Y-99457000D01*
X130852876Y-99461475D01*
X130851671Y-99462865D01*
X130850000Y-99470548D01*
X130850000Y-99830500D01*
X130829998Y-99898621D01*
X130776342Y-99945114D01*
X130724000Y-99956500D01*
X130716000Y-99956500D01*
X130647879Y-99936498D01*
X130601386Y-99882842D01*
X130590000Y-99830500D01*
X130590000Y-99475115D01*
X130585525Y-99459876D01*
X130584135Y-99458671D01*
X130576452Y-99457000D01*
X130539500Y-99457000D01*
X130471379Y-99436998D01*
X130424886Y-99383342D01*
X130413500Y-99331000D01*
X130413500Y-99106112D01*
X130433502Y-99037991D01*
X130487158Y-98991498D01*
X130557432Y-98981394D01*
X130590750Y-98991006D01*
X130633497Y-99010039D01*
X130633505Y-99010042D01*
X130639532Y-99012725D01*
X130730801Y-99032125D01*
X130819875Y-99051059D01*
X130819880Y-99051059D01*
X130826332Y-99052431D01*
X131017306Y-99052431D01*
X131023758Y-99051059D01*
X131023763Y-99051059D01*
X131112837Y-99032125D01*
X131204106Y-99012725D01*
X131210139Y-99010039D01*
X131372539Y-98937734D01*
X131372541Y-98937733D01*
X131378569Y-98935049D01*
X131385517Y-98930001D01*
X131527726Y-98826681D01*
X131527728Y-98826679D01*
X131533070Y-98822798D01*
X131544201Y-98810436D01*
X131656437Y-98685785D01*
X131656438Y-98685784D01*
X131660856Y-98680877D01*
X131756343Y-98515489D01*
X131815357Y-98333862D01*
X131835319Y-98143935D01*
X131825113Y-98046827D01*
X131816047Y-97960572D01*
X131816047Y-97960571D01*
X131815357Y-97954008D01*
X131811659Y-97942625D01*
X131758385Y-97778666D01*
X131756343Y-97772381D01*
X131750215Y-97761766D01*
X131664157Y-97612711D01*
X131660856Y-97606993D01*
X131573730Y-97510229D01*
X131533070Y-97465072D01*
X131534796Y-97463517D01*
X131503148Y-97412132D01*
X131504113Y-97342434D01*
X131510378Y-97321749D01*
X131520927Y-97286920D01*
X131523586Y-97257136D01*
X131532251Y-97160043D01*
X131532251Y-97160037D01*
X131532500Y-97157250D01*
X131532500Y-96667285D01*
X131552502Y-96599164D01*
X131606158Y-96552671D01*
X131676432Y-96542567D01*
X131744752Y-96575435D01*
G37*
G04 #@! TD.AperFunction*
M02*
